<svg width="32" height="32" viewBox="0 0 32 32" fill="none" xmlns="http://www.w3.org/2000/svg">
<g id="Icon">
<path id="Vector" d="M9.59999 1.59992H6.39999V4.79992H9.59999V1.59992Z" fill="#FAFAFA"/>
<path id="Vector_2" d="M12.7999 1.59992H9.59995V4.79992H12.7999V1.59992Z" fill="#FAFAFA"/>
<path id="Vector_3" d="M16 1.59992H12.8V4.79992H16V1.59992Z" fill="#FAFAFA"/>
<path id="Vector_4" d="M19.2 1.59992H16V4.79992H19.2V1.59992Z" fill="#FAFAFA"/>
<path id="Vector_5" d="M22.4 1.59992H19.2V4.79992H22.4V1.59992Z" fill="#FAFAFA"/>
<path id="Vector_6" d="M25.6 1.59992H22.4V4.79992H25.6V1.59992Z" fill="#FAFAFA"/>
<path id="Vector_7" d="M6.40003 4.80002H3.20003V8.00002H6.40003V4.80002Z" fill="#FAFAFA"/>
<path id="Vector_8" d="M28.7999 4.80002H25.5999V8.00002H28.7999V4.80002Z" fill="#FAFAFA"/>
<path id="Vector_9" d="M3.20014 7.99997H0.000137766V11.2H3.20014V7.99997Z" fill="#FAFAFA"/>
<path id="Vector_10" d="M12.7999 7.99997H9.59995V11.2H12.7999V7.99997Z" fill="#FF5757"/>
<path id="Vector_11" d="M22.4 7.99997H19.2V11.2H22.4V7.99997Z" fill="#FF5757"/>
<path id="Vector_12" d="M32 7.99997H28.8V11.2H32V7.99997Z" fill="#FAFAFA"/>
<path id="Vector_13" d="M3.20014 11.2001H0.000137766V14.4001H3.20014V11.2001Z" fill="#FAFAFA"/>
<path id="Vector_14" d="M32 11.2001H28.8V14.4001H32V11.2001Z" fill="#FAFAFA"/>
<path id="Vector_15" d="M6.40003 14.4H3.20003V17.6H6.40003V14.4Z" fill="#FAFAFA"/>
<path id="Vector_16" d="M16 14.4H12.8V17.6H16V14.4Z" fill="#FF5757"/>
<path id="Vector_17" d="M28.7999 14.4H25.5999V17.6H28.7999V14.4Z" fill="#FAFAFA"/>
<path id="Vector_18" d="M6.40003 17.6H3.20003V20.8H6.40003V17.6Z" fill="#FAFAFA"/>
<path id="Vector_19" d="M28.7999 17.6H25.5999V20.8H28.7999V17.6Z" fill="#FAFAFA"/>
<path id="Vector_20" d="M9.59999 20.7999H6.39999V23.9999H9.59999V20.7999Z" fill="#FAFAFA"/>
<path id="Vector_21" d="M16 20.7999H12.8V23.9999H16V20.7999Z" fill="#FF5757"/>
<path id="Vector_22" d="M25.6 20.7999H22.4V23.9999H25.6V20.7999Z" fill="#FAFAFA"/>
<path id="Vector_23" d="M12.7999 23.9999H9.59995V27.1999H12.7999V23.9999Z" fill="#FAFAFA"/>
<path id="Vector_24" d="M22.4 23.9999H19.2V27.1999H22.4V23.9999Z" fill="#FAFAFA"/>
<path id="Vector_25" d="M16 27.2H12.8V30.4H16V27.2Z" fill="#FAFAFA"/>
<path id="Vector_26" d="M19.2 27.2H16V30.4H19.2V27.2Z" fill="#FAFAFA"/>
</g>
</svg>
