<svg width="562" height="408" viewBox="0 0 562 408" fill="none" xmlns="http://www.w3.org/2000/svg">
<g clip-path="url(#clip0_3783_3895)">
<path d="M173.017 1.04225L173.018 1.04212C176.992 -0.329177 180.683 1.00839 183.491 3.8743C186.309 6.75116 188.203 11.1459 188.494 15.7531L188.494 15.7538C188.635 17.9426 189.091 19.3638 189.933 20.0905C190.829 20.8647 191.973 20.713 193.057 20.2761C194.151 19.8351 195.369 19.0328 196.583 18.2129C196.699 18.1347 196.814 18.0563 196.93 17.9778C198.05 17.2196 199.174 16.4582 200.266 15.8906L200.267 15.8901C200.703 15.6619 201.143 15.4212 201.591 15.1768C202.519 14.67 203.475 14.1477 204.477 13.69C205.95 13.017 207.454 12.519 208.961 12.4676C210.453 12.4168 211.97 12.8028 213.489 13.939C215.019 15.0833 216.572 17.0054 218.086 20.0624C221.108 26.1626 220.6 30.0139 219.196 32.4146C217.772 34.8508 215.345 35.9408 214.247 36.3355C213.352 36.6545 212.663 36.9817 212.168 37.3329C211.674 37.6835 211.327 38.0921 211.21 38.5844C211.092 39.0836 211.236 39.559 211.488 39.9836C211.738 40.4036 212.12 40.8198 212.565 41.2349C213.147 41.7774 213.901 42.3736 214.715 43.0184C215.135 43.3506 215.571 43.6957 216.008 44.053C217.316 45.1212 218.684 46.3351 219.846 47.7568C221.904 50.2827 221.693 53.911 219.738 57.1495C217.791 60.3765 214.162 63.1052 209.616 63.7282C201.509 64.8392 196.007 58.8228 193.994 56.6213C193.744 56.3485 193.548 56.1343 193.407 55.9995C193.162 55.764 192.841 55.6379 192.478 55.7249C192.17 55.7986 191.906 56.0107 191.681 56.2379C191.226 56.699 190.681 57.4952 189.994 58.5099C189.939 58.5909 189.883 58.6736 189.826 58.7579C188.431 60.8219 186.352 63.898 183.004 67.678C179.504 71.6302 176.528 73.6241 173.891 73.6806C171.309 73.7358 168.812 71.9229 166.27 67.5742C163.755 63.2699 163.829 60.701 164.634 58.8159C165.048 57.8451 165.672 57.0172 166.338 56.1881C166.421 56.085 166.505 55.9814 166.59 55.8773C167.168 55.1627 167.767 54.4237 168.199 53.6178C168.447 53.1552 168.608 52.5812 168.225 52.1339C168.055 51.935 167.824 51.8282 167.605 51.768C167.384 51.707 167.133 51.6819 166.87 51.6772C165.876 51.6595 164.355 51.9378 162.679 52.2446L162.53 52.2719C160.764 52.595 158.782 52.9534 156.875 53.0983C154.96 53.2437 153.178 53.1683 151.793 52.6629C148.451 51.4161 144.14 49.3686 141.916 46.1917C140.818 44.6238 140.231 42.7841 140.518 40.6057C140.807 38.4137 141.988 35.829 144.528 32.8014C149.433 26.9656 155.785 25.2422 161.941 25.7555C162.581 25.8097 163.101 25.8087 163.502 25.7282C163.907 25.6471 164.28 25.465 164.475 25.0842C164.656 24.7303 164.614 24.3299 164.529 23.9845C164.441 23.6265 164.277 23.216 164.086 22.7751C164.007 22.591 163.921 22.397 163.831 22.1931C163.045 20.42 161.925 17.8916 161.803 14.4806C161.664 10.6043 162.162 8.09994 163.77 6.15169C165.399 4.17704 168.236 2.68819 173.017 1.04225Z" fill="#FBB040" stroke="#231F20"/>
<path d="M73.1366 325.418C54.806 323.869 47.8264 300.291 54.0126 280.812C59.7347 262.837 44.1256 270.865 32.7011 271.716C20.5581 272.622 2.80185 276.958 0.694264 246.676C-1.41332 216.394 16.8441 215.851 21.8017 216.22C37.21 217.307 23.5467 205.701 18.9653 189.75C14.6657 174.809 33.2215 159.642 52.2543 165.306C71.2872 170.971 76.5979 192.331 77.9875 195.612C79.377 198.892 86.0085 190.457 105.574 180.674C125.14 170.89 136.053 174.292 139.034 196.421C142.015 218.55 130.397 218.396 124.092 223.761C117.788 229.126 145.158 228.857 154.735 238.37C165.631 249.196 182.291 270.766 152.943 286.399C138.65 294.016 124.788 291.84 113.131 285.274C103.864 280.036 111.622 291.525 106.035 307.474C100.447 323.424 94.0357 327.178 73.1366 325.418Z" fill="#FF85A5" stroke="#231F20" stroke-miterlimit="10"/>
<path d="M11.5962 259.543C2.87186 249.683 3.5742 219.624 26.1702 222.228C49.6986 224.935 56.3987 229.185 40.823 215.968C25.2472 202.751 18.0904 180.821 31.6685 177.089C45.2467 173.357 61.5174 165.543 70.9305 189.466C80.3436 213.389 71.1789 209.613 85.704 198.885C100.229 188.157 118.241 178.255 127.274 186.929C136.307 195.602 134.385 209.661 123.537 218.098C112.689 226.535 94.4087 231.076 122.884 232.391C151.359 233.706 166.809 262.284 157.901 272.265C148.994 282.246 132.556 290.271 118.977 279.985C105.398 269.698 90.6413 250.962 98.4691 281.959C106.297 312.956 84.7659 327.412 67.684 314.311C50.6021 301.21 59.0045 279.394 60.768 272.43C62.5315 265.465 66.3791 256.051 45.7307 262.357C25.0824 268.664 16.3656 264.944 11.5962 259.543Z" fill="#FF5757" stroke="#231F20" stroke-miterlimit="10"/>
<path d="M18.7407 246.528C25.0066 271.616 56.9598 246.11 66.9582 252.434C76.9566 258.759 74.4232 262.942 68.5568 285.259C62.6904 307.576 81.2921 312.213 87.1588 306.662C93.8475 300.356 98.0652 292.755 90.3136 272.239C82.5619 251.723 95.8511 250.064 105.213 258.596C114.574 267.127 135.426 274.385 142.828 266.997C150.23 259.609 141.86 241.308 125.334 238.88C108.808 236.453 81.0831 240.658 103.305 223.174C125.527 205.689 119.513 190.291 98.421 198.346C77.3287 206.401 76.1418 235.319 71.7998 214.561C67.4578 193.802 66.7483 178.109 45.2746 182.433C23.8009 186.757 47.5378 216.823 58.4652 222.619C69.3926 228.414 62.6977 237.453 43.9268 230.526C25.1559 223.599 16.8446 238.934 18.7407 246.528Z" fill="#FBB040" stroke="#231F20" stroke-miterlimit="10"/>
<path d="M70.241 242.444C67.0503 228.704 86.0841 220.452 88.9597 234.62C91.8352 248.789 87.6699 253.147 80.5007 252.065C73.3314 250.983 70.241 242.444 70.241 242.444Z" fill="#FAFAFA"/>
<path d="M388.693 103.5C394.193 119.5 395.193 192 395.193 196.5C395.193 196.639 395.193 196.848 395.194 197.125L395.194 197.158C395.215 206.028 395.389 281.188 386.193 302C382.068 311.336 377.66 317.372 372.847 321.5C378.903 319.607 385.091 316.554 391.193 312.669C394.138 310.794 397.062 308.725 399.943 306.5C399.546 306.561 399.593 306.54 400.002 306.454C426.262 286.142 448.819 252.816 449.193 234.5C449.693 210 442.693 160 417.193 120.5C396.793 88.9 367.026 72.6667 354.693 68.5001C374.693 77.0001 383.193 87.5 388.693 103.5Z" fill="#47627F"/>
<path fill-rule="evenodd" clip-rule="evenodd" d="M119.193 206.5C119.193 192.1 123.193 130.167 125.193 101C126.004 89.0001 136.193 71.0001 156.193 66.5001C176.193 62.0001 243.193 61 257.193 61.5001C259.595 61.5859 263.572 61.6481 268.593 61.7267C292.839 62.1061 341.438 62.8667 354.693 68.5001C374.693 77.0001 383.193 87.5 388.693 103.5C394.193 119.5 395.193 192 395.193 196.5C395.193 196.639 395.193 196.848 395.194 197.125L395.194 197.158C395.215 206.028 395.389 281.188 386.193 302C382.068 311.336 377.66 317.372 372.847 321.5C366.575 326.879 359.614 329.02 351.693 331C338.842 334.213 274.589 334.055 255.237 334.008C253.507 334.003 252.136 334 251.193 334C250.232 334 248.866 334.004 247.162 334.008C228.466 334.056 169.023 334.208 156.193 331C142.193 327.5 128.693 313 125.193 302C121.693 291 119.193 224.5 119.193 206.5ZM399.943 306.5C399.546 306.561 399.593 306.54 400.002 306.454C402.942 305.838 424.597 301.878 434.693 301C446.193 300 479.193 301 489.693 313C494.649 318.665 498.693 328 494.193 337C489.693 346 482.193 349 471.693 348C465.989 347.457 457.04 344.848 449.253 342.578C442.704 340.669 436.977 339 434.693 339C429.693 339 423.693 341 421.193 344.472C423.69 345.574 426.891 347.178 429.663 350C433.55 353.955 436.596 360.3 435.689 371C435.581 372.271 435.417 373.603 435.193 375C432.104 394.221 412.521 405.431 395.693 406.851C388.007 407.499 380.896 406.106 376.193 402.5C361.193 391 362.193 377 376.193 357.5C376.981 356.402 377.817 355.377 378.693 354.42C390.262 341.785 408.826 341.106 417.193 342.5C421.193 336.5 427.693 334.5 435.193 335C437.819 335.175 442.344 336.392 447.632 337.814C457.449 340.453 469.894 343.8 477.693 342.5C489.693 340.5 496.193 324.5 484.693 315.5C473.193 306.5 450.193 306 437.693 306.5C425.193 307 399.693 310.279 391.193 312.669C394.138 310.794 397.062 308.725 399.943 306.5Z" fill="#77A4D4"/>
<path d="M435.689 371C435.581 372.271 435.417 373.603 435.193 375C432.104 394.221 412.521 405.431 395.693 406.851C426.693 408 436.693 396 442.193 386C447.693 376 443.693 354.996 429.663 350C433.55 353.955 436.596 360.3 435.689 371Z" fill="#47627F"/>
<path d="M354.693 68.5001C374.693 77.0001 383.193 87.5 388.693 103.5C394.193 119.5 395.193 192 395.193 196.5C395.193 196.639 395.193 196.848 395.194 197.125M354.693 68.5001C367.026 72.6667 396.793 88.9 417.193 120.5C442.693 160 449.693 210 449.193 234.5C448.819 252.816 426.262 286.142 400.002 306.454M354.693 68.5001C341.438 62.8667 292.839 62.1061 268.593 61.7267C263.572 61.6481 259.595 61.5859 257.193 61.5001C243.193 61 176.193 62.0001 156.193 66.5001C136.193 71.0001 126.004 89.0001 125.193 101C123.193 130.167 119.193 192.1 119.193 206.5C119.193 224.5 121.693 291 125.193 302C128.693 313 142.193 327.5 156.193 331C169.023 334.208 228.466 334.056 247.162 334.008C248.866 334.004 250.232 334 251.193 334C252.136 334 253.507 334.003 255.237 334.008C274.589 334.055 338.842 334.213 351.693 331C359.614 329.02 366.575 326.879 372.847 321.5M372.847 321.5C377.66 317.372 382.068 311.336 386.193 302C395.389 281.188 395.215 206.028 395.194 197.158M372.847 321.5C378.903 319.607 385.091 316.554 391.193 312.669M391.193 312.669C399.693 310.279 425.193 307 437.693 306.5C450.193 306 473.193 306.5 484.693 315.5C496.193 324.5 489.693 340.5 477.693 342.5C469.894 343.8 457.449 340.453 447.632 337.814C442.344 336.392 437.819 335.175 435.193 335C427.693 334.5 421.193 336.5 417.193 342.5M391.193 312.669C394.138 310.794 397.062 308.725 399.943 306.5M417.193 342.5C408.826 341.106 390.262 341.785 378.693 354.42M417.193 342.5C411.593 345.3 406.526 351.997 404.693 354.996M417.193 342.5C417.769 343.076 419.273 343.625 421.193 344.472M378.693 354.42C377.817 355.377 376.981 356.402 376.193 357.5C362.193 377 361.193 391 376.193 402.5C380.896 406.106 388.007 407.499 395.693 406.851M378.693 354.42C384.431 353.352 394.154 352.897 404.693 354.996M435.689 371C435.581 372.271 435.417 373.603 435.193 375C432.104 394.221 412.521 405.431 395.693 406.851M435.689 371C426.67 361.783 415.271 357.103 404.693 354.996M435.689 371C436.596 360.3 433.55 353.955 429.663 350M395.693 406.851C426.693 408 436.693 396 442.193 386C447.693 376 443.693 354.996 429.663 350M429.663 350C426.891 347.178 423.69 345.574 421.193 344.472M421.193 344.472C423.693 341 429.693 339 434.693 339C436.977 339 442.704 340.669 449.253 342.578C457.04 344.848 465.989 347.457 471.693 348C482.193 349 489.693 346 494.193 337C498.693 328 494.649 318.665 489.693 313C479.193 301 446.193 300 434.693 301C424.597 301.878 402.942 305.838 400.002 306.454M399.943 306.5C399.546 306.561 399.593 306.54 400.002 306.454M399.943 306.5C399.963 306.485 399.982 306.47 400.002 306.454M395.194 197.158L395.194 197.125M395.194 197.158C395.194 197.147 395.194 197.136 395.194 197.125" stroke="#231F20"/>
<path d="M431.193 274.5C432.693 277.667 437.893 283.9 446.693 283.5C457.693 283 461.693 273 459.693 267C457.693 261 450.193 261 450.193 268.5C450.193 276 462.193 287 470.693 285C479.193 283 487.193 273.5 484.193 264.5C481.193 255.5 472.193 258 474.193 267C476.193 276 493.693 279 501.193 272.5C508.693 266 507.693 253 503.193 247C498.693 241 489.693 246 493.193 253C496.693 260 514.193 260 519.693 250.5C525.193 241 521.193 232 517.193 228C513.193 224 503.693 225.5 506.693 233.5C509.693 241.5 523.193 242 529.193 236.5C535.193 231 532.693 224 534.693 210" stroke="#231F20" stroke-linecap="round"/>
<path d="M559.242 178.571C557.8 176.041 537.692 171.827 529.571 170.895C525.686 171.844 521.357 187.829 524.497 190.15C527.638 192.47 533.337 192.622 533.693 194.079C534.049 195.536 531.965 199.648 532.192 202.681C532.419 205.714 538.959 207.204 540.308 204.301C541.658 201.397 541.809 195.699 543.752 195.224C545.695 194.749 548.965 195.494 553.088 195.516C557.211 195.538 561.044 181.733 559.242 178.571Z" fill="#77A4D4"/>
<path d="M539.926 166.82C539.073 167.543 538.469 167.176 538.231 166.205C537.994 165.233 540.606 157.525 541.071 156.761C541.438 156.157 542.409 155.919 542.646 156.891C542.884 157.862 540.778 166.097 539.926 166.82Z" fill="#77A4D4"/>
<path d="M554.097 170.048C553.244 170.772 552.64 170.404 552.403 169.433C552.165 168.462 554.778 160.754 555.242 159.989C555.609 159.385 556.58 159.147 556.818 160.119C557.055 161.09 554.95 169.325 554.097 170.048Z" fill="#77A4D4"/>
<path d="M559.242 178.571C557.8 176.041 537.692 171.827 529.571 170.895C525.686 171.844 521.357 187.829 524.497 190.15C527.638 192.47 533.337 192.622 533.693 194.079C534.049 195.536 531.965 199.648 532.192 202.681C532.419 205.714 538.959 207.204 540.308 204.301C541.658 201.397 541.809 195.699 543.752 195.224C545.695 194.749 548.965 195.494 553.088 195.516C557.211 195.538 561.044 181.733 559.242 178.571Z" stroke="#231F20"/>
<path d="M539.926 166.82C539.073 167.543 538.469 167.176 538.231 166.205C537.994 165.233 540.606 157.525 541.071 156.761C541.438 156.157 542.409 155.919 542.646 156.891C542.884 157.862 540.778 166.097 539.926 166.82Z" stroke="#231F20"/>
<path d="M554.097 170.048C553.244 170.772 552.64 170.404 552.403 169.433C552.165 168.462 554.778 160.754 555.242 159.989C555.609 159.385 556.58 159.147 556.818 160.119C557.055 161.09 554.95 169.325 554.097 170.048Z" stroke="#231F20"/>
<path d="M140.193 199.501C140.193 188.04 143.541 138.746 145.215 115.532C145.893 105.981 154.421 91.6544 171.16 88.0728C187.899 84.4912 243.974 83.6952 255.691 84.0931C267.408 84.4911 323.902 84.2523 337.293 89.6645C354.032 96.4298 361.146 104.787 365.749 117.522C370.352 130.256 371.189 187.96 371.189 191.542C371.189 195.124 371.608 258.399 363.657 275.511C355.706 292.623 346.499 295.807 334.782 298.593C323.065 301.378 260.294 300.98 250.669 300.98C241.044 300.98 182.877 301.378 171.16 298.593C159.443 295.807 148.144 284.266 145.215 275.511C142.285 266.756 140.193 213.828 140.193 199.501Z" fill="#FF5757" stroke="#231F20"/>
<circle cx="350.193" cy="313" r="5" fill="#47627F"/>
<rect x="325.193" y="313" width="12" height="3" rx="1" fill="#47627F"/>
<rect x="307.193" y="313" width="12" height="3" rx="1" fill="#47627F"/>
<path d="M358.562 264.949C363.745 254.926 378.637 256.511 388.12 264.6C396.869 272.075 396.03 261.341 398.22 254.672C400.562 247.565 402.311 236.496 419.798 242.43C437.285 248.364 433.32 258.825 431.957 261.563C427.721 270.027 437.462 265.025 447.487 266.172C456.899 267.25 461.053 281.337 453.396 290.783C445.738 300.23 432.481 298.207 430.29 298.207C428.1 298.207 431.3 303.97 432.184 317.372C433.068 330.775 428.598 336.138 415.467 332.626C402.336 329.114 405.152 322.558 403.624 317.727C402.096 312.896 395.809 328.467 388.233 331.656C379.591 335.282 363.549 339.644 361.675 319.344C360.759 309.454 365.241 302.106 371.681 297.053C376.8 293.034 368.524 294.727 360.866 287.816C353.209 280.906 352.634 276.373 358.562 264.949Z" fill="#FF85A5" stroke="#231F20" stroke-miterlimit="10"/>
<path d="M410.025 245.575C417.601 242.95 434.337 250.425 427.55 262.616C420.486 275.295 416.534 278.104 427.62 272.392C438.705 266.68 452.714 267.776 451.609 276.348C450.504 284.919 451.066 296.001 435.416 295.684C419.766 295.367 424.053 291.069 426.66 301.834C429.267 312.599 430.599 325.126 423.598 328.201C416.597 331.275 409.161 326.882 406.97 318.754C404.779 310.627 406.534 299.196 399.091 315.02C391.648 330.844 371.946 332.867 368.461 325.481C364.976 318.095 364.307 306.886 373.278 301.612C382.248 296.337 396.251 292.387 376.996 289.528C357.742 286.669 354.686 271.073 366.056 264.48C377.425 257.886 387.715 267.776 391.219 270.414C394.723 273.051 399.091 277.445 400.405 264.258C401.718 251.071 405.865 247.014 410.025 245.575Z" fill="#FF5757" stroke="#231F20" stroke-miterlimit="10"/>
<path d="M415.657 252.681C400.108 250.317 406.901 274.439 400.998 278.611C395.095 282.782 393.334 280.367 382.179 271.802C371.024 263.237 364.042 272.671 365.765 277.292C367.735 282.567 371.018 286.738 384.363 287.182C397.709 287.626 395.525 295.532 388.524 298.828C381.523 302.125 372.552 312.231 374.976 318.165C377.4 324.099 389.635 323.655 394.887 314.868C400.139 306.081 404.293 289.376 408.889 306.075C413.485 322.774 423.548 322.996 423.99 309.156C424.432 295.316 408.435 287.842 421.124 290.257C433.813 292.672 442.784 295.963 445.41 282.789C448.036 269.615 425.555 275.974 419.729 280.811C413.902 285.648 410.404 279.708 418.719 270.667C427.033 261.627 420.366 253.398 415.657 252.681Z" fill="#FBB040" stroke="#231F20" stroke-miterlimit="10"/>
<path d="M405.739 283.169C413.58 284.507 413.706 296.54 405.739 294.936C397.772 293.332 396.421 290.124 398.549 286.517C400.676 282.909 405.739 283.169 405.739 283.169Z" fill="#FAFAFA"/>
<path d="M412.518 143.851L412.518 143.85C411.263 140.8 412.222 137.736 414.507 135.233C416.798 132.723 420.385 130.834 424.209 130.224C426.034 129.936 427.221 129.452 427.812 128.697C428.453 127.878 428.277 126.92 427.864 126.055C427.452 125.191 426.731 124.26 426.008 123.348C425.937 123.259 425.867 123.17 425.796 123.081C425.125 122.238 424.459 121.399 423.954 120.574C423.746 120.233 423.528 119.892 423.308 119.547C422.858 118.841 422.397 118.118 421.985 117.35C421.379 116.218 420.921 115.058 420.828 113.864C420.648 111.551 421.83 108.872 426.8 105.935C431.766 103.001 434.969 103.118 436.982 104.044C439.026 104.984 440.005 106.83 440.365 107.675L440.365 107.675C440.666 108.379 440.969 108.923 441.291 109.309C441.614 109.696 441.991 109.964 442.436 110.024C442.882 110.083 443.287 109.919 443.636 109.678C443.983 109.438 444.319 109.092 444.651 108.696C445.082 108.182 445.553 107.523 446.061 106.812C446.324 106.444 446.597 106.063 446.88 105.68C447.723 104.537 448.685 103.335 449.828 102.283L449.828 102.283C451.844 100.426 454.846 100.31 457.58 101.618C460.305 102.923 462.674 105.612 463.337 109.203C464 112.794 462.791 115.926 461.272 118.318C460.082 120.192 458.75 121.55 457.976 122.34C457.752 122.568 457.575 122.749 457.461 122.881C457.267 123.106 457.152 123.404 457.25 123.74C457.333 124.02 457.543 124.238 457.745 124.405C458.155 124.747 458.85 125.131 459.715 125.603C459.788 125.642 459.861 125.683 459.937 125.724C461.705 126.687 464.331 128.119 467.583 130.515C470.994 133.026 472.711 135.248 472.843 137.324C472.972 139.361 471.578 141.515 468.039 143.925C464.544 146.305 462.42 146.439 460.859 145.95C460.052 145.697 459.354 145.266 458.646 144.794C458.555 144.734 458.464 144.672 458.372 144.61C457.764 144.202 457.126 143.772 456.439 143.484C456.029 143.312 455.513 143.22 455.132 143.591C454.964 143.755 454.879 143.964 454.835 144.156C454.79 144.35 454.778 144.565 454.784 144.783C454.804 145.601 455.088 146.818 455.396 148.14L455.427 148.273C455.754 149.678 456.116 151.245 456.298 152.766C456.482 154.293 456.476 155.717 456.108 156.848L456.108 156.849C455.205 159.648 453.649 163.29 451.084 165.336C449.819 166.347 448.314 166.964 446.505 166.907C444.686 166.849 442.509 166.108 439.915 164.302L439.915 164.301C434.929 160.842 433.288 155.866 433.488 150.858C433.511 150.335 433.493 149.901 433.408 149.566C433.322 149.226 433.14 148.894 432.768 148.748C432.436 148.617 432.082 148.693 431.799 148.789C431.5 148.891 431.161 149.059 430.8 149.248C430.651 149.326 430.494 149.41 430.33 149.499C428.88 150.277 426.818 151.384 423.982 151.755C420.748 152.177 418.676 151.976 417.035 150.86C415.37 149.728 414.05 147.591 412.518 143.851Z" fill="#FF5757" stroke="#231F20"/>
<path d="M171.07 198.4C164.819 196.131 193.926 147.406 196.615 144.722C199.304 142.039 208.043 147.406 208.043 151.432C208.043 155.458 183.787 189.006 187.876 189.006C193.926 189.006 199.304 189.677 199.304 187.664V180.955C199.304 177.6 212.076 177.6 212.076 181.626C212.076 185.651 211.538 184.98 212.076 187.664C212.614 190.348 224.848 184.981 225.521 189.006C226.193 193.032 226.193 194.374 226.193 198.4C226.193 202.426 210.059 197.729 210.059 201.084C210.059 204.439 210.059 231.949 209.387 237.987C209.088 240.671 196.615 240.671 196.615 237.987C195.27 232.62 197.287 205.78 197.287 201.755C197.287 197.729 178.465 201.084 171.07 198.4Z" fill="#F7EFE9" stroke="#231F20"/>
<path d="M286.07 198.4C279.819 196.131 308.926 147.406 311.615 144.722C314.304 142.039 323.043 147.406 323.043 151.432C323.043 155.458 298.787 189.006 302.876 189.006C308.926 189.006 314.304 189.677 314.304 187.664V180.955C314.304 177.6 327.076 177.6 327.076 181.626C327.076 185.651 326.538 184.98 327.076 187.664C327.614 190.348 339.848 184.981 340.521 189.006C341.193 193.032 341.193 194.374 341.193 198.4C341.193 202.426 325.059 197.729 325.059 201.084C325.059 204.439 325.059 231.949 324.387 237.987C324.088 240.671 311.615 240.671 311.615 237.987C310.27 232.62 312.287 205.78 312.287 201.755C312.287 197.729 293.465 201.084 286.07 198.4Z" fill="#F7EFE9" stroke="#231F20"/>
<path d="M254.952 144.009C244.722 143.6 237.689 157.786 236.41 165.44C235.132 173.094 234.492 181.258 234.492 190.953C234.492 200.648 235.132 208.302 236.41 219.528C237.689 230.754 244.083 240.449 257.51 240.449C270.937 240.449 274.651 227.182 275.413 221.059C276.174 214.936 277.111 205.702 277.331 192.484C277.524 180.847 276.691 175.135 275.413 165.44C274.134 155.745 267.74 144.519 254.952 144.009Z" fill="#F7EFE9" stroke="#231F20"/>
<path d="M255.439 164.099C250.324 163.86 246.807 172.135 246.168 176.6C245.529 181.065 245.209 185.827 245.209 191.483C245.209 197.138 245.529 201.603 246.168 208.152C246.807 214.7 250.004 220.356 256.718 220.356C263.431 220.356 265.288 212.616 265.669 209.045C266.05 205.473 266.518 200.086 266.628 192.376C266.725 185.587 266.309 182.255 265.669 176.6C265.03 170.945 261.833 164.396 255.439 164.099Z" fill="#FF5757" stroke="#231F20"/>
<path d="M43.1928 381C41.8595 386 43.9929 396.7 47.1929 397.5C51.1929 398.5 308.193 401.5 318.693 397V380.5C317.218 381.007 310.869 381.421 301.024 381.752C295.947 381.923 289.94 382.072 283.193 382.201C277.514 382.309 271.309 382.402 264.693 382.482C258.824 382.553 252.631 382.614 246.193 382.664C240.689 382.706 235.006 382.742 229.193 382.77C222.667 382.802 215.978 382.825 209.193 382.84C203.25 382.853 197.235 382.859 191.193 382.86C185.037 382.86 178.854 382.854 172.693 382.843C166.656 382.831 160.641 382.814 154.693 382.792C148.605 382.769 142.589 382.741 136.693 382.707C130.014 382.669 123.49 382.625 117.193 382.574C110.214 382.518 103.514 382.455 97.1929 382.384C90.5743 382.311 84.3699 382.23 78.6929 382.143C70.9494 382.024 64.187 381.893 58.6929 381.752C49.781 381.524 44.206 381.27 43.1928 381Z" fill="#77A4D4"/>
<path d="M318.693 397C329.193 392.5 363.693 365.5 369.693 359.5C374.075 355.118 373.373 346.931 371.696 343.002C370.87 344.571 367.233 347.847 362.193 351.844C358.443 354.817 353.917 358.19 349.193 361.556C345.19 364.408 341.046 367.256 337.112 369.853C329.122 375.126 321.999 379.364 318.693 380.5V397Z" fill="#77A4D4"/>
<path d="M52.6929 369.853C45.575 375.786 41.1555 380.457 43.1928 381C44.206 381.27 49.781 381.524 58.6929 381.752L74.8576 369.853H52.6929Z" fill="#FBB040"/>
<path d="M58.6929 381.752C64.187 381.893 70.9494 382.024 78.6929 382.143L94.7665 369.853H74.8576L58.6929 381.752Z" fill="#FF5757"/>
<path d="M78.6929 382.143C84.3699 382.23 90.5743 382.311 97.1929 382.384L113.484 369.853H94.7665L78.6929 382.143Z" fill="#FBB040"/>
<path d="M133.497 369.853L117.193 382.574C123.49 382.625 130.014 382.669 136.693 382.707L152.798 369.853H133.497Z" fill="#FBB040"/>
<path d="M170.87 369.853L154.693 382.792C160.641 382.814 166.656 382.831 172.693 382.843L188.754 369.853H170.87Z" fill="#FBB040"/>
<path d="M207.428 369.853L191.193 382.86C197.235 382.859 203.25 382.853 209.193 382.84L225.57 369.853H207.428Z" fill="#FBB040"/>
<path d="M244.876 369.853L229.193 382.77C235.006 382.742 240.689 382.706 246.193 382.664L262.26 369.853H244.876Z" fill="#FBB040"/>
<path d="M280.76 369.853L264.693 382.482C271.309 382.402 277.514 382.309 283.193 382.201L298.397 369.853H280.76Z" fill="#FBB040"/>
<path d="M318.693 380.5C321.999 379.364 329.122 375.126 337.112 369.853H316.341L301.024 381.752C310.869 381.421 317.218 381.007 318.693 380.5Z" fill="#FBB040"/>
<path d="M327.226 361.397L308.972 361.264L298.397 369.853H316.341L327.226 361.397Z" fill="#FBB040"/>
<path d="M273.356 361.005L262.26 369.853H280.76L291.844 361.14L273.356 361.005Z" fill="#FBB040"/>
<path d="M237.059 360.742L225.57 369.853H244.876L255.773 360.878L237.059 360.742Z" fill="#FBB040"/>
<path d="M200.349 360.475L188.754 369.853H207.428L218.964 360.61L200.349 360.475Z" fill="#FBB040"/>
<path d="M164.869 360.217L152.798 369.853H170.87L182.754 360.347L164.869 360.217Z" fill="#FBB040"/>
<path d="M126.374 359.938L113.484 369.853H133.497L146.021 360.08L126.374 359.938Z" fill="#FBB040"/>
<path d="M88.6978 359.664L74.8576 369.853H94.7665L107.909 359.804L88.6978 359.664Z" fill="#FBB040"/>
<path d="M102.893 349.214L81.8032 349C76.8582 352.008 71.3739 355.702 66.115 359.5L88.6978 359.664L102.893 349.214Z" fill="#FBB040"/>
<path d="M126.374 359.938L139.828 349.589L121.511 349.403L107.909 359.804L126.374 359.938Z" fill="#FBB040"/>
<path d="M131.193 342H112.693L102.893 349.214L121.511 349.403L131.193 342Z" fill="#FBB040"/>
<path d="M169.193 342H149.693L139.828 349.589L159.215 349.785L169.193 342Z" fill="#FBB040"/>
<path d="M164.869 360.217L177.704 349.973L159.215 349.785L146.021 360.08L164.869 360.217Z" fill="#FBB040"/>
<path d="M205.693 342H187.693L177.704 349.973L195.499 350.153L205.693 342Z" fill="#FBB040"/>
<path d="M200.349 360.475L212.894 350.33L195.499 350.153L182.754 360.347L200.349 360.475Z" fill="#FBB040"/>
<path d="M242.193 342H223.193L212.894 350.33L231.56 350.519L242.193 342Z" fill="#FBB040"/>
<path d="M237.059 360.742L249.718 350.703L231.56 350.519L218.964 360.61L237.059 360.742Z" fill="#FBB040"/>
<path d="M278.693 342H260.693L249.718 350.703L267.902 350.888L278.693 342Z" fill="#FBB040"/>
<path d="M273.356 361.005L285.818 351.069L267.902 350.888L255.773 360.878L273.356 361.005Z" fill="#FBB040"/>
<path d="M316.193 342H297.193L285.818 351.069L304.415 351.258L316.193 342Z" fill="#FBB040"/>
<path d="M308.972 361.264L321.085 351.427L304.415 351.258L291.844 361.14L308.972 361.264Z" fill="#FBB040"/>
<path d="M352.193 342H332.693L321.085 351.427L339.814 351.617L352.193 342Z" fill="#FBB040"/>
<path d="M349.193 361.556C353.917 358.19 358.443 354.817 362.193 351.844L339.814 351.617L327.226 361.397L349.193 361.556Z" fill="#FBB040"/>
<path d="M66.115 359.5C61.2454 363.017 56.569 366.622 52.6929 369.853H74.8576L88.6978 359.664L66.115 359.5Z" fill="#FF5757"/>
<path d="M94.7665 369.853H113.484L126.374 359.938L107.909 359.804L94.7665 369.853Z" fill="#FF5757"/>
<path d="M97.1929 382.384C103.514 382.455 110.214 382.518 117.193 382.574L133.497 369.853H113.484L97.1929 382.384Z" fill="#FF5757"/>
<path d="M136.693 382.707C142.589 382.741 148.605 382.769 154.693 382.792L170.87 369.853H152.798L136.693 382.707Z" fill="#FF5757"/>
<path d="M133.497 369.853H152.798L164.869 360.217L146.021 360.08L133.497 369.853Z" fill="#FF5757"/>
<path d="M126.374 359.938L146.021 360.08L159.215 349.785L139.828 349.589L126.374 359.938Z" fill="#FF5757"/>
<path d="M88.6978 359.664L107.909 359.804L121.511 349.403L102.893 349.214L88.6978 359.664Z" fill="#FF5757"/>
<path d="M97.1929 342C94.4346 342 88.6332 344.845 81.8032 349L102.893 349.214L112.693 342H97.1929Z" fill="#FF5757"/>
<path d="M149.693 342H131.193L121.511 349.403L139.828 349.589L149.693 342Z" fill="#FF5757"/>
<path d="M187.693 342H169.193L159.215 349.785L177.704 349.973L187.693 342Z" fill="#FF5757"/>
<path d="M164.869 360.217L182.754 360.347L195.499 350.153L177.704 349.973L164.869 360.217Z" fill="#FF5757"/>
<path d="M170.87 369.853H188.754L200.349 360.475L182.754 360.347L170.87 369.853Z" fill="#FF5757"/>
<path d="M223.193 342L205.693 342L195.499 350.153L212.894 350.33L223.193 342Z" fill="#FF5757"/>
<path d="M172.693 382.843C178.854 382.854 185.037 382.86 191.193 382.86L207.428 369.853H188.754L172.693 382.843Z" fill="#FF5757"/>
<path d="M209.193 382.84C215.978 382.825 222.667 382.802 229.193 382.77L244.876 369.853H225.57L209.193 382.84Z" fill="#FF5757"/>
<path d="M207.428 369.853H225.57L237.059 360.742L218.964 360.61L207.428 369.853Z" fill="#FF5757"/>
<path d="M246.193 382.664C252.631 382.614 258.824 382.553 264.693 382.482L280.76 369.853H262.26L246.193 382.664Z" fill="#FF5757"/>
<path d="M244.876 369.853H262.26L273.356 361.005L255.773 360.878L244.876 369.853Z" fill="#FF5757"/>
<path d="M283.193 382.201C289.94 382.072 295.947 381.923 301.024 381.752L316.341 369.853H298.397L283.193 382.201Z" fill="#FF5757"/>
<path d="M280.76 369.853H298.397L308.972 361.264L291.844 361.14L280.76 369.853Z" fill="#FF5757"/>
<path d="M337.112 369.853C341.046 367.256 345.19 364.408 349.193 361.556L327.226 361.397L316.341 369.853H337.112Z" fill="#FF5757"/>
<path d="M273.356 361.005L291.844 361.14L304.415 351.258L285.818 351.069L273.356 361.005Z" fill="#FF5757"/>
<path d="M237.059 360.742L255.773 360.878L267.902 350.888L249.718 350.703L237.059 360.742Z" fill="#FF5757"/>
<path d="M200.349 360.475L218.964 360.61L231.56 350.519L212.894 350.33L200.349 360.475Z" fill="#FF5757"/>
<path d="M308.972 361.264L327.226 361.397L339.814 351.617L321.085 351.427L308.972 361.264Z" fill="#FF5757"/>
<path d="M332.693 342H316.193L304.415 351.258L321.085 351.427L332.693 342Z" fill="#FF5757"/>
<path d="M297.193 342H278.693L267.902 350.888L285.818 351.069L297.193 342Z" fill="#FF5757"/>
<path d="M260.693 342L242.193 342L231.56 350.519L249.718 350.703L260.693 342Z" fill="#FF5757"/>
<path d="M371.193 342L352.193 342L339.814 351.617L362.193 351.844C367.233 347.847 370.87 344.571 371.696 343.002C371.536 342.627 371.367 342.29 371.193 342Z" fill="#FF5757"/>
<path d="M97.1929 342C94.4346 342 88.6332 344.845 81.8032 349M97.1929 342C98.4983 342 104.037 342 112.693 342M97.1929 342H112.693M43.1928 381C41.8595 386 43.9929 396.7 47.1929 397.5C51.1929 398.5 308.193 401.5 318.693 397M43.1928 381C41.1555 380.457 45.575 375.786 52.6929 369.853M43.1928 381C44.206 381.27 49.781 381.524 58.6929 381.752M318.693 380.5V397M318.693 380.5C321.999 379.364 329.122 375.126 337.112 369.853M318.693 380.5C317.218 381.007 310.869 381.421 301.024 381.752M371.193 342C370.324 342 363.366 342 352.193 342M371.193 342C371.901 342 372.036 342.357 371.696 343.002M371.193 342C371.367 342.29 371.536 342.627 371.696 343.002M371.193 342L352.193 342M318.693 397C329.193 392.5 363.693 365.5 369.693 359.5C374.075 355.118 373.373 346.931 371.696 343.002M81.8032 349C76.8582 352.008 71.3739 355.702 66.115 359.5M81.8032 349L102.893 349.214M362.193 351.844C358.443 354.817 353.917 358.19 349.193 361.556M362.193 351.844C367.233 347.847 370.87 344.571 371.696 343.002M362.193 351.844L339.814 351.617M66.115 359.5C61.2454 363.017 56.569 366.622 52.6929 369.853M66.115 359.5L88.6978 359.664M349.193 361.556C345.19 364.408 341.046 367.256 337.112 369.853M349.193 361.556L327.226 361.397M52.6929 369.853H74.8576M337.112 369.853H316.341M58.6929 381.752C64.187 381.893 70.9494 382.024 78.6929 382.143M58.6929 381.752L74.8576 369.853M112.693 342C117.837 342 124.081 342 131.193 342M112.693 342L102.893 349.214M112.693 342H131.193M78.6929 382.143C84.3699 382.23 90.5743 382.311 97.1929 382.384M78.6929 382.143L94.7665 369.853M131.193 342C136.85 342 143.056 342 149.693 342M131.193 342L121.511 349.403M131.193 342H149.693M97.1929 382.384C103.514 382.455 110.214 382.518 117.193 382.574M97.1929 382.384L113.484 369.853M149.693 342C155.853 342 162.384 342 169.193 342M149.693 342L139.828 349.589M149.693 342H169.193M117.193 382.574C123.49 382.625 130.014 382.669 136.693 382.707M117.193 382.574L133.497 369.853M169.193 342C175.167 342 181.355 342 187.693 342M169.193 342L159.215 349.785M169.193 342H187.693M136.693 382.707C142.589 382.741 148.605 382.769 154.693 382.792M136.693 382.707L152.798 369.853M187.693 342C193.581 342 199.598 342 205.693 342M187.693 342L177.704 349.973M187.693 342H205.693M154.693 382.792C160.641 382.814 166.656 382.831 172.693 382.843M154.693 382.792L170.87 369.853M205.693 342C211.47 342 217.318 342 223.193 342M205.693 342L195.499 350.153M205.693 342L223.193 342M172.693 382.843C178.854 382.854 185.037 382.86 191.193 382.86M172.693 382.843L188.754 369.853M223.193 342C229.513 342 235.865 342 242.193 342M223.193 342L212.894 350.33M223.193 342H242.193M191.193 382.86C197.235 382.859 203.25 382.853 209.193 382.84M191.193 382.86L207.428 369.853M242.193 342C248.399 342 254.582 342 260.693 342M242.193 342L231.56 350.519M242.193 342L260.693 342M209.193 382.84C215.978 382.825 222.667 382.802 229.193 382.77M209.193 382.84L225.57 369.853M260.693 342C266.782 342 272.799 342 278.693 342M260.693 342L249.718 350.703M260.693 342H278.693M229.193 382.77C235.006 382.742 240.689 382.706 246.193 382.664M229.193 382.77L244.876 369.853M278.693 342C285.023 342 291.21 342 297.193 342M278.693 342L267.902 350.888M278.693 342H297.193M246.193 382.664C252.631 382.614 258.824 382.553 264.693 382.482M246.193 382.664L262.26 369.853M297.193 342C303.804 342 310.166 342 316.193 342M297.193 342L285.818 351.069M297.193 342H316.193M264.693 382.482C271.309 382.402 277.514 382.309 283.193 382.201M264.693 382.482L280.76 369.853M316.193 342C322.032 342 327.558 342 332.693 342M316.193 342L304.415 351.258M316.193 342H332.693M283.193 382.201C289.94 382.072 295.947 381.923 301.024 381.752M283.193 382.201L298.397 369.853M332.693 342C340.077 342 346.653 342 352.193 342M332.693 342L321.085 351.427M332.693 342H352.193M301.024 381.752L316.341 369.853M352.193 342L339.814 351.617M74.8576 369.853H94.7665M74.8576 369.853L88.6978 359.664M94.7665 369.853H113.484M94.7665 369.853L107.909 359.804M113.484 369.853H133.497M113.484 369.853L126.374 359.938M133.497 369.853H152.798M133.497 369.853L146.021 360.08M152.798 369.853H170.87M152.798 369.853L164.869 360.217M170.87 369.853H188.754M170.87 369.853L182.754 360.347M188.754 369.853H207.428M188.754 369.853L200.349 360.475M207.428 369.853H225.57M207.428 369.853L218.964 360.61M225.57 369.853H244.876M225.57 369.853L237.059 360.742M244.876 369.853H262.26M244.876 369.853L255.773 360.878M262.26 369.853H280.76M262.26 369.853L273.356 361.005M280.76 369.853H298.397M280.76 369.853L291.844 361.14M298.397 369.853H316.341M298.397 369.853L308.972 361.264M316.341 369.853L327.226 361.397M327.226 361.397L308.972 361.264M327.226 361.397L339.814 351.617M308.972 361.264L291.844 361.14M308.972 361.264L321.085 351.427M273.356 361.005L291.844 361.14M273.356 361.005L255.773 360.878M273.356 361.005L285.818 351.069M291.844 361.14L304.415 351.258M237.059 360.742L255.773 360.878M237.059 360.742L218.964 360.61M237.059 360.742L249.718 350.703M255.773 360.878L267.902 350.888M200.349 360.475L218.964 360.61M200.349 360.475L182.754 360.347M200.349 360.475L212.894 350.33M218.964 360.61L231.56 350.519M164.869 360.217L182.754 360.347M164.869 360.217L146.021 360.08M164.869 360.217L177.704 349.973M182.754 360.347L195.499 350.153M126.374 359.938L146.021 360.08M126.374 359.938L107.909 359.804M126.374 359.938L139.828 349.589M146.021 360.08L159.215 349.785M88.6978 359.664L107.909 359.804M88.6978 359.664L102.893 349.214M107.909 359.804L121.511 349.403M102.893 349.214L121.511 349.403M139.828 349.589L121.511 349.403M139.828 349.589L159.215 349.785M159.215 349.785L177.704 349.973M177.704 349.973L195.499 350.153M195.499 350.153L212.894 350.33M212.894 350.33L231.56 350.519M231.56 350.519L249.718 350.703M249.718 350.703L267.902 350.888M267.902 350.888L285.818 351.069M285.818 351.069L304.415 351.258M304.415 351.258L321.085 351.427M321.085 351.427L339.814 351.617" stroke="#231F20"/>
</g>
<defs>
<clipPath id="clip0_3783_3895">
<rect width="562" height="408" fill="white"/>
</clipPath>
</defs>
</svg>
