<svg width="458" height="332" viewBox="0 0 458 332" fill="none" xmlns="http://www.w3.org/2000/svg">
<g clip-path="url(#clip0_3754_2392)">
<path d="M141.132 0.848102L141.132 0.848003C144.366 -0.26786 147.37 0.820554 149.654 3.15262C151.948 5.49359 153.489 9.06968 153.726 12.8187L153.726 12.8193C153.84 14.6003 154.212 15.7568 154.897 16.3482C155.626 16.9781 156.557 16.8547 157.439 16.4992C158.329 16.1404 159.32 15.4875 160.308 14.8203C160.402 14.7567 160.496 14.6929 160.591 14.629C161.502 14.012 162.417 13.3924 163.305 12.9306L163.305 12.9302C163.66 12.7445 164.019 12.5486 164.383 12.3498C165.138 11.9374 165.916 11.5124 166.731 11.1399C167.93 10.5922 169.154 10.187 170.38 10.1452C171.594 10.1038 172.829 10.418 174.065 11.3425C175.31 12.2737 176.574 13.8378 177.806 16.3253C180.265 21.2892 179.851 24.4231 178.709 26.3766C177.55 28.3597 175.573 29.2465 174.681 29.5675C173.953 29.8269 173.392 30.0931 172.99 30.3787C172.588 30.664 172.305 30.9965 172.21 31.3971C172.114 31.8033 172.231 32.1902 172.437 32.5357C172.64 32.8775 172.951 33.2161 173.313 33.5539C173.787 33.9953 174.4 34.4804 175.063 35.0051C175.404 35.2754 175.759 35.5563 176.115 35.847C177.179 36.7162 178.292 37.7039 179.237 38.8606C180.913 40.916 180.74 43.8686 179.15 46.504C177.565 49.1299 174.613 51.3503 170.913 51.8573C164.316 52.7613 159.839 47.8656 158.201 46.0742C157.998 45.8522 157.838 45.6779 157.724 45.5682C157.524 45.3766 157.263 45.274 156.967 45.3448C156.717 45.4047 156.502 45.5773 156.319 45.7622C155.949 46.1374 155.505 46.7853 154.946 47.611C154.902 47.6769 154.856 47.7442 154.81 47.8128C153.675 49.4923 151.983 51.9954 149.259 55.0713C146.41 58.2874 143.989 59.9098 141.843 59.9558C139.742 60.0007 137.71 58.5255 135.642 54.9869C133.595 51.4843 133.655 49.3939 134.31 47.86C134.648 47.07 135.155 46.3964 135.697 45.7217C135.765 45.6377 135.833 45.5535 135.902 45.4688C136.373 44.8873 136.86 44.286 137.211 43.6302C137.413 43.2538 137.544 42.7867 137.233 42.4227C137.094 42.2608 136.906 42.1739 136.728 42.1249C136.548 42.0753 136.343 42.0549 136.13 42.0511C135.321 42.0366 134.083 42.2631 132.719 42.5128L132.598 42.535C131.161 42.7979 129.549 43.0896 127.997 43.2075C126.439 43.3258 124.988 43.2644 123.861 42.8531C121.141 41.8385 117.634 40.1725 115.824 37.5873C114.931 36.3115 114.453 34.8145 114.686 33.0419C114.921 31.2582 115.883 29.155 117.95 26.6914C121.941 21.9427 127.11 20.5403 132.118 20.9579C132.639 21.002 133.062 21.0012 133.389 20.9357C133.718 20.8697 134.022 20.7216 134.181 20.4117C134.328 20.1237 134.294 19.7978 134.225 19.5168C134.153 19.2255 134.019 18.8915 133.865 18.5327C133.8 18.3828 133.73 18.225 133.656 18.0591C133.017 16.6163 132.106 14.5589 132.006 11.7832C131.893 8.62896 132.298 6.59113 133.607 5.00578C134.933 3.39897 137.241 2.18745 141.132 0.848102Z" fill="#FBB040" stroke="#231F20" stroke-width="0.813725"/>
<path d="M59.8565 264.801C44.9404 263.54 39.2609 244.355 44.2948 228.504C48.9511 213.877 36.2495 220.409 26.9531 221.102C17.072 221.84 2.62333 225.368 0.908342 200.726C-0.806655 176.085 14.0499 175.644 18.084 175.944C30.6221 176.828 19.504 167.384 15.7759 154.405C12.2772 142.246 27.3766 129.905 42.8641 134.514C58.3516 139.123 62.6731 156.505 63.8038 159.174C64.9345 161.844 70.3307 154.98 86.2518 147.019C102.173 139.058 111.054 141.826 113.479 159.833C115.904 177.84 106.45 177.714 101.32 182.08C96.1904 186.446 118.462 186.227 126.255 193.968C135.122 202.777 148.678 220.329 124.797 233.05C113.167 239.248 101.886 237.478 92.4007 232.135C84.8598 227.873 91.1735 237.221 86.6268 250.2C82.0801 263.178 76.8627 266.233 59.8565 264.801Z" fill="#FF85A5" stroke="#231F20" stroke-width="0.813725" stroke-miterlimit="10"/>
<path d="M9.77924 211.197C2.68006 203.173 3.25156 178.714 21.6385 180.833C40.7841 183.036 46.2362 186.494 33.5618 175.739C20.8875 164.984 15.0638 147.139 26.1126 144.102C37.1615 141.065 50.4014 134.706 58.0611 154.173C65.7207 173.64 58.2633 170.568 70.0827 161.838C81.9021 153.108 96.559 145.051 103.909 152.109C111.259 159.166 109.695 170.607 100.868 177.472C92.0408 184.338 77.1659 188.033 100.337 189.103C123.508 190.173 136.08 213.427 128.832 221.549C121.583 229.671 108.208 236.201 97.1579 227.831C86.1083 219.46 74.1003 204.214 80.47 229.438C86.8396 254.661 69.3194 266.424 55.4194 255.763C41.5194 245.102 48.3566 227.35 49.7916 221.683C51.2267 216.015 54.3575 208.355 37.5554 213.487C20.7533 218.619 13.6602 215.592 9.77924 211.197Z" fill="#FF5757" stroke="#231F20" stroke-width="0.813725" stroke-miterlimit="10"/>
<path d="M15.5931 200.606C20.6919 221.02 46.6929 200.266 54.8289 205.412C62.9649 210.558 60.9034 213.963 56.1297 232.123C51.3561 250.282 66.4928 254.055 71.2667 249.539C76.7094 244.408 80.1415 238.222 73.8338 221.528C67.5261 204.834 78.3398 203.483 85.9576 210.426C93.5754 217.368 110.543 223.274 116.566 217.262C122.589 211.25 115.779 196.358 102.331 194.383C88.8834 192.408 66.3227 195.83 84.4052 181.602C102.488 167.374 97.5943 154.844 80.431 161.399C63.2677 167.953 62.3018 191.485 58.7686 174.593C55.2354 157.702 54.6581 144.932 37.1844 148.45C19.7107 151.969 39.026 176.435 47.9179 181.15C56.8098 185.866 51.3621 193.221 36.0877 187.585C20.8133 181.948 14.0502 194.427 15.5931 200.606Z" fill="#FBB040" stroke="#231F20" stroke-width="0.813725" stroke-miterlimit="10"/>
<path d="M57.5002 197.283C54.9039 186.103 70.3922 179.387 72.7321 190.917C75.072 202.446 71.6826 205.992 65.8488 205.112C60.015 204.232 57.5002 197.283 57.5002 197.283Z" fill="#FAFAFA"/>
<path d="M316.633 84.2206C321.108 97.2403 321.922 156.235 321.922 159.897C321.922 160.01 321.922 160.181 321.923 160.406L321.923 160.433C321.94 167.65 322.081 228.81 314.598 245.745C311.242 253.342 307.655 258.253 303.738 261.613C308.667 260.073 313.702 257.588 318.667 254.427C321.063 252.901 323.443 251.218 325.787 249.407C325.464 249.457 325.502 249.439 325.835 249.37C347.204 232.841 365.559 205.723 365.863 190.819C366.27 170.882 360.574 130.196 339.824 98.0539C323.224 72.3402 299.002 59.1308 288.966 55.7403C305.241 62.6569 312.157 71.201 316.633 84.2206Z" fill="#47627F"/>
<path fill-rule="evenodd" clip-rule="evenodd" d="M97.3337 168.034C97.3337 156.317 100.589 105.92 102.216 82.1864C102.876 72.4216 111.167 57.7746 127.442 54.1128C143.716 50.4511 198.236 49.6373 209.628 50.0442C211.582 50.114 214.818 50.1646 218.904 50.2286C238.634 50.5373 278.18 51.1563 288.966 55.7403C305.241 62.6569 312.157 71.201 316.633 84.2206C321.108 97.2403 321.922 156.235 321.922 159.897C321.922 160.01 321.922 160.181 321.923 160.406L321.923 160.433C321.94 167.65 322.081 228.81 314.598 245.745C311.242 253.342 307.655 258.253 303.738 261.613C298.635 265.99 292.971 267.732 286.525 269.343C276.067 271.958 223.784 271.829 208.036 271.791C206.629 271.787 205.513 271.784 204.745 271.784C203.964 271.784 202.852 271.787 201.465 271.791C186.252 271.83 137.882 271.953 127.442 269.343C116.049 266.495 105.064 254.696 102.216 245.745C99.3681 236.794 97.3337 182.681 97.3337 168.034ZM325.787 249.407C325.464 249.457 325.502 249.439 325.835 249.37C328.228 248.868 345.849 245.646 354.064 244.931C363.422 244.118 390.275 244.931 398.819 254.696C402.852 259.306 406.143 266.902 402.481 274.226C398.819 281.549 392.716 283.99 384.172 283.176C379.531 282.734 372.249 280.612 365.912 278.765C360.583 277.211 355.923 275.853 354.064 275.853C349.995 275.853 345.113 277.48 343.079 280.306C345.111 281.202 347.715 282.508 349.971 284.804C353.134 288.022 355.613 293.185 354.874 301.892C354.787 302.926 354.654 304.01 354.471 305.147C351.957 320.788 336.022 329.91 322.329 331.065C316.075 331.593 310.288 330.458 306.461 327.525C294.255 318.167 295.069 306.775 306.461 290.907C307.103 290.013 307.783 289.179 308.495 288.401C317.91 278.119 333.016 277.566 339.824 278.701C343.079 273.819 348.368 272.191 354.471 272.598C356.608 272.74 360.29 273.731 364.593 274.888C372.581 277.036 382.708 279.759 389.054 278.701C398.819 277.074 404.108 264.054 394.75 256.73C385.393 249.407 366.677 249 356.505 249.407C346.334 249.814 325.584 252.482 318.667 254.427C321.063 252.901 323.443 251.218 325.787 249.407Z" fill="#77A4D4"/>
<path d="M354.874 301.892C354.787 302.926 354.654 304.01 354.471 305.147C351.957 320.788 336.022 329.91 322.329 331.065C347.554 332 355.692 322.235 360.167 314.098C364.643 305.961 361.388 288.869 349.971 284.804C353.134 288.022 355.613 293.185 354.874 301.892Z" fill="#47627F"/>
<path d="M288.966 55.7403C305.241 62.6569 312.157 71.201 316.633 84.2206C321.108 97.2403 321.922 156.235 321.922 159.897C321.922 160.01 321.922 160.181 321.923 160.406M288.966 55.7403C299.002 59.1308 323.224 72.3402 339.824 98.0539C360.574 130.196 366.27 170.882 365.863 190.819C365.559 205.723 347.204 232.841 325.835 249.37M288.966 55.7403C278.18 51.1563 238.634 50.5373 218.904 50.2286C214.818 50.1646 211.582 50.114 209.628 50.0442C198.236 49.6373 143.716 50.4511 127.442 54.1128C111.167 57.7746 102.876 72.4216 102.216 82.1864C100.589 105.92 97.3337 156.317 97.3337 168.034C97.3337 182.681 99.3681 236.794 102.216 245.745C105.064 254.696 116.049 266.495 127.442 269.343C137.882 271.953 186.252 271.83 201.465 271.791C202.852 271.787 203.964 271.784 204.746 271.784C205.513 271.784 206.629 271.787 208.036 271.791C223.784 271.829 276.067 271.958 286.525 269.343C292.971 267.732 298.635 265.99 303.738 261.613M303.738 261.613C307.655 258.253 311.242 253.342 314.598 245.745C322.081 228.81 321.94 167.65 321.923 160.433M303.738 261.613C308.667 260.073 313.702 257.588 318.667 254.427M318.667 254.427C325.584 252.482 346.334 249.814 356.505 249.407C366.677 249 385.393 249.407 394.75 256.73C404.108 264.054 398.819 277.074 389.054 278.701C382.708 279.759 372.581 277.036 364.593 274.888C360.29 273.731 356.608 272.74 354.471 272.598C348.368 272.191 343.079 273.819 339.824 278.701M318.667 254.427C321.063 252.901 323.443 251.218 325.787 249.407M339.824 278.701C333.016 277.566 317.91 278.119 308.496 288.401M339.824 278.701C335.267 280.979 331.144 286.429 329.652 288.869M339.824 278.701C340.293 279.17 341.517 279.617 343.079 280.306M308.496 288.401C307.783 289.179 307.103 290.013 306.461 290.907C295.069 306.775 294.255 318.167 306.461 327.525C310.288 330.458 316.075 331.593 322.329 331.065M308.496 288.401C313.165 287.532 321.076 287.161 329.652 288.869M354.874 301.892C354.787 302.926 354.654 304.01 354.471 305.147C351.957 320.788 336.022 329.91 322.329 331.065M354.874 301.892C347.536 294.392 338.26 290.584 329.652 288.869M354.874 301.892C355.613 293.185 353.134 288.022 349.971 284.804M322.329 331.065C347.554 332 355.692 322.235 360.167 314.098C364.643 305.961 361.388 288.869 349.971 284.804M349.971 284.804C347.715 282.508 345.111 281.202 343.079 280.306M343.079 280.306C345.113 277.48 349.995 275.853 354.064 275.853C355.923 275.853 360.583 277.211 365.912 278.765C372.249 280.612 379.531 282.734 384.172 283.176C392.716 283.99 398.819 281.549 402.481 274.226C406.143 266.902 402.852 259.306 398.819 254.696C390.275 244.931 363.422 244.118 354.064 244.931C345.849 245.646 328.228 248.868 325.835 249.37M325.787 249.407C325.464 249.457 325.502 249.44 325.835 249.37M325.787 249.407C325.803 249.395 325.819 249.382 325.835 249.37M321.923 160.433L321.923 160.406M321.923 160.433C321.923 160.424 321.923 160.415 321.923 160.406" stroke="#231F20" stroke-width="0.813725"/>
<path d="M351.216 223.368C352.437 225.945 356.668 231.017 363.829 230.691C372.78 230.285 376.035 222.147 374.407 217.265C372.78 212.382 366.677 212.382 366.677 218.485C366.677 224.588 376.442 233.539 383.358 231.912C390.275 230.284 396.785 222.554 394.344 215.23C391.902 207.907 384.579 209.941 386.206 217.265C387.834 224.588 402.074 227.029 408.177 221.74C414.28 216.451 413.466 205.873 409.804 200.99C406.143 196.108 398.819 200.176 401.667 205.873C404.515 211.569 418.755 211.569 423.231 203.838C427.706 196.108 424.451 188.784 421.196 185.529C417.942 182.274 410.211 183.495 412.652 190.005C415.094 196.515 426.079 196.922 430.961 192.446C435.844 187.971 433.809 182.275 435.437 170.882" stroke="#231F20" stroke-width="0.813725" stroke-linecap="round"/>
<path d="M455.413 145.308C454.239 143.249 437.877 139.82 431.269 139.061C428.107 139.834 424.584 152.841 427.14 154.73C429.696 156.618 434.333 156.741 434.623 157.927C434.913 159.113 433.217 162.459 433.401 164.927C433.586 167.395 438.908 168.607 440.006 166.245C441.104 163.882 441.227 159.245 442.808 158.859C444.389 158.472 447.05 159.078 450.405 159.096C453.76 159.114 456.879 147.881 455.413 145.308Z" fill="#77A4D4"/>
<path d="M439.695 135.746C439.001 136.334 438.509 136.036 438.316 135.245C438.123 134.455 440.248 128.182 440.626 127.56C440.925 127.069 441.715 126.875 441.908 127.666C442.102 128.456 440.388 135.157 439.695 135.746Z" fill="#77A4D4"/>
<path d="M451.226 138.373C450.532 138.961 450.04 138.662 449.847 137.872C449.654 137.082 451.78 130.809 452.158 130.187C452.456 129.695 453.247 129.502 453.44 130.293C453.633 131.083 451.92 137.784 451.226 138.373Z" fill="#77A4D4"/>
<path d="M455.413 145.308C454.239 143.249 437.877 139.82 431.269 139.061C428.107 139.834 424.584 152.841 427.14 154.73C429.696 156.618 434.333 156.741 434.623 157.927C434.913 159.113 433.217 162.459 433.401 164.927C433.586 167.395 438.908 168.607 440.006 166.245C441.104 163.882 441.227 159.245 442.808 158.859C444.389 158.472 447.05 159.078 450.405 159.096C453.76 159.114 456.879 147.881 455.413 145.308Z" stroke="#231F20" stroke-width="0.813725"/>
<path d="M439.695 135.746C439.001 136.334 438.509 136.036 438.316 135.245C438.123 134.455 440.248 128.182 440.626 127.56C440.925 127.069 441.715 126.875 441.908 127.666C442.102 128.456 440.388 135.157 439.695 135.746Z" stroke="#231F20" stroke-width="0.813725"/>
<path d="M451.226 138.373C450.532 138.961 450.04 138.662 449.847 137.872C449.654 137.082 451.78 130.809 452.158 130.187C452.456 129.695 453.247 129.502 453.44 130.293C453.633 131.083 451.92 137.784 451.226 138.373Z" stroke="#231F20" stroke-width="0.813725"/>
<path d="M114.422 162.339C114.422 153.013 117.146 112.901 118.508 94.0112C119.06 86.2393 126 74.5815 139.62 71.667C153.241 68.7526 198.871 68.1049 208.406 68.4287C217.94 68.7526 263.911 68.5583 274.807 72.9623C288.428 78.4674 294.217 85.2678 297.963 95.6303C301.708 105.993 302.389 152.948 302.389 155.863C302.389 158.777 302.73 210.266 296.26 224.19C289.79 238.115 282.299 240.706 272.764 242.972C263.229 245.239 212.151 244.915 204.319 244.915C196.487 244.915 149.155 245.239 139.62 242.972C130.086 240.706 120.892 231.315 118.508 224.19C116.124 217.066 114.422 173.997 114.422 162.339Z" fill="#FF5757" stroke="#231F20" stroke-width="0.813725"/>
<circle cx="285.304" cy="254.696" r="4.06863" fill="#47627F"/>
<rect x="264.961" y="254.696" width="9.76471" height="2.44118" rx="0.813725" fill="#47627F"/>
<rect x="250.314" y="254.696" width="9.76471" height="2.44118" rx="0.813725" fill="#47627F"/>
<path d="M292.115 215.596C296.332 207.439 308.451 208.729 316.166 215.312C323.286 221.394 322.603 212.66 324.386 207.233C326.291 201.45 327.714 192.443 341.944 197.271C356.173 202.1 352.947 210.612 351.838 212.841C348.391 219.728 356.317 215.657 364.475 216.591C372.134 217.468 375.514 228.931 369.283 236.618C363.052 244.304 352.264 242.659 350.482 242.659C348.699 242.659 351.304 247.348 352.023 258.254C352.742 269.16 349.105 273.524 338.42 270.666C327.735 267.808 330.026 262.474 328.783 258.543C327.54 254.612 322.423 267.282 316.259 269.877C309.226 272.828 296.173 276.377 294.647 259.858C293.902 251.81 297.55 245.831 302.79 241.72C306.956 238.449 300.221 239.827 293.99 234.203C287.759 228.58 287.291 224.892 292.115 215.596Z" fill="#FF85A5" stroke="#231F20" stroke-width="0.813725" stroke-miterlimit="10"/>
<path d="M333.992 199.83C340.156 197.695 353.774 203.777 348.252 213.697C342.504 224.015 339.288 226.3 348.309 221.652C357.329 217.004 368.728 217.897 367.829 224.871C366.93 231.846 367.388 240.864 354.653 240.606C341.918 240.348 345.406 236.85 347.528 245.61C349.649 254.369 350.733 264.563 345.036 267.065C339.339 269.567 333.288 265.992 331.505 259.379C329.723 252.765 331.151 243.464 325.094 256.34C319.038 269.216 303.005 270.862 300.17 264.852C297.334 258.842 296.789 249.721 304.089 245.429C311.389 241.137 322.783 237.923 307.115 235.596C291.447 233.27 288.961 220.579 298.212 215.214C307.464 209.849 315.838 217.897 318.689 220.043C321.54 222.189 325.094 225.764 326.163 215.033C327.231 204.303 330.606 201.001 333.992 199.83Z" fill="#FF5757" stroke="#231F20" stroke-width="0.813725" stroke-miterlimit="10"/>
<path d="M338.574 205.613C325.922 203.689 331.449 223.318 326.646 226.713C321.843 230.107 320.409 228.142 311.332 221.172C302.255 214.203 296.574 221.879 297.976 225.64C299.579 229.932 302.25 233.326 313.11 233.688C323.969 234.049 322.192 240.482 316.495 243.164C310.798 245.847 303.498 254.07 305.471 258.899C307.444 263.727 317.399 263.366 321.673 256.216C325.947 249.066 329.327 235.472 333.067 249.061C336.807 262.649 344.995 262.83 345.355 251.568C345.714 240.306 332.697 234.224 343.023 236.19C353.348 238.155 360.648 240.832 362.785 230.112C364.922 219.392 346.629 224.567 341.887 228.503C337.146 232.439 334.3 227.605 341.065 220.249C347.831 212.892 342.406 206.196 338.574 205.613Z" fill="#FBB040" stroke="#231F20" stroke-width="0.813725" stroke-miterlimit="10"/>
<path d="M330.504 230.422C336.884 231.511 336.987 241.302 330.504 239.997C324.021 238.692 322.922 236.081 324.653 233.146C326.384 230.211 330.504 230.422 330.504 230.422Z" fill="#FAFAFA"/>
<path d="M336.02 117.054L336.02 117.055C337.267 120.098 338.341 121.838 339.695 122.759C341.03 123.667 342.717 123.83 345.348 123.487C347.656 123.185 349.334 122.284 350.514 121.651C350.648 121.579 350.775 121.511 350.897 121.447C351.19 121.293 351.466 121.156 351.709 121.073C351.939 120.995 352.227 120.933 352.498 121.04C352.801 121.159 352.949 121.429 353.019 121.706C353.088 121.978 353.102 122.331 353.084 122.757C352.921 126.832 354.256 130.881 358.313 133.696L358.314 133.697C360.425 135.166 362.196 135.769 363.676 135.816C365.148 135.863 366.373 135.361 367.402 134.538C369.489 132.873 370.756 129.909 371.49 127.632L371.49 127.631C371.79 126.711 371.794 125.552 371.645 124.309C371.497 123.072 371.202 121.796 370.936 120.654C370.928 120.617 370.919 120.581 370.911 120.545C370.66 119.47 370.429 118.479 370.413 117.813C370.408 117.636 370.418 117.462 370.454 117.304C370.491 117.147 370.56 116.977 370.696 116.844C371.006 116.542 371.426 116.617 371.759 116.756C372.318 116.991 372.838 117.34 373.332 117.673C373.407 117.724 373.482 117.774 373.556 117.823C374.132 118.207 374.7 118.557 375.356 118.763C376.626 119.161 378.354 119.052 381.199 117.116C384.079 115.155 385.213 113.402 385.108 111.744C385.001 110.055 383.603 108.247 380.828 106.203C378.182 104.254 376.044 103.089 374.606 102.305C374.544 102.271 374.484 102.238 374.426 102.206C373.722 101.822 373.156 101.509 372.822 101.232C372.658 101.095 372.487 100.918 372.42 100.69C372.34 100.417 372.433 100.174 372.591 99.9913C372.684 99.8837 372.828 99.7367 373.01 99.5512C373.64 98.9082 374.724 97.8029 375.693 96.2782C376.929 94.3317 377.912 91.783 377.373 88.8613C376.833 85.9395 374.905 83.7509 372.688 82.6894C370.463 81.6247 368.021 81.7188 366.38 83.2305L366.38 83.2307C365.45 84.0865 364.667 85.0645 363.981 85.9946C363.751 86.3059 363.529 86.6164 363.315 86.9156C362.902 87.4939 362.518 88.0301 362.167 88.449C361.897 88.7706 361.623 89.0528 361.341 89.2478C361.058 89.4439 360.728 89.5773 360.365 89.5291C360.003 89.4808 359.696 89.2627 359.433 88.9476C359.172 88.6337 358.925 88.1908 358.68 87.6178L358.68 87.6176C358.387 86.9306 357.59 85.4284 355.926 84.6631C354.289 83.9095 351.683 83.8148 347.642 86.2024C343.597 88.5923 342.635 90.7718 342.782 92.6542C342.858 93.6255 343.23 94.5698 343.723 95.4903C344.059 96.1157 344.434 96.7038 344.8 97.2783C344.979 97.5592 345.156 97.8368 345.326 98.114M336.02 117.054L344.978 98.3261M336.02 117.054C334.999 114.572 335.779 112.079 337.639 110.042C339.503 108 342.422 106.463 345.534 105.967M336.02 117.054L345.47 105.565M345.326 98.114L344.978 98.3261M345.326 98.114C345.326 98.1139 345.326 98.1138 345.325 98.1138L344.978 98.3261M345.326 98.114C345.737 98.7857 346.279 99.4679 346.824 100.154C346.882 100.226 346.939 100.299 346.997 100.371C347.586 101.113 348.172 101.871 348.508 102.574C348.843 103.278 348.987 104.058 348.465 104.724C347.985 105.338 347.019 105.732 345.534 105.967M344.978 98.3261C345.403 99.0206 345.962 99.7231 346.504 100.405C348.364 102.744 350.034 104.844 345.47 105.565M345.534 105.967L345.47 105.565M345.534 105.967C345.534 105.967 345.533 105.967 345.533 105.967L345.47 105.565" fill="#FF5757" stroke="#231F20" stroke-width="0.813725"/>
<path d="M139.548 161.443C134.461 159.597 158.146 119.948 160.334 117.764C162.522 115.58 169.633 119.948 169.633 123.224C169.633 126.5 149.896 153.799 153.223 153.799C158.146 153.799 162.522 154.345 162.522 152.707V147.248C162.522 144.518 172.915 144.518 172.915 147.794C172.915 151.069 172.478 150.523 172.915 152.707C173.353 154.891 183.308 150.523 183.855 153.799C184.402 157.075 184.402 158.167 184.402 161.443C184.402 164.719 171.274 160.897 171.274 163.627C171.274 166.357 171.274 188.742 170.727 193.656C170.484 195.84 160.334 195.84 160.334 193.656C159.24 189.288 160.881 167.449 160.881 164.173C160.881 160.897 145.565 163.627 139.548 161.443Z" fill="#F7EFE9" stroke="#231F20" stroke-width="0.813725"/>
<path d="M233.126 161.443C228.039 159.597 251.724 119.948 253.912 117.764C256.101 115.58 263.212 119.948 263.212 123.224C263.212 126.5 243.474 153.799 246.801 153.799C251.724 153.799 256.1 154.345 256.1 152.707V147.248C256.1 144.518 266.494 144.518 266.494 147.794C266.494 151.069 266.056 150.523 266.494 152.707C266.931 154.891 276.887 150.523 277.434 153.799C277.981 157.075 277.981 158.167 277.981 161.443C277.981 164.719 264.853 160.897 264.853 163.627C264.853 166.357 264.853 188.742 264.306 193.656C264.062 195.84 253.912 195.84 253.912 193.656C252.818 189.288 254.459 167.449 254.459 164.173C254.459 160.897 239.143 163.627 233.126 161.443Z" fill="#F7EFE9" stroke="#231F20" stroke-width="0.813725"/>
<path d="M207.805 117.183C199.48 116.851 193.757 128.394 192.717 134.623C191.676 140.851 191.156 147.494 191.156 155.384C191.156 163.273 191.676 169.501 192.717 178.636C193.757 187.771 198.96 195.66 209.886 195.66C220.812 195.66 223.834 184.864 224.454 179.881C225.074 174.899 225.836 167.385 226.015 156.629C226.172 147.16 225.494 142.512 224.454 134.623C223.413 126.734 218.21 117.599 207.805 117.183Z" fill="#F7EFE9" stroke="#231F20" stroke-width="0.813725"/>
<path d="M208.201 133.531C204.038 133.337 201.177 140.071 200.657 143.704C200.136 147.337 199.876 151.213 199.876 155.815C199.876 160.417 200.136 164.05 200.657 169.378C201.177 174.707 203.778 179.309 209.241 179.309C214.704 179.309 216.215 173.011 216.525 170.105C216.835 167.198 217.216 162.815 217.306 156.541C217.384 151.017 217.045 148.306 216.525 143.704C216.005 139.102 213.404 133.773 208.201 133.531Z" fill="#FF5757" stroke="#231F20" stroke-width="0.813725"/>
<path d="M35.4905 310.029C34.4055 314.098 36.1414 322.805 38.7454 323.456C42.0003 324.27 251.128 326.711 259.672 323.049V309.623C258.472 310.035 253.306 310.372 245.294 310.642C241.163 310.781 236.275 310.902 230.785 311.006C226.163 311.094 221.115 311.171 215.731 311.236C210.955 311.293 205.916 311.342 200.677 311.383C196.198 311.418 191.574 311.447 186.843 311.47C181.533 311.496 176.09 311.515 170.569 311.526C165.733 311.537 160.838 311.542 155.922 311.543C150.913 311.543 145.881 311.538 140.868 311.529C135.956 311.52 131.061 311.506 126.221 311.488C121.267 311.469 116.371 311.446 111.574 311.419C106.139 311.388 100.83 311.352 95.7062 311.31C90.0273 311.265 84.5757 311.213 79.4317 311.156C74.0459 311.096 68.9973 311.03 64.3777 310.959C58.0766 310.863 52.5739 310.756 48.1032 310.642C40.8514 310.456 36.3149 310.249 35.4905 310.029Z" fill="#77A4D4"/>
<path d="M259.672 323.049C268.216 319.387 296.289 297.417 301.172 292.534C304.737 288.969 304.167 282.307 302.802 279.109C302.13 280.386 299.17 283.052 295.069 286.304C292.018 288.724 288.335 291.468 284.49 294.208C281.234 296.528 277.861 298.846 274.66 300.959C268.158 305.25 262.362 308.698 259.672 309.623V323.049Z" fill="#77A4D4"/>
<path d="M43.2209 300.959C37.4289 305.786 33.8326 309.587 35.4905 310.029C36.3149 310.249 40.8514 310.456 48.1032 310.642L61.2568 300.959H43.2209Z" fill="#FBB040"/>
<path d="M48.1032 310.642C52.5739 310.756 58.0766 310.863 64.3777 310.959L77.4572 300.959H61.2568L48.1032 310.642Z" fill="#FF5757"/>
<path d="M64.3777 310.959C68.9973 311.03 74.0459 311.096 79.4317 311.156L92.6884 300.959H77.4572L64.3777 310.959Z" fill="#FBB040"/>
<path d="M108.973 300.959L95.7062 311.31C100.83 311.352 106.139 311.388 111.574 311.419L124.679 300.959H108.973Z" fill="#FBB040"/>
<path d="M139.385 300.959L126.221 311.488C131.061 311.506 135.956 311.52 140.868 311.529L153.938 300.959H139.385Z" fill="#FBB040"/>
<path d="M169.133 300.959L155.922 311.543C160.838 311.542 165.733 311.537 170.569 311.526L183.895 300.959H169.133Z" fill="#FBB040"/>
<path d="M199.605 300.959L186.843 311.47C191.574 311.447 196.198 311.418 200.677 311.383L213.751 300.959H199.605Z" fill="#FBB040"/>
<path d="M228.805 300.959L215.731 311.236C221.115 311.171 226.163 311.094 230.785 311.006L243.157 300.959H228.805Z" fill="#FBB040"/>
<path d="M259.672 309.623C262.362 308.698 268.158 305.25 274.66 300.959H257.758L245.294 310.642C253.306 310.372 258.472 310.035 259.672 309.623Z" fill="#FBB040"/>
<path d="M266.615 294.078L251.762 293.97L243.157 300.959H257.758L266.615 294.078Z" fill="#FBB040"/>
<path d="M222.78 293.759L213.751 300.959H228.805L237.824 293.869L222.78 293.759Z" fill="#FBB040"/>
<path d="M193.244 293.545L183.895 300.959H199.605L208.472 293.655L193.244 293.545Z" fill="#FBB040"/>
<path d="M163.373 293.328L153.938 300.959H169.133L178.52 293.438L163.373 293.328Z" fill="#FBB040"/>
<path d="M134.502 293.118L124.679 300.959H139.385L149.055 293.224L134.502 293.118Z" fill="#FBB040"/>
<path d="M103.177 292.891L92.6884 300.959H108.973L119.164 293.007L103.177 292.891Z" fill="#FBB040"/>
<path d="M72.519 292.668L61.2568 300.959H77.4572L88.1515 292.781L72.519 292.668Z" fill="#FBB040"/>
<path d="M84.0703 284.164L66.9087 283.99C62.8848 286.438 58.4221 289.444 54.1428 292.534L72.519 292.668L84.0703 284.164Z" fill="#FBB040"/>
<path d="M103.177 292.891L114.125 284.469L99.2202 284.318L88.1515 292.781L103.177 292.891Z" fill="#FBB040"/>
<path d="M107.098 278.294H92.0444L84.0703 284.164L99.2202 284.318L107.098 278.294Z" fill="#FBB040"/>
<path d="M138.02 278.294H122.152L114.125 284.469L129.901 284.629L138.02 278.294Z" fill="#FBB040"/>
<path d="M134.502 293.118L144.946 284.782L129.901 284.629L119.164 293.007L134.502 293.118Z" fill="#FBB040"/>
<path d="M167.721 278.294H153.074L144.946 284.782L159.426 284.929L167.721 278.294Z" fill="#FBB040"/>
<path d="M163.373 293.328L173.58 285.072L159.426 284.929L149.055 293.224L163.373 293.328Z" fill="#FBB040"/>
<path d="M197.422 278.294H181.961L173.58 285.072L188.769 285.226L197.422 278.294Z" fill="#FBB040"/>
<path d="M193.244 293.545L203.545 285.376L188.769 285.226L178.52 293.438L193.244 293.545Z" fill="#FBB040"/>
<path d="M227.123 278.294H212.476L203.545 285.376L218.342 285.526L227.123 278.294Z" fill="#FBB040"/>
<path d="M222.78 293.759L232.921 285.674L218.342 285.526L208.472 293.655L222.78 293.759Z" fill="#FBB040"/>
<path d="M257.638 278.294H242.177L232.921 285.674L248.054 285.828L257.638 278.294Z" fill="#FBB040"/>
<path d="M251.762 293.97L261.619 285.965L248.054 285.828L237.824 293.869L251.762 293.97Z" fill="#FBB040"/>
<path d="M286.932 278.294H271.064L261.619 285.965L276.859 286.12L286.932 278.294Z" fill="#FBB040"/>
<path d="M284.49 294.208C288.335 291.468 292.018 288.724 295.069 286.304L276.859 286.12L266.615 294.078L284.49 294.208Z" fill="#FBB040"/>
<path d="M54.1428 292.534C50.1803 295.396 46.375 298.329 43.2209 300.959H61.2568L72.519 292.668L54.1428 292.534Z" fill="#FF5757"/>
<path d="M77.4572 300.959H92.6884L103.177 292.891L88.1515 292.781L77.4572 300.959Z" fill="#FF5757"/>
<path d="M79.4317 311.156C84.5757 311.213 90.0273 311.265 95.7062 311.31L108.973 300.959H92.6884L79.4317 311.156Z" fill="#FF5757"/>
<path d="M111.574 311.419C116.371 311.446 121.267 311.469 126.221 311.488L139.385 300.959H124.679L111.574 311.419Z" fill="#FF5757"/>
<path d="M108.973 300.959H124.679L134.502 293.118L119.164 293.007L108.973 300.959Z" fill="#FF5757"/>
<path d="M103.177 292.891L119.164 293.007L129.901 284.629L114.125 284.469L103.177 292.891Z" fill="#FF5757"/>
<path d="M72.519 292.668L88.1515 292.781L99.2202 284.318L84.0703 284.164L72.519 292.668Z" fill="#FF5757"/>
<path d="M79.4317 278.294C77.1872 278.294 72.4665 280.609 66.9087 283.99L84.0703 284.164L92.0444 278.294H79.4317Z" fill="#FF5757"/>
<path d="M122.152 278.294H107.098L99.2202 284.318L114.125 284.469L122.152 278.294Z" fill="#FF5757"/>
<path d="M153.074 278.294H138.02L129.901 284.629L144.946 284.782L153.074 278.294Z" fill="#FF5757"/>
<path d="M134.502 293.118L149.055 293.224L159.426 284.929L144.946 284.782L134.502 293.118Z" fill="#FF5757"/>
<path d="M139.385 300.959H153.938L163.373 293.328L149.055 293.224L139.385 300.959Z" fill="#FF5757"/>
<path d="M181.961 278.294L167.721 278.294L159.426 284.929L173.58 285.072L181.961 278.294Z" fill="#FF5757"/>
<path d="M140.868 311.529C145.881 311.538 150.913 311.543 155.922 311.543L169.133 300.959H153.938L140.868 311.529Z" fill="#FF5757"/>
<path d="M170.569 311.526C176.09 311.515 181.533 311.496 186.843 311.47L199.605 300.959H183.895L170.569 311.526Z" fill="#FF5757"/>
<path d="M169.133 300.959H183.895L193.244 293.545L178.52 293.438L169.133 300.959Z" fill="#FF5757"/>
<path d="M200.677 311.383C205.916 311.342 210.955 311.293 215.731 311.236L228.805 300.959H213.751L200.677 311.383Z" fill="#FF5757"/>
<path d="M199.605 300.959H213.751L222.78 293.759L208.472 293.655L199.605 300.959Z" fill="#FF5757"/>
<path d="M230.785 311.006C236.275 310.902 241.163 310.781 245.294 310.642L257.758 300.959H243.157L230.785 311.006Z" fill="#FF5757"/>
<path d="M228.805 300.959H243.157L251.762 293.97L237.824 293.869L228.805 300.959Z" fill="#FF5757"/>
<path d="M274.66 300.959C277.861 298.846 281.234 296.528 284.49 294.208L266.615 294.078L257.758 300.959H274.66Z" fill="#FF5757"/>
<path d="M222.78 293.759L237.824 293.869L248.054 285.828L232.921 285.674L222.78 293.759Z" fill="#FF5757"/>
<path d="M193.244 293.545L208.472 293.655L218.342 285.526L203.545 285.376L193.244 293.545Z" fill="#FF5757"/>
<path d="M163.373 293.328L178.52 293.438L188.769 285.226L173.58 285.072L163.373 293.328Z" fill="#FF5757"/>
<path d="M251.762 293.97L266.615 294.078L276.859 286.12L261.619 285.965L251.762 293.97Z" fill="#FF5757"/>
<path d="M271.064 278.294H257.638L248.054 285.828L261.619 285.965L271.064 278.294Z" fill="#FF5757"/>
<path d="M242.177 278.294H227.123L218.342 285.526L232.921 285.674L242.177 278.294Z" fill="#FF5757"/>
<path d="M212.476 278.294L197.422 278.294L188.769 285.226L203.545 285.376L212.476 278.294Z" fill="#FF5757"/>
<path d="M302.392 278.294L286.932 278.294L276.859 286.12L295.069 286.304C299.17 283.052 302.13 280.386 302.802 279.109C302.672 278.804 302.534 278.531 302.392 278.294Z" fill="#FF5757"/>
<path d="M79.4317 278.294C77.1872 278.294 72.4665 280.609 66.9087 283.99M79.4317 278.294C80.4939 278.294 85.0006 278.294 92.0444 278.294M79.4317 278.294H92.0444M35.4905 310.029C34.4055 314.098 36.1414 322.805 38.7454 323.456C42.0003 324.27 251.128 326.711 259.672 323.049M35.4905 310.029C33.8326 309.587 37.4289 305.786 43.2209 300.959M35.4905 310.029C36.3149 310.249 40.8514 310.456 48.1032 310.642M259.672 309.623V323.049M259.672 309.623C262.362 308.698 268.158 305.25 274.66 300.959M259.672 309.623C258.472 310.035 253.306 310.372 245.294 310.642M302.392 278.294C301.685 278.294 296.023 278.294 286.932 278.294M302.392 278.294C302.968 278.294 303.078 278.584 302.802 279.109M302.392 278.294C302.534 278.531 302.672 278.804 302.802 279.109M302.392 278.294L286.932 278.294M259.672 323.049C268.216 319.387 296.289 297.417 301.172 292.534C304.737 288.969 304.167 282.307 302.802 279.109M66.9087 283.99C62.8848 286.438 58.4221 289.444 54.1428 292.534M66.9087 283.99L84.0703 284.164M295.069 286.304C292.018 288.724 288.335 291.468 284.49 294.208M295.069 286.304C299.17 283.052 302.13 280.386 302.802 279.109M295.069 286.304L276.859 286.12M54.1428 292.534C50.1803 295.396 46.375 298.329 43.2209 300.959M54.1428 292.534L72.519 292.668M284.49 294.208C281.234 296.528 277.861 298.846 274.66 300.959M284.49 294.208L266.615 294.078M43.2209 300.959H61.2568M274.66 300.959H257.758M48.1032 310.642C52.5739 310.756 58.0766 310.863 64.3777 310.959M48.1032 310.642L61.2568 300.959M92.0444 278.294C96.23 278.294 101.311 278.294 107.098 278.294M92.0444 278.294L84.0703 284.164M92.0444 278.294H107.098M64.3777 310.959C68.9973 311.03 74.0459 311.096 79.4317 311.156M64.3777 310.959L77.4572 300.959M107.098 278.294C111.702 278.294 116.752 278.294 122.152 278.294M107.098 278.294L99.2202 284.318M107.098 278.294H122.152M79.4317 311.156C84.5757 311.213 90.0273 311.265 95.7062 311.31M79.4317 311.156L92.6884 300.959M122.152 278.294C127.165 278.294 132.48 278.294 138.02 278.294M122.152 278.294L114.125 284.469M122.152 278.294H138.02M95.7062 311.31C100.83 311.352 106.139 311.388 111.574 311.419M95.7062 311.31L108.973 300.959M138.02 278.294C142.882 278.294 147.917 278.294 153.074 278.294M138.02 278.294L129.901 284.629M138.02 278.294H153.074M111.574 311.419C116.371 311.446 121.267 311.469 126.221 311.488M111.574 311.419L124.679 300.959M153.074 278.294C157.865 278.294 162.761 278.294 167.721 278.294M153.074 278.294L144.946 284.782M153.074 278.294H167.721M126.221 311.488C131.061 311.506 135.956 311.52 140.868 311.529M126.221 311.488L139.385 300.959M167.721 278.294C172.422 278.294 177.181 278.294 181.961 278.294M167.721 278.294L159.426 284.929M167.721 278.294L181.961 278.294M140.868 311.529C145.881 311.538 150.913 311.543 155.922 311.543M140.868 311.529L153.938 300.959M181.961 278.294C187.104 278.294 192.272 278.294 197.422 278.294M181.961 278.294L173.58 285.072M181.961 278.294H197.422M155.922 311.543C160.838 311.542 165.733 311.537 170.569 311.526M155.922 311.543L169.133 300.959M197.422 278.294C202.472 278.294 207.504 278.294 212.476 278.294M197.422 278.294L188.769 285.226M197.422 278.294L212.476 278.294M170.569 311.526C176.09 311.515 181.533 311.496 186.843 311.47M170.569 311.526L183.895 300.959M212.476 278.294C217.431 278.294 222.327 278.294 227.123 278.294M212.476 278.294L203.545 285.376M212.476 278.294H227.123M186.843 311.47C191.574 311.447 196.198 311.418 200.677 311.383M186.843 311.47L199.606 300.959M227.123 278.294C232.273 278.294 237.308 278.294 242.177 278.294M227.123 278.294L218.342 285.526M227.123 278.294H242.177M200.677 311.383C205.916 311.342 210.955 311.293 215.731 311.236M200.677 311.383L213.751 300.959M242.177 278.294C247.557 278.294 252.733 278.294 257.638 278.294M242.177 278.294L232.921 285.674M242.177 278.294H257.638M215.731 311.236C221.115 311.171 226.163 311.094 230.785 311.006M215.731 311.236L228.805 300.959M257.638 278.294C262.389 278.294 266.886 278.294 271.064 278.294M257.638 278.294L248.054 285.828M257.638 278.294H271.064M230.785 311.006C236.275 310.902 241.163 310.781 245.294 310.642M230.785 311.006L243.157 300.959M271.064 278.294C277.073 278.294 282.424 278.294 286.932 278.294M271.064 278.294L261.619 285.965M271.064 278.294H286.932M245.294 310.642L257.758 300.959M286.932 278.294L276.859 286.12M61.2568 300.959H77.4572M61.2568 300.959L72.519 292.668M77.4572 300.959H92.6884M77.4572 300.959L88.1515 292.781M92.6884 300.959H108.973M92.6884 300.959L103.177 292.891M108.973 300.959H124.679M108.973 300.959L119.164 293.007M124.679 300.959H139.385M124.679 300.959L134.502 293.118M139.385 300.959H153.938M139.385 300.959L149.055 293.224M153.938 300.959H169.133M153.938 300.959L163.373 293.328M169.133 300.959H183.895M169.133 300.959L178.52 293.438M183.895 300.959H199.606M183.895 300.959L193.244 293.545M199.606 300.959H213.751M199.606 300.959L208.472 293.655M213.751 300.959H228.805M213.751 300.959L222.78 293.759M228.805 300.959H243.157M228.805 300.959L237.824 293.869M243.157 300.959H257.758M243.157 300.959L251.762 293.97M257.758 300.959L266.615 294.078M266.615 294.078L251.762 293.97M266.615 294.078L276.859 286.12M251.762 293.97L237.824 293.869M251.762 293.97L261.619 285.965M222.78 293.759L237.824 293.869M222.78 293.759L208.472 293.655M222.78 293.759L232.921 285.674M237.824 293.869L248.054 285.828M193.244 293.545L208.472 293.655M193.244 293.545L178.52 293.438M193.244 293.545L203.545 285.376M208.472 293.655L218.342 285.526M163.373 293.328L178.52 293.438M163.373 293.328L149.055 293.224M163.373 293.328L173.58 285.072M178.52 293.438L188.769 285.226M134.502 293.118L149.055 293.224M134.502 293.118L119.164 293.007M134.502 293.118L144.946 284.782M149.055 293.224L159.426 284.929M103.177 292.891L119.164 293.007M103.177 292.891L88.1515 292.781M103.177 292.891L114.125 284.469M119.164 293.007L129.901 284.629M72.519 292.668L88.1515 292.781M72.519 292.668L84.0703 284.164M88.1515 292.781L99.2202 284.318M84.0703 284.164L99.2202 284.318M114.125 284.469L99.2202 284.318M114.125 284.469L129.901 284.629M129.901 284.629L144.946 284.782M144.946 284.782L159.426 284.929M159.426 284.929L173.58 285.072M173.58 285.072L188.769 285.226M188.769 285.226L203.545 285.376M203.545 285.376L218.342 285.526M218.342 285.526L232.921 285.674M232.921 285.674L248.054 285.828M248.054 285.828L261.619 285.965M261.619 285.965L276.859 286.12" stroke="#231F20" stroke-width="0.813725"/>
</g>
<defs>
<clipPath id="clip0_3754_2392">
<rect width="457.314" height="332" fill="white" transform="translate(0.343262)"/>
</clipPath>
</defs>
</svg>
