<svg width="562" height="408" viewBox="0 0 562 408" fill="none" xmlns="http://www.w3.org/2000/svg">
<g clip-path="url(#clip0_3783_3896)">
<path d="M173.017 1.04225L173.018 1.04212C176.992 -0.329177 180.683 1.00839 183.491 3.8743C186.309 6.75116 188.203 11.1459 188.494 15.7531L188.494 15.7538C188.635 17.9426 189.091 19.3638 189.933 20.0905C190.829 20.8647 191.973 20.713 193.057 20.2761C194.151 19.8351 195.369 19.0328 196.583 18.2129C196.699 18.1347 196.814 18.0563 196.93 17.9778C198.05 17.2196 199.174 16.4582 200.266 15.8906L200.267 15.8901C200.703 15.6619 201.143 15.4212 201.591 15.1768C202.519 14.67 203.475 14.1477 204.477 13.69C205.95 13.017 207.454 12.519 208.961 12.4676C210.453 12.4168 211.97 12.8028 213.489 13.939C215.019 15.0833 216.572 17.0054 218.086 20.0624C221.108 26.1626 220.6 30.0139 219.196 32.4146C217.772 34.8508 215.345 35.9408 214.247 36.3355C213.352 36.6545 212.663 36.9817 212.168 37.3329C211.674 37.6835 211.327 38.0921 211.21 38.5844C211.092 39.0836 211.236 39.559 211.488 39.9836C211.738 40.4036 212.12 40.8198 212.565 41.2349C213.147 41.7774 213.901 42.3736 214.715 43.0184C215.135 43.3506 215.571 43.6957 216.008 44.053C217.316 45.1212 218.684 46.3351 219.846 47.7568C221.904 50.2827 221.693 53.911 219.738 57.1495C217.791 60.3765 214.162 63.1052 209.616 63.7282C201.509 64.8392 196.007 58.8228 193.994 56.6213C193.744 56.3485 193.548 56.1343 193.407 55.9995C193.162 55.764 192.841 55.6379 192.478 55.7249C192.17 55.7986 191.906 56.0107 191.681 56.2379C191.226 56.699 190.681 57.4952 189.994 58.5099C189.939 58.5909 189.883 58.6736 189.826 58.7579C188.431 60.8219 186.352 63.898 183.004 67.678C179.504 71.6302 176.528 73.6241 173.891 73.6806C171.309 73.7358 168.812 71.9229 166.27 67.5742C163.755 63.2699 163.829 60.701 164.634 58.8159C165.048 57.8451 165.672 57.0172 166.338 56.1881C166.421 56.085 166.505 55.9814 166.59 55.8773C167.168 55.1627 167.767 54.4237 168.199 53.6178C168.447 53.1552 168.608 52.5812 168.225 52.1339C168.055 51.935 167.824 51.8282 167.605 51.768C167.384 51.707 167.133 51.6819 166.87 51.6772C165.876 51.6595 164.355 51.9378 162.679 52.2446L162.53 52.2719C160.764 52.595 158.782 52.9534 156.875 53.0983C154.96 53.2437 153.178 53.1683 151.793 52.6629C148.451 51.4161 144.14 49.3686 141.916 46.1917C140.818 44.6238 140.231 42.7841 140.518 40.6057C140.807 38.4137 141.988 35.829 144.528 32.8014C149.433 26.9656 155.785 25.2422 161.941 25.7555C162.581 25.8097 163.101 25.8087 163.502 25.7282C163.907 25.6471 164.28 25.465 164.475 25.0842C164.656 24.7303 164.614 24.3299 164.529 23.9845C164.441 23.6265 164.277 23.216 164.086 22.7751C164.007 22.591 163.921 22.397 163.831 22.1931C163.045 20.42 161.925 17.8916 161.803 14.4806C161.664 10.6043 162.162 8.09994 163.77 6.15169C165.399 4.17704 168.236 2.68819 173.017 1.04225Z" fill="#FBB040" stroke="#231F20"/>
<path d="M73.1366 325.418C54.806 323.869 47.8264 300.291 54.0126 280.812C59.7347 262.837 44.1256 270.865 32.7011 271.716C20.5581 272.622 2.80185 276.958 0.694264 246.676C-1.41332 216.394 16.8441 215.851 21.8017 216.22C37.21 217.307 23.5467 205.701 18.9653 189.75C14.6657 174.809 33.2215 159.642 52.2543 165.306C71.2872 170.971 76.5979 192.331 77.9875 195.612C79.377 198.892 86.0085 190.457 105.574 180.674C125.14 170.89 136.053 174.292 139.034 196.421C142.015 218.55 130.397 218.396 124.092 223.761C117.788 229.126 145.158 228.857 154.735 238.37C165.631 249.196 182.291 270.766 152.943 286.399C138.65 294.016 124.788 291.84 113.131 285.274C103.864 280.036 111.622 291.525 106.035 307.474C100.447 323.424 94.0357 327.178 73.1366 325.418Z" fill="#FF85A5" stroke="#231F20" stroke-miterlimit="10"/>
<path d="M11.5962 259.543C2.87186 249.683 3.5742 219.624 26.1702 222.228C49.6986 224.935 56.3987 229.185 40.823 215.968C25.2472 202.751 18.0904 180.821 31.6685 177.089C45.2467 173.357 61.5174 165.543 70.9305 189.466C80.3436 213.389 71.1789 209.613 85.704 198.885C100.229 188.157 118.241 178.255 127.274 186.929C136.307 195.602 134.385 209.661 123.537 218.098C112.689 226.535 94.4087 231.076 122.884 232.391C151.359 233.706 166.809 262.284 157.901 272.265C148.994 282.246 132.556 290.271 118.977 279.985C105.398 269.698 90.6413 250.962 98.4691 281.959C106.297 312.956 84.7659 327.412 67.684 314.311C50.6021 301.21 59.0045 279.394 60.768 272.43C62.5315 265.465 66.3791 256.051 45.7307 262.357C25.0824 268.664 16.3656 264.944 11.5962 259.543Z" fill="#FF5757" stroke="#231F20" stroke-miterlimit="10"/>
<path d="M18.7407 246.528C25.0066 271.616 56.9598 246.11 66.9582 252.434C76.9566 258.759 74.4232 262.942 68.5568 285.259C62.6904 307.576 81.2921 312.213 87.1588 306.662C93.8475 300.356 98.0652 292.755 90.3136 272.239C82.5619 251.723 95.8511 250.064 105.213 258.596C114.574 267.127 135.426 274.385 142.828 266.997C150.23 259.609 141.86 241.308 125.334 238.88C108.808 236.453 81.0831 240.658 103.305 223.174C125.527 205.689 119.513 190.291 98.421 198.346C77.3287 206.401 76.1418 235.319 71.7998 214.561C67.4578 193.802 66.7483 178.109 45.2746 182.433C23.8009 186.757 47.5378 216.823 58.4652 222.619C69.3926 228.414 62.6977 237.453 43.9268 230.526C25.1559 223.599 16.8446 238.934 18.7407 246.528Z" fill="#FBB040" stroke="#231F20" stroke-miterlimit="10"/>
<path d="M70.241 242.444C67.0503 228.704 86.0841 220.452 88.9597 234.62C91.8352 248.789 87.6699 253.147 80.5007 252.065C73.3314 250.983 70.241 242.444 70.241 242.444Z" fill="#FAFAFA"/>
<path d="M388.693 103.5C394.193 119.5 395.193 192 395.193 196.5C395.193 196.639 395.193 196.848 395.194 197.125L395.194 197.158C395.215 206.028 395.389 281.188 386.193 302C382.068 311.336 377.66 317.372 372.847 321.5C378.903 319.607 385.091 316.554 391.193 312.669C394.138 310.794 397.062 308.725 399.943 306.5C399.546 306.561 399.593 306.54 400.002 306.454C426.262 286.142 448.819 252.816 449.193 234.5C449.693 210 442.693 160 417.193 120.5C396.793 88.9 367.026 72.6667 354.693 68.5001C374.693 77.0001 383.193 87.5 388.693 103.5Z" fill="#47627F"/>
<path fill-rule="evenodd" clip-rule="evenodd" d="M119.193 206.5C119.193 192.1 123.193 130.167 125.193 101C126.004 89.0001 136.193 71.0001 156.193 66.5001C176.193 62.0001 243.193 61 257.193 61.5001C259.595 61.5859 263.572 61.6481 268.593 61.7267C292.839 62.1061 341.438 62.8667 354.693 68.5001C374.693 77.0001 383.193 87.5 388.693 103.5C394.193 119.5 395.193 192 395.193 196.5C395.193 196.639 395.193 196.848 395.194 197.125L395.194 197.158C395.215 206.028 395.389 281.188 386.193 302C382.068 311.336 377.66 317.372 372.847 321.5C366.575 326.879 359.614 329.02 351.693 331C338.842 334.213 274.589 334.055 255.237 334.008C253.507 334.003 252.136 334 251.193 334C250.232 334 248.866 334.004 247.162 334.008C228.466 334.056 169.023 334.208 156.193 331C142.193 327.5 128.693 313 125.193 302C121.693 291 119.193 224.5 119.193 206.5ZM399.943 306.5C399.546 306.561 399.593 306.54 400.002 306.454C402.942 305.838 424.597 301.878 434.693 301C446.193 300 479.193 301 489.693 313C494.649 318.665 498.693 328 494.193 337C489.693 346 482.193 349 471.693 348C465.989 347.457 457.04 344.848 449.253 342.578C442.704 340.669 436.977 339 434.693 339C429.693 339 423.693 341 421.193 344.472C423.69 345.574 426.891 347.178 429.663 350C433.55 353.955 436.596 360.3 435.689 371C435.581 372.271 435.417 373.603 435.193 375C432.104 394.221 412.521 405.431 395.693 406.851C388.007 407.499 380.896 406.106 376.193 402.5C361.193 391 362.193 377 376.193 357.5C376.981 356.402 377.817 355.377 378.693 354.42C390.262 341.785 408.826 341.106 417.193 342.5C421.193 336.5 427.693 334.5 435.193 335C437.819 335.175 442.344 336.392 447.632 337.814C457.449 340.453 469.894 343.8 477.693 342.5C489.693 340.5 496.193 324.5 484.693 315.5C473.193 306.5 450.193 306 437.693 306.5C425.193 307 399.693 310.279 391.193 312.669C394.138 310.794 397.062 308.725 399.943 306.5Z" fill="#77A4D4"/>
<path d="M435.689 371C435.581 372.271 435.417 373.603 435.193 375C432.104 394.221 412.521 405.431 395.693 406.851C426.693 408 436.693 396 442.193 386C447.693 376 443.693 354.996 429.663 350C433.55 353.955 436.596 360.3 435.689 371Z" fill="#47627F"/>
<path d="M354.693 68.5001C374.693 77.0001 383.193 87.5 388.693 103.5C394.193 119.5 395.193 192 395.193 196.5C395.193 196.639 395.193 196.848 395.194 197.125M354.693 68.5001C367.026 72.6667 396.793 88.9 417.193 120.5C442.693 160 449.693 210 449.193 234.5C448.819 252.816 426.262 286.142 400.002 306.454M354.693 68.5001C341.438 62.8667 292.839 62.1061 268.593 61.7267C263.572 61.6481 259.595 61.5859 257.193 61.5001C243.193 61 176.193 62.0001 156.193 66.5001C136.193 71.0001 126.004 89.0001 125.193 101C123.193 130.167 119.193 192.1 119.193 206.5C119.193 224.5 121.693 291 125.193 302C128.693 313 142.193 327.5 156.193 331C169.023 334.208 228.466 334.056 247.162 334.008C248.866 334.004 250.232 334 251.193 334C252.136 334 253.507 334.003 255.237 334.008C274.589 334.055 338.842 334.213 351.693 331C359.614 329.02 366.575 326.879 372.847 321.5M372.847 321.5C377.66 317.372 382.068 311.336 386.193 302C395.389 281.188 395.215 206.028 395.194 197.158M372.847 321.5C378.903 319.607 385.091 316.554 391.193 312.669M391.193 312.669C399.693 310.279 425.193 307 437.693 306.5C450.193 306 473.193 306.5 484.693 315.5C496.193 324.5 489.693 340.5 477.693 342.5C469.894 343.8 457.449 340.453 447.632 337.814C442.344 336.392 437.819 335.175 435.193 335C427.693 334.5 421.193 336.5 417.193 342.5M391.193 312.669C394.138 310.794 397.062 308.725 399.943 306.5M417.193 342.5C408.826 341.106 390.262 341.785 378.693 354.42M417.193 342.5C411.593 345.3 406.526 351.997 404.693 354.996M417.193 342.5C417.769 343.076 419.273 343.625 421.193 344.472M378.693 354.42C377.817 355.377 376.981 356.402 376.193 357.5C362.193 377 361.193 391 376.193 402.5C380.896 406.106 388.007 407.499 395.693 406.851M378.693 354.42C384.431 353.352 394.154 352.897 404.693 354.996M435.689 371C435.581 372.271 435.417 373.603 435.193 375C432.104 394.221 412.521 405.431 395.693 406.851M435.689 371C426.67 361.783 415.271 357.103 404.693 354.996M435.689 371C436.596 360.3 433.55 353.955 429.663 350M395.693 406.851C426.693 408 436.693 396 442.193 386C447.693 376 443.693 354.996 429.663 350M429.663 350C426.891 347.178 423.69 345.574 421.193 344.472M421.193 344.472C423.693 341 429.693 339 434.693 339C436.977 339 442.704 340.669 449.253 342.578C457.04 344.848 465.989 347.457 471.693 348C482.193 349 489.693 346 494.193 337C498.693 328 494.649 318.665 489.693 313C479.193 301 446.193 300 434.693 301C424.597 301.878 402.942 305.838 400.002 306.454M399.943 306.5C399.546 306.561 399.593 306.54 400.002 306.454M399.943 306.5C399.963 306.485 399.982 306.47 400.002 306.454M395.194 197.158L395.194 197.125M395.194 197.158C395.194 197.147 395.194 197.136 395.194 197.125" stroke="#231F20"/>
<path d="M431.193 274.5C432.693 277.667 437.893 283.9 446.693 283.5C457.693 283 461.693 273 459.693 267C457.693 261 450.193 261 450.193 268.5C450.193 276 462.193 287 470.693 285C479.193 283 487.193 273.5 484.193 264.5C481.193 255.5 472.193 258 474.193 267C476.193 276 493.693 279 501.193 272.5C508.693 266 507.693 253 503.193 247C498.693 241 489.693 246 493.193 253C496.693 260 514.193 260 519.693 250.5C525.193 241 521.193 232 517.193 228C513.193 224 503.693 225.5 506.693 233.5C509.693 241.5 523.193 242 529.193 236.5C535.193 231 532.693 224 534.693 210" stroke="#231F20" stroke-linecap="round"/>
<path d="M559.242 178.571C557.8 176.041 537.692 171.827 529.571 170.895C525.686 171.844 521.357 187.829 524.497 190.15C527.638 192.47 533.337 192.622 533.693 194.079C534.049 195.536 531.965 199.648 532.192 202.681C532.419 205.714 538.959 207.204 540.308 204.301C541.658 201.397 541.809 195.699 543.752 195.224C545.695 194.749 548.965 195.494 553.088 195.516C557.211 195.538 561.044 181.733 559.242 178.571Z" fill="#77A4D4"/>
<path d="M539.926 166.82C539.073 167.543 538.469 167.176 538.231 166.205C537.994 165.233 540.606 157.525 541.071 156.761C541.438 156.157 542.409 155.919 542.646 156.891C542.884 157.862 540.778 166.097 539.926 166.82Z" fill="#77A4D4"/>
<path d="M554.097 170.048C553.244 170.772 552.64 170.404 552.403 169.433C552.165 168.462 554.778 160.754 555.242 159.989C555.609 159.385 556.58 159.147 556.818 160.119C557.055 161.09 554.95 169.325 554.097 170.048Z" fill="#77A4D4"/>
<path d="M559.242 178.571C557.8 176.041 537.692 171.827 529.571 170.895C525.686 171.844 521.357 187.829 524.497 190.15C527.638 192.47 533.337 192.622 533.693 194.079C534.049 195.536 531.965 199.648 532.192 202.681C532.419 205.714 538.959 207.204 540.308 204.301C541.658 201.397 541.809 195.699 543.752 195.224C545.695 194.749 548.965 195.494 553.088 195.516C557.211 195.538 561.044 181.733 559.242 178.571Z" stroke="#231F20"/>
<path d="M539.926 166.82C539.073 167.543 538.469 167.176 538.231 166.205C537.994 165.233 540.606 157.525 541.071 156.761C541.438 156.157 542.409 155.919 542.646 156.891C542.884 157.862 540.778 166.097 539.926 166.82Z" stroke="#231F20"/>
<path d="M554.097 170.048C553.244 170.772 552.64 170.404 552.403 169.433C552.165 168.462 554.778 160.754 555.242 159.989C555.609 159.385 556.58 159.147 556.818 160.119C557.055 161.09 554.95 169.325 554.097 170.048Z" stroke="#231F20"/>
<path d="M140.193 199.501C140.193 188.04 143.541 138.746 145.215 115.532C145.893 105.981 154.421 91.6544 171.16 88.0728C187.899 84.4912 243.974 83.6952 255.691 84.0931C267.408 84.4911 323.902 84.2523 337.293 89.6645C354.032 96.4298 361.146 104.787 365.749 117.522C370.352 130.256 371.189 187.96 371.189 191.542C371.189 195.124 371.608 258.399 363.657 275.511C355.706 292.623 346.499 295.807 334.782 298.593C323.065 301.378 260.294 300.98 250.669 300.98C241.044 300.98 182.877 301.378 171.16 298.593C159.443 295.807 148.144 284.266 145.215 275.511C142.285 266.756 140.193 213.828 140.193 199.501Z" fill="#FF5757" stroke="#231F20"/>
<circle cx="350.193" cy="313" r="5" fill="#47627F"/>
<rect x="325.193" y="313" width="12" height="3" rx="1" fill="#47627F"/>
<rect x="307.193" y="313" width="12" height="3" rx="1" fill="#47627F"/>
<path d="M358.562 264.949C363.745 254.926 378.637 256.511 388.12 264.6C396.869 272.075 396.03 261.341 398.22 254.672C400.562 247.565 402.311 236.496 419.798 242.43C437.285 248.364 433.32 258.825 431.957 261.563C427.721 270.027 437.462 265.025 447.487 266.172C456.899 267.25 461.053 281.337 453.396 290.783C445.738 300.23 432.481 298.207 430.29 298.207C428.1 298.207 431.3 303.97 432.184 317.372C433.068 330.775 428.598 336.138 415.467 332.626C402.336 329.114 405.152 322.558 403.624 317.727C402.096 312.896 395.809 328.467 388.233 331.656C379.591 335.282 363.549 339.644 361.675 319.344C360.759 309.454 365.241 302.106 371.681 297.053C376.8 293.034 368.524 294.727 360.866 287.816C353.209 280.906 352.634 276.373 358.562 264.949Z" fill="#FF85A5" stroke="#231F20" stroke-miterlimit="10"/>
<path d="M410.025 245.575C417.601 242.95 434.337 250.425 427.55 262.616C420.486 275.295 416.534 278.104 427.62 272.392C438.705 266.68 452.714 267.776 451.609 276.348C450.504 284.919 451.066 296.001 435.416 295.684C419.766 295.367 424.053 291.069 426.66 301.834C429.267 312.599 430.599 325.126 423.598 328.201C416.597 331.275 409.161 326.882 406.97 318.754C404.779 310.627 406.534 299.196 399.091 315.02C391.648 330.844 371.946 332.867 368.461 325.481C364.976 318.095 364.307 306.886 373.278 301.612C382.248 296.337 396.251 292.387 376.996 289.528C357.742 286.669 354.686 271.073 366.056 264.48C377.425 257.886 387.715 267.776 391.219 270.414C394.723 273.051 399.091 277.445 400.405 264.258C401.718 251.071 405.865 247.014 410.025 245.575Z" fill="#FF5757" stroke="#231F20" stroke-miterlimit="10"/>
<path d="M415.657 252.681C400.108 250.317 406.901 274.439 400.998 278.611C395.095 282.782 393.334 280.367 382.179 271.802C371.024 263.237 364.042 272.671 365.765 277.292C367.735 282.567 371.018 286.738 384.363 287.182C397.709 287.626 395.525 295.532 388.524 298.828C381.523 302.125 372.552 312.231 374.976 318.165C377.4 324.099 389.635 323.655 394.887 314.868C400.139 306.081 404.293 289.376 408.889 306.075C413.485 322.774 423.548 322.996 423.99 309.156C424.432 295.316 408.435 287.842 421.124 290.257C433.813 292.672 442.784 295.963 445.41 282.789C448.036 269.615 425.555 275.974 419.729 280.811C413.902 285.648 410.404 279.708 418.719 270.667C427.033 261.627 420.366 253.398 415.657 252.681Z" fill="#FBB040" stroke="#231F20" stroke-miterlimit="10"/>
<path d="M405.739 283.169C413.58 284.507 413.706 296.54 405.739 294.936C397.772 293.332 396.421 290.124 398.549 286.517C400.676 282.909 405.739 283.169 405.739 283.169Z" fill="#FAFAFA"/>
<path d="M412.518 143.851L412.518 143.85C411.263 140.8 412.222 137.736 414.507 135.233C416.798 132.723 420.385 130.834 424.209 130.224C426.034 129.936 427.221 129.452 427.812 128.697C428.453 127.878 428.277 126.92 427.864 126.055C427.452 125.191 426.731 124.26 426.008 123.348C425.937 123.259 425.867 123.17 425.796 123.081C425.125 122.238 424.459 121.399 423.954 120.574C423.746 120.233 423.528 119.892 423.308 119.547C422.858 118.841 422.397 118.118 421.985 117.35C421.379 116.218 420.921 115.058 420.828 113.864C420.648 111.551 421.83 108.872 426.8 105.935C431.766 103.001 434.969 103.118 436.982 104.044C439.026 104.984 440.005 106.83 440.365 107.675L440.365 107.675C440.666 108.379 440.969 108.923 441.291 109.309C441.614 109.696 441.991 109.964 442.436 110.024C442.882 110.083 443.287 109.919 443.636 109.678C443.983 109.438 444.319 109.092 444.651 108.696C445.082 108.182 445.553 107.523 446.061 106.812C446.324 106.444 446.597 106.063 446.88 105.68C447.723 104.537 448.685 103.335 449.828 102.283L449.828 102.283C451.844 100.426 454.846 100.31 457.58 101.618C460.305 102.923 462.674 105.612 463.337 109.203C464 112.794 462.791 115.926 461.272 118.318C460.082 120.192 458.75 121.55 457.976 122.34C457.752 122.568 457.575 122.749 457.461 122.881C457.267 123.106 457.152 123.404 457.25 123.74C457.333 124.02 457.543 124.238 457.745 124.405C458.155 124.747 458.85 125.131 459.715 125.603C459.788 125.642 459.861 125.683 459.937 125.724C461.705 126.687 464.331 128.119 467.583 130.515C470.994 133.026 472.711 135.248 472.843 137.324C472.972 139.361 471.578 141.515 468.039 143.925C464.544 146.305 462.42 146.439 460.859 145.95C460.052 145.697 459.354 145.266 458.646 144.794C458.555 144.734 458.464 144.672 458.372 144.61C457.764 144.202 457.126 143.772 456.439 143.484C456.029 143.312 455.513 143.22 455.132 143.591C454.964 143.755 454.879 143.964 454.835 144.156C454.79 144.35 454.778 144.565 454.784 144.783C454.804 145.601 455.088 146.818 455.396 148.14L455.427 148.273C455.754 149.678 456.116 151.245 456.298 152.766C456.482 154.293 456.476 155.717 456.108 156.848L456.108 156.849C455.205 159.648 453.649 163.29 451.084 165.336C449.819 166.347 448.314 166.964 446.505 166.907C444.686 166.849 442.509 166.108 439.915 164.302L439.915 164.301C434.929 160.842 433.288 155.866 433.488 150.858C433.511 150.335 433.493 149.901 433.408 149.566C433.322 149.226 433.14 148.894 432.768 148.748C432.436 148.617 432.082 148.693 431.799 148.789C431.5 148.891 431.161 149.059 430.8 149.248C430.651 149.326 430.494 149.41 430.33 149.499C428.88 150.277 426.818 151.384 423.982 151.755C420.748 152.177 418.676 151.976 417.035 150.86C415.37 149.728 414.05 147.591 412.518 143.851Z" fill="#FF5757" stroke="#231F20"/>
<path d="M43.1928 381C41.8595 386 43.9929 396.7 47.1929 397.5C51.1929 398.5 308.193 401.5 318.693 397V380.5C317.218 381.007 310.869 381.421 301.024 381.752C295.947 381.923 289.94 382.072 283.193 382.201C277.514 382.309 271.309 382.402 264.693 382.482C258.824 382.553 252.631 382.614 246.193 382.664C240.689 382.706 235.006 382.742 229.193 382.77C222.667 382.802 215.978 382.825 209.193 382.84C203.25 382.853 197.235 382.859 191.193 382.86C185.037 382.86 178.854 382.854 172.693 382.843C166.656 382.831 160.641 382.814 154.693 382.792C148.605 382.769 142.589 382.741 136.693 382.707C130.014 382.669 123.49 382.625 117.193 382.574C110.214 382.518 103.514 382.455 97.1929 382.384C90.5743 382.311 84.3699 382.23 78.6929 382.143C70.9494 382.024 64.187 381.893 58.6929 381.752C49.781 381.524 44.206 381.27 43.1928 381Z" fill="#77A4D4"/>
<path d="M318.693 397C329.193 392.5 363.693 365.5 369.693 359.5C374.075 355.118 373.373 346.931 371.696 343.002C370.87 344.571 367.233 347.847 362.193 351.844C358.443 354.817 353.917 358.19 349.193 361.556C345.19 364.408 341.046 367.256 337.112 369.853C329.122 375.126 321.999 379.364 318.693 380.5V397Z" fill="#77A4D4"/>
<path d="M52.6929 369.853C45.575 375.786 41.1555 380.457 43.1928 381C44.206 381.27 49.781 381.524 58.6929 381.752L74.8576 369.853H52.6929Z" fill="#FBB040"/>
<path d="M58.6929 381.752C64.187 381.893 70.9494 382.024 78.6929 382.143L94.7665 369.853H74.8576L58.6929 381.752Z" fill="#FF5757"/>
<path d="M78.6929 382.143C84.3699 382.23 90.5743 382.311 97.1929 382.384L113.484 369.853H94.7665L78.6929 382.143Z" fill="#FBB040"/>
<path d="M133.497 369.853L117.193 382.574C123.49 382.625 130.014 382.669 136.693 382.707L152.798 369.853H133.497Z" fill="#FBB040"/>
<path d="M170.87 369.853L154.693 382.792C160.641 382.814 166.656 382.831 172.693 382.843L188.754 369.853H170.87Z" fill="#FBB040"/>
<path d="M207.428 369.853L191.193 382.86C197.235 382.859 203.25 382.853 209.193 382.84L225.57 369.853H207.428Z" fill="#FBB040"/>
<path d="M244.876 369.853L229.193 382.77C235.006 382.742 240.689 382.706 246.193 382.664L262.26 369.853H244.876Z" fill="#FBB040"/>
<path d="M280.76 369.853L264.693 382.482C271.309 382.402 277.514 382.309 283.193 382.201L298.397 369.853H280.76Z" fill="#FBB040"/>
<path d="M318.693 380.5C321.999 379.364 329.122 375.126 337.112 369.853H316.341L301.024 381.752C310.869 381.421 317.218 381.007 318.693 380.5Z" fill="#FBB040"/>
<path d="M327.226 361.397L308.972 361.264L298.397 369.853H316.341L327.226 361.397Z" fill="#FBB040"/>
<path d="M273.356 361.005L262.26 369.853H280.76L291.844 361.14L273.356 361.005Z" fill="#FBB040"/>
<path d="M237.059 360.742L225.57 369.853H244.876L255.773 360.878L237.059 360.742Z" fill="#FBB040"/>
<path d="M200.349 360.475L188.754 369.853H207.428L218.964 360.61L200.349 360.475Z" fill="#FBB040"/>
<path d="M164.869 360.217L152.798 369.853H170.87L182.754 360.347L164.869 360.217Z" fill="#FBB040"/>
<path d="M126.374 359.938L113.484 369.853H133.497L146.021 360.08L126.374 359.938Z" fill="#FBB040"/>
<path d="M88.6978 359.664L74.8576 369.853H94.7665L107.909 359.804L88.6978 359.664Z" fill="#FBB040"/>
<path d="M102.893 349.214L81.8032 349C76.8582 352.008 71.3739 355.702 66.115 359.5L88.6978 359.664L102.893 349.214Z" fill="#FBB040"/>
<path d="M126.374 359.938L139.828 349.589L121.511 349.403L107.909 359.804L126.374 359.938Z" fill="#FBB040"/>
<path d="M131.193 342H112.693L102.893 349.214L121.511 349.403L131.193 342Z" fill="#FBB040"/>
<path d="M169.193 342H149.693L139.828 349.589L159.215 349.785L169.193 342Z" fill="#FBB040"/>
<path d="M164.869 360.217L177.704 349.973L159.215 349.785L146.021 360.08L164.869 360.217Z" fill="#FBB040"/>
<path d="M205.693 342H187.693L177.704 349.973L195.499 350.153L205.693 342Z" fill="#FBB040"/>
<path d="M200.349 360.475L212.894 350.33L195.499 350.153L182.754 360.347L200.349 360.475Z" fill="#FBB040"/>
<path d="M242.193 342H223.193L212.894 350.33L231.56 350.519L242.193 342Z" fill="#FBB040"/>
<path d="M237.059 360.742L249.718 350.703L231.56 350.519L218.964 360.61L237.059 360.742Z" fill="#FBB040"/>
<path d="M278.693 342H260.693L249.718 350.703L267.902 350.888L278.693 342Z" fill="#FBB040"/>
<path d="M273.356 361.005L285.818 351.069L267.902 350.888L255.773 360.878L273.356 361.005Z" fill="#FBB040"/>
<path d="M316.193 342H297.193L285.818 351.069L304.415 351.258L316.193 342Z" fill="#FBB040"/>
<path d="M308.972 361.264L321.085 351.427L304.415 351.258L291.844 361.14L308.972 361.264Z" fill="#FBB040"/>
<path d="M352.193 342H332.693L321.085 351.427L339.814 351.617L352.193 342Z" fill="#FBB040"/>
<path d="M349.193 361.556C353.917 358.19 358.443 354.817 362.193 351.844L339.814 351.617L327.226 361.397L349.193 361.556Z" fill="#FBB040"/>
<path d="M66.115 359.5C61.2454 363.017 56.569 366.622 52.6929 369.853H74.8576L88.6978 359.664L66.115 359.5Z" fill="#FF5757"/>
<path d="M94.7665 369.853H113.484L126.374 359.938L107.909 359.804L94.7665 369.853Z" fill="#FF5757"/>
<path d="M97.1929 382.384C103.514 382.455 110.214 382.518 117.193 382.574L133.497 369.853H113.484L97.1929 382.384Z" fill="#FF5757"/>
<path d="M136.693 382.707C142.589 382.741 148.605 382.769 154.693 382.792L170.87 369.853H152.798L136.693 382.707Z" fill="#FF5757"/>
<path d="M133.497 369.853H152.798L164.869 360.217L146.021 360.08L133.497 369.853Z" fill="#FF5757"/>
<path d="M126.374 359.938L146.021 360.08L159.215 349.785L139.828 349.589L126.374 359.938Z" fill="#FF5757"/>
<path d="M88.6978 359.664L107.909 359.804L121.511 349.403L102.893 349.214L88.6978 359.664Z" fill="#FF5757"/>
<path d="M97.1929 342C94.4346 342 88.6332 344.845 81.8032 349L102.893 349.214L112.693 342H97.1929Z" fill="#FF5757"/>
<path d="M149.693 342H131.193L121.511 349.403L139.828 349.589L149.693 342Z" fill="#FF5757"/>
<path d="M187.693 342H169.193L159.215 349.785L177.704 349.973L187.693 342Z" fill="#FF5757"/>
<path d="M164.869 360.217L182.754 360.347L195.499 350.153L177.704 349.973L164.869 360.217Z" fill="#FF5757"/>
<path d="M170.87 369.853H188.754L200.349 360.475L182.754 360.347L170.87 369.853Z" fill="#FF5757"/>
<path d="M223.193 342L205.693 342L195.499 350.153L212.894 350.33L223.193 342Z" fill="#FF5757"/>
<path d="M172.693 382.843C178.854 382.854 185.037 382.86 191.193 382.86L207.428 369.853H188.754L172.693 382.843Z" fill="#FF5757"/>
<path d="M209.193 382.84C215.978 382.825 222.667 382.802 229.193 382.77L244.876 369.853H225.57L209.193 382.84Z" fill="#FF5757"/>
<path d="M207.428 369.853H225.57L237.059 360.742L218.964 360.61L207.428 369.853Z" fill="#FF5757"/>
<path d="M246.193 382.664C252.631 382.614 258.824 382.553 264.693 382.482L280.76 369.853H262.26L246.193 382.664Z" fill="#FF5757"/>
<path d="M244.876 369.853H262.26L273.356 361.005L255.773 360.878L244.876 369.853Z" fill="#FF5757"/>
<path d="M283.193 382.201C289.94 382.072 295.947 381.923 301.024 381.752L316.341 369.853H298.397L283.193 382.201Z" fill="#FF5757"/>
<path d="M280.76 369.853H298.397L308.972 361.264L291.844 361.14L280.76 369.853Z" fill="#FF5757"/>
<path d="M337.112 369.853C341.046 367.256 345.19 364.408 349.193 361.556L327.226 361.397L316.341 369.853H337.112Z" fill="#FF5757"/>
<path d="M273.356 361.005L291.844 361.14L304.415 351.258L285.818 351.069L273.356 361.005Z" fill="#FF5757"/>
<path d="M237.059 360.742L255.773 360.878L267.902 350.888L249.718 350.703L237.059 360.742Z" fill="#FF5757"/>
<path d="M200.349 360.475L218.964 360.61L231.56 350.519L212.894 350.33L200.349 360.475Z" fill="#FF5757"/>
<path d="M308.972 361.264L327.226 361.397L339.814 351.617L321.085 351.427L308.972 361.264Z" fill="#FF5757"/>
<path d="M332.693 342H316.193L304.415 351.258L321.085 351.427L332.693 342Z" fill="#FF5757"/>
<path d="M297.193 342H278.693L267.902 350.888L285.818 351.069L297.193 342Z" fill="#FF5757"/>
<path d="M260.693 342L242.193 342L231.56 350.519L249.718 350.703L260.693 342Z" fill="#FF5757"/>
<path d="M371.193 342L352.193 342L339.814 351.617L362.193 351.844C367.233 347.847 370.87 344.571 371.696 343.002C371.536 342.627 371.367 342.29 371.193 342Z" fill="#FF5757"/>
<path d="M97.1929 342C94.4346 342 88.6332 344.845 81.8032 349M97.1929 342C98.4983 342 104.037 342 112.693 342M97.1929 342H112.693M43.1928 381C41.8595 386 43.9929 396.7 47.1929 397.5C51.1929 398.5 308.193 401.5 318.693 397M43.1928 381C41.1555 380.457 45.575 375.786 52.6929 369.853M43.1928 381C44.206 381.27 49.781 381.524 58.6929 381.752M318.693 380.5V397M318.693 380.5C321.999 379.364 329.122 375.126 337.112 369.853M318.693 380.5C317.218 381.007 310.869 381.421 301.024 381.752M371.193 342C370.324 342 363.366 342 352.193 342M371.193 342C371.901 342 372.036 342.357 371.696 343.002M371.193 342C371.367 342.29 371.536 342.627 371.696 343.002M371.193 342L352.193 342M318.693 397C329.193 392.5 363.693 365.5 369.693 359.5C374.075 355.118 373.373 346.931 371.696 343.002M81.8032 349C76.8582 352.008 71.3739 355.702 66.115 359.5M81.8032 349L102.893 349.214M362.193 351.844C358.443 354.817 353.917 358.19 349.193 361.556M362.193 351.844C367.233 347.847 370.87 344.571 371.696 343.002M362.193 351.844L339.814 351.617M66.115 359.5C61.2454 363.017 56.569 366.622 52.6929 369.853M66.115 359.5L88.6978 359.664M349.193 361.556C345.19 364.408 341.046 367.256 337.112 369.853M349.193 361.556L327.226 361.397M52.6929 369.853H74.8576M337.112 369.853H316.341M58.6929 381.752C64.187 381.893 70.9494 382.024 78.6929 382.143M58.6929 381.752L74.8576 369.853M112.693 342C117.837 342 124.081 342 131.193 342M112.693 342L102.893 349.214M112.693 342H131.193M78.6929 382.143C84.3699 382.23 90.5743 382.311 97.1929 382.384M78.6929 382.143L94.7665 369.853M131.193 342C136.85 342 143.056 342 149.693 342M131.193 342L121.511 349.403M131.193 342H149.693M97.1929 382.384C103.514 382.455 110.214 382.518 117.193 382.574M97.1929 382.384L113.484 369.853M149.693 342C155.853 342 162.384 342 169.193 342M149.693 342L139.828 349.589M149.693 342H169.193M117.193 382.574C123.49 382.625 130.014 382.669 136.693 382.707M117.193 382.574L133.497 369.853M169.193 342C175.167 342 181.355 342 187.693 342M169.193 342L159.215 349.785M169.193 342H187.693M136.693 382.707C142.589 382.741 148.605 382.769 154.693 382.792M136.693 382.707L152.798 369.853M187.693 342C193.581 342 199.598 342 205.693 342M187.693 342L177.704 349.973M187.693 342H205.693M154.693 382.792C160.641 382.814 166.656 382.831 172.693 382.843M154.693 382.792L170.87 369.853M205.693 342C211.47 342 217.318 342 223.193 342M205.693 342L195.499 350.153M205.693 342L223.193 342M172.693 382.843C178.854 382.854 185.037 382.86 191.193 382.86M172.693 382.843L188.754 369.853M223.193 342C229.513 342 235.865 342 242.193 342M223.193 342L212.894 350.33M223.193 342H242.193M191.193 382.86C197.235 382.859 203.25 382.853 209.193 382.84M191.193 382.86L207.428 369.853M242.193 342C248.399 342 254.582 342 260.693 342M242.193 342L231.56 350.519M242.193 342L260.693 342M209.193 382.84C215.978 382.825 222.667 382.802 229.193 382.77M209.193 382.84L225.57 369.853M260.693 342C266.782 342 272.799 342 278.693 342M260.693 342L249.718 350.703M260.693 342H278.693M229.193 382.77C235.006 382.742 240.689 382.706 246.193 382.664M229.193 382.77L244.876 369.853M278.693 342C285.023 342 291.21 342 297.193 342M278.693 342L267.902 350.888M278.693 342H297.193M246.193 382.664C252.631 382.614 258.824 382.553 264.693 382.482M246.193 382.664L262.26 369.853M297.193 342C303.804 342 310.166 342 316.193 342M297.193 342L285.818 351.069M297.193 342H316.193M264.693 382.482C271.309 382.402 277.514 382.309 283.193 382.201M264.693 382.482L280.76 369.853M316.193 342C322.032 342 327.558 342 332.693 342M316.193 342L304.415 351.258M316.193 342H332.693M283.193 382.201C289.94 382.072 295.947 381.923 301.024 381.752M283.193 382.201L298.397 369.853M332.693 342C340.077 342 346.653 342 352.193 342M332.693 342L321.085 351.427M332.693 342H352.193M301.024 381.752L316.341 369.853M352.193 342L339.814 351.617M74.8576 369.853H94.7665M74.8576 369.853L88.6978 359.664M94.7665 369.853H113.484M94.7665 369.853L107.909 359.804M113.484 369.853H133.497M113.484 369.853L126.374 359.938M133.497 369.853H152.798M133.497 369.853L146.021 360.08M152.798 369.853H170.87M152.798 369.853L164.869 360.217M170.87 369.853H188.754M170.87 369.853L182.754 360.347M188.754 369.853H207.428M188.754 369.853L200.349 360.475M207.428 369.853H225.57M207.428 369.853L218.964 360.61M225.57 369.853H244.876M225.57 369.853L237.059 360.742M244.876 369.853H262.26M244.876 369.853L255.773 360.878M262.26 369.853H280.76M262.26 369.853L273.356 361.005M280.76 369.853H298.397M280.76 369.853L291.844 361.14M298.397 369.853H316.341M298.397 369.853L308.972 361.264M316.341 369.853L327.226 361.397M327.226 361.397L308.972 361.264M327.226 361.397L339.814 351.617M308.972 361.264L291.844 361.14M308.972 361.264L321.085 351.427M273.356 361.005L291.844 361.14M273.356 361.005L255.773 360.878M273.356 361.005L285.818 351.069M291.844 361.14L304.415 351.258M237.059 360.742L255.773 360.878M237.059 360.742L218.964 360.61M237.059 360.742L249.718 350.703M255.773 360.878L267.902 350.888M200.349 360.475L218.964 360.61M200.349 360.475L182.754 360.347M200.349 360.475L212.894 350.33M218.964 360.61L231.56 350.519M164.869 360.217L182.754 360.347M164.869 360.217L146.021 360.08M164.869 360.217L177.704 349.973M182.754 360.347L195.499 350.153M126.374 359.938L146.021 360.08M126.374 359.938L107.909 359.804M126.374 359.938L139.828 349.589M146.021 360.08L159.215 349.785M88.6978 359.664L107.909 359.804M88.6978 359.664L102.893 349.214M107.909 359.804L121.511 349.403M102.893 349.214L121.511 349.403M139.828 349.589L121.511 349.403M139.828 349.589L159.215 349.785M159.215 349.785L177.704 349.973M177.704 349.973L195.499 350.153M195.499 350.153L212.894 350.33M212.894 350.33L231.56 350.519M231.56 350.519L249.718 350.703M249.718 350.703L267.902 350.888M267.902 350.888L285.818 351.069M285.818 351.069L304.415 351.258M304.415 351.258L321.085 351.427M321.085 351.427L339.814 351.617" stroke="#231F20"/>
<rect x="176.481" y="205.481" width="155.037" height="20.037" rx="3.37037" fill="#F7EFE9" stroke="#231F20" stroke-width="0.962963"/>
<rect x="179.481" y="208.481" width="14.037" height="14.037" rx="2.36852" fill="#FF5757" stroke="#231F20" stroke-width="0.962963"/>
<rect x="196.481" y="208.481" width="14.037" height="14.037" rx="2.36852" fill="#FBB040" stroke="#231F20" stroke-width="0.962963"/>
<rect x="213.481" y="208.481" width="14.037" height="14.037" rx="2.36852" fill="#77A4D4" stroke="#231F20" stroke-width="0.962963"/>
<path d="M314.401 176.393V184.872H320.577C321.763 184.872 322.601 185.09 323.089 185.526C323.595 185.962 323.848 186.686 323.848 187.698C323.848 188.728 323.595 189.469 323.089 189.923C322.601 190.376 321.763 190.603 320.577 190.603H305.949C304.745 190.603 303.89 190.376 303.384 189.923C302.878 189.469 302.625 188.728 302.625 187.698C302.625 186.686 302.87 185.962 303.358 185.526C303.864 185.09 304.728 184.872 305.949 184.872H307.938V172.154H306.812C305.626 172.154 304.78 171.936 304.274 171.5C303.786 171.046 303.541 170.305 303.541 169.276C303.541 168.246 303.777 167.514 304.248 167.078C304.736 166.641 305.591 166.423 306.812 166.423H312.386C312.857 166.423 313.224 166.528 313.485 166.737C313.747 166.929 313.878 167.2 313.878 167.549V171.421C315.78 169.38 317.55 167.924 319.19 167.051C320.847 166.179 322.627 165.743 324.529 165.743C326.256 165.743 327.625 166.135 328.637 166.921C329.649 167.688 330.155 168.726 330.155 170.035C330.155 171.046 329.806 171.884 329.108 172.547C328.41 173.192 327.512 173.515 326.413 173.515C325.628 173.515 324.694 173.227 323.613 172.651C322.548 172.076 321.807 171.788 321.388 171.788C320.551 171.788 319.565 172.163 318.431 172.913C317.297 173.663 315.954 174.823 314.401 176.393Z" fill="#F7EFE9"/>
<path d="M284.463 171.37C282.422 171.37 280.739 172.041 279.413 173.385C278.104 174.71 277.45 176.411 277.45 178.487C277.45 180.581 278.104 182.317 279.413 183.695C280.739 185.056 282.422 185.736 284.463 185.736C286.504 185.736 288.188 185.056 289.514 183.695C290.84 182.317 291.503 180.581 291.503 178.487C291.503 176.411 290.84 174.71 289.514 173.385C288.205 172.041 286.522 171.37 284.463 171.37ZM284.463 165.848C288.702 165.848 292.139 167.034 294.774 169.407C297.408 171.78 298.725 174.824 298.725 178.54C298.725 182.273 297.408 185.326 294.774 187.699C292.139 190.071 288.702 191.258 284.463 191.258C280.241 191.258 276.813 190.071 274.179 187.699C271.545 185.326 270.228 182.273 270.228 178.54C270.228 174.824 271.545 171.78 274.179 169.407C276.831 167.034 280.259 165.848 284.463 165.848Z" fill="#F7EFE9"/>
<path d="M252.17 176.393V184.872H258.346C259.532 184.872 260.37 185.09 260.858 185.526C261.364 185.962 261.617 186.686 261.617 187.698C261.617 188.728 261.364 189.469 260.858 189.923C260.37 190.376 259.532 190.603 258.346 190.603H243.718C242.514 190.603 241.659 190.376 241.153 189.923C240.647 189.469 240.395 188.728 240.395 187.698C240.395 186.686 240.639 185.962 241.127 185.526C241.633 185.09 242.497 184.872 243.718 184.872H245.707V172.154H244.581C243.395 172.154 242.549 171.936 242.043 171.5C241.555 171.046 241.31 170.305 241.31 169.276C241.31 168.246 241.546 167.514 242.017 167.078C242.505 166.641 243.36 166.423 244.581 166.423H250.155C250.626 166.423 250.993 166.528 251.254 166.737C251.516 166.929 251.647 167.2 251.647 167.549V171.421C253.549 169.38 255.319 167.924 256.959 167.051C258.617 166.179 260.396 165.743 262.298 165.743C264.025 165.743 265.394 166.135 266.406 166.921C267.418 167.688 267.924 168.726 267.924 170.035C267.924 171.046 267.575 171.884 266.877 172.547C266.179 173.192 265.281 173.515 264.182 173.515C263.397 173.515 262.463 173.227 261.382 172.651C260.317 172.076 259.576 171.788 259.157 171.788C258.32 171.788 257.334 172.163 256.2 172.913C255.066 173.663 253.723 174.823 252.17 176.393Z" fill="#F7EFE9"/>
<path d="M221.055 176.393V184.872H227.231C228.417 184.872 229.255 185.09 229.743 185.526C230.249 185.962 230.502 186.686 230.502 187.698C230.502 188.728 230.249 189.469 229.743 189.923C229.255 190.376 228.417 190.603 227.231 190.603H212.603C211.399 190.603 210.544 190.376 210.038 189.923C209.532 189.469 209.279 188.728 209.279 187.698C209.279 186.686 209.524 185.962 210.012 185.526C210.518 185.09 211.381 184.872 212.603 184.872H214.591V172.154H213.466C212.28 172.154 211.434 171.936 210.928 171.5C210.439 171.046 210.195 170.305 210.195 169.276C210.195 168.246 210.431 167.514 210.902 167.078C211.39 166.641 212.245 166.423 213.466 166.423H219.04C219.511 166.423 219.878 166.528 220.139 166.737C220.401 166.929 220.532 167.2 220.532 167.549V171.421C222.433 169.38 224.204 167.924 225.844 167.051C227.501 166.179 229.281 165.743 231.182 165.743C232.909 165.743 234.279 166.135 235.291 166.921C236.303 167.688 236.809 168.726 236.809 170.035C236.809 171.046 236.46 171.884 235.762 172.547C235.064 173.192 234.166 173.515 233.066 173.515C232.281 173.515 231.348 173.227 230.266 172.651C229.202 172.076 228.461 171.788 228.042 171.788C227.205 171.788 226.219 172.163 225.085 172.913C223.951 173.663 222.608 174.823 221.055 176.393Z" fill="#F7EFE9"/>
<path d="M198.628 165.089H186.459V171.788H191.065V171.474C191.065 170.48 191.283 169.738 191.719 169.25C192.156 168.761 192.818 168.517 193.708 168.517C194.493 168.517 195.13 168.744 195.618 169.198C196.124 169.634 196.377 170.192 196.377 170.872C196.377 170.907 196.386 171.021 196.404 171.213C196.421 171.405 196.43 171.596 196.43 171.788V177.205C196.43 178.374 196.22 179.211 195.802 179.717C195.383 180.223 194.703 180.476 193.761 180.476C192.871 180.476 192.199 180.241 191.746 179.77C191.292 179.299 191.065 178.601 191.065 177.676V177.205H186.459V185.03H198.628V181.916C198.628 180.747 198.846 179.909 199.282 179.403C199.736 178.897 200.468 178.644 201.48 178.644C202.475 178.644 203.181 178.897 203.6 179.403C204.036 179.892 204.254 180.729 204.254 181.916V188.248C204.254 189.19 204.071 189.818 203.705 190.132C203.338 190.446 202.614 190.603 201.533 190.603H180.101C178.949 190.603 178.12 190.377 177.615 189.923C177.126 189.469 176.882 188.728 176.882 187.699C176.882 186.774 177.117 186.076 177.588 185.605C178.059 185.117 178.749 184.873 179.656 184.873H180.101V165.351H179.656C178.766 165.351 178.077 165.107 177.588 164.618C177.117 164.112 176.882 163.397 176.882 162.472C176.882 161.46 177.135 160.728 177.641 160.274C178.147 159.803 178.967 159.568 180.101 159.568H201.533C202.597 159.568 203.312 159.733 203.678 160.065C204.062 160.379 204.254 161.016 204.254 161.975V167.837C204.254 169.023 204.036 169.878 203.6 170.401C203.164 170.907 202.457 171.16 201.48 171.16C200.468 171.16 199.736 170.899 199.282 170.375C198.846 169.852 198.628 169.006 198.628 167.837V165.089Z" fill="#F7EFE9"/>
<path fill-rule="evenodd" clip-rule="evenodd" d="M314.402 176.394C315.954 174.824 317.298 173.663 318.431 172.913C319.565 172.163 320.551 171.788 321.389 171.788C321.807 171.788 322.549 172.076 323.613 172.652C324.694 173.227 325.628 173.515 326.413 173.515C327.512 173.515 328.41 173.192 329.108 172.547C329.806 171.884 330.155 171.047 330.155 170.035C330.155 168.726 329.649 167.688 328.637 166.921C327.625 166.136 326.256 165.743 324.529 165.743C322.627 165.743 320.848 166.179 319.19 167.052C317.807 167.788 316.33 168.939 314.76 170.507C314.469 170.798 314.175 171.103 313.878 171.422V167.549C313.878 167.2 313.747 166.929 313.486 166.738C313.224 166.528 312.858 166.424 312.387 166.424H306.813C305.591 166.424 304.737 166.642 304.248 167.078C303.777 167.514 303.542 168.247 303.542 169.276C303.542 170.305 303.786 171.047 304.274 171.5C304.78 171.936 305.626 172.154 306.813 172.154H307.938V184.872H305.949C304.728 184.872 303.864 185.09 303.358 185.527C302.87 185.963 302.626 186.687 302.626 187.698C302.626 188.728 302.879 189.469 303.385 189.923C303.891 190.376 304.745 190.603 305.949 190.603H320.577C321.764 190.603 322.601 190.376 323.089 189.923C323.595 189.469 323.848 188.728 323.848 187.698C323.848 186.687 323.595 185.963 323.089 185.527C322.601 185.09 321.764 184.872 320.577 184.872H314.402V176.394ZM315.284 183.99H320.577C321.819 183.99 322.933 184.208 323.671 184.863C324.449 185.538 324.73 186.566 324.73 187.698C324.73 188.846 324.451 189.883 323.684 190.574C322.945 191.256 321.825 191.485 320.577 191.485H305.949C304.68 191.485 303.549 191.255 302.796 190.58C302.025 189.888 301.744 188.849 301.744 187.698C301.744 186.572 302.013 185.545 302.771 184.869L302.777 184.863L302.783 184.858C303.536 184.209 304.672 183.99 305.949 183.99H307.056V173.036H306.813C305.563 173.036 304.449 172.815 303.698 172.168L303.686 172.158L303.674 172.147C302.928 171.454 302.66 170.419 302.66 169.276C302.66 168.145 302.914 167.111 303.649 166.431L303.655 166.425L303.661 166.42C304.402 165.758 305.54 165.541 306.813 165.541H312.387C312.972 165.541 313.554 165.67 314.022 166.037C314.519 166.409 314.76 166.949 314.76 167.549V169.278C316.147 167.967 317.486 166.959 318.776 166.273L318.78 166.271C320.566 165.331 322.486 164.861 324.529 164.861C326.382 164.861 327.962 165.282 329.175 166.221C330.411 167.161 331.037 168.462 331.037 170.035C331.037 171.274 330.599 172.348 329.716 173.186L329.707 173.195C328.821 174.014 327.697 174.397 326.413 174.397C325.424 174.397 324.343 174.039 323.198 173.43L323.193 173.427C322.679 173.149 322.263 172.952 321.939 172.826C321.596 172.693 321.43 172.67 321.389 172.67C320.801 172.67 319.989 172.94 318.918 173.649C317.916 174.312 316.706 175.341 315.284 176.758V183.99Z" fill="#231F20"/>
<path fill-rule="evenodd" clip-rule="evenodd" d="M279.413 173.385C280.739 172.041 282.423 171.37 284.464 171.37C286.522 171.37 288.206 172.041 289.514 173.385C290.84 174.71 291.503 176.411 291.503 178.487C291.503 180.581 290.84 182.317 289.514 183.695C288.189 185.056 286.505 185.736 284.464 185.736C282.423 185.736 280.739 185.056 279.413 183.695C278.105 182.317 277.451 180.581 277.451 178.487C277.451 176.411 278.105 174.71 279.413 173.385ZM280.041 174.004C278.915 175.145 278.333 176.614 278.333 178.487C278.333 180.378 278.915 181.887 280.049 183.084C281.195 184.258 282.643 184.854 284.464 184.854C286.285 184.854 287.734 184.257 288.88 183.082C290.031 181.885 290.621 180.376 290.621 178.487C290.621 176.618 290.033 175.15 288.891 174.008L288.882 174C287.757 172.845 286.31 172.252 284.464 172.252C282.637 172.252 281.187 172.843 280.041 174.004ZM294.774 169.407C292.14 167.034 288.703 165.848 284.464 165.848C280.259 165.848 276.831 167.034 274.18 169.407C271.545 171.78 270.228 174.824 270.228 178.54C270.228 182.273 271.545 185.326 274.18 187.699C276.814 190.071 280.242 191.258 284.464 191.258C288.703 191.258 292.14 190.071 294.774 187.699C297.409 185.326 298.726 182.273 298.726 178.54C298.726 174.824 297.409 171.78 294.774 169.407ZM273.589 168.751L273.592 168.75C276.434 166.207 280.084 164.966 284.464 164.966C288.876 164.966 292.538 166.205 295.365 168.751C298.194 171.3 299.608 174.587 299.608 178.54C299.608 182.508 298.195 185.804 295.365 188.354C292.538 190.9 288.876 192.14 284.464 192.14C280.068 192.14 276.416 190.9 273.589 188.354C270.759 185.804 269.346 182.508 269.346 178.54C269.346 174.587 270.759 171.3 273.589 168.751Z" fill="#231F20"/>
<path fill-rule="evenodd" clip-rule="evenodd" d="M252.171 176.394C253.724 174.824 255.067 173.663 256.201 172.913C257.335 172.163 258.321 171.788 259.158 171.788C259.577 171.788 260.318 172.076 261.382 172.652C262.464 173.227 263.397 173.515 264.182 173.515C265.281 173.515 266.18 173.192 266.878 172.547C267.576 171.884 267.924 171.047 267.924 170.035C267.924 168.726 267.419 167.688 266.407 166.921C265.395 166.136 264.025 165.743 262.298 165.743C260.397 165.743 258.617 166.179 256.96 167.052C255.576 167.788 254.1 168.939 252.53 170.507C252.239 170.798 251.945 171.103 251.648 171.422V167.549C251.648 167.2 251.517 166.929 251.255 166.738C250.993 166.528 250.627 166.424 250.156 166.424H244.582C243.361 166.424 242.506 166.642 242.018 167.078C241.547 167.514 241.311 168.247 241.311 169.276C241.311 170.305 241.555 171.047 242.044 171.5C242.55 171.936 243.396 172.154 244.582 172.154H245.707V184.872H243.719C242.497 184.872 241.634 185.09 241.128 185.527C240.639 185.963 240.395 186.687 240.395 187.698C240.395 188.728 240.648 189.469 241.154 189.923C241.66 190.376 242.515 190.603 243.719 190.603H258.347C259.533 190.603 260.371 190.376 260.859 189.923C261.365 189.469 261.618 188.728 261.618 187.698C261.618 186.687 261.365 185.963 260.859 185.527C260.371 185.09 259.533 184.872 258.347 184.872H252.171V176.394ZM253.053 183.99H258.347C259.589 183.99 260.702 184.208 261.441 184.863C262.219 185.538 262.5 186.566 262.5 187.698C262.5 188.846 262.22 189.883 261.454 190.574C260.715 191.256 259.595 191.485 258.347 191.485H243.719C242.449 191.485 241.319 191.255 240.565 190.58C239.794 189.888 239.513 188.849 239.513 187.698C239.513 186.572 239.783 185.545 240.54 184.869L240.546 184.863L240.552 184.858C241.306 184.209 242.442 183.99 243.719 183.99H244.825V173.036H244.582C243.332 173.036 242.218 172.815 241.468 172.168L241.456 172.158L241.444 172.147C240.697 171.454 240.429 170.419 240.429 169.276C240.429 168.145 240.683 167.111 241.418 166.431L241.424 166.425L241.43 166.42C242.172 165.758 243.31 165.541 244.582 165.541H250.156C250.742 165.541 251.323 165.67 251.792 166.037C252.289 166.409 252.53 166.949 252.53 167.549V169.278C253.917 167.967 255.255 166.959 256.546 166.273L256.549 166.271C258.335 165.331 260.256 164.861 262.298 164.861C264.152 164.861 265.732 165.282 266.944 166.221C268.181 167.161 268.807 168.462 268.807 170.035C268.807 171.274 268.368 172.348 267.485 173.186L267.477 173.195C266.591 174.014 265.466 174.397 264.182 174.397C263.194 174.397 262.112 174.039 260.968 173.43L260.963 173.427C260.448 173.149 260.032 172.952 259.709 172.826C259.365 172.693 259.2 172.67 259.158 172.67C258.571 172.67 257.759 172.94 256.688 173.649C255.685 174.312 254.475 175.341 253.053 176.758V183.99Z" fill="#231F20"/>
<path fill-rule="evenodd" clip-rule="evenodd" d="M221.055 176.394C222.608 174.824 223.951 173.663 225.085 172.913C226.219 172.163 227.205 171.788 228.042 171.788C228.461 171.788 229.202 172.076 230.267 172.652C231.348 173.227 232.282 173.515 233.067 173.515C234.166 173.515 235.064 173.192 235.762 172.547C236.46 171.884 236.809 171.047 236.809 170.035C236.809 168.726 236.303 167.688 235.291 166.921C234.279 166.136 232.91 165.743 231.183 165.743C229.281 165.743 227.501 166.179 225.844 167.052C224.461 167.788 222.984 168.939 221.414 170.507C221.123 170.798 220.829 171.103 220.532 171.422V167.549C220.532 167.2 220.401 166.929 220.139 166.738C219.878 166.528 219.511 166.424 219.04 166.424H213.466C212.245 166.424 211.39 166.642 210.902 167.078C210.431 167.514 210.195 168.247 210.195 169.276C210.195 170.305 210.44 171.047 210.928 171.5C211.434 171.936 212.28 172.154 213.466 172.154H214.592V184.872H212.603C211.382 184.872 210.518 185.09 210.012 185.527C209.524 185.963 209.28 186.687 209.28 187.698C209.28 188.728 209.532 189.469 210.038 189.923C210.544 190.376 211.399 190.603 212.603 190.603H227.231C228.417 190.603 229.255 190.376 229.743 189.923C230.249 189.469 230.502 188.728 230.502 187.698C230.502 186.687 230.249 185.963 229.743 185.527C229.255 185.09 228.417 184.872 227.231 184.872H221.055V176.394ZM221.937 183.99H227.231C228.473 183.99 229.587 184.208 230.325 184.863C231.103 185.538 231.384 186.566 231.384 187.698C231.384 188.846 231.104 189.883 230.338 190.574C229.599 191.256 228.479 191.485 227.231 191.485H212.603C211.334 191.485 210.203 191.255 209.45 190.58C208.679 189.888 208.397 188.849 208.397 187.698C208.397 186.572 208.667 185.545 209.425 184.869L209.43 184.863L209.436 184.858C210.19 184.209 211.326 183.99 212.603 183.99H213.71V173.036H213.466C212.216 173.036 211.103 172.815 210.352 172.168L210.34 172.158L210.328 172.147C209.582 171.454 209.313 170.419 209.313 169.276C209.313 168.145 209.567 167.111 210.303 166.431L210.309 166.425L210.315 166.42C211.056 165.758 212.194 165.541 213.466 165.541H219.04C219.626 165.541 220.208 165.67 220.676 166.037C221.173 166.409 221.414 166.949 221.414 167.549V169.278C222.801 167.967 224.14 166.959 225.43 166.273L225.433 166.271C227.219 165.331 229.14 164.861 231.183 164.861C233.036 164.861 234.616 165.282 235.828 166.221C237.065 167.161 237.691 168.462 237.691 170.035C237.691 171.274 237.252 172.348 236.37 173.186L236.361 173.195C235.475 174.014 234.351 174.397 233.067 174.397C232.078 174.397 230.997 174.039 229.852 173.43L229.847 173.427C229.332 173.149 228.917 172.952 228.593 172.826C228.25 172.693 228.084 172.67 228.042 172.67C227.455 172.67 226.643 172.94 225.572 173.649C224.569 174.312 223.359 175.341 221.937 176.758V183.99Z" fill="#231F20"/>
<path fill-rule="evenodd" clip-rule="evenodd" d="M198.62 178.821L198.626 178.814C199.314 178.046 200.342 177.762 201.48 177.762C202.594 177.762 203.611 178.043 204.269 178.828C204.919 179.566 205.136 180.677 205.136 181.915V188.248C205.136 189.227 204.962 190.217 204.279 190.802C203.941 191.092 203.509 191.253 203.074 191.348C202.629 191.444 202.111 191.485 201.533 191.485H180.101C178.872 191.485 177.774 191.25 177.026 190.58L177.02 190.575L177.015 190.569C176.268 189.876 176 188.841 176 187.699C176 186.636 176.271 185.679 176.959 184.987C177.55 184.377 178.336 184.079 179.219 184.008V166.215C178.343 166.142 177.565 165.842 176.965 165.242L176.954 165.231L176.943 165.219C176.275 164.501 176 163.543 176 162.472C176 161.337 176.282 160.312 177.046 159.623C177.792 158.932 178.882 158.686 180.101 158.686H201.533C202.105 158.686 202.622 158.73 203.066 158.833C203.497 158.932 203.921 159.101 204.254 159.396C204.955 159.983 205.136 160.984 205.136 161.975V167.837C205.136 169.091 204.913 170.203 204.278 170.966L204.273 170.972L204.268 170.977C203.599 171.754 202.593 172.042 201.48 172.042C200.333 172.042 199.302 171.745 198.616 170.953L198.61 170.946L198.605 170.94C197.97 170.179 197.746 169.078 197.746 167.837V165.971H187.342V170.906H190.206C190.279 170.033 190.534 169.253 191.062 168.662C191.719 167.926 192.662 167.635 193.708 167.635C194.668 167.635 195.529 167.916 196.207 168.54C196.9 169.143 197.256 169.939 197.26 170.859C197.26 170.86 197.26 170.861 197.26 170.861C197.26 170.873 197.262 170.89 197.264 170.916C197.267 170.967 197.274 171.038 197.282 171.133C197.302 171.351 197.312 171.57 197.312 171.788V177.205C197.312 178.436 197.1 179.532 196.481 180.28C195.832 181.064 194.847 181.358 193.761 181.358C192.72 181.358 191.783 181.08 191.11 180.381C190.531 179.779 190.259 178.98 190.197 178.087H187.342V184.147H197.746V181.915C197.746 180.679 197.969 179.576 198.614 178.827L198.62 178.821ZM198.628 185.03H186.46V177.205H191.065V177.676C191.065 178.601 191.292 179.299 191.746 179.77C192.199 180.241 192.871 180.476 193.761 180.476C194.703 180.476 195.383 180.223 195.802 179.717C196.221 179.211 196.43 178.374 196.43 177.205V171.788C196.43 171.596 196.421 171.404 196.404 171.213C196.386 171.021 196.378 170.907 196.378 170.872C196.378 170.192 196.125 169.634 195.619 169.198C195.13 168.744 194.493 168.517 193.708 168.517C192.819 168.517 192.156 168.761 191.72 169.25C191.283 169.738 191.065 170.48 191.065 171.474V171.788H186.46V165.089H198.628V167.837C198.628 169.006 198.846 169.852 199.282 170.375C199.736 170.899 200.469 171.16 201.48 171.16C202.457 171.16 203.164 170.907 203.6 170.401C204.036 169.878 204.254 169.023 204.254 167.837V161.975C204.254 161.016 204.062 160.379 203.679 160.065C203.312 159.733 202.597 159.568 201.533 159.568H180.101C178.967 159.568 178.147 159.803 177.641 160.274C177.135 160.728 176.882 161.46 176.882 162.472C176.882 163.397 177.118 164.112 177.589 164.618C178.077 165.107 178.766 165.351 179.656 165.351H180.101V184.873H179.656C178.749 184.873 178.06 185.117 177.589 185.605C177.118 186.076 176.882 186.774 176.882 187.699C176.882 188.728 177.126 189.469 177.615 189.923C178.121 190.377 178.949 190.603 180.101 190.603H201.533C202.614 190.603 203.338 190.446 203.705 190.132C204.071 189.818 204.254 189.19 204.254 188.248V181.915C204.254 180.729 204.036 179.892 203.6 179.403C203.181 178.897 202.475 178.644 201.48 178.644C200.469 178.644 199.736 178.897 199.282 179.403C198.846 179.909 198.628 180.747 198.628 181.915V185.03Z" fill="#231F20"/>
</g>
<defs>
<clipPath id="clip0_3783_3896">
<rect width="562" height="408" fill="white"/>
</clipPath>
</defs>
</svg>
