<svg width="2003" height="901" viewBox="0 0 2003 901" fill="none" xmlns="http://www.w3.org/2000/svg">
<g clip-path="url(#clip0_4344_106)">
<g clip-path="url(#clip1_4344_106)">
<path d="M9.70398 575.63C52.5425 579.689 99.034 581.94 147.592 581.94C196.15 581.94 242.641 579.726 285.48 575.63L147.592 496.041L9.70398 575.63Z" fill="#F15D2E"/>
<path d="M0 558.804C17.8955 519.655 39.2226 478.292 63.5014 436.266C87.7803 394.202 112.945 355.09 137.888 320V479.215L0 558.804Z" fill="#F15D2E"/>
<path d="M295.184 558.804C277.289 519.655 255.962 478.292 231.683 436.266C207.404 394.202 182.239 355.09 157.296 320V479.215L295.184 558.804Z" fill="#F15D2E"/>
<path d="M442.776 340.036C462.11 336.826 486.795 335.018 512.919 335.018C558.008 335.018 589.15 344.316 611.326 362.913C634.571 381.879 648.888 410.511 648.888 451.653C648.888 494.602 634.202 526.777 611.326 547.55C587.342 569.394 549.079 580.463 502.181 580.463C476.426 580.463 457.092 579.024 442.776 577.253V340.036ZM486.795 544.34C492.883 545.41 502.181 545.41 511.111 545.41C568.376 545.779 602.359 514.268 602.359 453.092C602.728 399.774 571.955 369.37 516.83 369.37C502.882 369.37 492.846 370.44 486.758 371.879V544.34H486.795Z" fill="black"/>
<path d="M822.05 470.987H731.17V541.831H832.787V577.991H687.151V336.826H827.4V372.986H731.133V435.233H822.013V470.987H822.05Z" fill="black"/>
<path d="M913.299 577.991L854.262 336.826H901.122L924.036 446.339C930.124 475.673 935.843 506.446 939.792 530.43H940.493C944.441 505.007 951.23 476.411 958.019 445.97L984.143 336.826H1030.3L1054.29 447.741C1060.37 476.374 1065.36 503.199 1068.97 529.323H1069.67C1073.95 502.83 1079.71 475.304 1086.13 445.933L1111.18 336.789H1155.9L1091.15 577.954H1043.92L1018.86 464.53C1012.78 436.967 1008.5 414.09 1005.62 387.967H1004.92C1000.64 413.721 995.987 437.004 988.829 464.53L960.934 577.954H913.299V577.991Z" fill="black"/>
<path d="M1320.14 470.987H1229.26V541.831H1330.87V577.991H1185.24V336.826H1325.49V372.986H1229.22V435.233H1320.1V470.987H1320.14Z" fill="black"/>
<path d="M1367 540.06C1380.94 548.657 1401.35 555.815 1422.82 555.815C1454.67 555.815 1473.26 538.99 1473.26 514.674C1473.26 492.129 1460.38 479.252 1427.8 466.706C1388.47 452.759 1364.12 432.354 1364.12 398.371C1364.12 360.809 1395.26 332.877 1442.12 332.877C1466.8 332.877 1484.7 338.597 1495.44 344.685L1486.84 370.108C1478.98 365.827 1462.86 358.669 1441.05 358.669C1408.14 358.669 1395.59 378.336 1395.59 394.829C1395.59 417.374 1410.28 428.443 1443.56 441.358C1484.37 457.113 1505.11 476.78 1505.11 512.202C1505.11 549.395 1477.54 581.607 1420.65 581.607C1397.4 581.607 1371.98 574.818 1359.1 566.22L1367 540.06Z" fill="black"/>
<path d="M1705.5 489.952C1705.5 554.007 1661.11 581.902 1619.27 581.902C1572.41 581.902 1536.25 547.55 1536.25 492.793C1536.25 434.826 1574.18 400.843 1622.15 400.843C1671.85 400.88 1705.5 437.003 1705.5 489.952ZM1568.09 491.76C1568.09 529.691 1589.93 558.324 1620.71 558.324C1650.78 558.324 1673.32 530.06 1673.32 491.059C1673.32 461.725 1658.64 424.495 1621.44 424.495C1584.18 424.495 1568.09 458.847 1568.09 491.76Z" fill="black"/>
<path d="M1748.41 577.991V428.775H1724.06V404.792H1748.41V396.563C1748.41 372.248 1753.8 350.035 1768.45 336.088C1780.25 324.649 1796.01 320 1810.66 320C1821.76 320 1831.39 322.509 1837.48 325.018L1833.2 349.334C1828.55 347.194 1822.1 345.386 1813.17 345.386C1786.34 345.386 1779.55 369.001 1779.55 395.493V404.792H1821.39V428.775H1779.55V577.991H1748.41Z" fill="black"/>
<path d="M1891.54 355.053V404.792H1936.63V428.775H1891.54V522.164C1891.54 543.639 1897.63 555.815 1915.15 555.815C1923.38 555.815 1929.47 554.745 1933.42 553.675L1934.86 577.29C1928.77 579.799 1919.1 581.57 1906.96 581.57C1892.28 581.57 1880.47 576.921 1872.98 568.324C1864.01 559.025 1860.8 543.639 1860.8 523.234V428.775H1833.98V404.792H1860.8V363.281L1891.54 355.053Z" fill="black"/>
<path d="M2003.49 352.544C2003.49 370.993 1988.99 385.494 1970.17 385.494C1951.5 385.494 1936.63 370.993 1936.63 352.544C1936.63 334.501 1951.5 320 1970.17 320C1988.99 320 2003.49 334.501 2003.49 352.544ZM1944.93 352.544C1944.93 367.045 1955.63 378.52 1970.32 378.52C1984.59 378.52 1995.11 367.008 1995.11 352.729C1995.11 338.228 1984.59 326.531 1970.09 326.531C1955.67 326.531 1944.93 338.265 1944.93 352.544ZM1965 369.628H1957.44V337.047C1960.43 336.457 1964.6 336.051 1969.95 336.051C1976.11 336.051 1978.88 337.047 1981.24 338.449C1983.05 339.851 1984.41 342.434 1984.41 345.607C1984.41 349.186 1981.64 351.954 1977.66 353.134V353.54C1980.83 354.721 1982.6 357.119 1983.6 361.473C1984.59 366.418 1985.19 368.41 1986 369.628H1977.88C1976.88 368.447 1976.29 365.458 1975.3 361.695C1974.71 358.116 1972.71 356.529 1968.54 356.529H1964.97V369.628H1965ZM1965.19 351.142H1968.77C1972.94 351.142 1976.29 349.74 1976.29 346.382C1976.29 343.393 1974.12 341.438 1969.36 341.438C1967.36 341.438 1966 341.622 1965.19 341.844V351.142Z" fill="black"/>
</g>
</g>
<defs>
<clipPath id="clip0_4344_106">
<rect width="2003" height="901" fill="white"/>
</clipPath>
<clipPath id="clip1_4344_106">
<rect width="2003.49" height="261.939" fill="white" transform="translate(0 320)"/>
</clipPath>
</defs>
</svg>
