<svg width="2111" height="901" viewBox="0 0 2111 901" fill="none" xmlns="http://www.w3.org/2000/svg">
<g clip-path="url(#clip0_4344_106)">
<path d="M10.2227 582.293C55.3508 586.569 104.327 588.94 155.48 588.94C206.633 588.94 255.61 586.608 300.738 582.293L155.48 498.45L10.2227 582.293Z" fill="#F15D2E"/>
<path d="M0 564.567C18.852 523.326 41.3189 479.753 66.8954 435.48C92.472 391.168 118.981 349.965 145.258 313V480.724L0 564.567Z" fill="#F15D2E"/>
<path d="M310.961 564.567C292.109 523.326 269.642 479.753 244.066 435.48C218.489 391.168 191.98 349.965 165.703 313V480.724L310.961 564.567Z" fill="#F15D2E"/>
<path d="M466.441 334.107C486.809 330.725 512.813 328.821 540.333 328.821C587.832 328.821 620.638 338.616 643.999 358.207C668.488 378.186 683.569 408.349 683.569 451.689C683.569 496.934 668.099 530.829 643.999 552.713C618.734 575.724 578.426 587.385 529.022 587.385C501.89 587.385 481.522 585.869 466.441 584.003V334.107ZM512.813 549.331C519.226 550.458 529.022 550.458 538.428 550.458C598.755 550.847 634.554 517.652 634.554 453.205C634.943 397.038 602.525 365.009 544.453 365.009C529.76 365.009 519.188 366.136 512.774 367.652V549.331H512.813Z" fill="black"/>
<path d="M865.986 472.057H770.249V546.687H877.298V584.78H723.877V330.725H871.623V368.818H770.21V434.392H865.948V472.057H865.986Z" fill="black"/>
<path d="M962.112 584.78L899.92 330.725H949.285L973.424 446.092C979.837 476.994 985.862 509.411 990.021 534.677H990.76C994.919 507.895 1002.07 477.771 1009.22 445.703L1036.74 330.725H1085.37L1110.64 447.569C1117.05 477.732 1122.3 505.991 1126.11 533.511H1126.84C1131.35 505.602 1137.42 476.605 1144.18 445.664L1170.57 330.687H1217.68L1149.47 584.741H1099.71L1073.32 465.255C1066.91 436.219 1062.4 412.119 1059.37 384.599H1058.63C1054.12 411.731 1049.22 436.258 1041.68 465.255L1012.29 584.741H962.112V584.78Z" fill="black"/>
<path d="M1390.69 472.057H1294.96V546.687H1402.01V584.78H1248.59V330.725H1396.33V368.818H1294.92V434.392H1390.66V472.057H1390.69Z" fill="black"/>
<path d="M1440.06 544.822C1454.75 553.878 1476.25 561.419 1498.87 561.419C1532.41 561.419 1552 543.694 1552 518.079C1552 494.329 1538.44 480.764 1504.12 467.548C1462.68 452.855 1437.03 431.36 1437.03 395.56C1437.03 355.991 1469.83 326.566 1519.2 326.566C1545.2 326.566 1564.05 332.591 1575.37 339.004L1566.31 365.786C1558.03 361.277 1541.04 353.736 1518.07 353.736C1483.4 353.736 1470.18 374.454 1470.18 391.829C1470.18 415.578 1485.65 427.239 1520.71 440.844C1563.7 457.442 1585.55 478.159 1585.55 515.475C1585.55 554.656 1556.51 588.589 1496.58 588.589C1472.09 588.589 1445.31 581.437 1431.74 572.38L1440.06 544.822Z" fill="black"/>
<path d="M1796.65 492.035C1796.65 559.514 1749.89 588.9 1705.81 588.9C1656.45 588.9 1618.36 552.712 1618.36 495.028C1618.36 433.963 1658.31 398.164 1708.85 398.164C1761.2 398.203 1796.65 436.257 1796.65 492.035ZM1651.9 493.94C1651.9 533.898 1674.91 564.062 1707.33 564.062C1739.01 564.062 1762.76 534.287 1762.76 493.201C1762.76 462.3 1747.29 423.08 1708.11 423.08C1668.85 423.08 1651.9 459.268 1651.9 493.94Z" fill="black"/>
<path d="M1841.86 584.78V427.589H1816.2V402.323H1841.86V393.655C1841.86 368.04 1847.53 344.64 1862.97 329.947C1875.4 317.898 1892 313 1907.43 313C1919.13 313 1929.28 315.643 1935.69 318.286L1931.18 343.902C1926.28 341.647 1919.48 339.743 1910.08 339.743C1881.82 339.743 1874.67 364.619 1874.67 392.528V402.323H1918.74V427.589H1874.67V584.78H1841.86Z" fill="black"/>
<path d="M1992.64 349.927V402.324H2040.14V427.589H1992.64V525.969C1992.64 548.592 1999.05 561.419 2017.51 561.419C2026.18 561.419 2032.59 560.292 2036.75 559.164L2038.27 584.041C2031.86 586.684 2021.67 588.55 2008.88 588.55C1993.41 588.55 1980.97 583.653 1973.08 574.596C1963.64 564.801 1960.26 548.592 1960.26 527.097V427.589H1932V402.324H1960.26V358.595L1992.64 349.927Z" fill="black"/>
<path d="M2110.57 347.283C2110.57 366.718 2095.29 381.994 2075.47 381.994C2055.8 381.994 2040.14 366.718 2040.14 347.283C2040.14 328.276 2055.8 313 2075.47 313C2095.29 313 2110.57 328.276 2110.57 347.283ZM2048.88 347.283C2048.88 362.559 2060.15 374.648 2075.62 374.648C2090.67 374.648 2101.74 362.521 2101.74 347.478C2101.74 332.202 2090.67 319.88 2075.39 319.88C2060.19 319.88 2048.88 332.241 2048.88 347.283ZM2070.03 365.28H2062.06V330.958C2065.21 330.336 2069.6 329.908 2075.24 329.908C2081.73 329.908 2084.64 330.958 2087.13 332.435C2089.03 333.912 2090.47 336.633 2090.47 339.976C2090.47 343.746 2087.56 346.662 2083.36 347.905V348.333C2086.7 349.577 2088.57 352.103 2089.62 356.69C2090.67 361.899 2091.29 363.998 2092.14 365.28H2083.59C2082.54 364.036 2081.92 360.888 2080.87 356.923C2080.25 353.153 2078.15 351.481 2073.76 351.481H2069.99V365.28H2070.03ZM2070.22 345.806H2073.99C2078.38 345.806 2081.92 344.329 2081.92 340.792C2081.92 337.644 2079.63 335.584 2074.61 335.584C2072.51 335.584 2071.08 335.778 2070.22 336.011V345.806Z" fill="black"/>
</g>
<defs>
<clipPath id="clip0_4344_106">
<rect width="2110.57" height="275.939" fill="white" transform="translate(0 313)"/>
</clipPath>
</defs>
</svg>
