<svg width="1227" height="901" viewBox="0 0 1227 901" fill="none" xmlns="http://www.w3.org/2000/svg">
<g clip-path="url(#clip0_4344_62)">
<g clip-path="url(#clip1_4344_62)">
<path d="M139.645 464.846C139.645 374.455 194.758 306.097 285.149 306.097C351.28 306.097 404.196 344.92 408.591 407.505H364.641C360.216 370.03 329.481 345.799 287.464 345.799H283.069C219.136 345.799 183.859 398.686 183.859 464.846C183.859 531.005 219.019 583.892 282.952 583.892H287.347C329.246 583.892 360.099 559.632 364.524 522.157H408.474C404.079 584.771 351.163 623.565 285.032 623.565C194.758 623.565 139.645 555.207 139.645 464.846Z" fill="black"/>
<path d="M432.588 508.473C432.588 432.293 483.277 394.203 535.314 394.203C592.625 394.203 628.782 433.875 628.782 491.186V515.447H474.458C477.095 565.726 509.296 588.199 536.193 588.199H539.709C561.333 588.199 582.048 577.182 586.59 553.801H628.489C620.549 598.337 582.195 623.477 536.779 623.477C481.959 623.564 432.588 585.65 432.588 508.473ZM586.883 482.484C585.125 444.101 562.212 429.568 537.072 429.568H533.556C510.614 429.568 485.035 443.222 477.095 482.484H586.883Z" fill="black"/>
<path d="M667.341 328.101H709.24V619.052H667.341V328.101Z" fill="black"/>
<path d="M780.616 570.648V434.842H732.124V398.685H780.616V328.101H822.515V398.685H884.045V434.842H822.515V564.026C822.515 577.27 822.691 581.606 822.691 581.606H884.221V619.052H829.195C798.254 619.052 780.616 601.472 780.616 570.648Z" fill="black"/>
<path d="M916.217 398.686H955.889V447.207C964.679 414.127 991.049 396.488 1019.82 396.488H1030.87V437.069H1022.08C982.406 437.069 958.145 463.439 958.145 507.595V619.052H916.217V398.686Z" fill="black"/>
<path d="M1189.59 619.052L1187.39 583.892C1178.6 603.728 1152.23 623.564 1116.84 623.564C1074.97 623.564 1044.08 595.788 1044.08 558.313C1044.08 508.034 1088.62 493.061 1124.34 489.956L1185.19 485.121V478.06C1185.19 447.207 1167.61 429.568 1139.34 429.568H1135.82C1112.88 429.568 1093.04 440.585 1090.38 462.619H1048.6C1051.23 422.067 1087.83 394.291 1137.67 394.291C1196.27 394.291 1227.18 433.084 1227.18 478.06V619.052H1189.59ZM1185.28 539.942V517.439L1130.17 521.864C1104.59 524.061 1086.07 536.514 1086.07 556.701C1086.07 574.78 1101.07 588.434 1121.79 588.434H1125.3C1152.2 588.287 1185.28 566.312 1185.28 539.942Z" fill="black"/>
<path d="M1228 720.636H0V760.191H1228V720.636Z" fill="black"/>
<path d="M1228 170.76H140.817V210.315H1228V170.76Z" fill="black"/>
<path d="M39.5552 170.76H0V619.14H39.5552V170.76Z" fill="black"/>
</g>
</g>
<defs>
<clipPath id="clip0_4344_62">
<rect width="1227" height="901" fill="white"/>
</clipPath>
<clipPath id="clip1_4344_62">
<rect width="1228" height="589.432" fill="white" transform="translate(0 170.76)"/>
</clipPath>
</defs>
</svg>
