<svg width="800" height="540" viewBox="0 0 800 540" fill="none" xmlns="http://www.w3.org/2000/svg">
<rect x="0.5" y="0.5" width="799" height="539" rx="19.5" fill="#FAFAFA"/>
<path d="M399.5 369.18H537.074C550.288 369.18 561 358.468 561 345.254V289.826L492.675 219.965C491.188 218.445 488.77 218.359 487.179 219.769L363.611 329.304L399.5 369.18Z" fill="#FAFAFA"/>
<path fill-rule="evenodd" clip-rule="evenodd" d="M399.5 369.18H274.288L339.558 309.254C341.173 307.771 343.682 307.87 345.175 309.476L363.611 329.304L399.5 369.18Z" fill="#FAFAFA"/>
<path d="M561 192.926C561 179.712 550.288 169 537.074 169H261.926C248.712 169 238 179.712 238 192.926V345.254C238 358.468 248.712 369.18 261.926 369.18H274.288L339.558 309.254C341.173 307.771 343.682 307.87 345.175 309.476L363.611 329.304L487.179 219.769C488.77 218.359 491.188 218.445 492.675 219.965L561 289.826V192.926Z" fill="#F7EFE9"/>
<path d="M274.093 368.68H261.926C248.988 368.68 238.5 358.192 238.5 345.254V192.926C238.5 179.988 248.988 169.5 261.926 169.5H537.074C550.012 169.5 560.5 179.988 560.5 192.926V288.6L493.032 219.615C491.359 217.905 488.638 217.808 486.847 219.395L363.645 328.606L345.541 309.136C343.861 307.329 341.037 307.217 339.219 308.886L274.093 368.68ZM344.809 309.816L363.239 329.638L363.245 329.644L398.377 368.68H275.572L339.896 309.622C341.308 308.325 343.503 308.412 344.809 309.816ZM399.723 368.68L364.32 329.344L487.51 220.143C488.902 218.91 491.017 218.985 492.317 220.315L560.5 290.03V345.254C560.5 358.192 550.012 368.68 537.074 368.68H399.723Z" stroke="#231F20"/>
<path d="M368.985 232.802C368.985 243.097 360.639 251.443 350.344 251.443C340.049 251.443 331.704 243.097 331.704 232.802C331.704 222.507 340.049 214.162 350.344 214.162C360.639 214.162 368.985 222.507 368.985 232.802Z" fill="#FAFAFA" stroke="#231F20"/>
</svg>
