<?xml version="1.0" standalone="no"?>
<!DOCTYPE svg PUBLIC "-//W3C//DTD SVG 20010904//EN"
 "http://www.w3.org/TR/2001/REC-SVG-20010904/DTD/svg10.dtd">
<svg version="1.0" xmlns="http://www.w3.org/2000/svg"
 width="876.000000pt" height="876.000000pt" viewBox="0 0 876.000000 876.000000"
 preserveAspectRatio="xMidYMid meet">
<metadata>
Created by potrace 1.14, written by Peter Selinger 2001-2017
</metadata>
<g transform="translate(0.000000,876.000000) scale(0.100000,-0.100000)"
fill="#000000" stroke="none">
<path d="M6410 8460 c-8 -5 -17 -7 -21 -4 -11 6 -155 -44 -211 -74 -28 -15
-59 -31 -69 -37 -11 -5 -19 -13 -19 -17 0 -5 -4 -8 -10 -8 -5 0 -35 -24 -66
-52 -111 -104 -210 -272 -228 -388 -1 -9 -4 -20 -7 -25 -13 -25 -17 -202 -7
-280 8 -56 52 -183 84 -241 35 -65 67 -108 132 -176 l54 -57 -51 -98 c-28 -55
-51 -104 -51 -110 0 -6 -3 -13 -7 -15 -5 -1 -50 -86 -102 -188 -52 -102 -111
-216 -131 -255 -20 -38 -84 -162 -141 -275 -57 -113 -107 -206 -111 -208 -5
-2 -8 -11 -8 -20 0 -8 -6 -23 -13 -31 -24 -29 -57 -119 -54 -148 5 -39 32 -87
59 -105 54 -35 136 -28 175 14 25 27 175 309 172 324 0 4 3 10 8 13 4 3 37 62
71 131 35 69 108 211 162 315 54 105 136 265 183 356 54 106 90 164 98 163 8
-2 43 -10 79 -18 89 -20 238 -18 335 5 214 50 410 206 508 404 149 299 87 666
-152 895 -59 57 -94 84 -140 110 -14 8 -29 19 -32 23 -3 5 -10 9 -15 9 -5 0
-25 7 -44 15 -38 16 -84 32 -115 38 -11 3 -31 8 -45 11 -40 11 -255 14 -270 4z
m243 -286 c104 -27 183 -78 272 -176 25 -27 74 -130 81 -168 4 -19 10 -39 13
-45 7 -11 6 -133 -2 -180 -13 -75 -67 -182 -122 -240 -63 -66 -168 -128 -236
-140 -18 -3 -36 -8 -40 -11 -13 -8 -170 -4 -196 5 -2 1 -6 2 -10 2 -81 12
-283 159 -283 205 0 8 -4 14 -9 14 -11 0 -58 112 -69 165 -8 42 -8 152 1 195
8 40 45 127 71 167 108 170 334 259 529 207z"/>
<path d="M1926 7048 c-240 -32 -445 -153 -584 -347 -49 -68 -111 -203 -124
-268 0 -1 -7 -28 -14 -60 -19 -80 -11 -290 12 -353 3 -8 8 -26 10 -39 3 -13
19 -53 36 -90 17 -36 32 -68 32 -71 6 -25 103 -147 161 -203 93 -89 277 -185
385 -202 14 -2 45 -7 70 -11 102 -17 238 -6 342 26 31 10 60 15 63 12 3 -3 5
0 5 6 0 7 7 12 14 12 34 0 205 109 257 164 13 14 29 26 35 26 6 0 100 -36 210
-80 109 -44 207 -82 217 -85 9 -2 23 -7 30 -12 6 -4 17 -8 22 -9 6 -1 30 -11
55 -22 25 -11 83 -34 130 -52 47 -18 101 -39 120 -47 19 -8 44 -19 55 -23 11
-5 85 -34 165 -65 148 -58 198 -79 237 -97 12 -6 45 -8 74 -5 76 9 110 52 122
152 4 36 -75 125 -111 125 -5 0 -42 14 -83 31 -41 17 -78 32 -84 33 -5 1 -32
12 -59 24 -27 12 -51 22 -55 22 -5 0 -126 48 -246 98 -21 10 -42 17 -45 18 -3
0 -22 8 -44 17 -21 9 -42 17 -45 17 -4 0 -27 10 -51 21 -24 12 -49 22 -54 24
-6 1 -22 7 -36 12 -14 6 -101 41 -195 78 -93 38 -171 69 -173 70 -1 1 5 19 14
40 33 80 52 203 49 313 -4 157 -37 272 -116 405 -160 270 -497 435 -803 395z
m228 -294 c151 -36 278 -136 351 -276 20 -37 36 -71 37 -75 1 -9 2 -16 16 -65
14 -53 12 -169 -4 -240 -21 -91 -72 -183 -140 -254 -33 -35 -66 -64 -72 -64
-7 0 -12 -4 -12 -9 0 -4 -30 -22 -67 -39 -320 -147 -663 4 -772 342 -14 44
-18 82 -16 155 3 133 19 189 81 287 29 47 126 154 139 154 3 0 22 11 43 24 20
14 44 26 52 28 8 2 18 7 21 11 10 13 176 43 226 41 25 -1 78 -10 117 -20z"/>
<path d="M7658 6774 c-2 -1 -23 -5 -48 -9 -108 -15 -227 -79 -313 -169 -46
-48 -113 -167 -122 -218 -3 -13 -8 -36 -11 -53 -11 -50 -6 -167 11 -220 8 -27
15 -55 15 -61 0 -10 -39 -35 -375 -241 -99 -61 -236 -145 -303 -187 -68 -42
-128 -76 -133 -76 -5 0 -9 -4 -9 -9 0 -5 -12 -14 -27 -20 -52 -21 -256 -157
-276 -183 -29 -38 -28 -115 2 -157 28 -39 85 -64 130 -57 19 3 99 45 178 93
79 48 159 97 177 108 133 80 181 111 184 117 2 5 7 8 12 8 11 0 131 70 147 86
7 7 26 18 43 26 16 7 30 16 30 20 0 5 4 8 10 8 5 0 44 22 87 49 43 26 126 78
186 115 l108 67 26 -20 c14 -12 32 -21 39 -21 8 0 14 -4 14 -9 0 -5 8 -11 18
-14 9 -3 46 -16 82 -29 54 -20 82 -24 160 -22 122 2 147 8 250 57 73 35 182
138 215 203 11 21 23 41 26 44 6 6 37 102 44 140 20 101 -6 258 -58 349 -19
34 -79 114 -102 136 -64 63 -190 127 -279 141 -44 7 -134 12 -138 8z m147
-302 c111 -57 169 -157 154 -268 -18 -142 -128 -236 -268 -230 -228 9 -332
264 -181 439 65 75 208 104 295 59z"/>
<path d="M4674 5134 c-50 -15 -119 -57 -150 -92 -23 -26 -68 -107 -70 -127 -1
-5 -3 -12 -4 -15 -1 -3 -3 -27 -5 -55 -3 -59 18 -147 45 -185 11 -16 20 -31
20 -34 0 -4 26 -34 58 -67 232 -243 445 -470 458 -488 13 -17 4 -26 239 224
55 59 125 133 155 165 59 62 120 129 159 176 85 99 71 305 -26 409 -75 80
-199 119 -308 97 -58 -12 -157 -69 -178 -104 -17 -26 -26 -23 -79 25 -26 24
-70 51 -98 61 -62 22 -161 27 -216 10z"/>
<path d="M5960 4291 c-64 -26 -101 -82 -95 -143 7 -70 41 -103 155 -153 36
-15 103 -45 148 -66 46 -22 85 -39 87 -39 3 0 89 -39 243 -111 46 -22 86 -39
88 -39 2 0 39 -16 81 -36 43 -20 119 -54 168 -76 50 -22 110 -50 135 -62 25
-13 50 -24 55 -25 6 -2 30 -12 55 -23 25 -12 73 -33 107 -49 l62 -28 -9 -33
c-6 -18 -12 -66 -16 -108 -3 -41 -7 -80 -9 -87 -2 -6 -1 -14 2 -17 3 -3 7 -26
9 -51 1 -26 6 -61 10 -78 4 -18 8 -35 8 -39 1 -3 4 -10 9 -14 4 -4 7 -16 7
-26 0 -17 5 -19 31 -13 58 13 134 21 196 20 35 0 63 4 63 8 0 4 -7 24 -15 45
-24 57 -36 121 -35 187 1 70 4 97 12 110 3 6 8 24 12 40 10 41 29 85 38 85 5
0 8 6 8 14 0 8 6 21 13 28 7 7 23 26 35 43 31 40 117 103 172 127 50 22 158
44 205 43 114 -4 229 -49 325 -128 33 -27 91 -106 114 -158 33 -71 40 -108 40
-204 -1 -93 -8 -133 -34 -193 -19 -43 -19 -69 1 -57 5 4 9 1 9 -4 0 -6 8 -11
17 -11 25 0 102 -39 153 -77 l44 -34 17 38 c70 158 95 331 68 463 -5 25 -12
56 -14 70 -6 27 -43 123 -60 155 -56 106 -162 227 -246 281 -207 133 -408 168
-645 111 -40 -10 -159 -60 -175 -73 -8 -8 -19 -14 -23 -14 -15 0 -75 -49 -143
-117 -40 -40 -77 -73 -84 -73 -6 0 -23 7 -37 15 -34 19 -85 39 -94 37 -5 -1
-8 3 -8 8 0 6 -4 10 -10 10 -5 0 -33 11 -62 24 -29 13 -75 34 -103 46 -27 13
-77 35 -110 50 -33 15 -89 40 -125 56 -36 15 -67 31 -70 34 -3 3 -9 6 -15 7
-5 1 -49 20 -97 42 -48 23 -90 41 -92 41 -3 0 -57 25 -121 55 -65 30 -119 55
-120 55 -2 0 -36 15 -77 34 -40 18 -95 43 -122 56 -51 23 -110 32 -136 21z"/>
<path d="M4110 4084 c-41 -26 -136 -84 -212 -130 -75 -46 -161 -99 -190 -118
-30 -19 -70 -43 -89 -54 -19 -11 -137 -83 -263 -161 -126 -77 -230 -141 -232
-141 -2 0 -19 -11 -40 -25 l-36 -24 -36 28 c-21 15 -53 34 -72 41 -19 7 -40
17 -45 21 -18 13 -66 21 -167 26 -54 3 -98 1 -98 -3 0 -10 37 -125 51 -159 4
-11 13 -39 20 -62 12 -42 19 -48 69 -57 14 -2 44 -13 66 -25 155 -81 183 -301
53 -421 -14 -14 -13 -22 13 -100 16 -47 30 -89 32 -95 1 -5 8 -29 16 -52 l13
-42 28 16 c16 10 29 21 29 26 0 4 4 6 8 3 5 -3 15 3 24 12 8 9 24 24 34 33 46
39 106 131 133 204 37 99 43 239 14 328 -9 28 -12 52 -7 57 5 5 56 38 114 73
58 35 161 99 228 141 68 42 128 76 132 76 5 0 10 4 12 8 2 5 15 15 30 23 28
15 299 180 383 234 28 18 83 51 123 75 40 23 82 56 93 71 45 64 22 171 -45
204 -55 28 -105 19 -186 -31z"/>
<path d="M1967 3820 c-53 -10 -86 -29 -129 -75 -36 -39 -95 -142 -90 -157 1
-5 -3 -8 -8 -8 -5 0 -9 -3 -8 -7 1 -5 -11 -46 -27 -93 -16 -47 -30 -87 -30
-90 -1 -3 -4 -12 -8 -20 -3 -8 -11 -33 -17 -55 -6 -22 -15 -49 -20 -60 -9 -21
-163 -492 -166 -510 -1 -5 -28 -84 -59 -175 -32 -91 -58 -169 -60 -175 -1 -5
-7 -23 -13 -38 -7 -16 -12 -31 -12 -33 0 -8 -129 -373 -152 -431 -18 -43 -26
-52 -52 -56 -84 -14 -344 -106 -377 -134 -8 -7 -19 -13 -24 -13 -8 0 -161 -86
-179 -101 -6 -5 -29 -23 -51 -39 -22 -17 -48 -36 -58 -43 -45 -35 -152 -144
-210 -214 -81 -99 -130 -180 -167 -274 -70 -180 -66 -328 14 -512 19 -43 115
-144 163 -170 101 -56 261 -71 373 -35 66 21 170 83 225 135 40 37 114 127
155 187 73 108 257 506 402 871 l44 109 64 12 c36 7 106 16 155 21 112 10 529
10 610 0 136 -17 222 -29 255 -34 19 -3 43 -6 53 -7 9 0 17 -1 17 -1 0 0 9
-28 21 -60 12 -33 22 -67 24 -75 2 -8 18 -60 36 -115 18 -55 33 -102 34 -105
0 -3 16 -52 35 -110 19 -58 35 -107 35 -110 1 -3 4 -12 8 -20 3 -8 18 -53 33
-100 15 -47 42 -130 61 -185 19 -55 36 -107 38 -115 2 -8 4 -16 5 -17 2 -2 3
-7 4 -12 0 -5 4 -13 9 -17 4 -4 7 -13 7 -20 0 -18 66 -129 100 -167 90 -103
258 -113 353 -21 64 63 101 167 88 253 -1 10 -32 22 -116 47 -33 9 -66 22 -74
28 -29 22 -90 115 -115 173 -31 75 -99 265 -111 313 -2 8 -15 48 -29 87 -14
40 -22 73 -19 73 3 0 0 6 -6 13 -6 8 -12 22 -14 33 -2 10 -11 43 -21 72 -10
29 -16 55 -14 57 2 3 28 -4 56 -15 115 -44 188 -51 230 -24 56 37 51 117 -12
179 -40 40 -128 105 -141 105 -4 0 -20 9 -36 21 -16 11 -29 18 -29 14 0 -3
-13 1 -29 10 -16 8 -51 22 -78 31 -51 17 -65 27 -69 46 -1 7 -48 150 -104 318
-56 168 -103 310 -104 315 -3 14 -206 627 -213 645 -4 8 -8 22 -9 30 -2 8 -18
58 -37 110 -44 124 -40 112 -72 210 -57 174 -110 258 -194 303 -28 16 -51 26
-51 23 0 -2 -12 -1 -27 3 -16 4 -45 4 -66 1z m72 -582 c45 -98 171 -441 171
-467 0 -6 4 -19 10 -29 5 -9 28 -75 50 -147 23 -71 48 -147 56 -167 7 -21 11
-38 8 -38 -4 0 -2 -6 3 -12 5 -7 20 -49 32 -93 13 -44 27 -89 31 -100 13 -32
54 -158 57 -177 1 -9 9 -36 17 -60 8 -23 14 -44 12 -46 -6 -5 -39 -4 -62 1
-12 3 -45 8 -74 12 -29 4 -61 8 -72 10 -110 22 -563 21 -668 0 -66 -13 -100
-14 -100 -1 0 7 3 16 7 20 4 3 8 14 9 24 2 20 25 95 84 277 23 72 43 137 45
145 2 8 13 42 25 75 12 33 23 67 25 75 3 16 72 224 82 250 3 8 7 20 9 25 8 30
70 201 74 205 3 3 6 12 8 20 16 71 105 260 123 260 5 0 22 -28 38 -62z m-995
-1775 c-88 -236 -242 -572 -279 -610 -8 -8 -15 -19 -15 -24 0 -16 -80 -121
-127 -166 -85 -83 -174 -102 -247 -53 -59 41 -71 72 -71 180 1 81 4 103 26
150 80 171 268 358 481 479 53 29 234 110 250 111 4 0 -4 -30 -18 -67z"/>
<path d="M5644 3806 c-55 -24 -88 -84 -100 -184 -2 -20 -6 -289 -9 -596 -3
-308 -7 -561 -9 -563 -2 -2 -27 13 -57 33 -71 48 -232 125 -294 140 -16 4 -34
8 -40 10 -129 37 -341 40 -495 9 -8 -2 -16 -4 -17 -5 -2 -2 -6 -3 -10 -4 -31
-7 -127 -43 -168 -64 -243 -120 -460 -379 -563 -672 -26 -75 -35 -107 -57
-220 -28 -139 -23 -393 11 -557 9 -43 17 -83 18 -90 1 -7 5 -16 9 -19 4 -4 7
-18 7 -31 0 -12 5 -23 10 -23 6 0 10 -7 10 -16 0 -24 64 -156 106 -221 52 -78
48 -73 144 -173 130 -135 246 -204 400 -241 60 -13 228 -18 300 -7 128 19 264
81 379 173 92 73 234 244 305 368 29 50 41 58 42 30 1 -19 12 -109 19 -153 12
-75 48 -195 76 -254 38 -79 79 -126 134 -154 74 -37 194 -15 256 47 65 67 101
208 61 244 -11 10 -41 21 -68 26 -27 4 -58 13 -69 20 -60 38 -112 194 -131
391 -2 25 -6 63 -9 85 -10 82 -18 327 -19 550 0 227 4 303 30 540 4 33 8 80 9
105 5 77 16 204 20 230 2 14 7 61 10 105 6 76 9 115 21 230 2 28 7 77 9 110 2
33 6 76 9 95 14 110 27 426 18 435 -3 2 -6 23 -7 46 -6 72 -44 156 -87 193
-55 47 -139 60 -204 32z m-579 -1439 c118 -29 202 -62 290 -115 63 -38 74 -46
136 -101 l38 -33 0 -362 c0 -413 7 -374 -99 -582 -107 -210 -202 -338 -323
-438 -44 -36 -177 -112 -177 -101 0 3 -6 3 -12 -2 -7 -4 -17 -9 -23 -10 -5 -1
-28 -7 -50 -12 -67 -17 -203 -7 -278 19 -37 13 -67 27 -67 32 0 4 -6 8 -13 8
-24 0 -125 100 -170 168 -114 173 -169 377 -170 632 -1 191 16 275 90 440 73
163 231 333 378 408 22 11 42 20 45 20 3 0 23 7 45 15 22 9 49 18 60 21 24 6
271 0 300 -7z"/>
<path d="M7375 2669 c-27 -6 -59 -11 -70 -13 -104 -17 -290 -114 -373 -193 -7
-7 -18 -16 -25 -20 -39 -25 -162 -181 -220 -278 -16 -28 -78 -154 -98 -200
-16 -38 -48 -153 -64 -229 -35 -174 -36 -432 -1 -606 4 -19 9 -44 11 -55 2
-11 4 -20 5 -20 1 0 4 -11 6 -25 6 -32 66 -203 73 -210 3 -3 17 -27 31 -55 51
-103 178 -257 270 -327 55 -41 125 -77 192 -99 85 -27 110 -31 210 -33 241 -7
435 78 629 276 71 71 169 204 169 228 0 5 3 10 8 10 4 0 15 18 25 40 9 22 18
40 20 40 1 0 3 -19 3 -42 4 -212 60 -410 140 -492 49 -50 86 -64 160 -60 148
9 236 104 243 265 2 40 -9 48 -94 68 -61 15 -81 32 -110 96 -37 82 -56 156
-80 320 -17 116 -24 399 -11 475 13 81 14 89 31 220 57 451 63 703 20 807 -9
21 -17 40 -18 43 0 3 -18 19 -39 37 -46 38 -108 50 -174 34 -52 -13 -64 -23
-94 -75 -17 -31 -27 -76 -29 -134 -1 -8 -20 2 -48 25 -106 85 -197 132 -322
164 -87 23 -294 33 -376 18z m262 -294 c34 -3 80 -12 102 -20 23 -8 41 -12 41
-10 0 10 168 -83 221 -122 108 -80 123 -97 125 -150 7 -136 17 -472 17 -573 0
-112 -1 -118 -41 -218 -23 -56 -54 -126 -69 -155 -28 -53 -111 -188 -122 -197
-3 -3 -24 -27 -45 -54 -88 -109 -207 -198 -322 -242 -83 -31 -211 -40 -296
-20 -258 60 -425 393 -422 841 1 133 9 220 25 262 5 13 6 23 3 23 -4 0 -1 6 5
13 6 8 8 17 5 20 -3 3 -2 12 2 19 5 7 9 18 10 24 6 41 113 241 149 280 5 6 29
34 52 61 104 123 256 205 408 220 33 3 62 7 63 9 2 1 9 1 15 -1 7 -2 40 -6 74
-10z"/>
</g>
</svg>
