<?xml version="1.0" encoding="UTF-8"?><svg id="Layer_2" xmlns="http://www.w3.org/2000/svg" viewBox="0 0 298.06 214.43"><defs><style>.cls-1{fill:#e95f5a;}.cls-2{fill:#2b2831;}</style></defs><g id="Layer_1-2"><g><g><g><path class="cls-2" d="M30.23,47.52c8.75-16.19,20.98-28.92,37.4-37.46,1.23-.64,2.48-1.25,4.06-2.04-5.25-1.32-10.18-1.92-15.2-1.8-10.14,.24-19.09,3.59-26.58,10.69-4.47,1.48-8.77,3.35-12.61,6.09-10.58,7.53-8.82,16.77-13.3,30.62-.89,2.76,.65,5.21-1.16,7.5-6.35,13.27-1.35,27.58,8.3,36.09,.57,.51,.81,.44,1.08-.27,1.04-2.78,2.51-5.35,4.39-7.67,2.41-14.62,6.56-28.67,13.62-41.75Z"/><path class="cls-2" d="M202.41,84.83c-8.12-2.6-16.02-1.72-23.67,1.82-8.65,4-15.78,10.04-22.27,16.9-.16,.17-.4,.34-.27,.64,.23-.11,.47-.2,.68-.35,4.13-2.83,8.46-5.3,12.93-7.54,9.35-4.69,19.02-7.11,29.46-4.26,2.32,.63,4.67,1.18,7.02,1.73,1.73,.4,3.38,.33,4.83-.93,.68-.59,.87-1.01,.24-1.81-2.35-3-5.37-5.05-8.94-6.2Z"/><path class="cls-2" d="M156.2,100.66s0-.02,0-.03c0,0-.01,0-.02,0l.02,.02Z"/><path class="cls-2" d="M156.2,100.66s-.02-.02-.02-.02c0,0-.01,.02-.02,.03,.01,0,.02,0,.04,0Z"/><path class="cls-2" d="M155.98,100.96c.06-.1,.12-.19,.18-.29-.17,.02-.18,.15-.18,.29Z"/><path class="cls-2" d="M155.94,100.95s0,.04,0,.06l.03-.03s0,0,0,0c0,0,0,0,0,0,0,0,0,0,0,0,0,0,0-.02,0-.03,0,0,0,.01-.01,.02,0,0-.02-.02-.03-.03Z"/></g><g><path class="cls-1" d="M96.84,2.36c-2.33,.46-4.66,.98-6.97,1.6-3,.79-5.91,1.7-8.73,2.72,.06,.08,.11,.17,.18,.25,2.94,3.65,8.75,4.44,12.53,1.1,1.76-1.56,2.76-3.58,3-5.67Z"/><path class="cls-1" d="M85.81,59.2c2.01,2.33,5.06,2.63,7.48,.77,2.32-1.78,2.72-5.3,.79-7.59-1.72-2.26-5.27-2.59-7.45-.82-2.38,1.92-2.72,5.42-.82,7.64Z"/><path class="cls-1" d="M56.18,35.72c-1.3,1.05-1.7,3.46-.45,4.76,.99,1.51,3.54,1.59,4.76,.57,1.48-1.24,1.69-3.39,.57-4.82-1.3-1.66-3.63-1.52-4.87-.51Z"/><path class="cls-1" d="M135.45,65.07c2.98-2.57,3.42-6.9,1-9.82-2.56-3.08-6.82-3.32-9.71-1.05-3.14,2.47-3.55,6.82-1.13,9.85,2.4,2.99,6.64,3.46,9.84,1.03Z"/><path class="cls-1" d="M124.2,116.04c3.73-3.02,4.18-8.34,1.23-11.97-2.92-3.66-8.23-4.36-12-1.34-3.69,2.96-4.45,8.18-1.26,12.09,3.16,3.87,8.35,4.21,12.04,1.22Z"/><path class="cls-1" d="M36.47,78.16c-3.52,2.85-4.12,7.9-1.24,11.45,2.86,3.53,7.71,4.17,11.45,1.24,3.49-2.73,4.05-7.73,1.41-11.27-2.84-3.81-8.32-4.22-11.63-1.43Z"/></g></g><g><path class="cls-1" d="M52.15,127.38v-5.16h30.69l25.66,85.11h6.45v5.16h-33.27v-5.16h7.48l-4.77-15.86H49.31l-4.64,15.86h7.48v5.16H30.36v-5.16h6.45l24.11-79.95h-8.77Zm14.57,5.55l-15.6,52.74h31.47l-15.86-52.74Z"/><path class="cls-1" d="M189.36,121.71v76.47c0,2.32,.56,4.15,1.68,5.48,1.12,1.33,2.73,2,4.83,2s4.66-1.24,7.67-3.74l2.97,3.1c-6.88,6.28-13.76,9.41-20.63,9.41-8.17,0-13.2-3.82-15.09-11.48-4.47,7.65-11.05,11.48-19.73,11.48-9.89,0-17.41-3.2-22.57-9.61-5.16-6.4-7.74-14.57-7.74-24.5s2.77-18.12,8.32-24.57c5.54-6.45,13.3-9.67,23.28-9.67,7.65,0,13.54,3.05,17.67,9.15v-35.2c-4.73,1.2-8.34,3.31-10.83,6.32l-3.48-4c2.49-2.58,5.65-4.64,9.48-6.19,3.82-1.55,7.61-2.32,11.35-2.32s6.81,.75,9.22,2.26c2.4,1.51,3.61,3.38,3.61,5.61Zm-45,38.94c-2.41,4.82-3.61,11.35-3.61,19.6s1.2,14.79,3.61,19.6c2.4,4.82,6.08,7.22,11.03,7.22s8.72-2.43,11.35-7.29c2.62-4.86,3.93-11.37,3.93-19.54s-1.31-14.68-3.93-19.54c-2.62-4.86-6.4-7.29-11.35-7.29s-8.62,2.41-11.03,7.22Z"/><path class="cls-1" d="M280.91,148.02v50.16c0,2.32,.56,4.15,1.68,5.48,1.12,1.33,2.84,2,5.16,2s4.99-1.24,7.99-3.74l2.32,3.1c-6.88,6.28-13.76,9.41-20.63,9.41-8.17,0-13.2-3.82-15.09-11.48-4.47,7.65-11.05,11.48-19.73,11.48-9.89,0-17.41-3.2-22.57-9.61-5.16-6.4-7.74-14.57-7.74-24.5s2.77-18.12,8.32-24.57c5.55-6.45,13.3-9.67,23.28-9.67,7.65,0,13.54,3.05,17.67,9.15v-7.22h19.34Zm-45,12.64c-2.41,4.82-3.61,11.35-3.61,19.6s1.2,14.79,3.61,19.6c2.4,4.82,6.08,7.22,11.02,7.22s8.72-2.43,11.35-7.29c2.62-4.86,3.93-11.37,3.93-19.54s-1.31-14.68-3.93-19.54c-2.62-4.86-6.4-7.29-11.35-7.29s-8.62,2.41-11.02,7.22Z"/></g><path class="cls-2" d="M275.71,98.94c-1.52-6.71-4.58-12.5-10.81-16.1-.49-.28-.6-.68-.64-1.19-.19-2.8-1.07-5.54-3.4-7.06q-7.09-4.62-11.47-4.92c-.67-.05-1.23-.51-1.38-1.17-.28-1.2-.63-2.38-.97-3.57-2.81-9.56-6.56-18.7-12.54-26.76-3.66-4.94-7.92-9.25-13.55-11.95-1.34-.64-2.58-1.46-3.67-2.47-4.72-4.37-10.26-7.39-16.06-9.98,0,0,0,0-.01,0-12.54-7.44-44.44-11.4-52.76-12.33-.28-.04-.57-.09-.85-.11-.29-.03-.59-.05-.88-.07-.18-.02-.28-.03-.28-.03h0c-5.29-.45-10.58-.8-15.88-1.04-9.44-.42-18.82-.14-28.1,1.22,0,.13,.01,.25,0,.38-.07,3.57-1.36,6.68-3.72,9.31-1.55,1.72-3.44,3-5.64,3.79-.36,.13-.49,.34-.49,.7,0,2.76,0,5.51-.01,8.27-.01,2.28-.06,4.57-.07,6.85-.01,2.19,0,4.38-.01,6.57-.01,1.77-.04,3.55-.06,5.32,0,.74,0,1.47,.03,2.21,0,.16,.14,.32,.3,.36,2.74,.74,4.84,2.38,6.42,4.69,.73,1.07,1.24,2.29,1.46,3.58,.07,.4,.24,.56,.65,.6,3.09,.3,6.17,.64,9.26,.95,2.65,.26,5.3,.49,7.95,.76,.4,.04,.62-.04,.76-.43,.5-1.47,1.3-2.77,2.33-3.91,2.35-2.62,5.43-4.16,9.34-4.31,.59-.02,1.19,.02,1.77,.11,2.65,.45,4.98,1.45,6.87,3.29,1.89,1.84,3.24,3.98,3.76,6.58,.79,3.93-.08,7.5-2.59,10.59-2.55,3.13-5.98,4.63-9.98,4.59-3.07-.03-5.84-1.07-8.07-3.25-2.58-2.52-3.1-3.55-4.15-7.58-3.5-.36-7-.74-10.5-1.09-2.46-.25-4.92-.46-7.38-.7-.36-.04-.48,.08-.62,.4-.57,1.32-1.3,2.54-2.38,3.52-.31,.28-.63,.57-.9,.9-.1,.12-.11,.33-.03,.46,1.79,3.16,3.61,6.29,5.4,9.45,1.35,2.38,2.65,4.79,3.99,7.18,1.25,2.21,2.55,4.4,3.81,6.61,1.16,2.04,2.29,4.09,3.44,6.13,.28,.49,.56,.98,.88,1.44,.1,.14,.32,.21,.48,.16,2.59-.78,5.24-.82,7.92-.08,1.96,.54,3.78,1.54,5.32,2.88,2.49,2.16,4.11,4.85,4.73,8.09,.72,3.83-.02,7.38-2.21,10.64-1.07,1.59-2.44,2.86-3.99,3.89-2.62,1.73-5.53,2.5-8.7,2.26-2.29-.18-4.43-.81-6.36-2.03-1-.64-1.89-1.47-2.78-2.27-1.4-1.26-2.31-2.87-3.01-4.59-.75-1.88-1.12-3.84-.97-5.87,.11-1.54,.34-3.05,.94-4.48,.87-2.06,2-3.92,3.75-5.36,.04-.03,.07-.08,.14-.17-.87-1.56-1.75-3.13-2.63-4.69-.92-1.63-1.86-3.26-2.79-4.89-.93-1.64-1.86-3.28-2.79-4.91-1.13-1.99-2.27-3.98-3.39-5.97-1.05-1.86-2.1-3.73-3.15-5.6-1.05-1.87-2.12-3.72-3.16-5.6-.21-.37-.51-.41-.84-.39-1.57,.09-3.11-.08-4.58-.65-.77-.3-1.55-.65-2.21-1.14-.64-.47-1.11-.4-1.74-.04-3.09,1.8-6.2,3.56-9.3,5.33-3.6,2.06-7.2,4.14-10.8,6.19-2.41,1.38-4.84,2.73-7.25,4.1,2.24,8.49-3.01,15.31-9.3,17.17-6.8,2-13.2-1.28-16.03-6.57-3.5-6.55-1.52-13.96,4.4-18.03,5.22-3.58,13.05-3.38,18.18,2.57,1.8-1.02,3.58-2.02,5.35-3.04,1.6-.91,3.2-1.84,4.81-2.76,1.71-.98,3.42-1.96,5.13-2.93,2.01-1.14,4.02-2.27,6.03-3.41,1.67-.95,3.33-1.91,5-2.87,.24-.14,.47-.35,.73-.42,.59-.16,.58-.5,.4-.97-.74-2.02-.74-4.08-.26-6.15,.08-.37,0-.5-.3-.67-3.45-1.98-6.9-3.98-10.35-5.97-1.19-.68-2.39-1.35-3.59-2.02-1.87,1.95-4.13,2.97-6.78,2.96-2.12,0-4.06-.7-5.67-2.1-2.1-1.82-3.29-4.14-3.26-6.94,.03-3.16,1.45-5.88,4.63-7.85,.91-.56,1.94-.94,3-1.06,2.95-.35,5.49,.44,7.6,2.41,1.82,1.71,2.76,3.84,2.76,6.29,0,1.01,.43,1.38,1.17,1.8,3.05,1.72,6.08,3.49,9.12,5.23,1.44,.83,2.9,1.63,4.32,2.48,.32,.19,.5,.15,.74-.06,1.09-.99,2.33-1.73,3.73-2.21,.21-.07,.4-.32,.4-.54,.02-3,0-6,.02-9,.02-3.09,.08-6.19,.1-9.28,.02-3,0-6,.01-9,0-.45,.04-.91,.06-1.36,.02-.33-.08-.51-.47-.54-2.87-.21-5.39-1.35-7.56-3.16-1.3-1.08-2.35-2.32-3.17-3.69-17.09,7.38-30.75,19.35-40.73,36.21-8.03,13.58-12.7,28.34-15.37,43.8-.15,.85-.48,1.66-.96,2.39-7.56,11.44-7.98,23.26-1.78,35.4,.3,.59,.38,1.27,.21,1.92-1.71,6.54-1.38,12.88,2.22,18.78,1.01,1.65,2.18,3.11,3.46,4.41h4.16c.94-.53,1.91-1.02,2.94-1.43,3.13-1.27,6.36-1.91,9.58-1.91,.21,0,.41,.01,.61,.02-1.06-3.28-1.64-6.77-1.64-10.4,0-18.68,15.14-33.82,33.82-33.82s33.82,15.14,33.82,33.82c0,.86-.04,1.71-.11,2.56,1.69,0,3.4-.1,5.1-.29,1.94-.21,3.85-.61,5.79-.92,.04,.78-.83,1.08-.77,1.9,1.99-.27,3.89-.75,5.72-1.47,5.96-2.36,10.37-6.59,14.04-11.7,5.08-7.09,8.39-15.05,11.34-23.18,3.97-10.91,6.97-22.13,10.58-33.15,2.36-7.22,1-3.67,4.01-9.76,.23-.46,.47-.94,1.18-1.24-.92,2.87-3.25,15.99-3.44,18.9,.48-.69,2.77-11.35,2.94-12.15,.19-.87,.54-1.91,1-2.65,6.04-9.79,19.86-27.88,29.59-33.76,1.73-1.05,3.46-2.16,5.48-2.45,1.94-.28,3.13-1.11,3.24-3.17,0-.06,.12-.11,.22-.19,.86,.75,1.62,1.6,2.21,2.57,.58,.96,1.36,1.47,2.4,1.87,7.93,3.03,14.8,7.55,20.09,14.3,4.44,5.67,7.23,12.18,9.65,18.87,1.74,4.82,3.27,9.72,5.39,14.39,1.02,2.25,2.21,4.43,3.24,6.68-3.46,.28-6.82,1.02-9.93,2.67-2.98,1.57-5.25,3.81-6.15,7.16-.22,.8-.5,1.64-.17,2.74,1.3-1.87,2.87-3.08,4.74-3.91,4.21-1.87,8.6,2.7,13.1,2.92,1.32,.06,1.56,.59,1.51,1.77-.15,2.88-.84,5.63-1.79,8.32-.7,1.98-1.15,4.04-1.2,6.14-.12,4.39,.65,8.6,1.67,12.86,1.3,5.43,1.46,11.02,1.24,16.6-.07,1.73,0,1.75,1.79,1.84,6.54,.3,12.47-4.77,13.61-11.21,.1-.54,.28-.88,.83-1.1,4.56-1.78,7.52-5.21,9.48-9.54,3.26-7.17,3.65-14.67,1.93-22.26Z"/></g></g></svg>