<?xml version="1.0" encoding="UTF-8"?><svg id="Layer_1" xmlns="http://www.w3.org/2000/svg" viewBox="0 0 500 500"><defs><style>.cls-1,.cls-2{stroke-miterlimit:10;}.cls-1,.cls-2,.cls-3,.cls-4,.cls-5,.cls-6,.cls-7{stroke-width:.8px;}.cls-1,.cls-2,.cls-3,.cls-4,.cls-6,.cls-7{stroke:#000;}.cls-1,.cls-4,.cls-5{fill:#fff;}.cls-2{fill:#FFBDBC;}.cls-3{fill:#FF5757;}.cls-3,.cls-4,.cls-5,.cls-6,.cls-7{stroke-linejoin:round;}.cls-5{stroke:#202124;}.cls-7{fill:none;stroke-linecap:round;}</style></defs><path class="cls-1" d="m279.18,426.66L59.25,296.94c-.89-.53-.85-1.83.07-2.31l133.24-69.55,224.23,122.64-137.61,78.94Z"/><path class="cls-4" d="m428.63,181.91l-11.84,6.56-222.07-121.46,11.03-5.73c.62-.32,1.36-.32,1.98.02l220.9,120.61"/><path class="cls-6" d="m416.79,188.47v159.25l-137.61,78.94L58.61,296.54v11.35c0,1.08.57,2.08,1.5,2.63l217.15,126.98c1.19.69,2.65.7,3.85.03l145.31-82.39c1.37-.79,2.22-2.25,2.22-3.84v-169.39l-11.84,6.56Z"/><path class="cls-1" d="m323.16,382.26l-186.13-105.68c-2.14-1.25-2.04-4.37.18-5.48l54.06-28.64c.91-.45,1.98-.44,2.87.05l189.47,102.31c2.13,1.15,2.19,4.19.11,5.43l-57.4,32.01c-.97.58-2.18.58-3.16,0Z"/><path class="cls-1" d="m214.31,371.5l-51.68-29.07c-1.9-1.14-1.76-3.93.24-4.88l29.79-17.34c.8-.38,1.74-.35,2.51.07l51.16,29.39c1.89,1.03,1.93,3.74.06,4.82l-29.27,17.02c-.87.51-1.95.5-2.81-.02Z"/><path class="cls-2" d="m416.79,347.72l-224.23-122.64V69.44c0-1.63,1.74-2.66,3.17-1.88l220.39,120.54c.42.23.67.66.67,1.14v158.48Z"/><polyline class="cls-7" points="197.59 108.92 197.59 74.6 267.44 112.67"/><polyline class="cls-7" points="410.82 299.95 410.82 337.47 224.82 235.98"/><path class="cls-6" d="m88.14,279.59l47.58,23.5c13.66-6.84,18.42-9.58,30.99-16.91,6.7-3.91,14.5-8.39,20.03-12.35-14.16-8.05-29.31-14.98-43.48-23.02l-55.12,28.77Z"/><path class="cls-4" d="m149.62,288.79c11.17-5.79,25.21-23.63,24.23-45.83l-61.12-20.79s1.15,23.47-36.9,50.2l36.92,15.94"/><path class="cls-3" d="m111.61,287.84c1.73.58,16.33,7.84,39.28.5v-.03c-1.04-.29-15.45-5.41-23.13-13.54,0,0-5.3,10.72-16.13,13.03v.05Z"/><path class="cls-5" d="m230.34,173.85v-9.08l43.46,2.74v11.52l-30.08-2.83v.65l30.08,29.6v11.52l-43.46-44.12Z"/><polygon class="cls-5" points="312.97 175.04 280.78 232.85 289.28 237.58 321.67 179.64 312.97 175.04"/><path class="cls-5" d="m328.48,236.06l31.88,3.55v-.68l-31.88-30.82v-11.74l46.48,46.01v9.53l-46.48-4.12v-11.74Z"/></svg>