<?xml version="1.0" encoding="UTF-8"?><svg id="Layer_2" xmlns="http://www.w3.org/2000/svg" viewBox="0 0 219.37 205.19"><defs><style>.cls-1{fill:#e95f5a;}.cls-2{fill:#fff;}</style></defs><g id="Layer_1-2"><g><path class="cls-1" d="M126.22,110.59c-.1-.15-.14-.24-.21-.31-4.11-4.36-8.22-8.71-12.33-13.07-1.68-1.78-2.49-3.87-2.42-6.32,.12-3.72,3.03-6.99,6.71-7.53,2.05-.3,3.99-.01,5.79,1.06,.75,.45,1.37,1.05,1.95,1.69,.16,.18,.33,.35,.52,.55,.29-.31,.55-.6,.83-.87,2.25-2.27,4.96-3.06,8.04-2.29,3.08,.77,5.07,2.78,5.84,5.86,.73,2.89,0,5.49-2,7.67-2.81,3.06-5.69,6.06-8.55,9.08-1.3,1.38-2.6,2.76-3.9,4.14-.08,.08-.14,.19-.27,.36Z"/><g><path class="cls-1" d="M87.03,197.52c0,2.29-.61,4.14-1.83,5.55-1.22,1.41-2.75,2.12-4.58,2.12-3.36,0-5.92-2.48-7.67-7.44-3.44-10.23-6.18-18.7-8.25-25.42-5.8-.99-11.09-1.49-15.86-1.49s-9.14,.38-13.11,1.14c-4.96,12.45-8.63,20.54-10.99,24.28-3.82,5.95-8.25,8.93-13.28,8.93-3.51,0-6.3-1.18-8.36-3.55-2.06-2.37-3.09-5.31-3.09-8.82,0-5.27,2.67-10.57,8.02-15.92,5.34-5.34,12.29-9.01,20.84-10.99,3.36-9.31,6.51-18.51,9.45-27.6,2.94-9.08,4.6-14.09,4.98-15,1.6-4.58,3.82-6.87,6.64-6.87,3.13,0,5.46,1.99,6.98,5.95,.38,1.07,1.45,4.24,3.21,9.5l11.34,34.35c3.13,.92,5.69,2.1,7.67,3.55,1.99,1.45,2.98,2.71,2.98,3.78,0,1.76-.96,2.63-2.86,2.63-.69,0-2.52-.53-5.5-1.6,3.28,10.61,5.42,16.68,6.41,18.21,.99,1.53,1.79,2.44,2.41,2.75,.61,.31,1.3,.54,2.06,.69,1.6,.3,2.4,.73,2.4,1.26Zm-60.23-23.7c-5.34,1.76-9.91,4.5-13.68,8.25-3.78,3.74-5.67,7.25-5.67,10.53,0,1.6,.4,2.84,1.2,3.72,.8,.88,1.85,1.32,3.15,1.32,4.2,0,9.2-7.94,15-23.82Zm35.61-9.05c-7.25-23.51-11.36-35.27-12.31-35.27s-4.18,8.7-9.68,26.11l-2.75,8.7c3.36-.53,7.08-.8,11.16-.8s8.61,.42,13.57,1.26Z"/><path class="cls-1" d="M143.25,116.45c3.74,0,5.61,3.09,5.61,9.27,0,2.37-.15,5.12-.46,8.25l-1.37,15c-.84,9.32-1.34,14.93-1.49,16.83,0,10,.36,17.46,1.09,22.39,.73,4.92,2.04,7.58,3.95,7.96,1.98,0,2.98,.57,2.98,1.72,0,1.68-.55,3.23-1.66,4.64-1.11,1.41-2.69,2.12-4.75,2.12-4.28,0-6.91-5.11-7.9-15.34-5.65,10.23-12.71,15.34-21.19,15.34-5.04,0-9.31-1.6-12.82-4.81-6.64-5.88-9.96-13.78-9.96-23.7,0-8.32,2.52-15.57,7.56-21.76,5.04-6.18,11.49-9.28,19.35-9.28,5.72,0,11.15,1.87,16.26,5.61,.15-14.2,.23-22.86,.23-25.99s.36-5.29,1.09-6.47c.73-1.18,1.89-1.77,3.49-1.77Zm-4.81,60.92v-18.21c-4.5-4.43-9.92-6.64-16.26-6.64-4.81,0-9.08,2.23-12.82,6.7-3.74,4.47-5.61,9.73-5.61,15.8s1.33,11.32,4.01,15.75c2.67,4.28,6.3,6.41,10.88,6.41,8.02,0,14.62-6.6,19.81-19.81Z"/><path class="cls-1" d="M210.69,175.76c0,5.57,.4,10.21,1.2,13.91,.8,3.7,1.81,5.78,3.03,6.24,.46,.23,1.01,.38,1.66,.46,.65,.08,1.11,.19,1.37,.34,.27,.15,.4,.46,.4,.92,0,2.14-.57,3.84-1.72,5.09-1.15,1.26-2.81,1.89-4.98,1.89s-3.88-1.39-5.09-4.18c-1.22-2.79-1.83-6.43-1.83-10.94-2.06,4.43-4.92,8.05-8.59,10.88-3.66,2.83-7.81,4.24-12.42,4.24s-8.57-1.53-11.85-4.58c-6.11-5.65-9.16-13.63-9.16-23.93,0-8.32,2.41-15.57,7.22-21.76,4.81-6.18,10.99-9.28,18.55-9.28,5.72,0,10.69,1.95,14.88,5.84,0-3.89,1.45-5.84,4.35-5.84,3.51,0,5.27,2.62,5.27,7.84s-.76,12.85-2.29,22.85Zm-6.64,1.03l-.57-17.63c-4.51-4.43-9.28-6.64-14.31-6.64s-9.35,2.25-12.94,6.75c-3.59,4.51-5.38,9.95-5.38,16.32s1.18,11.56,3.55,15.57c2.37,4.01,5.65,6.01,9.85,6.01s8.07-1.87,11.62-5.61c3.55-3.74,6.28-8.66,8.19-14.77Z"/></g><path class="cls-2" d="M151.37,34.2l-16.46,32.03c-.52,1.02-.5,2.17-.04,3.12,.32,.66,.85,1.23,1.55,1.59,1.72,.88,3.83,.21,4.71-1.51l16.36-31.83c4.62,1.55,9.82,1.39,14.54-.89,9.59-4.63,13.64-16.19,9.01-25.79-4.63-9.59-16.19-13.64-25.79-9.01-9.59,4.63-13.64,16.19-9.01,25.79,1.25,2.6,3.03,4.78,5.12,6.5Zm17.62-3.79c-6.12,2.95-13.49,.37-16.44-5.74s-.37-13.49,5.74-16.44c6.12-2.95,13.49-.37,16.44,5.74s.37,13.49-5.74,16.44Z"/><path class="cls-2" d="M41.55,37.55c-10.32,4.98-14.67,17.42-9.69,27.74,4.98,10.32,17.42,14.67,27.74,9.69,2.37-1.14,4.41-2.7,6.11-4.51,.1,.05,.2,.11,.31,.16l30.92,12.33c1.8,.72,3.83-.16,4.55-1.96,.72-1.8-.16-3.83-1.96-4.55l-29.92-11.93c2.32-5.35,2.4-11.63-.32-17.28-4.98-10.32-17.42-14.67-27.74-9.69Zm3.04,6.31c6.84-3.3,15.1-.42,18.4,6.43,3.3,6.84,.42,15.1-6.43,18.4-6.84,3.3-15.1,.42-18.4-6.43-3.3-6.84-.42-15.1,6.43-18.4Z"/><path class="cls-2" d="M198.72,68.3c6.75-3.25,9.59-11.39,6.34-18.13s-11.39-9.59-18.13-6.34-9.29,10.62-6.75,17.15l-27.18,16.69c-1.65,1.01-2.16,3.16-1.15,4.81,1.01,1.65,3.17,2.16,4.81,1.15l27.68-17c3.96,3.16,9.53,4,14.39,1.65Zm-3.04-6.31c-3.27,1.58-7.21,.2-8.79-3.07-1.58-3.27-.2-7.21,3.07-8.79s7.21-.2,8.79,3.07c1.58,3.27,.2,7.21-3.07,8.79Z"/><path class="cls-2" d="M181.93,137.78c2.18-.46,4.43-.71,6.77-.71,.18,0,.36,0,.54,.01-3.24-5.96-1.04-13.44,4.92-16.69,5.96-3.25,13.46-1.05,16.71,4.91,2.13,3.9,1.91,8.46-.17,12.05,2.39,.48,4.49,1.59,6.19,3.27,3.13-5.6,3.42-12.64,.12-18.67-5.1-9.35-16.86-12.81-26.21-7.71-2.53,1.38-4.62,3.26-6.23,5.44l-32.81-14.83c-1.04-.47-2.19-.39-3.12,.12-.64,.35-1.18,.91-1.51,1.63-.8,1.76-.01,3.83,1.75,4.63l32.61,14.74c-1.07,3.8-.97,7.92,.44,11.8Z"/><path class="cls-2" d="M67.93,129.76l.14,.42c2.39,.06,4.66,1.42,5.76,3.71,1.37,2.84,.51,6.18-1.88,8.05l2.25,6.83c6.13-3.21,8.84-10.54,6.35-16.93l27.18-16.69c1.65-1.01,2.16-3.16,1.15-4.81-1.01-1.65-3.17-2.16-4.81-1.15l-27.68,17c-2.96-2.37-6.82-3.43-10.61-2.83,.54,1.59,1.25,3.71,2.15,6.42Z"/></g></g></svg>