<svg xmlns:dc="http://purl.org/dc/elements/1.1/" xmlns:cc="http://creativecommons.org/ns#" xmlns:rdf="http://www.w3.org/1999/02/22-rdf-syntax-ns#" xmlns:svg="http://www.w3.org/2000/svg" xmlns="http://www.w3.org/2000/svg" xmlns:xlink="http://www.w3.org/1999/xlink" id="svg62570" version="1.1" viewBox="80.55 275.52 863 216.97">
  <metadata id="metadata62576">
    <rdf:rdf>
      <cc:work rdf:about="">
        <dc:format>image/svg+xml</dc:format>
        <dc:type rdf:resource="http://purl.org/dc/dcmitype/StillImage"/>
      </cc:work>
    </rdf:rdf>
  </metadata>
  <defs id="defs62574"/>
  <linearGradient spreadMethod="pad" y2="30%" x2="-10%" y1="120%" x1="30%" id="3d_gradient2-logo-d5967cba-7e00-4c0d-b6db-55a8be2dc13a">
    <stop id="stop62551" stop-opacity="1" stop-color="#ffffff" offset="0%"/>
    <stop id="stop62553" stop-opacity="1" stop-color="#000000" offset="100%"/>
  </linearGradient>
  <linearGradient gradientTransform="rotate(-30)" spreadMethod="pad" y2="30%" x2="-10%" y1="120%" x1="30%" id="3d_gradient3-logo-d5967cba-7e00-4c0d-b6db-55a8be2dc13a">
    <stop id="stop62556" stop-opacity="1" stop-color="#ffffff" offset="0%"/>
    <stop id="stop62558" stop-opacity="1" stop-color="#cccccc" offset="50%"/>
    <stop id="stop62560" stop-opacity="1" stop-color="#000000" offset="100%"/>
  </linearGradient>
  <g id="logo-group">
    <image xlink:href="" id="container" x="272" y="144" width="480" height="480" transform="translate(0 0)" style="display: none;"/>
    <g id="logo-center" transform="translate(1.1368683772161603e-13 0)">
      <image xlink:href="" id="icon_container" x="0" y="0" style="display: none;"/>
      <g id="slogan" style="font-style:normal;font-weight:500;font-size:32px;line-height:1;font-family:'Frank Ruhl Libre';font-variant-ligatures:none;text-align:center;text-anchor:middle" transform="translate(0 0)"/>
      <g id="title" style="font-style:normal;font-weight:normal;font-size:72px;line-height:1;font-family:'Brandmark Script 2 Color Shadow';font-variant-ligatures:normal;text-align:center;text-anchor:middle" transform="translate(0 0)">
        <g id="path62579" aria-label="~o" transform="translate(0 321.18399999999997) translate(80.5608049999999 -8.07864700000001) scale(3) translate(-368.21074 35.295549)"> <path class="c1" d="M116.07474,102.80489c-1.09313-0.00269-2.25353-0.05646-3.52961-0.2119 c-3.60331-0.43893-8.25155-1.64614-15.86155-4.47467c-5.94971-2.43518-15.67451-5.95845-21.34077-6.16133 c-5.10913-0.18286-10.33228,0.90521-12.96679,2.76288c-4.72314,3.33038-4.58767,8.28825-3.76357,10.24906 c2.2403-6.21855,9.2505-8.94654,15.77504-8.35007c8.77747,0.80246,16.30561,4.42824,25.04878,7.24562 c3.44041,1.10863,7.05994,2.15264,11.02097,2.76074c1.36958,0.21027,2.80161,0.3835,4.25166,0.46867 c2.48706,0.14612,4.00384,0.19679,5.54034-0.32463c0.84686-0.45387,1.89723-1.50459,2.59611-2.52382 c0.35244-0.514,0.6151-1.03232,0.71798-1.43709C121.70712,101.10876,118.37405,102.81056,116.07474,102.80489z" transform="translate(311.758532 -125.199154)" stroke-width="0" stroke-linejoin="miter" stroke-miterlimit="2" fill="#f10c33" stroke="#f10c33"/> <path class="c2" d="M58.61251,104.96896c-1.04511-0.49683-2.95701-3.90037-1.80078-7.84863 c1.56435-5.34191,7.10591-7.40287,12.73465-7.20364c8.12322,0.28752,18.61639,4.6684,27.13718,8.20164 c-7.40704-2.68176-16.82869-5.94522-24.59558-5.62511c-4.38821,0.18085-7.64689,1.44418-10.17706,3.75694 C59.41919,98.5278,58.17444,102.31208,58.61251,104.96896z" transform="translate(311.758532 -125.199154)" stroke-width="0" stroke-linejoin="miter" stroke-miterlimit="2" fill="#d1d1d1" stroke="#d1d1d1"/> <path class="c1" d="M140.48509,107.34451c-0.13042,0.21276-0.35072,0.62839-0.52882,0.90286 c-1.14636,1.76706-2.45374,3.24365-4.45166,4.3873c-0.91907,0.52608-2.00912,0.95838-3.22852,1.19031 c-1.36711,0.26003-2.92865,0.38866-4.68332,0.38866c-0.36861,0-0.74739-0.02979-1.1487-0.10057 c-0.70243-0.12389-1.45023-0.34521-2.17951-0.67822c-2.14598-0.97991-4.18703-2.84998-4.87862-5.44147 c-0.43306-0.16671-2.15092,1.86411-2.21674,2.54633c-0.34583,3.58434,4.69977,7.59862,9.26167,8.34168 c1.92244,0.31313,3.84265,0.50426,5.62793,0.12907c1.95239-0.295,5.11633-1.36223,7.82153-3.28951 c1.07471-0.76567,2.00412-1.60194,2.87231-2.70662c0.26428-0.34618,0.53589-0.74092,0.75684-1.1337 C143.86179,110.43832,141.69987,107.79749,140.48509,107.34451z" transform="translate(311.758532 -125.199154)" stroke-width="0" stroke-linejoin="miter" stroke-miterlimit="2" fill="#f10c33" stroke="#f10c33"/> <path class="c1" d="M125.70503,98.92068c0.63099,0.0905,1.00537,0.34811,1.40553,0.81573 c0.51519,0.60202,0.73313,1.37081,0.91222,2.32651c0.2043,1.09027,0.29762,2.59454,0.19322,4.23635 c-0.15849,2.49261-0.65911,5.32732-1.78188,7.83144c-0.80788,1.80178-1.7895,3.54535-3.08821,4.95154 c-0.23197,0.23228-0.47037,0.48223-0.7067,0.7013c-0.98891,0.91666-2.60426,1.51191-3.81702,1.23165 c-0.85991-0.19872-1.94246-0.74286-2.24068-2.19942c-0.30334,0.42497-1.08348,3.05345,0.98909,4.605 c1.25396,0.93873,4.73196,1.38795,7.00439,0.45318c1.91913-1.11112,3.50326-2.6796,4.81126-4.48642 c1.2101-1.67154,2.22879-3.53673,2.8799-5.54492c0.75098-2.31615,1.25439-4.70197,1.35635-7.07775 c0.01389-0.29645,0.02869-0.92462,0.01634-1.2065c-0.38803-2.88934-1.57867-4.73351-3.12437-5.72258 C128.11188,98.29842,125.6964,98.56172,125.70503,98.92068z" transform="translate(311.758532 -125.199154)" stroke-width="0" stroke-linejoin="miter" stroke-miterlimit="2" fill="#f10c33" stroke="#f10c33"/> <path class="c2" d="M110.05158,107.79371c-0.8817,2.93348-1.20006,7.1746-0.51665,10.15974 c1.07435,4.69283,4.94424,7.60883,9.23316,7.60883c2.28902,0,4.22425-0.75381,5.8069-1.68832 c-1.83614,0.66542-7.30757-0.73102-7.99343-5.05817c-0.22801-1.43851-0.20338-2.83865,0.06955-4.19881 c0.44908-2.23796,1.36557-4.4236,2.73484-6.6236c0.26261-0.42194,0.55842-0.81911,0.86328-1.22412 c0.96281-1.35035,2.08221-2.71008,3.31399-3.96088c0.21786-0.52602,0.05876-1.81352-0.86426-2.73633 c-0.75609-0.75592-1.88979-1.39215-3.74734-1.39636c-0.64117-0.00146-1.2405,0.08565-1.80054,0.24454 c-1.99499,0.56599-3.49155,2.04293-4.60595,3.67276c-0.94714,1.38522-1.65524,2.85152-2.08789,4.03223 C110.29329,107.05693,110.15028,107.46531,110.05158,107.79371z" transform="translate(311.758532 -125.199154)" stroke-width="0" stroke-linejoin="miter" stroke-miterlimit="2" fill="#d1d1d1" stroke="#d1d1d1"/> <path class="c2" d="M125.70503,98.92068c2.36333-0.04308,4.37605,1.00771,5.73204,2.50822 c1.19685,1.32443,1.87062,2.74145,2.20177,4.12947c0.01068-7.73032-3.18011-11.03124-8.17548-11.0312 c-3.53479,0.00003-6.41135,1.70474-8.31228,4.39306c-1.05737,1.49535-1.7872,3.2794-2.22202,5.28111 c1.40849,0.30117,2.57304,0.49553,4.82116,0.76322c0.68538-1.95033,1.56512-3.73148,2.94874-4.8925 c0.40852-0.34279,0.89547-0.61323,1.39422-0.83148C124.5713,99.03133,125.08581,98.93197,125.70503,98.92068z" transform="translate(311.758532 -125.199154)" stroke-width="0" stroke-linejoin="miter" stroke-miterlimit="2" fill="#d1d1d1" stroke="#d1d1d1"/> <path class="c2" d="M121.4586,115.99923c-3.1614-2.67245-4.05836-7.13093-2.19073-11.33904 c-0.74741-0.88241-3.77068-1.74952-4.33883-0.45885c-0.63954,4.65823,0.16882,8.02032,1.72206,10.41563 c1.54558,2.38349,3.91409,3.78355,6.6948,4.46527c1.19554,0.2931,2.22402,0.3307,3.46458,0.3307 c0.8615,0,1.72823,0.00104,2.58572-0.04304c0.8922-0.06456,1.78392-0.14364,2.6626-0.35944 C129.64342,119.30377,125.00607,118.99805,121.4586,115.99923z" transform="translate(311.758532 -125.199154)" stroke-width="0" stroke-linejoin="miter" stroke-miterlimit="2" fill="#d1d1d1" stroke="#d1d1d1"/> <radialGradient id="fec74a45-2c4f-471c-94de-f0c08787c44f" cx="74.38023" cy="108.86141" r="26.32924" gradientUnits="userSpaceOnUse" transform="translate(311.758532 -125.199154)"> <stop offset="0.64256" style="stop-color:#000000;stop-opacity:0"/> <stop offset="0.89183" style="stop-color:#000000"/> </radialGradient> <path class="highlight" fill="url(#fec74a45-2c4f-471c-94de-f0c08787c44f)" d="M58.61251,104.96896c-1.04511-0.49683-2.95701-3.90037-1.80078-7.84863 c1.56435-5.34191,7.10591-7.40287,12.73465-7.20364c8.12322,0.28752,18.61639,4.6684,27.13718,8.20164 c-7.40704-2.68176-16.82869-5.94522-24.59558-5.62511c-4.38821,0.18085-7.64689,1.44418-10.17706,3.75694 C59.41919,98.5278,58.17444,102.31208,58.61251,104.96896z" transform="translate(311.758532 -125.199154)" stroke-width="0" stroke-linejoin="miter" stroke-miterlimit="2" opacity="0.47"/> <linearGradient id="ef73b5fb-dd4a-4507-9694-114f4ebf4b4c" gradientUnits="userSpaceOnUse" x1="126.33596" y1="86.07578" x2="112.92957" y2="130.29189"> <stop offset="0.19028" style="stop-color:#000000"/> <stop offset="0.27938" style="stop-color:#000000;stop-opacity:0.68377"/> <stop offset="0.47202" style="stop-color:#000000;stop-opacity:0"/> <stop offset="0.7046" style="stop-color:#000000;stop-opacity:0"/> <stop offset="0.94118" style="stop-color:#000000"/> </linearGradient> <path class="highlight" fill="url(#ef73b5fb-dd4a-4507-9694-114f4ebf4b4c)" d="M110.05158,107.79371c-0.8817,2.93348-1.20006,7.1746-0.51665,10.15974 c1.07435,4.69283,4.94424,7.60883,9.23316,7.60883c2.28902,0,4.22425-0.75381,5.8069-1.68832 c-1.83614,0.66542-7.30757-0.73102-7.99343-5.05817c-0.22801-1.43851-0.20338-2.83865,0.06955-4.19881 c0.44908-2.23796,1.36557-4.4236,2.73484-6.6236c0.26261-0.42194,0.55842-0.81911,0.86328-1.22412 c0.96281-1.35035,2.08221-2.71008,3.31399-3.96088c0.21786-0.52602,0.05876-1.81352-0.86426-2.73633 c-0.75609-0.75592-1.88979-1.39215-3.74734-1.39636c-0.64117-0.00146-1.2405,0.08565-1.80054,0.24454 c-1.99499,0.56599-3.49155,2.04293-4.60595,3.67276c-0.94714,1.38522-1.65524,2.85152-2.08789,4.03223 C110.29329,107.05693,110.15028,107.46531,110.05158,107.79371z" transform="translate(311.758532 -125.199154)" stroke-width="0" stroke-linejoin="miter" stroke-miterlimit="2" opacity="0.47"/> <radialGradient id="4f603d6a-91f7-43af-8029-5c23aa6f8702" cx="117.93546" cy="107.19715" r="22.13601" gradientUnits="userSpaceOnUse" transform="translate(311.758532 -125.199154)"> <stop offset="0.60639" style="stop-color:#000000;stop-opacity:0"/> <stop offset="0.80204" style="stop-color:#000000"/> </radialGradient> <path class="highlight" fill="url(#4f603d6a-91f7-43af-8029-5c23aa6f8702)" d="M125.46333,94.52716c-3.53479,0.00003-6.41132,1.70474-8.31226,4.39307 c0.56006-0.15891,1.15942-0.246,1.80054-0.24454c1.85754,0.00421,2.99127,0.64044,3.74731,1.39636 c0.40857-0.3428,0.89551-0.61322,1.39429-0.83148c0.47809-0.20923,0.99261-0.30859,1.61182-0.31989 c2.36333-0.04309,4.37609,1.00769,5.73205,2.50821c1.19684,1.32443,1.87061,2.74146,2.20178,4.12949 C133.64948,97.82803,130.45868,94.52713,125.46333,94.52716z" transform="translate(311.758532 -125.199154)" stroke-width="0" stroke-linejoin="miter" stroke-miterlimit="2" opacity="0.47"/> <linearGradient id="d1287d6c-e5e6-4dde-8aef-4baa201a7137" gradientUnits="userSpaceOnUse" x1="122.18552" y1="108.88494" x2="130.8838" y2="90.87383"> <stop offset="0.28734" style="stop-color:#000000"/> <stop offset="0.38529" style="stop-color:#000000;stop-opacity:0.68377"/> <stop offset="0.59707" style="stop-color:#000000;stop-opacity:0"/> </linearGradient> <path class="highlight" fill="url(#d1287d6c-e5e6-4dde-8aef-4baa201a7137)" d="M125.46333,94.52716c-3.53479,0.00003-6.41132,1.70474-8.31226,4.39307 c0.56006-0.15891,1.15942-0.246,1.80054-0.24454c1.85754,0.00421,2.99127,0.64044,3.74731,1.39636 c0.40857-0.3428,0.89551-0.61322,1.39429-0.83148c0.47809-0.20923,0.99261-0.30859,1.61182-0.31989 c2.36333-0.04309,4.37609,1.00769,5.73205,2.50821c1.19684,1.32443,1.87061,2.74146,2.20178,4.12949 C133.64948,97.82803,130.45868,94.52713,125.46333,94.52716z" transform="translate(311.758532 -125.199154)" stroke-width="0" stroke-linejoin="miter" stroke-miterlimit="2" opacity="0.47"/> <linearGradient id="fbd4d228-f012-4844-ada6-b3a6137fe783" gradientUnits="userSpaceOnUse" x1="115.51914" y1="111.62959" x2="131.92287" y2="121.46114"> <stop offset="0.03291" style="stop-color:#000000"/> <stop offset="0.23751" style="stop-color:#000000;stop-opacity:0.4561"/> <stop offset="0.40908" style="stop-color:#000000;stop-opacity:0"/> <stop offset="0.48977" style="stop-color:#000000;stop-opacity:0"/> <stop offset="0.64547" style="stop-color:#000000;stop-opacity:0.36278"/> <stop offset="0.80079" style="stop-color:#000000;stop-opacity:0.72466"/> <stop offset="0.91897" style="stop-color:#000000"/> </linearGradient> <path class="highlight" fill="url(#fbd4d228-f012-4844-ada6-b3a6137fe783)" d="M121.45856,115.99924c-1.85693-1.56973-2.93233-3.75188-3.12532-6.14135 c-0.79907,1.5777-1.35966,3.15212-1.68217,4.75909c1.54565,2.38348,3.91412,3.78354,6.69482,4.46527 c1.19556,0.29309,2.224,0.33069,3.4646,0.33069c0.86145,0,1.7282,0.00104,2.58569-0.04303 c0.89221-0.06458,1.78394-0.14365,2.6626-0.35944C129.64337,119.30377,125.00605,118.99805,121.45856,115.99924z" transform="translate(311.758532 -125.199154)" stroke-width="0" stroke-linejoin="miter" stroke-miterlimit="2" opacity="0.47"/> <linearGradient id="40d1782b-8ffd-4455-bd6f-9dbecae7e6bd" gradientUnits="userSpaceOnUse" x1="119.07196" y1="102.89924" x2="128.08121" y2="108.9054"> <stop offset="0.2079" style="stop-color:#000000"/> <stop offset="0.34929" style="stop-color:#000000;stop-opacity:0.68377"/> <stop offset="0.65502" style="stop-color:#000000;stop-opacity:0"/> </linearGradient> <path class="highlight" fill="url(#40d1782b-8ffd-4455-bd6f-9dbecae7e6bd)" d="M120.24928,106.76923c0.84686-0.45395,1.89716-1.50458,2.59607-2.5238 c0.35248-0.51398,0.61505-1.03232,0.71796-1.43707C122.33143,104.05917,121.2121,105.41888,120.24928,106.76923z" transform="translate(311.758532 -125.199154)" stroke-width="0" stroke-linejoin="miter" stroke-miterlimit="2" opacity="0.47"/> <linearGradient id="66614093-1a3e-4487-9f32-da567ff5f044" gradientUnits="userSpaceOnUse" x1="53.96058" y1="94.81892" x2="122.7833" y2="113.4031"> <stop offset="0.05815" style="stop-color:#000000"/> <stop offset="0.14078" style="stop-color:#000000;stop-opacity:0.68377"/> <stop offset="0.31944" style="stop-color:#000000;stop-opacity:0"/> <stop offset="0.64759" style="stop-color:#000000;stop-opacity:0"/> <stop offset="0.8531" style="stop-color:#000000"/> </linearGradient> <path class="highlight" fill="url(#66614093-1a3e-4487-9f32-da567ff5f044)" d="M110.45722,106.62521c0.43268-1.18073,1.14075-2.647,2.08789-4.03223 c-3.60327-0.43893-8.25153-1.64615-15.86157-4.47467c-7.40698-2.68173-16.82867-5.94519-24.59558-5.62509 c-4.38818,0.18085-7.64685,1.44418-10.177,3.75696c-2.4917,2.27756-3.73645,6.06171-3.29846,8.7186 c2.24036-6.21844,9.25049-8.94641,15.77502-8.34995c8.77747,0.80249,16.30554,4.42825,25.04871,7.24564 C102.87666,104.97308,106.49616,106.01712,110.45722,106.62521z" transform="translate(311.758532 -125.199154)" stroke-width="0" stroke-linejoin="miter" stroke-miterlimit="2" opacity="0.47"/> <radialGradient id="baf40106-1f2a-4349-96b7-da405c9e5332" cx="150.92087" cy="100.67451" r="41.31253" gradientUnits="userSpaceOnUse" transform="translate(311.758532 -125.199154)"> <stop offset="0.53219" style="stop-color:#000000;stop-opacity:0"/> <stop offset="0.8986" style="stop-color:#000000"/> </radialGradient> <path class="highlight" fill="url(#baf40106-1f2a-4349-96b7-da405c9e5332)" d="M140.48505,107.34451c-0.13037,0.21277-0.35071,0.62839-0.52881,0.90286 c-1.14636,1.76706-2.45374,3.24365-4.45166,4.3873c-0.91907,0.52609-2.00909,0.95837-3.22852,1.19031 c-1.36707,0.26001-2.92859,0.38864-4.68328,0.38864c-0.36859,0-0.74738-0.02979-1.14874-0.10056 c-0.70239-0.1239-1.4502-0.34521-2.17944-0.67822c-2.146-0.97992-4.18701-2.84998-4.87866-5.44147 c-0.3866,0.62112-0.73872,1.24418-1.05269,1.86451c0.1936,2.38855,1.269,4.57214,3.12532,6.14135 c3.54749,2.99878,8.18481,3.30453,10.60021,3.01123c1.95239-0.29498,5.11633-1.36221,7.82153-3.28949 c1.07471-0.76569,2.00415-1.60196,2.87231-2.70663c0.26428-0.34616,0.53589-0.74091,0.75684-1.1337 C143.86176,110.43832,141.69989,107.79749,140.48505,107.34451z" transform="translate(311.758532 -125.199154)" stroke-width="0" stroke-linejoin="miter" stroke-miterlimit="2" opacity="0.47"/> <linearGradient id="9e5adcdb-818c-4a49-9d7e-4b9639bc4aff" gradientUnits="userSpaceOnUse" x1="120.12089" y1="124.78698" x2="124.75868" y2="115.5786"> <stop offset="0.11987" style="stop-color:#000000"/> <stop offset="0.21282" style="stop-color:#000000;stop-opacity:0.74701"/> <stop offset="0.41381" style="stop-color:#000000;stop-opacity:0.2"/> <stop offset="0.80681" style="stop-color:#000000"/> </linearGradient> <path class="highlight" fill="url(#9e5adcdb-818c-4a49-9d7e-4b9639bc4aff)" d="M126.81049,119.41293c-1.2406,0-2.26904-0.0376-3.4646-0.33069 c-0.23193,0.2323-0.47034,0.48224-0.70667,0.70129c-0.98889,0.91669-2.60425,1.51193-3.81702,1.23166 c-0.85968-0.19864-1.94189-0.74265-2.24042-2.1983c0.68665,4.32623,6.15723,5.72241,7.99323,5.05707 c1.91907-1.11111,3.50323-2.6796,4.81121-4.48642C128.5387,119.41397,127.67194,119.41293,126.81049,119.41293z" transform="translate(311.758532 -125.199154)" stroke-width="0" stroke-linejoin="miter" stroke-miterlimit="2" opacity="0.47"/> <linearGradient id="63eb2004-2618-4a5a-8347-e2cae312e726" gradientUnits="userSpaceOnUse" x1="127.29588" y1="117.88761" x2="130.38979" y2="98.86765"> <stop offset="0.16578" style="stop-color:#000000"/> <stop offset="0.24796" style="stop-color:#000000;stop-opacity:0.68377"/> <stop offset="0.42565" style="stop-color:#000000;stop-opacity:0"/> <stop offset="0.55241" style="stop-color:#000000;stop-opacity:0"/> <stop offset="0.95053" style="stop-color:#000000"/> </linearGradient> <path class="highlight" fill="url(#63eb2004-2618-4a5a-8347-e2cae312e726)" d="M127.11054,99.73642c0.51526,0.60202,0.73315,1.37079,0.91222,2.32651 c0.20435,1.09027,0.29761,2.59454,0.19324,4.23636c-0.15814,2.48669-0.65722,5.31351-1.77441,7.81326 c0.40381,0.07129,0.78259,0.10107,1.15118,0.10107c1.75274,0,3.31261-0.12839,4.67864-0.38788 c0.74792-2.31085,1.24939-4.69086,1.35107-7.06088c0.01392-0.29645,0.02869-0.92462,0.01636-1.20648 c-0.33118-1.38803-1.00494-2.80505-2.20178-4.12949c-1.35596-1.50052-3.36871-2.5513-5.73205-2.50821 C126.33601,99.01117,126.7104,99.2688,127.11054,99.73642z" transform="translate(311.758532 -125.199154)" stroke-width="0" stroke-linejoin="miter" stroke-miterlimit="2" opacity="0.47"/> </g>
        <g id="path62581" aria-label="g" transform="translate(0 321.18399999999997) translate(301.9158349999999 6.871999999999993) scale(3) translate(-441.99575 30.312)"> <path class="c1" d="M105.88298,106.16233c-0.17532,0.45211-0.90617,1.76497-1.97119,3.47292 c-1.85123,2.96875-7.06956,10.90222-10.70687,11.37136c-0.47897,0.46367-0.99798,1.99809-0.03269,2.7656 c1.3814,1.09838,3.88063,0.62249,5.34287-0.19551c0.2716-0.21254,0.67349-0.57175,0.95513-0.84763 c2.82688-2.49443,6.11582-6.55962,6.88078-7.75233C107.38679,112.86655,106.50286,106.22597,105.88298,106.16233z" transform="translate(365.13625 -125.54021)" stroke-width="0" stroke-linejoin="miter" stroke-miterlimit="2" fill="#f10c33" stroke="#f10c33"/> <path class="c1" d="M100.62122,104.51727c0.2166,0.56777,1.05748,1.08028,2.16035,1.08028 c0.72031,0,1.45-0.24375,1.86104-0.56868c0.42868-0.53316,1.09271-1.60169,1.26749-3.4365c0,0,0.22711-1.1673-0.57246-2.03555 c-1.13805-1.23578-3.11825-0.62346-3.27979-0.15276c0.67197,0.91635,0.80497,2.57786,0.42297,3.55702 C102.10436,103.92601,101.27845,104.45536,100.62122,104.51727z" transform="translate(365.13625 -125.54021)" stroke-width="0" stroke-linejoin="miter" stroke-miterlimit="2" fill="#f10c33" stroke="#f10c33"/> <path class="c2" d="M105.29333,103.91705c0.24066,0.0368,1.12798-0.91464,1.25098-2.58205 c0.08019-1.08703-0.10406-2.05436-0.52269-2.80423c-0.65082-1.16579-1.57773-1.97825-2.63238-2.49989 c-1.17214-0.57975-2.50163-0.80267-3.77583-0.80267c-7.88657,0-14.86477,13.84904-14.33044,22.54887 c0.26894,4.379,3.26823,7.76563,7.91715,7.76563c2.31316,0,4.04435-0.97056,5.31498-1.96601 c-1.75236,0.50209-3.96152,0.37193-5.04101-1.81129c-0.11397-0.23051-0.19376-0.48431-0.26917-0.7588 c-0.68694-2.5005,0.15394-6.71745,1.49217-10.67443c1.20548-3.56446,4.07636-9.37051,7.36076-10.92811 c0.6707-0.31808,1.33244-0.33083,2.02805-0.09799C105.29663,99.71133,105.95933,101.00797,105.29333,103.91705z" transform="translate(365.13625 -125.54021)" stroke-width="0" stroke-linejoin="miter" stroke-miterlimit="2" fill="#d1d1d1" stroke="#d1d1d1"/> <path class="c1" d="M120.06361,107.68524c-0.99043,1.76534-1.92007,3.28905-2.74824,4.40913 c-1.63208,2.31702-3.30991,4.03407-4.90954,5.47877c-1.27996,1.15599-2.54385,2.08595-3.78438,2.91483 c-2.53123,1.69128-7.95051,4.6965-10.45139,6.06236c-11.82528,6.4584-21.31056,10.54915-21.31056,17.24039 c0.44983,2.21707,2.45673,3.13249,3.16651,3.26457c0.53616,0.09976,2.97325,0.20177,3.18797-0.2021 c-1.72977,0.06558-2.46651-0.94026-2.46687-1.71808c-0.00138-3.03381,3.8447-5.64505,6.43346-7.29153 c2.45012-1.55833,5.32912-3.01579,8.18478-4.38995c3.62038-1.73329,8.14793-4.0071,10.36816-5.3291 c5.84743-3.39072,11.15099-7.13968,15.3865-12.71912c0.74334-0.94213,1.45736-2.16811,1.9678-3.18284 C123.51756,110.76081,121.21056,108.07567,120.06361,107.68524z" transform="translate(365.13625 -125.54021)" stroke-width="0" stroke-linejoin="miter" stroke-miterlimit="2" fill="#f10c33" stroke="#f10c33"/> <path class="c2" d="M114.4464,99.88631c0-3.01317-3.15964-4.59384-6.22446-4.58567 c-0.92033,0.00245-1.66877,0.08682-1.98381,0.28799c0.15372,0.42234,0.05222,1.52672-0.21651,2.94212 c-0.26402,1.59055-0.66669,3.60527-1.14456,5.55638c-0.83562,3.41183-1.78663,6.65609-1.99804,7.41891 c-0.67832,2.44763-1.77541,6.28378-3.40878,11.22301c-0.43535,1.31647-0.85742,2.60472-1.30016,3.82125 c-0.92356,2.5377-1.84335,4.80087-2.8047,6.90329c-3.93201,8.59901-8.14062,13.40549-12.41075,13.40549 c-2.86137,0-5.50912-1.19736-6.09511-3.06839c-0.00029,1.35793,0.56476,2.95808,2.17827,4.25778 c1.61836,1.30362,3.74756,1.97659,5.77629,1.97659c3.84997,0,7.03048-1.49138,9.83167-3.94679 c4.95592-4.34418,8.52691-11.79739,11.0878-17.95378c0.11973-0.28784,2.4095-6.28243,2.88792-7.63655 C110.81988,114.26552,114.4464,102.65522,114.4464,99.88631z" transform="translate(365.13625 -125.54021)" stroke-width="0" stroke-linejoin="miter" stroke-miterlimit="2" fill="#d1d1d1" stroke="#d1d1d1"/> <radialGradient id="ecaa70c4-e829-4694-86a3-0f2662795ff8" cx="94.95341" cy="109.37122" r="18.0409" gradientUnits="userSpaceOnUse" transform="translate(365.13625 -125.54021)"> <stop offset="0.55396" style="stop-color:#000000;stop-opacity:0"/> <stop offset="0.75835" style="stop-color:#000000"/> </radialGradient> <path class="highlight" fill="url(#ecaa70c4-e829-4694-86a3-0f2662795ff8)" d="M102.78158,105.59755c0.72003,0,1.44946-0.24371,1.8606-0.56842 c0.0788-0.31171,0.15735-0.62561,0.23486-0.94202c0.23309-0.9516,0.44975-1.92561,0.63969-2.85084 c-0.07066-0.52731-0.23152-0.93388-0.46267-1.24398c-0.24946-0.33466-0.58074-0.55658-0.96815-0.68625 c-0.69562-0.23285-1.35736-0.22009-2.02808,0.09802c0.672,0.91632,0.80499,2.57782,0.42297,3.55701 c-0.37646,0.9649-1.20233,1.49426-1.85956,1.55621C100.83779,105.08504,101.67867,105.59755,102.78158,105.59755z" transform="translate(365.13625 -125.54021)" stroke-width="0" stroke-linejoin="miter" stroke-miterlimit="2" opacity="0.47"/> <linearGradient id="5f9682c5-c1c1-4102-8615-15fc08841b72" gradientUnits="userSpaceOnUse" x1="92.20288" y1="124.51441" x2="106.11777" y2="112.81116"> <stop offset="0.11994" style="stop-color:#000000"/> <stop offset="0.21133" style="stop-color:#000000;stop-opacity:0.68377"/> <stop offset="0.40894" style="stop-color:#000000;stop-opacity:0"/> <stop offset="0.52522" style="stop-color:#000000;stop-opacity:0"/> <stop offset="0.82175" style="stop-color:#000000"/> </linearGradient> <path class="highlight" fill="url(#5f9682c5-c1c1-4102-8615-15fc08841b72)" d="M98.5151,123.57668c0.27161-0.21252,0.67346-0.57172,0.95514-0.8476 c1.63336-4.93927,2.73047-8.77539,3.40875-11.22302c0.02917-0.10529,0.07367-0.26196,0.12878-0.45575 c-2.30444,3.52728-6.64709,9.54926-9.80286,9.9563c0.07538,0.27448,0.15521,0.52826,0.26917,0.75879 C94.55355,123.94862,96.76272,124.07875,98.5151,123.57668z" transform="translate(365.13625 -125.54021)" stroke-width="0" stroke-linejoin="miter" stroke-miterlimit="2" opacity="0.47"/> <radialGradient id="df67a300-df64-4fc0-b388-e98e71f8f95b" cx="117.55516" cy="105.42638" r="62.93192" gradientUnits="userSpaceOnUse" transform="translate(365.13625 -125.54021)"> <stop offset="0.7028" style="stop-color:#000000;stop-opacity:0"/> <stop offset="0.91581" style="stop-color:#000000"/> </radialGradient> <path class="highlight" fill="url(#df67a300-df64-4fc0-b388-e98e71f8f95b)" d="M82.95461,146.85909c0.04877,0,0.21061-0.00461,0.25938-0.00589 c-0.1028,0.00096-0.19874,0.00421-0.29674,0.00072c-0.5183-0.01849-1.0317-0.1424-1.45834-0.44456 c-0.46633-0.33026-0.7116-0.82437-0.71182-1.27426c-0.00134-3.03381,3.84473-5.64502,6.43347-7.29156 c2.45013-1.55829,5.32916-3.01575,8.18481-4.38995c0.96136-2.10242,1.8811-4.36554,2.80469-6.90326 c-11.82526,6.45837-21.31055,10.54913-21.31055,17.24036C77.44552,145.6617,80.09322,146.85909,82.95461,146.85909z" transform="translate(365.13625 -125.54021)" stroke-width="0" stroke-linejoin="miter" stroke-miterlimit="2" opacity="0.47"/> <linearGradient id="52dca1f3-0498-4928-83c0-c2608ff5b9f0" gradientUnits="userSpaceOnUse" x1="100.01223" y1="139.14085" x2="78.33314" y2="133.88531"> <stop offset="0.16994" style="stop-color:#000000"/> <stop offset="0.28318" style="stop-color:#000000;stop-opacity:0.68377"/> <stop offset="0.52802" style="stop-color:#000000;stop-opacity:0"/> </linearGradient> <path class="highlight" fill="url(#52dca1f3-0498-4928-83c0-c2608ff5b9f0)" d="M82.95461,146.85909c0.04877,0,0.21066-0.00333,0.25938-0.00589 c-0.12458,0.00658-0.26221,0.00366-0.38911-0.00375c-0.49388-0.02885-0.98038-0.16499-1.37258-0.44479 c-0.47606-0.33961-0.70499-0.83812-0.70521-1.26956c-0.00134-3.03381,3.84473-5.64502,6.43347-7.29156 c2.45013-1.55829,5.32916-3.01575,8.18481-4.38995c0.96136-2.10242,1.8811-4.36554,2.80469-6.90326 c-11.82526,6.45837-21.31055,10.54913-21.31055,17.24036C77.44552,145.6617,80.09322,146.85909,82.95461,146.85909z" transform="translate(365.13625 -125.54021)" stroke-width="0" stroke-linejoin="miter" stroke-miterlimit="2" opacity="0.47"/> <linearGradient id="8a24d858-e33f-4f96-ad1d-3638eee834a9" gradientUnits="userSpaceOnUse" x1="101.49879" y1="117.21694" x2="120.15502" y2="118.34275"> <stop offset="0.16872" style="stop-color:#000000"/> <stop offset="0.36978" style="stop-color:#000000;stop-opacity:0.70549"/> <stop offset="0.85143" style="stop-color:#000000;stop-opacity:0"/> </linearGradient> <path class="highlight" fill="url(#8a24d858-e33f-4f96-ad1d-3638eee834a9)" d="M120.06362,107.68526c-0.99042,1.76532-1.9201,3.289-2.74823,4.40912 c-1.63208,2.31702-3.30994,4.03406-4.90955,5.47876c-1.27997,1.15601-2.54388,2.08594-3.78442,2.91479 c-0.47839,1.35413-2.76819,7.34875-2.88788,7.63654c5.84741-3.39069,11.151-7.13965,15.38647-12.71912 c0.74335-0.94214,1.45734-2.16809,1.96777-3.1828C123.51754,110.76082,121.21053,108.07564,120.06362,107.68526z" transform="translate(365.13625 -125.54021)" stroke-width="0" stroke-linejoin="miter" stroke-miterlimit="2" opacity="0.47"/> <linearGradient id="f68a54c4-58c7-4a02-a948-cf8d11190f60" gradientUnits="userSpaceOnUse" x1="109.08897" y1="74.97186" x2="91.55525" y2="137.19676"> <stop offset="0.1472" style="stop-color:#000000"/> <stop offset="0.25497" style="stop-color:#000000;stop-opacity:0.68377"/> <stop offset="0.48799" style="stop-color:#000000;stop-opacity:0"/> </linearGradient> <path class="highlight" fill="url(#f68a54c4-58c7-4a02-a948-cf8d11190f60)" d="M114.4464,99.88631c0-3.01317-3.15964-4.59384-6.22446-4.58567 c-0.92033,0.00245-1.66877,0.08682-1.98381,0.28799c0.15372,0.42234,0.05222,1.52672-0.21651,2.94212 c-0.26402,1.59055-0.66669,3.60527-1.14456,5.55638c-0.83562,3.41183-1.78663,6.65609-1.99804,7.41891 c-0.67832,2.44763-1.77541,6.28378-3.40878,11.22301c-0.43535,1.31647-0.85742,2.60472-1.30016,3.82125 c-0.92356,2.5377-1.84335,4.80087-2.8047,6.90329c-3.93201,8.59901-8.14062,13.40549-12.41075,13.40549 c-2.86137,0-5.50912-1.19736-6.09511-3.06839c-0.00029,1.35793,0.56476,2.95808,2.17827,4.25778 c1.61836,1.30362,3.74756,1.97659,5.77629,1.97659c3.84997,0,7.03048-1.49138,9.83167-3.94679 c4.95592-4.34418,8.52691-11.79739,11.0878-17.95378c0.11973-0.28784,2.4095-6.28243,2.88792-7.63655 C110.81988,114.26552,114.4464,102.65522,114.4464,99.88631z" transform="translate(365.13625 -125.54021)" stroke-width="0" stroke-linejoin="miter" stroke-miterlimit="2" opacity="0.47"/> <radialGradient id="934104ba-2b22-4caf-a3d4-b81176d096f7" cx="118.60573" cy="93.3146" r="81.52163" gradientUnits="userSpaceOnUse" transform="translate(365.13625 -125.54021)"> <stop offset="0.59875" style="stop-color:#000000;stop-opacity:0"/> <stop offset="0.89487" style="stop-color:#000000"/> </radialGradient> <path class="highlight" fill="url(#934104ba-2b22-4caf-a3d4-b81176d096f7)" d="M114.4464,99.88631c0-3.01317-3.15964-4.59384-6.22446-4.58567 c-0.92033,0.00245-1.66877,0.08682-1.98381,0.28799c0.15372,0.42234,0.05222,1.52672-0.21651,2.94212 c-0.26402,1.59055-0.66669,3.60527-1.14456,5.55638c-0.83562,3.41183-1.78663,6.65609-1.99804,7.41891 c-0.67832,2.44763-1.77541,6.28378-3.40878,11.22301c-0.43535,1.31647-0.85742,2.60472-1.30016,3.82125 c-0.92356,2.5377-1.84335,4.80087-2.8047,6.90329c-3.93201,8.59901-8.14062,13.40549-12.41075,13.40549 c-2.86137,0-5.50912-1.19736-6.09511-3.06839c-0.00029,1.35793,0.56476,2.95808,2.17827,4.25778 c1.61836,1.30362,3.74756,1.97659,5.77629,1.97659c3.84997,0,7.03048-1.49138,9.83167-3.94679 c4.95592-4.34418,8.52691-11.79739,11.0878-17.95378c0.11973-0.28784,2.4095-6.28243,2.88792-7.63655 C110.81988,114.26552,114.4464,102.65522,114.4464,99.88631z" transform="translate(365.13625 -125.54021)" stroke-width="0" stroke-linejoin="miter" stroke-miterlimit="2" opacity="0.47"/> <linearGradient id="12b1cb14-777a-4d3f-b8b5-cf50b9fde162" gradientUnits="userSpaceOnUse" x1="87.58459" y1="136.7785" x2="103.61374" y2="76.9252"> <stop offset="0.15298" style="stop-color:#000000"/> <stop offset="0.20975" style="stop-color:#000000;stop-opacity:0.68377"/> <stop offset="0.3325" style="stop-color:#000000;stop-opacity:0"/> <stop offset="0.53218" style="stop-color:#000000;stop-opacity:0"/> <stop offset="0.77531" style="stop-color:#000000"/> </linearGradient> <path class="highlight" fill="url(#12b1cb14-777a-4d3f-b8b5-cf50b9fde162)" d="M93.2001,125.54268c2.31317,0,4.04437-0.97052,5.315-1.966 c-1.75238,0.50208-3.96155,0.37195-5.04102-1.81128c-0.11395-0.23053-0.19379-0.48431-0.26917-0.75879 c-0.68695-2.50049,0.15393-6.71747,1.49219-10.67444c1.20544-3.56445,4.07635-9.37048,7.36072-10.9281 c0.67072-0.31812,1.33246-0.33087,2.02808-0.09802c0.40689,0.13618,0.72221,0.36104,0.96815,0.68625 c0.26822,0.35468,0.40391,0.80549,0.46267,1.24398c0.19946-0.97186,0.36965-1.89074,0.50491-2.70556 c-0.65082-1.16577-1.57776-1.97821-2.63239-2.49988c-1.17218-0.57971-2.50165-0.80261-3.77582-0.80261 c-7.8866,0-14.86481,13.849-14.33044,22.54883C85.5519,122.15608,88.55117,125.54268,93.2001,125.54268z" transform="translate(365.13625 -125.54021)" stroke-width="0" stroke-linejoin="miter" stroke-miterlimit="2" opacity="0.47"/> </g>
        <g id="path62583" aria-label="r" transform="translate(0 321.18399999999997) translate(429.9203149999999 -30.92799999999999) scale(3) translate(-484.66391 42.912)"> <path class="c1" d="M112.52395,107.68502c-2.74715,5.03338-8.41092,13.1659-13.10848,13.32166 c-1.42525,0.20244,0.00279,2.41245,1.71181,3.17642c1.40706,0.62899,2.87473,0.16917,4.19789-0.58488 c2.2062-1.20245,8.09502-7.10834,10.22185-11.37037C115.8733,110.78307,113.73178,108.18836,112.52395,107.68502z" transform="translate(400.244356 -125.53874)" stroke-width="0" stroke-linejoin="miter" stroke-miterlimit="2" fill="#f10c33" stroke="#f10c33"/> <path class="c1" d="M93.80766,86.80521c0.15543,0.48647,0.20937,1.17325,0.00605,2.08311 c-0.16148,0.72263-0.53386,1.77637-1.01329,2.6604c-0.71884,1.89439-1.56725,3.7738-1.8838,4.45045 c-2.25835,4.82756-5.19025,10.09973-6.47471,12.26202c-0.29238,1.74551,2.36543,4.34707,3.16797,4.32031 c1.27505-2.17106,4.89861-7.97081,7.62745-13.68023c0.76345-1.59733,1.47223-3.17301,2.0265-4.6808 c0.45309-1.23256,0.79698-2.42992,1.03258-3.47198c0.39744-2.50739-0.4376-4.43645-1.70467-4.81425 C95.37539,85.57158,94.20809,86.15982,93.80766,86.80521z" transform="translate(400.244356 -125.53874)" stroke-width="0" stroke-linejoin="miter" stroke-miterlimit="2" fill="#f10c33" stroke="#f10c33"/> <path class="c2" d="M99.39736,120.17397c-0.03151-4.34954,2.90304-9.81717,4.92663-13.90649 c1.44762-2.92537,2.59061-5.38638,2.3717-6.74014c-0.26443-1.63527-2.13164-3.18066-6.44366-4.36041 c-0.93549-0.25594-1.97758-0.58068-2.98819-0.94645c-1.853-0.67066-3.59571-1.5299-4.46341-2.67175 c-0.34315-0.49655-0.57761-1.10009-0.57326-1.67941c0.00239-0.31847,0.06429-0.79325,0.20026-1.24792 c0.25947-0.86759,0.75485-1.49182,1.38023-1.81618c0.71595-0.37135,1.54814-0.4051,2.3767-0.2466 c1.42556,0.27269,2.30864,1.49992,2.11205,4.18989c0.23371-0.93047,0.42799-2.5561,0.17338-3.79113 c-0.51282-2.38966-2.87724-4.33064-6.13564-4.33064c-2.83878,0-5.2773,2.73307-5.66068,5.51096 c-0.27003,1.95667-0.00943,3.59178,0.5845,4.83273c0.7067,1.47659,1.83679,2.52512,3.44343,3.48518 c1.69063,1.01023,3.30247,1.8376,4.53594,2.44569c0.86258,0.42525,1.45202,0.88733,1.65839,1.36314 c0.9007,2.07662-5.36835,11.78783-5.39609,17.75192c-0.01852,3.98206,3.09274,7.52476,7.77001,7.52476 c2.50829,0,4.92204-1.1186,6.05552-1.94288c-2.8108,1.03229-5.47373-0.17448-5.90971-2.59154 C99.4063,120.86178,99.39901,120.4016,99.39736,120.17397z" transform="translate(400.244356 -125.53874)" stroke-width="0" stroke-linejoin="miter" stroke-miterlimit="2" fill="#d1d1d1" stroke="#d1d1d1"/> <linearGradient id="51daa1c5-a2a3-4ecb-814d-c5e62df8762f" gradientUnits="userSpaceOnUse" x1="93.96214" y1="93.74287" x2="97.45193" y2="86.5796"> <stop offset="0.06917" style="stop-color:#000000"/> <stop offset="0.18797" style="stop-color:#000000;stop-opacity:0.68377"/> <stop offset="0.44485" style="stop-color:#000000;stop-opacity:0"/> <stop offset="0.61676" style="stop-color:#000000;stop-opacity:0"/> <stop offset="0.96326" style="stop-color:#000000"/> </linearGradient> <path class="highlight" fill="url(#51daa1c5-a2a3-4ecb-814d-c5e62df8762f)" d="M97.26383,94.22047c0.45306-1.23254,0.797-2.42993,1.03259-3.47198 c0.19659-2.68994-0.68652-3.91718-2.11206-4.18988c-0.82855-0.15851-1.66077-0.12476-2.37671,0.24658 c0.15546,0.48645,0.20935,1.17328,0.00604,2.08313c-0.16144,0.7226-0.53387,1.77637-1.01331,2.6604 C93.66813,92.69057,95.4108,93.54982,97.26383,94.22047z" transform="translate(400.244356 -125.53874)" stroke-width="0" stroke-linejoin="miter" stroke-miterlimit="2" opacity="0.47"/> <linearGradient id="f69a34aa-cc10-42fc-8534-a931d8aa2659" gradientUnits="userSpaceOnUse" x1="99.7818" y1="126.47613" x2="116.74059" y2="105.58786"> <stop offset="0.03788" style="stop-color:#000000"/> <stop offset="0.22585" style="stop-color:#000000;stop-opacity:0.68377"/> <stop offset="0.6323" style="stop-color:#000000;stop-opacity:0"/> </linearGradient> <path class="highlight" fill="url(#f69a34aa-cc10-42fc-8534-a931d8aa2659)" d="M112.52396,107.68501c-2.74719,5.03339-8.41095,13.16589-13.10852,13.32166 c0.43597,2.41705,3.09894,3.62384,5.90973,2.59155c2.20618-1.20245,8.09503-7.10834,10.22186-11.37036 C115.87327,110.78304,113.73179,108.18837,112.52396,107.68501z" transform="translate(400.244356 -125.53874)" stroke-width="0" stroke-linejoin="miter" stroke-miterlimit="2" opacity="0.47"/> <linearGradient id="cf0ae56d-28e2-4f15-b662-16fce6343307" gradientUnits="userSpaceOnUse" x1="83.66734" y1="113.74444" x2="95.14693" y2="94.45872"> <stop offset="0.40116" style="stop-color:#000000;stop-opacity:0"/> <stop offset="0.86632" style="stop-color:#000000"/> </linearGradient> <path class="highlight" fill="url(#cf0ae56d-28e2-4f15-b662-16fce6343307)" d="M90.70139,96.45558c-0.00024-0.00018-0.00049-0.00031-0.00073-0.00049 c-2.22632,4.69989-5.01453,9.71155-6.25873,11.80609c-0.29242,1.74548,2.36542,4.34705,3.16797,4.32031 c1.27502-2.17108,4.89856-7.97083,7.62744-13.68024C94.00388,98.29317,92.39201,97.46584,90.70139,96.45558z" transform="translate(400.244356 -125.53874)" stroke-width="0" stroke-linejoin="miter" stroke-miterlimit="2" opacity="0.47"/> <linearGradient id="dbe64be8-c778-41dc-8d19-0bbca92ca5e4" gradientUnits="userSpaceOnUse" x1="89.05183" y1="138.48996" x2="103.00179" y2="72.91328"> <stop offset="0.15901" style="stop-color:#000000"/> <stop offset="0.24176" style="stop-color:#000000;stop-opacity:0.68377"/> <stop offset="0.42069" style="stop-color:#000000;stop-opacity:0"/> </linearGradient> <path class="highlight" fill="url(#dbe64be8-c778-41dc-8d19-0bbca92ca5e4)" d="M99.39736,120.17397c-0.03151-4.34954,2.90304-9.81717,4.92663-13.90649 c1.44762-2.92537,2.59061-5.38638,2.3717-6.74014c-0.26443-1.63527-2.13164-3.18066-6.44366-4.36041 c-0.93549-0.25594-1.97758-0.58068-2.98819-0.94645c-1.853-0.67066-3.59571-1.5299-4.46341-2.67175 c-0.34315-0.49655-0.57761-1.10009-0.57326-1.67941c0.00239-0.31847,0.06429-0.79325,0.20026-1.24792 c0.25947-0.86759,0.75485-1.49182,1.38023-1.81618c0.71595-0.37135,1.54814-0.4051,2.3767-0.2466 c1.42556,0.27269,2.30864,1.49992,2.11205,4.18989c0.23371-0.93047,0.42799-2.5561,0.17338-3.79113 c-0.51282-2.38966-2.87724-4.33064-6.13564-4.33064c-2.83878,0-5.2773,2.73307-5.66068,5.51096 c-0.27003,1.95667-0.00943,3.59178,0.5845,4.83273c0.7067,1.47659,1.83679,2.52512,3.44343,3.48518 c1.69063,1.01023,3.30247,1.8376,4.53594,2.44569c0.86258,0.42525,1.45202,0.88733,1.65839,1.36314 c0.9007,2.07662-5.36835,11.78783-5.39609,17.75192c-0.01852,3.98206,3.09274,7.52476,7.77001,7.52476 c2.50829,0,4.92204-1.1186,6.05552-1.94288c-2.8108,1.03229-5.47373-0.17448-5.90971-2.59154 C99.4063,120.86178,99.39901,120.4016,99.39736,120.17397z" transform="translate(400.244356 -125.53874)" stroke-width="0" stroke-linejoin="miter" stroke-miterlimit="2" opacity="0.47"/> <radialGradient id="b02a228a-d884-4e1e-8a45-84710aedc0be" cx="102.2095" cy="115.01871" r="46.12037" gradientUnits="userSpaceOnUse" transform="translate(400.244356 -125.53874)"> <stop offset="0.54004" style="stop-color:#000000;stop-opacity:0"/> <stop offset="0.81129" style="stop-color:#000000"/> </radialGradient> <path class="highlight" fill="url(#b02a228a-d884-4e1e-8a45-84710aedc0be)" d="M99.39736,120.17397c-0.03151-4.34954,2.90304-9.81717,4.92663-13.90649 c1.44762-2.92537,2.59061-5.38638,2.3717-6.74014c-0.26443-1.63527-2.13164-3.18066-6.44366-4.36041 c-0.93549-0.25594-1.97758-0.58068-2.98819-0.94645c-1.853-0.67066-3.59571-1.5299-4.46341-2.67175 c-0.34315-0.49655-0.57761-1.10009-0.57326-1.67941c0.00239-0.31847,0.06429-0.79325,0.20026-1.24792 c0.25947-0.86759,0.75485-1.49182,1.38023-1.81618c0.71595-0.37135,1.54814-0.4051,2.3767-0.2466 c1.42556,0.27269,2.30864,1.49992,2.11205,4.18989c0.23371-0.93047,0.42799-2.5561,0.17338-3.79113 c-0.51282-2.38966-2.87724-4.33064-6.13564-4.33064c-2.83878,0-5.2773,2.73307-5.66068,5.51096 c-0.27003,1.95667-0.00943,3.59178,0.5845,4.83273c0.7067,1.47659,1.83679,2.52512,3.44343,3.48518 c1.69063,1.01023,3.30247,1.8376,4.53594,2.44569c0.86258,0.42525,1.45202,0.88733,1.65839,1.36314 c0.9007,2.07662-5.36835,11.78783-5.39609,17.75192c-0.01852,3.98206,3.09274,7.52476,7.77001,7.52476 c2.50829,0,4.92204-1.1186,6.05552-1.94288c-2.8108,1.03229-5.47373-0.17448-5.90971-2.59154 C99.4063,120.86178,99.39901,120.4016,99.39736,120.17397z" transform="translate(400.244356 -125.53874)" stroke-width="0" stroke-linejoin="miter" stroke-miterlimit="2" opacity="0.47"/> </g>
        <g id="path62585" aria-label="o" transform="translate(0 321.18399999999997) translate(508.36575499999987 5.7919999999999945) scale(3) translate(-510.81239 30.672)"> <path class="c1" d="M114.12495,107.68502c-0.13042,0.21276-0.30192,0.56566-0.4666,0.84833 c-1.0564,1.81324-2.48842,3.22099-4.48575,4.4442c-0.86374,0.52897-1.9726,0.92995-3.25664,1.18794 c-1.36436,0.27412-2.92868,0.38866-4.68334,0.38866c-0.36861,0-0.74738-0.02979-1.14869-0.10057 c-2.76942-0.48846-6.12881-2.64433-7.05542-6.11649c-0.43306-0.16671-2.15363,1.86092-2.21946,2.54314 c-0.34583,3.58434,4.69977,7.59862,9.26167,8.34168c1.92244,0.31313,3.85085,0.52525,5.63616,0.15008 c1.89616-0.33604,5.08165-1.40251,7.81327-3.31051c1.08185-0.75566,2.04156-1.74265,2.90125-2.66955 c0.27564-0.30492,0.51221-0.7588,0.72796-1.17077C117.50166,110.77884,115.33974,108.13799,114.12495,107.68502z" transform="translate(428.000076 -125.53967)" stroke-width="0" stroke-linejoin="miter" stroke-miterlimit="2" fill="#f10c33" stroke="#f10c33"/> <path class="c1" d="M97.72968,99.54528c1.11785-0.44994,2.21112-0.43699,2.99859,0.48759 c0.4883,0.57333,0.76524,1.39722,0.94433,2.35292c0.41861,2.23396,0.15078,5.20767-0.23105,7.45582 c-0.2538,1.49439-0.71828,3.08893-1.35761,4.61197c-0.89405,2.12982-2.14515,4.13292-3.77343,5.64227 c-0.98891,0.91667-2.39854,1.48276-3.82578,1.27095c-0.81275-0.12061-1.93721-0.6994-2.24763-2.22482 c-0.30336,0.42496-1.08926,3.05012,0.98332,4.60167c1.25396,0.93873,4.73495,1.38174,7.00739,0.44695 c1.91912-1.11111,3.50026-2.67337,4.80826-4.48019c1.2101-1.67154,2.19102-3.54937,2.87991-5.54492 c0.80135-2.32135,1.26378-4.74721,1.36574-7.12299c0.01389-0.29646,0.01817-0.79854,0.00584-1.08041 c-0.38805-2.88934-1.57756-4.81435-3.12325-5.80342C101.76169,98.62128,99.30902,98.30469,97.72968,99.54528z" transform="translate(428.000076 -125.53967)" stroke-width="0" stroke-linejoin="miter" stroke-miterlimit="2" fill="#f10c33" stroke="#f10c33"/> <path class="c2" d="M83.71391,108.17234c-0.8817,2.93349-1.22253,7.13647-0.53912,10.12162 c1.07435,4.69283,4.94424,7.60883,9.23317,7.60883c2.28902,0,4.24091-0.76531,5.81985-1.71219 c-1.83614,0.66543-7.30485-0.72147-7.99072-5.04862c-0.228-1.43851-0.21906-2.82433,0.05388-4.1845 c0.44907-2.23796,1.36828-4.4204,2.73755-6.6204c1.11989-1.79932,2.56934-3.5582,4.17456-5.18819 c0.21786-0.52602,0.06758-1.82729-0.86426-2.73633c-0.76531-0.74659-1.88976-1.39636-3.74739-1.39636 C87.03612,99.0162,84.46906,105.6599,83.71391,108.17234z" transform="translate(428.000076 -125.53967)" stroke-width="0" stroke-linejoin="miter" stroke-miterlimit="2" fill="#d1d1d1" stroke="#d1d1d1"/> <path class="c2" d="M99.3308,99.19875c2.36333-0.04308,4.39014,1.07015,5.74612,2.57066 c1.19686,1.32443,1.87947,2.80464,2.21062,4.19267c0.01067-7.73032-3.18896-11.09444-8.18433-11.09441 c-3.5201,0.00003-6.45435,1.69383-8.44176,4.59505c-0.96799,1.41306-1.66833,3.12622-2.09254,5.07912 c1.40849,0.30117,2.57304,0.49553,4.82116,0.76322c0.68538-1.95033,1.56512-3.73148,2.94875-4.8925 c0.40851-0.34279,0.89211-0.64902,1.39086-0.86728C98.20781,99.33604,98.71158,99.21003,99.3308,99.19875z" transform="translate(428.000076 -125.53967)" stroke-width="0" stroke-linejoin="miter" stroke-miterlimit="2" fill="#d1d1d1" stroke="#d1d1d1"/> <path class="c2" d="M95.09846,116.33974c-3.1614-2.67246-4.05836-7.13094-2.19073-11.33904 c-0.74741-0.88241-3.77068-1.74952-4.33883-0.45885c-0.63954,4.65823,0.16882,8.02032,1.72207,10.41563 c1.5854,2.44492,4.04325,3.81443,6.68639,4.46243c1.19554,0.2931,2.23243,0.33354,3.47299,0.33354 c0.8615,0,1.72822,0.00104,2.58572-0.04304c0.8922-0.06456,1.74601-0.14521,2.67083-0.33843 C103.29151,119.66528,98.64593,119.33855,95.09846,116.33974z" transform="translate(428.000076 -125.53967)" stroke-width="0" stroke-linejoin="miter" stroke-miterlimit="2" fill="#d1d1d1" stroke="#d1d1d1"/> <linearGradient id="693de45f-400f-483c-a2d0-02d4a1235bc2" gradientUnits="userSpaceOnUse" x1="100.20128" y1="118.12177" x2="103.30627" y2="99.03361"> <stop offset="0.16578" style="stop-color:#000000"/> <stop offset="0.24796" style="stop-color:#000000;stop-opacity:0.68377"/> <stop offset="0.42565" style="stop-color:#000000;stop-opacity:0"/> <stop offset="0.55241" style="stop-color:#000000;stop-opacity:0"/> <stop offset="0.95053" style="stop-color:#000000"/> </linearGradient> <path class="highlight" fill="url(#693de45f-400f-483c-a2d0-02d4a1235bc2)" d="M100.7283,100.03285c0.48828,0.5733,0.7652,1.39722,0.94427,2.35291 c0.41864,2.23395,0.15082,5.2077-0.23102,7.45581c-0.25378,1.49438-0.71826,3.08893-1.3576,4.612 c0.40131,0.0708,0.78009,0.10059,1.14868,0.10059c1.75464,0,3.31897-0.11456,4.68335-0.38867 c0.80133-2.32135,1.26379-4.74719,1.36572-7.12299c0.01392-0.29645,0.01819-0.79858,0.00586-1.08044 c-0.33118-1.388-1.01379-2.86823-2.21063-4.19263c-1.35602-1.50055-3.38281-2.61377-5.74615-2.57068 c-0.57287,0.01045-1.1114,0.13056-1.55478,0.32658c0.17403-0.06267,0.40405-0.14551,0.65887-0.19955 C99.34628,99.13244,100.13374,99.3348,100.7283,100.03285z" transform="translate(428.000076 -125.53967)" stroke-width="0" stroke-linejoin="miter" stroke-miterlimit="2" opacity="0.47"/> <linearGradient id="01d5119e-6689-44e1-98d5-3dea1d63e20b" gradientUnits="userSpaceOnUse" x1="93.77496" y1="125.10794" x2="98.41089" y2="115.90327"> <stop offset="0.11987" style="stop-color:#000000"/> <stop offset="0.21282" style="stop-color:#000000;stop-opacity:0.68377"/> <stop offset="0.41381" style="stop-color:#000000;stop-opacity:0"/> <stop offset="0.80681" style="stop-color:#000000"/> </linearGradient> <path class="highlight" fill="url(#01d5119e-6689-44e1-98d5-3dea1d63e20b)" d="M96.98377,119.42148c-0.23858,0.25696-0.44823,0.46579-0.67326,0.67436 c-0.98889,0.91669-2.39856,1.48273-3.82581,1.27094c-0.81274-0.12061-1.93719-0.6994-2.24762-2.22479 c0.68585,4.32715,6.1546,5.71405,7.99072,5.04858c1.91913-1.11108,3.50024-2.67334,4.80823-4.48016 c-0.85748,0.04407-1.72418,0.04303-2.58569,0.04303C99.19577,119.75343,98.1928,119.71319,96.98377,119.42148z" transform="translate(428.000076 -125.53967)" stroke-width="0" stroke-linejoin="miter" stroke-miterlimit="2" opacity="0.47"/> <linearGradient id="5d5cd7e8-039a-4446-8e4a-eb6393ab5710" gradientUnits="userSpaceOnUse" x1="86.7309" y1="97.85494" x2="109.17615" y2="115.54637"> <stop offset="0.35443" style="stop-color:#000000"/> <stop offset="0.52666" style="stop-color:#000000;stop-opacity:0.6747"/> <stop offset="0.82742" style="stop-color:#000000;stop-opacity:0.10662"/> <stop offset="0.88387" style="stop-color:#000000;stop-opacity:0"/> </linearGradient> <path class="highlight" fill="url(#5d5cd7e8-039a-4446-8e4a-eb6393ab5710)" d="M114.12497,107.68501c-0.13043,0.21277-0.30194,0.56567-0.46661,0.84833 c-1.0564,1.81323-2.4884,3.22101-4.48578,4.44421c-0.86371,0.52893-1.9726,0.92993-3.25659,1.18793 c-1.36438,0.27411-2.92871,0.38867-4.68335,0.38867c-0.36859,0-0.74738-0.02979-1.14868-0.10059 c-2.76941-0.48846-6.12885-2.64435-7.05542-6.11652c-0.43388,0.6971-0.82123,1.39786-1.05495,1.86728 c0.10735,1.28756,0.4619,2.478,1.02422,3.5366c0.5267,0.99152,1.23544,1.86738,2.10068,2.59881 c3.54742,2.99878,8.19305,3.3255,10.6084,3.03223c1.89618-0.33606,5.08167-1.40253,7.81329-3.31049 c1.08185-0.75568,2.04156-1.74268,2.90125-2.66956c0.27563-0.30493,0.51221-0.75879,0.72797-1.17078 C117.50168,110.77882,115.33975,108.13795,114.12497,107.68501z" transform="translate(428.000076 -125.53967)" stroke-width="0" stroke-linejoin="miter" stroke-miterlimit="2" opacity="0.47"/> <linearGradient id="2c5bd3f6-d138-45b0-82d1-62c18ce3641c" gradientUnits="userSpaceOnUse" x1="99.99342" y1="86.42375" x2="86.5877" y2="130.63762"> <stop offset="0.19028" style="stop-color:#000000"/> <stop offset="0.27938" style="stop-color:#000000;stop-opacity:0.68377"/> <stop offset="0.47202" style="stop-color:#000000;stop-opacity:0"/> <stop offset="0.7046" style="stop-color:#000000;stop-opacity:0"/> <stop offset="0.94118" style="stop-color:#000000"/> </linearGradient> <path class="highlight" fill="url(#2c5bd3f6-d138-45b0-82d1-62c18ce3641c)" d="M83.71391,108.17234c-0.8817,2.93349-1.22253,7.13647-0.53912,10.12162 c1.07435,4.69283,4.94424,7.60883,9.23317,7.60883c2.28902,0,4.24091-0.76531,5.81985-1.71219 c-1.83614,0.66543-7.30485-0.72147-7.99072-5.04862c-0.228-1.43851-0.21906-2.82433,0.05388-4.1845 c0.44907-2.23796,1.36828-4.4204,2.73755-6.6204c1.11989-1.79932,2.56934-3.5582,4.17456-5.18819 c0.21786-0.52602,0.06758-1.82729-0.86426-2.73633c-0.76531-0.74659-1.88976-1.39636-3.74739-1.39636 C87.03612,99.0162,84.46906,105.6599,83.71391,108.17234z" transform="translate(428.000076 -125.53967)" stroke-width="0" stroke-linejoin="miter" stroke-miterlimit="2" opacity="0.47"/> <linearGradient id="d8110750-f1a8-490b-b65c-aedb396fd81c" gradientUnits="userSpaceOnUse" x1="89.16083" y1="111.97124" x2="105.57887" y2="121.81137"> <stop offset="0.03291" style="stop-color:#000000"/> <stop offset="0.23751" style="stop-color:#000000;stop-opacity:0.4561"/> <stop offset="0.40908" style="stop-color:#000000;stop-opacity:0"/> <stop offset="0.48977" style="stop-color:#000000;stop-opacity:0"/> <stop offset="0.64547" style="stop-color:#000000;stop-opacity:0.36278"/> <stop offset="0.80079" style="stop-color:#000000;stop-opacity:0.72466"/> <stop offset="0.91897" style="stop-color:#000000"/> </linearGradient> <path class="highlight" fill="url(#d8110750-f1a8-490b-b65c-aedb396fd81c)" d="M95.09848,116.33974c-1.22152-1.03259-2.10407-2.32778-2.62077-3.77813 c-0.26219-0.73595-0.43421-1.50974-0.50414-2.35728c-0.79614,1.57214-1.36112,3.15085-1.68259,4.75314 c1.58539,2.44489,4.04321,3.81445,6.6864,4.4624c1.1955,0.29309,2.23242,0.33356,3.47296,0.33356 c0.86151,0,1.72821,0.00104,2.58569-0.04303c0.89221-0.06458,1.74603-0.1452,2.67084-0.33844 C103.29153,119.66524,98.6459,119.33852,95.09848,116.33974z" transform="translate(428.000076 -125.53967)" stroke-width="0" stroke-linejoin="miter" stroke-miterlimit="2" opacity="0.47"/> <linearGradient id="dc40671e-80c4-498f-83be-7a73d8bb55a0" gradientUnits="userSpaceOnUse" x1="95.46391" y1="109.89899" x2="105.54234" y2="89.39047"> <stop offset="0.32998" style="stop-color:#000000"/> <stop offset="0.40359" style="stop-color:#000000;stop-opacity:0.68377"/> <stop offset="0.56273" style="stop-color:#000000;stop-opacity:0"/> </linearGradient> <path class="highlight" fill="url(#dc40671e-80c4-498f-83be-7a73d8bb55a0)" d="M99.10324,94.86769c-3.43744,0-6.31605,1.61504-8.30006,4.39244 c0.55774-0.15698,1.15443-0.24394,1.78822-0.24394c1.85767,0,2.98212,0.64978,3.74744,1.39636 c0.40851-0.34277,0.89209-0.64905,1.39087-0.86731c0.47809-0.20923,0.98187-0.33521,1.60107-0.3465 c2.36334-0.04309,4.39014,1.07013,5.74615,2.57068c1.19684,1.3244,1.87946,2.80463,2.21063,4.19263 C107.29825,98.23177,104.0986,94.86763,99.10324,94.86769z" transform="translate(428.000076 -125.53967)" stroke-width="0" stroke-linejoin="miter" stroke-miterlimit="2" opacity="0.47"/> <linearGradient id="ad0a5afb-1610-43ca-b64d-91039b68967e" gradientUnits="userSpaceOnUse" x1="109.57618" y1="107.23627" x2="91.66901" y2="93.41862"> <stop offset="0.01588" style="stop-color:#000000"/> <stop offset="0.14272" style="stop-color:#000000;stop-opacity:0.72368"/> <stop offset="0.31719" style="stop-color:#000000;stop-opacity:0.34358"/> <stop offset="0.47489" style="stop-color:#000000;stop-opacity:0"/> </linearGradient> <path class="highlight" fill="url(#ad0a5afb-1610-43ca-b64d-91039b68967e)" d="M99.10324,94.86769c-3.43744,0-6.31605,1.61504-8.30006,4.39244 c0.55774-0.15698,1.15443-0.24394,1.78822-0.24394c1.85767,0,2.98212,0.64978,3.74744,1.39636 c0.40851-0.34277,0.89209-0.64905,1.39087-0.86731c0.47809-0.20923,0.98187-0.33521,1.60107-0.3465 c2.36334-0.04309,4.39014,1.07013,5.74615,2.57068c1.19684,1.3244,1.87946,2.80463,2.21063,4.19263 C107.29825,98.23177,104.0986,94.86763,99.10324,94.86769z" transform="translate(428.000076 -125.53967)" stroke-width="0" stroke-linejoin="miter" stroke-miterlimit="2" opacity="0.47"/> </g>
        <g id="path62587" aria-label="d" transform="translate(0 321.18399999999997) translate(596.222345 -45.61600000000001) scale(3) translate(-540.09792 47.808)"> <path class="c1" d="M101.04987,106.15002c-0.24249,0.62531-1.5326,3.0478-3.32285,5.70106 c-1.78934,2.65192-6.47605,9.16746-9.68444,9.16746c-1.04248,0.75739-0.66928,1.97449,0.29604,2.74203 c1.38145,1.09842,3.68852,0.56665,5.15083-0.25137c1.24759-0.87244,2.58512-2.15823,3.80593-3.44913 c2.00965-2.12504,3.69854-4.2783,4.22253-5.09529C102.55373,112.8545,101.66976,106.21365,101.04987,106.15002z" transform="translate(459.678085 -125.53633)" stroke-width="0" stroke-linejoin="miter" stroke-miterlimit="2" fill="#f10c33" stroke="#f10c33"/> <path class="c1" d="M95.63913,104.50732c0.24919,0.60863,1.08594,1.07988,2.18906,1.07988 c0.69958,0,1.31563-0.13281,1.7709-0.50468c0.43549-0.44357,1.15201-1.66906,1.32668-3.50264c0,0,0.3284-1.27295-0.57249-2.03562 c-1.60032-1.35479-3.06627-0.51971-3.20273-0.06667c0.74551,1.11203,0.77798,2.4344,0.36736,3.44241 C97.1044,103.9351,96.26413,104.44189,95.63913,104.50732z" transform="translate(459.678085 -125.53633)" stroke-width="0" stroke-linejoin="miter" stroke-miterlimit="2" fill="#f10c33" stroke="#f10c33"/> <path class="c2" d="M100.46019,103.90465c0.24067,0.0368,0.9866-1.10783,1.19614-2.73575 c0.09726-0.75565,0.12296-1.33106-0.1129-1.91841c-1.23768-3.08209-4.09897-4.0222-6.79488-4.0222 c-7.88686,0-14.83676,13.83694-14.29949,22.53693c0.27297,4.42026,3.6101,7.77325,7.4025,7.77325 c2.25654,0,4.10445-0.93243,5.63789-2.02927c-1.75242,0.50211-3.72867,0.56063-4.8082-1.62268 c-1.15227-2.33043-0.3029-7.17498,1.18229-11.56649c1.1951-3.53374,4.2246-9.53427,7.51952-10.9497 c0.56233-0.24156,1.23875-0.288,1.86966-0.07683C100.46349,99.69877,101.12621,100.99545,100.46019,103.90465z" transform="translate(459.678085 -125.53633)" stroke-width="0" stroke-linejoin="miter" stroke-miterlimit="2" fill="#d1d1d1" stroke="#d1d1d1"/> <path class="c1" d="M116.52097,107.67529c-2.24498,4.04446-8.12272,13.0002-12.59982,13.04015 c-1.4231,0.20213,0.2282,2.70712,1.93465,3.46995c1.40494,0.62804,2.85406-0.11531,4.17525-0.86823 c2.29781-1.84489,7.03729-6.16837,9.50759-11.0792C119.91903,110.77138,117.58904,108.02599,116.52097,107.67529z" transform="translate(459.678085 -125.53633)" stroke-width="0" stroke-linejoin="miter" stroke-miterlimit="2" fill="#f10c33" stroke="#f10c33"/> <path class="c2" d="M108.08611,104.94345c2.66893-6.36803,8.00316-18.27216,8.00316-21.61467 c0-3.255-2.83622-5.60045-6.24728-5.60045c-0.87401,0-1.58292,0.0755-1.88783,0.289 c0.36761,1.39341-3.5633,12.71096-6.41074,21.23315c-0.74776,2.23798-1.44871,4.19309-1.94434,5.83203 c-0.37861,1.25198-0.83254,2.57974-1.52684,5.32641c-0.11085,0.43851-0.22105,0.92664-0.34523,1.44215 c-0.70764,2.93751-1.14923,5.78514-0.43164,8.20898c0.98128,3.31449,3.72011,5.48268,6.94281,5.48268 c2.19048,0,4.66003-1.3959,5.79285-2.22559c-2.79334,1.02587-5.64375,0.2331-6.10989-2.60172 c-0.10012-0.49465-0.15144-1.02985-0.13985-1.61959C103.86688,114.74146,106.43972,108.87171,108.08611,104.94345z" transform="translate(459.678085 -125.53633)" stroke-width="0" stroke-linejoin="miter" stroke-miterlimit="2" fill="#d1d1d1" stroke="#d1d1d1"/> <linearGradient id="0b700d77-35af-4502-b509-dd481c9deff1" gradientUnits="userSpaceOnUse" x1="103.4886" y1="127.11862" x2="120.2987" y2="106.29278"> <stop offset="0.1374" style="stop-color:#000000"/> <stop offset="0.2704" style="stop-color:#000000;stop-opacity:0.68377"/> <stop offset="0.55796" style="stop-color:#000000;stop-opacity:0"/> </linearGradient> <path class="highlight" fill="url(#0b700d77-35af-4502-b509-dd481c9deff1)" d="M116.52099,107.67525c-2.245,4.04449-8.12274,13.00024-12.59985,13.04016 c0.46619,2.83484,3.31659,3.62762,6.10992,2.60175c2.29779-1.84491,7.03729-6.1684,9.50757-11.07922 C119.91906,110.77138,117.58904,108.02596,116.52099,107.67525z" transform="translate(459.678085 -125.53633)" stroke-width="0" stroke-linejoin="miter" stroke-miterlimit="2" opacity="0.47"/> <linearGradient id="13acb4e9-0d97-4f3b-ab7b-fc7328414d33" gradientUnits="userSpaceOnUse" x1="88.50767" y1="123.79522" x2="100.95628" y2="113.15366"> <stop offset="0.05056" style="stop-color:#000000"/> <stop offset="0.14411" style="stop-color:#000000;stop-opacity:0.68377"/> <stop offset="0.34637" style="stop-color:#000000;stop-opacity:0"/> <stop offset="0.56204" style="stop-color:#000000;stop-opacity:0"/> <stop offset="0.82861" style="stop-color:#000000"/> </linearGradient> <path class="highlight" fill="url(#13acb4e9-0d97-4f3b-ab7b-fc7328414d33)" d="M88.36367,120.99776c0.08179,0.33142,0.1846,0.61974,0.3176,0.88873 c1.07953,2.18329,3.05579,2.12482,4.80817,1.62268c1.24762-0.87244,2.58514-2.1582,3.80597-3.44916 c-0.71759-2.42383-0.276-5.27142,0.43164-8.20898c-1.35078,2.0019-4.35597,6.20715-7.12531,8.14746 C89.8214,120.54522,89.06552,120.91024,88.36367,120.99776z" transform="translate(459.678085 -125.53633)" stroke-width="0" stroke-linejoin="miter" stroke-miterlimit="2" opacity="0.47"/> <radialGradient id="3fff3b18-0afb-441a-a7d8-545030b0bf15" cx="88.13482" cy="105.64346" r="16.03708" gradientUnits="userSpaceOnUse" transform="translate(459.678085 -125.53633)"> <stop offset="0.61201" style="stop-color:#000000;stop-opacity:0"/> <stop offset="0.84114" style="stop-color:#000000"/> </radialGradient> <path class="highlight" fill="url(#3fff3b18-0afb-441a-a7d8-545030b0bf15)" d="M99.25274,99.29347c-0.63092-0.21118-1.30737-0.16473-1.86969,0.07684 c-0.07599,0.03265-0.15681,0.06985-0.2325,0.10727c0.36863,0.55357,0.57442,1.15546,0.62209,1.82526 c0.04141,0.58179-0.05563,1.12833-0.25471,1.61716c-0.41351,1.01508-1.25378,1.52185-1.87878,1.58728 c0.24915,0.60864,1.08594,1.0799,2.18903,1.0799c0.69958,0,1.31561-0.13281,1.77094-0.5047 c0.30408-1.00543,0.69976-2.17194,1.12188-3.40808C100.68584,100.57995,100.29929,99.64378,99.25274,99.29347z" transform="translate(459.678085 -125.53633)" stroke-width="0" stroke-linejoin="miter" stroke-miterlimit="2" opacity="0.47"/> <linearGradient id="cb74801f-d75c-4bc3-8347-7a9a847ef793" gradientUnits="userSpaceOnUse" x1="120.16608" y1="67.45112" x2="97.90374" y2="133.63177"> <stop offset="0.01234" style="stop-color:#000000"/> <stop offset="0.1282" style="stop-color:#000000;stop-opacity:0.68377"/> <stop offset="0.37872" style="stop-color:#000000;stop-opacity:0"/> <stop offset="0.75017" style="stop-color:#000000;stop-opacity:0"/> <stop offset="0.90984" style="stop-color:#000000"/> </linearGradient> <path class="highlight" fill="url(#cb74801f-d75c-4bc3-8347-7a9a847ef793)" d="M108.08611,104.94345c2.66893-6.36803,8.00316-18.27216,8.00316-21.61467 c0-3.255-2.83622-5.60045-6.24728-5.60045c-0.87401,0-1.58292,0.0755-1.88783,0.289 c0.36761,1.39341-3.5633,12.71096-6.41074,21.23315c-0.74776,2.23798-1.44871,4.19309-1.94434,5.83203 c-0.37861,1.25198-0.83254,2.57974-1.52684,5.32641c-0.11085,0.43851-0.22105,0.92664-0.34523,1.44215 c-0.70764,2.93751-1.14923,5.78514-0.43164,8.20898c0.98128,3.31449,3.72011,5.48268,6.94281,5.48268 c2.19048,0,4.66003-1.3959,5.79285-2.22559c-2.79334,1.02587-5.64375,0.2331-6.10989-2.60172 c-0.10012-0.49465-0.15144-1.02985-0.13985-1.61959C103.86688,114.74146,106.43972,108.87171,108.08611,104.94345z" transform="translate(459.678085 -125.53633)" stroke-width="0" stroke-linejoin="miter" stroke-miterlimit="2" opacity="0.47"/> <linearGradient id="b34bc8c1-7576-4fce-8dd7-22254943e23d" gradientUnits="userSpaceOnUse" x1="78.64412" y1="137.99641" x2="103.95594" y2="76.69434"> <stop offset="0.16679" style="stop-color:#000000"/> <stop offset="0.22641" style="stop-color:#000000;stop-opacity:0.68377"/> <stop offset="0.35531" style="stop-color:#000000;stop-opacity:0"/> <stop offset="0.55588" style="stop-color:#000000;stop-opacity:0"/> <stop offset="0.75359" style="stop-color:#000000"/> </linearGradient> <path class="highlight" fill="url(#b34bc8c1-7576-4fce-8dd7-22254943e23d)" d="M97.38305,99.37032c0.56232-0.24158,1.23877-0.28802,1.86969-0.07684 c0.72131,0.24146,1.15705,0.77293,1.34647,1.50082c0.06669,0.25628,0.11121,0.54924,0.1218,0.88007 c0.04577-0.13406,0.08015-0.23391,0.1266-0.36992c0.22395-0.65576,0.45577-1.33562,0.69584-2.054 c-1.23767-3.08209-4.099-4.02216-6.79492-4.02216c-7.88684,0-14.83673,13.83691-14.29944,22.53693 c0.27295,4.42023,3.61005,7.77325,7.40247,7.77325c2.25653,0,4.10443-0.93243,5.63788-2.0293 c-1.75238,0.50214-3.72864,0.56061-4.80817-1.62268c-1.15228-2.33044-0.30292-7.17499,1.18225-11.56647 C91.05865,106.78627,94.08813,100.78572,97.38305,99.37032z" transform="translate(459.678085 -125.53633)" stroke-width="0" stroke-linejoin="miter" stroke-miterlimit="2" opacity="0.47"/> </g>
        <g id="path62589" aria-label="j" transform="translate(0 321.18399999999997) translate(624.2958349999999 -31.576000000000015) scale(3) translate(-549.45575 43.128)"> <path class="c1" d="M119.99605,107.69497c-0.31581,0.63342-0.73853,1.40195-1.20057,2.16225 c-2.71365,4.46538-6.21795,7.77992-10.10509,10.57291c-2.0152,1.44796-4.09991,2.73083-6.30135,4.01394 c-1.64781,0.96043-3.28123,1.81396-4.85881,2.68235c-3.4683,1.90913-7.03732,3.70585-10.21676,5.47506 c-5.9007,3.28346-10.44473,6.45482-10.44473,11.20317c0.44968,2.21631,2.45135,3.12936,3.16088,3.2614 c0.53598,0.09973,3.01029,0.19359,3.22494-0.21014c-1.11977,0-2.24483-0.65222-2.48221-1.68396 c-0.1929-0.83842,0.30647-1.93465,1.22867-3.06134c1.07643-1.31514,2.73554-2.69557,4.51656-3.89378 c2.44427-1.64445,5.4323-3.17357,8.4126-4.60994c2.97265-1.43268,5.93732-2.77284,8.55028-4.21718 c6.92677-3.82883,11.92985-7.00511,17.27489-13.58863c0.7327-0.90247,1.82615-2.5556,2.33641-3.56998 C123.46766,110.76538,121.06239,108.02513,119.99605,107.69497z" transform="translate(472.58701 -125.5389)" stroke-width="0" stroke-linejoin="miter" stroke-miterlimit="2" fill="#f10c33" stroke="#f10c33"/> <path class="c2" d="M114.45113,99.9186c0-2.98666-3.48648-4.6084-6.62621-4.6084c-0.87367,0-1.63735,0.07468-1.94215,0.28809 c0.44683,1.71455-2.69653,14.7627-6.78126,27.11471c-0.50903,1.53931-1.05264,3.00774-1.57128,4.41343 c-0.88161,2.38941-1.69937,4.49512-2.60005,6.48046c-3.83247,8.44781-7.8769,13.22017-11.67561,13.24902 c-2.39478,0.0182-5.79874-1.17676-6.38582-3.05125c0,1.76848,0.99039,3.22502,2.24415,4.24188 c1.67519,1.35866,3.93568,1.97842,5.64824,1.97842c8.28118,0,15.50779-6.51906,23.02113-27.06915 c0.26406-0.72222,0.57909-1.56862,0.90813-2.52568C110.96811,113.80494,114.45113,102.50481,114.45113,99.9186z" transform="translate(472.58701 -125.5389)" stroke-width="0" stroke-linejoin="miter" stroke-miterlimit="2" fill="#d1d1d1" stroke="#d1d1d1"/> <path class="c2" d="M115.54976,84.88791c-0.77908-1.59617-3.06155-2.47701-5.15551-2.47701 c-0.76266,0-1.48479,0.07134-1.77062,0.21582c0.28091,1.47529-0.72507,3.14445-0.72507,5.15635 c0,2.62446,2.68847,3.9166,5.32679,3.9166c0.76268,0,1.43523,0.0003,1.73421-0.21552 c-0.11552-0.35622-0.15617-0.83167-0.08199-1.29293C115.1448,88.5292,116.17984,86.17883,115.54976,84.88791z" transform="translate(472.58701 -125.5389)" stroke-width="0" stroke-linejoin="miter" stroke-miterlimit="2" fill="#d1d1d1" stroke="#d1d1d1"/> <linearGradient id="19e1d164-abd2-4417-9f14-5b091d19ed8e" gradientUnits="userSpaceOnUse" x1="100.99837" y1="141.87352" x2="76.4046" y2="131.49966"> <stop offset="0.29814" style="stop-color:#000000"/> <stop offset="0.37121" style="stop-color:#000000;stop-opacity:0.68377"/> <stop offset="0.52921" style="stop-color:#000000;stop-opacity:0"/> </linearGradient> <path class="highlight" fill="url(#19e1d164-abd2-4417-9f14-5b091d19ed8e)" d="M83.25455,146.85591c-1.11975,0-2.24481-0.65222-2.48218-1.68396 c-0.19293-0.83844,0.30646-1.93469,1.22864-3.06134c1.07648-1.31519,2.73553-2.69556,4.5166-3.8938 c2.44421-1.64447,5.43225-3.17358,8.41254-4.60992c0.9007-1.98535,1.71851-4.09106,2.6001-6.48047 c-3.46832,1.90912-7.03735,3.70581-10.2168,5.47504c-5.9007,3.28351-10.4447,6.45483-10.4447,11.20319 C77.45584,145.67915,80.85977,146.8741,83.25455,146.85591z" transform="translate(472.58701 -125.5389)" stroke-width="0" stroke-linejoin="miter" stroke-miterlimit="2" opacity="0.47"/> <radialGradient id="8e33c325-36be-44b4-bfb7-58537fde66fd" cx="122.91627" cy="102.33328" r="72.85945" gradientUnits="userSpaceOnUse" transform="translate(472.58701 -125.5389)"> <stop offset="0.69933" style="stop-color:#000000;stop-opacity:0"/> <stop offset="0.86694" style="stop-color:#000000"/> </radialGradient> <path class="highlight" fill="url(#8e33c325-36be-44b4-bfb7-58537fde66fd)" d="M83.25455,146.85591c-1.11975,0-2.24481-0.65222-2.48218-1.68396 c-0.19293-0.83844,0.30646-1.93469,1.22864-3.06134c1.07648-1.31519,2.73553-2.69556,4.5166-3.8938 c2.44421-1.64447,5.43225-3.17358,8.41254-4.60992c0.9007-1.98535,1.71851-4.09106,2.6001-6.48047 c-3.46832,1.90912-7.03735,3.70581-10.2168,5.47504c-5.9007,3.28351-10.4447,6.45483-10.4447,11.20319 C77.45584,145.67915,80.85977,146.8741,83.25455,146.85591z" transform="translate(472.58701 -125.5389)" stroke-width="0" stroke-linejoin="miter" stroke-miterlimit="2" opacity="0.47"/> <linearGradient id="cc268d51-c5a0-4787-98c0-5fb8cad45638" gradientUnits="userSpaceOnUse" x1="101.22081" y1="115.9735" x2="123.36747" y2="119.61644"> <stop offset="0.25495" style="stop-color:#000000"/> <stop offset="0.39448" style="stop-color:#000000;stop-opacity:0.68377"/> <stop offset="0.69618" style="stop-color:#000000;stop-opacity:0"/> </linearGradient> <path class="highlight" fill="url(#cc268d51-c5a0-4787-98c0-5fb8cad45638)" d="M119.99606,107.69496c-0.31586,0.63342-0.73853,1.40192-1.20056,2.16223 c-2.71368,4.46539-6.21796,7.77991-10.1051,10.57294c-0.32904,0.95703-0.6441,1.80347-0.90814,2.5257 c-0.66626,1.82239-1.33026,3.52911-1.99298,5.13605c5.76764-3.30426,10.23425-6.46259,14.96606-12.29083 c0.73267-0.90247,1.82617-2.55554,2.33643-3.56995C123.46768,110.7654,121.06241,108.0251,119.99606,107.69496z" transform="translate(472.58701 -125.5389)" stroke-width="0" stroke-linejoin="miter" stroke-miterlimit="2" opacity="0.47"/> <linearGradient id="b1d708a9-ea5d-4e33-91ff-ae8b5be0dc3f" gradientUnits="userSpaceOnUse" x1="113.70592" y1="61.1692" x2="92.3998" y2="133.90388"> <stop offset="0.27723" style="stop-color:#000000"/> <stop offset="0.39509" style="stop-color:#000000;stop-opacity:0.68377"/> <stop offset="0.64992" style="stop-color:#000000;stop-opacity:0"/> </linearGradient> <path class="highlight" fill="url(#b1d708a9-ea5d-4e33-91ff-ae8b5be0dc3f)" d="M114.45113,99.9186c0-2.98666-3.48648-4.6084-6.62621-4.6084 c-0.87367,0-1.63735,0.07468-1.94215,0.28809c0.44683,1.71455-2.69653,14.7627-6.78126,27.11471 c-0.50903,1.53931-1.05264,3.00774-1.57128,4.41343c-0.88161,2.38941-1.69937,4.49512-2.60005,6.48046 c-3.83247,8.44781-7.8769,13.22017-11.67561,13.24902c-2.39478,0.0182-5.79874-1.17676-6.38582-3.05125 c0,1.76848,0.99039,3.22502,2.24415,4.24188c1.67519,1.35866,3.93568,1.97842,5.64824,1.97842 c8.28118,0,15.50779-6.51906,23.02113-27.06915c0.26406-0.72222,0.57909-1.56862,0.90813-2.52568 C110.96811,113.80494,114.45113,102.50481,114.45113,99.9186z" transform="translate(472.58701 -125.5389)" stroke-width="0" stroke-linejoin="miter" stroke-miterlimit="2" opacity="0.47"/> <radialGradient id="5d773c9f-219c-40c3-ad90-badb0a057d3e" cx="124.36438" cy="81.96113" r="92.19522" gradientUnits="userSpaceOnUse" transform="translate(472.58701 -125.5389)"> <stop offset="0.66466" style="stop-color:#000000;stop-opacity:0"/> <stop offset="0.9396" style="stop-color:#000000"/> </radialGradient> <path class="highlight" fill="url(#5d773c9f-219c-40c3-ad90-badb0a057d3e)" d="M114.45113,99.9186c0-2.98666-3.48648-4.6084-6.62621-4.6084 c-0.87367,0-1.63735,0.07468-1.94215,0.28809c0.44683,1.71455-2.69653,14.7627-6.78126,27.11471 c-0.50903,1.53931-1.05264,3.00774-1.57128,4.41343c-0.88161,2.38941-1.69937,4.49512-2.60005,6.48046 c-3.83247,8.44781-7.8769,13.22017-11.67561,13.24902c-2.39478,0.0182-5.79874-1.17676-6.38582-3.05125 c0,1.76848,0.99039,3.22502,2.24415,4.24188c1.67519,1.35866,3.93568,1.97842,5.64824,1.97842 c8.28118,0,15.50779-6.51906,23.02113-27.06915c0.26406-0.72222,0.57909-1.56862,0.90813-2.52568 C110.96811,113.80494,114.45113,102.50481,114.45113,99.9186z" transform="translate(472.58701 -125.5389)" stroke-width="0" stroke-linejoin="miter" stroke-miterlimit="2" opacity="0.47"/> <linearGradient id="f7b22e64-fead-49ea-97ed-cd5333ece976" gradientUnits="userSpaceOnUse" x1="114.60188" y1="75.31095" x2="108.35741" y2="101.40728"> <stop offset="0.16774" style="stop-color:#000000"/> <stop offset="0.2346" style="stop-color:#000000;stop-opacity:0.68377"/> <stop offset="0.37917" style="stop-color:#000000;stop-opacity:0"/> <stop offset="0.53265" style="stop-color:#000000;stop-opacity:0"/> <stop offset="0.70112" style="stop-color:#000000"/> </linearGradient> <path class="highlight" fill="url(#f7b22e64-fead-49ea-97ed-cd5333ece976)" d="M115.54976,84.88791c-0.77908-1.59617-3.06155-2.47701-5.15551-2.47701 c-0.76266,0-1.48479,0.07134-1.77062,0.21582c0.28091,1.47529-0.72507,3.14445-0.72507,5.15635 c0,2.62446,2.68847,3.9166,5.32679,3.9166c0.76268,0,1.43523,0.0003,1.73421-0.21552 c-0.11552-0.35622-0.15617-0.83167-0.08199-1.29293C115.1448,88.5292,116.17984,86.17883,115.54976,84.88791z" transform="translate(472.58701 -125.5389)" stroke-width="0" stroke-linejoin="miter" stroke-miterlimit="2" opacity="0.47"/> </g>
        <g id="path62591" aria-label="e_" transform="translate(0 321.18399999999997) translate(748.175195 5.7919999999999945) scale(3) translate(-590.74887 30.672)"> <path class="c1" d="M90.88644,110.26511c-1.56425,0-2.04316,0.92376-2.33665,1.61444 c-0.82612,1.50756-1.69617,2.878-2.6582,4.03606c-0.41327,0.49747-0.84865,0.95835-1.28774,1.38835 c-2.47433,2.42307-5.36931,3.75476-8.93513,3.72192c-0.39597-0.00365-0.72119,0.04276-1.13364,0.02535 c-0.20584,0.26431-0.61414,1.60661,0.6473,2.46051c1.26144,0.8539,5.74091,1.49113,8.19273,0.46479 c1.77236-1.0143,3.59653-2.34385,5.11098-3.88669c1.32297-1.37356,2.21085-2.76216,2.66406-3.88867 C91.46601,115.41608,92.71592,111.78946,90.88644,110.26511z" transform="translate(523.302634 -125.199347)" stroke-width="0" stroke-linejoin="miter" stroke-miterlimit="2" fill="#f10c33" stroke="#f10c33"/> <path class="c1" d="M73.84412,114.79688c0.55484,0.01045,1.07365-0.0037,1.60741-0.03741 c6.94348-0.43852,12.04361-4.84296,13.83426-10.61212c0.07721-0.40051,0.15256-0.82706,0.17512-1.2207 c0.1041-1.81623-0.34603-3.43559-0.86068-3.96352c-2.40939-2.4716-4.64997-1.00076-4.64997-1.00076 c0.33509,0.132,0.60556,0.33447,0.79073,0.59769c0.56055,0.83691,0.44781,2.2617-0.00247,4.04662 c-0.95364,3.7801-4.00778,6.32656-7.84616,6.82594c-0.68863,0.08959-1.41695,0.11099-2.14726,0.06984 C74.66949,109.78222,73.90858,114.06703,73.84412,114.79688z" transform="translate(523.302634 -125.199347)" stroke-width="0" stroke-linejoin="miter" stroke-miterlimit="2" fill="#f10c33" stroke="#f10c33"/> <path class="c2" d="M89.28577,104.14735c0.27297-1.08362,0.42443-2.04569,0.42395-2.9285 c-0.00024-0.44846-0.05794-0.87486-0.13638-1.27561c-0.04522-0.23102-0.09466-0.45892-0.1517-0.66345 c-0.86877-3.11548-4.06299-4.74909-7.56055-4.75244c-1.42776-0.00137-2.8259,0.40226-4.11562,1.08136 c-3.84466,2.02441-6.97163,6.53709-8.58143,10.79102c-1.25243,3.30962-1.72169,6.12372-1.71778,8.4428 c0.01135,6.74292,4.28662,10.69488,9.47714,10.71948c2.18909,0.01038,4.15723-0.50892,6.45169-1.58548 c-1.70877,0.64423-6.42959,0.65533-7.70639-2.95065c-0.6545-1.84843-0.56055-4.62617-0.21719-6.2664 c0.30217-1.88285,0.87187-3.74233,1.44083-5.32686c0.2356-0.65614,0.36074-1.02158,0.50987-1.38594 c0.14931-0.43408,0.30318-0.81355,0.58846-1.38638c1.85754-3.72968,4.47964-7.11438,6.75031-8.10024 c0.612-0.26571,1.17003-0.35909,1.71799-0.25578C89.10843,98.80379,89.63443,102.20029,89.28577,104.14735z" transform="translate(523.302634 -125.199347)" stroke-width="0" stroke-linejoin="miter" stroke-miterlimit="2" fill="#d1d1d1" stroke="#d1d1d1"/> <path class="c1" d="M113.59101,116.37368c-3.24934,1.41398-16.2099,5.02695-16.40137,6.45249 c8.35642,0,16.73014-5.25274,25.35505-4.17676c3.70752,0.46252,6.11551,2.15971,6.33691,4.53664 c2.83771-2.83772,2.16675-5.02881-0.14418-7.03014C124.60286,112.57526,118.60686,114.19099,113.59101,116.37368z" transform="translate(523.302634 -125.199347)" stroke-width="0" stroke-linejoin="miter" stroke-miterlimit="2" fill="#f10c33" stroke="#f10c33"/> <path class="c2" d="M97.18964,122.82617c3.7793,0,7.96582-1.72073,10.92171-2.74891 c5.85273-2.03584,9.5828-3.83665,14.4986-3.83665c2.90408,0,5.06268,1.07355,5.97522,2.37218 c1.10863,1.57765,0.90849,3.58356,0.29643,4.57323c1.71283-0.45607,3.69894-2.92406,3.67188-5.81061 c-0.03403-3.62752-2.82353-6.57251-8.31705-6.57251c-8.4548,0-17.99554,7.66398-26.76434,7.63319 c-3.10715-0.01091-5.13513-0.96342-6.32193-2.23493c-1.76181-1.88756-1.60128-4.57123-0.26373-5.93606 c-0.37241-0.24158-1.02023-0.47215-1.60835-0.47215c-2.16428,0-3.60059,2.01138-3.60059,4.32031 c0,2.36451,0.99645,4.45527,2.80859,5.97656C90.47796,121.76202,93.54718,122.82617,97.18964,122.82617z" transform="translate(523.302634 -125.199347)" stroke-width="0" stroke-linejoin="miter" stroke-miterlimit="2" fill="#d1d1d1" stroke="#d1d1d1"/> <linearGradient id="34f36116-ba9d-4ae1-a689-ed478bf8cb4a" gradientUnits="userSpaceOnUse" x1="92.57978" y1="71.9471" x2="65.85899" y2="142.78825"> <stop offset="0.27883" style="stop-color:#000000"/> <stop offset="0.33459" style="stop-color:#000000;stop-opacity:0.68377"/> <stop offset="0.45514" style="stop-color:#000000;stop-opacity:0"/> <stop offset="0.63842" style="stop-color:#000000;stop-opacity:0"/> <stop offset="0.77772" style="stop-color:#000000"/> </linearGradient> <path class="highlight" fill="url(#34f36116-ba9d-4ae1-a689-ed478bf8cb4a)" d="M89.28577,104.14735c0.27297-1.08362,0.42443-2.04569,0.42395-2.9285 c-0.00024-0.44846-0.05794-0.87486-0.13638-1.27561c-0.04522-0.23102-0.09466-0.45892-0.1517-0.66345 c-0.86877-3.11548-4.06299-4.74909-7.56055-4.75244c-1.42776-0.00137-2.8259,0.40226-4.11562,1.08136 c-3.84466,2.02441-6.97163,6.53709-8.58143,10.79102c-1.25243,3.30962-1.72169,6.12372-1.71778,8.4428 c0.01135,6.74292,4.28662,10.69488,9.47714,10.71948c2.18909,0.01038,4.15723-0.50892,6.45169-1.58548 c-1.70877,0.64423-6.42959,0.65533-7.70639-2.95065c-0.6545-1.84843-0.56055-4.62617-0.21719-6.2664 c0.30217-1.88285,0.87187-3.74233,1.44083-5.32686c0.2356-0.65614,0.36074-1.02158,0.50987-1.38594 c0.14931-0.43408,0.30318-0.81355,0.58846-1.38638c1.85754-3.72968,4.47964-7.11438,6.75031-8.10024 c0.612-0.26571,1.17003-0.35909,1.71799-0.25578C89.10843,98.80379,89.63443,102.20029,89.28577,104.14735z" transform="translate(523.302634 -125.199347)" stroke-width="0" stroke-linejoin="miter" stroke-miterlimit="2" opacity="0.47"/> <radialGradient id="3b9e5d24-f377-408f-8bc8-0fc24dc36b8b" cx="98.22579" cy="157.41063" r="86.67458" gradientUnits="userSpaceOnUse" transform="translate(523.302634 -125.199347)"> <stop offset="0.5431" style="stop-color:#000000;stop-opacity:0"/> <stop offset="0.67667" style="stop-color:#000000"/> </radialGradient> <path class="highlight" fill="url(#3b9e5d24-f377-408f-8bc8-0fc24dc36b8b)" d="M97.18964,122.82617c3.7793,0,7.96582-1.72073,10.92171-2.74891 c5.85273-2.03584,9.5828-3.83665,14.4986-3.83665c2.90408,0,5.06268,1.07355,5.97522,2.37218 c1.10863,1.57765,0.90849,3.58356,0.29643,4.57323c1.71283-0.45607,3.69894-2.92406,3.67188-5.81061 c-0.03403-3.62752-2.82353-6.57251-8.31705-6.57251c-8.4548,0-17.99554,7.66398-26.76434,7.63319 c-3.10715-0.01091-5.13513-0.96342-6.32193-2.23493c-1.76181-1.88756-1.60128-4.57123-0.26373-5.93606 c-0.37241-0.24158-1.02023-0.47215-1.60835-0.47215c-2.16428,0-3.60059,2.01138-3.60059,4.32031 c0,2.36451,0.99645,4.45527,2.80859,5.97656C90.47796,121.76202,93.54718,122.82617,97.18964,122.82617z" transform="translate(523.302634 -125.199347)" stroke-width="0" stroke-linejoin="miter" stroke-miterlimit="2" opacity="0.47"/> <radialGradient id="d567f51a-244b-43b8-9098-50395cd9dfa7" cx="134.86548" cy="109.73942" r="74.48653" gradientUnits="userSpaceOnUse" transform="translate(523.302634 -125.199347)"> <stop offset="0.56972" style="stop-color:#000000;stop-opacity:0"/> <stop offset="0.69448" style="stop-color:#000000"/> </radialGradient> <path class="highlight" fill="url(#d567f51a-244b-43b8-9098-50395cd9dfa7)" d="M97.18964,122.82617c3.7793,0,7.96582-1.72073,10.92171-2.74891 c5.85273-2.03584,9.5828-3.83665,14.4986-3.83665c2.90408,0,5.06268,1.07355,5.97522,2.37218 c1.10863,1.57765,0.90849,3.58356,0.29643,4.57323c1.71283-0.45607,3.69894-2.92406,3.67188-5.81061 c-0.03403-3.62752-2.82353-6.57251-8.31705-6.57251c-8.4548,0-17.99554,7.66398-26.76434,7.63319 c-3.10715-0.01091-5.13513-0.96342-6.32193-2.23493c-1.76181-1.88756-1.60128-4.57123-0.26373-5.93606 c-0.37241-0.24158-1.02023-0.47215-1.60835-0.47215c-2.16428,0-3.60059,2.01138-3.60059,4.32031 c0,2.36451,0.99645,4.45527,2.80859,5.97656C90.47796,121.76202,93.54718,122.82617,97.18964,122.82617z" transform="translate(523.302634 -125.199347)" stroke-width="0" stroke-linejoin="miter" stroke-miterlimit="2" opacity="0.47"/> <linearGradient id="b0791044-760e-4f94-9bf9-8cfed8491851" gradientUnits="userSpaceOnUse" x1="74.66126" y1="115.0143" x2="92.39395" y2="97.14785"> <stop offset="0.05095" style="stop-color:#000000"/> <stop offset="0.15456" style="stop-color:#000000;stop-opacity:0.68377"/> <stop offset="0.3786" style="stop-color:#000000;stop-opacity:0"/> <stop offset="0.61299" style="stop-color:#000000;stop-opacity:0"/> <stop offset="0.8287" style="stop-color:#000000"/> </linearGradient> <path class="highlight" fill="url(#b0791044-760e-4f94-9bf9-8cfed8491851)" d="M89.28579,104.14737c0.34863-1.94708-0.17737-5.3436-2.82681-5.84308 c-0.54797-0.1033-1.10599-0.00995-1.71799,0.25577c0.56055,0.83691,0.44781,2.26172-0.00247,4.04663 c-0.95364,3.78009-4.00778,6.32657-7.84616,6.82593c-0.56897,1.58453-1.13867,3.444-1.44083,5.32684 C82.39501,114.32095,87.49514,109.91653,89.28579,104.14737z" transform="translate(523.302634 -125.199347)" stroke-width="0" stroke-linejoin="miter" stroke-miterlimit="2" opacity="0.47"/> <radialGradient id="a44971da-4cd8-4af3-b1e1-497b02f34d1a" cx="99.37603" cy="111.77319" r="10.58722" gradientUnits="userSpaceOnUse" transform="translate(523.302634 -125.199347)"> <stop offset="0.64429" style="stop-color:#000000;stop-opacity:0"/> <stop offset="0.97511" style="stop-color:#000000"/> </radialGradient> <path class="highlight" fill="url(#a44971da-4cd8-4af3-b1e1-497b02f34d1a)" d="M91.15017,116.20117c0.31586-0.7851,1.56577-4.41171-0.26373-5.93607 C89.54888,111.62994,89.38836,114.31363,91.15017,116.20117z" transform="translate(523.302634 -125.199347)" stroke-width="0" stroke-linejoin="miter" stroke-miterlimit="2" opacity="0.47"/> <radialGradient id="72557600-3a69-4a2e-bf3a-f2c36ddfac1b" cx="120.93649" cy="157.00941" r="61.99059" gradientUnits="userSpaceOnUse" transform="translate(523.302634 -125.199347)"> <stop offset="0.5688" style="stop-color:#000000;stop-opacity:0"/> <stop offset="0.67934" style="stop-color:#000000"/> </radialGradient> <path class="highlight" fill="url(#72557600-3a69-4a2e-bf3a-f2c36ddfac1b)" d="M128.88162,123.18604c0.61206-0.98969,0.81219-2.99557-0.29642-4.57324 c-0.91257-1.29861-3.07117-2.37216-5.97526-2.37216c-4.91577,0-8.64584,1.80081-14.4986,3.83664 c-2.95587,1.02817-7.1424,2.7489-10.92169,2.7489c8.35641,0,16.73013-5.25275,25.35504-4.17676 C126.25222,119.11194,128.66022,120.80911,128.88162,123.18604z" transform="translate(523.302634 -125.199347)" stroke-width="0" stroke-linejoin="miter" stroke-miterlimit="2" opacity="0.47"/> <linearGradient id="3975edd4-ffcc-449a-947f-1085360d9007" gradientUnits="userSpaceOnUse" x1="77.14201" y1="124.82716" x2="90.88328" y2="113.08059"> <stop offset="0.05056" style="stop-color:#000000"/> <stop offset="0.14411" style="stop-color:#000000;stop-opacity:0.68377"/> <stop offset="0.34637" style="stop-color:#000000;stop-opacity:0"/> <stop offset="0.4437" style="stop-color:#000000;stop-opacity:0"/> <stop offset="0.72319" style="stop-color:#000000"/> </linearGradient> <path class="highlight" fill="url(#3975edd4-ffcc-449a-947f-1085360d9007)" d="M85.8868,115.92108c-0.4119,0.49527-0.84555,0.9545-1.28296,1.38287 c-2.47433,2.42307-5.36929,3.75476-8.93512,3.72192c1.27679,3.60599,5.99762,3.59488,7.70639,2.95065 c1.77237-1.01428,3.59653-2.34384,5.11099-3.88669C87.15221,118.97003,86.26467,117.54004,85.8868,115.92108z" transform="translate(523.302634 -125.199347)" stroke-width="0" stroke-linejoin="miter" stroke-miterlimit="2" opacity="0.47"/> </g>
             </g>
      <image xlink:href="" id="icon" x="0" y="0" style="display: none;"/>
    </g>
  </g>
</svg>