<svg width="122" height="59" viewBox="0 0 122 59" fill="none" xmlns="http://www.w3.org/2000/svg">
	<title>Celtra</title>
	<path d="M13.8682 29.432C13.8682 20.3892 19.3374 13.5474 28.3287 13.5474C34.8986 13.5474 40.1477 17.4375 40.5879 23.6992H36.2024C35.7621 19.9456
		32.6973 17.5228 28.5319 17.5228H28.1086C21.7588 17.5228 18.2537 22.812 18.2537 29.432C18.2537 36.052 21.7588 41.3412 28.1086
		41.3412H28.5488C32.7142 41.3412 35.7791 38.9184 36.2193 35.1648H40.6049C40.1646 41.4265 34.9155 45.3166 28.3456 45.3166C19.3544 45.3337
		13.8682 38.4918 13.8682 29.432Z" fill="#000"></path>
	<path d="M42.9756 33.7996C42.9756 26.1559 48.0046 22.3682 53.186 22.3682C58.8754 22.3682 62.4651 26.3436 62.4651 32.0764V34.4992H47.141C47.412
		39.5324 50.5953 41.7846 53.2707 41.7846H53.6263C55.7767 41.7846 57.8256 40.6756 58.2658 38.3381H62.4313C61.6354 42.7912 57.8256 45.3164
		53.3215 45.3164C47.8861 45.3335 42.9756 41.5287 42.9756 33.7996ZM58.2997 31.2062C58.1304 27.3673 55.8444 25.917 53.3553
		25.917H52.9998C50.7308 25.917 48.1739 27.282 47.395 31.2062H58.2997Z" fill="#000"></path>
	<path d="M66.292 15.7485H70.4574V44.8902H66.292V15.7485Z" fill="#000"></path>
	<path d="M77.5524 40.0276V26.4293H72.7266V22.8122H77.5524V15.7485H81.7178V22.8122H87.8475V26.4293H81.7178V39.3622C81.7178 40.693 81.7348 41.1196
		81.7348 41.1196H87.8475V44.8732H82.3782C79.2964 44.8902 77.5524 43.1158 77.5524 40.0276Z" fill="#000"></path>
	<path d="M91.0137 22.8121H94.959V27.6748C95.8395 24.3648 98.4641 22.5903 101.309 22.5903H102.409V26.6511H101.529C97.5836 26.6511 95.1791 29.2957
		95.1791 33.7147V44.8732H91.0137V22.8121Z" fill="#000"></path>
	<path d="M118.19 44.8899L117.97 41.3581C117.089 43.3373 114.465 45.3335 110.96 45.3335C106.794 45.3335 103.729 42.5524 103.729 38.7988C103.729
		33.7655 108.149 32.2641 111.705 31.957L117.75 31.4792V30.7797C117.75 27.6915 116.006 25.9171 113.195 25.9171H112.839C110.553 25.9171 108.589
		27.0261 108.335 29.2271H104.17C104.441 25.1663 108.064 22.3853 113.026 22.3853C118.85 22.3853 121.915 26.2754 121.915
		30.7626V40.0273V44.8899H118.19ZM117.75 36.939V34.6869L112.281 35.1305C109.741 35.3523 107.895 36.5808 107.895 38.6111C107.895 40.4197 109.385
		41.7846 111.451 41.7846H111.806C114.465 41.8017 117.75 39.5836 117.75 36.939Z" fill="#000"></path>
	<path d="M122.001 55.0415H0.119141V58.9999H122.001V55.0415Z" fill="#000"></path>
	<path d="M122 0H13.9863V3.95836H122V0Z" fill="#000"></path>
	<path d="M3.92838 0.102539H0V44.89H3.92838V0.102539Z" fill="#000"></path>
</svg>