<svg version="1.1" id="Layer_1" xmlns="http://www.w3.org/2000/svg" xmlns:xlink="http://www.w3.org/1999/xlink" x="0px" y="0px" viewBox="0 0 373.3 87.7" style="enable-background:new 0 0 373.3 87.7;" xml:space="preserve">
<style type="text/css">
	.st0{fill:#569CB7;}
	.st1{fill:#1B4759;}
	.st2{fill:#407B91;}
	.st3{fill:none;}
</style>
<polygon class="st0" points="312.1,0.6 312.1,4 317.3,4 317.3,20.7 321.2,20.7 321.2,4 326.4,4 326.4,0.6 "/>
<rect x="329.1" y="0.6" class="st0" width="3.9" height="20.1"/>
<path class="st0" d="M299.9,43.6h5l-2.5-9h-0.1L299.9,43.6z M305.9,46.9H299l-1.1,4.2h-4.1l6.1-20.1h5.2l6.1,20.1H307L305.9,46.9z"/>
<polygon class="st0" points="319.6,34.5 319.6,51.2 315.7,51.2 315.7,34.5 310.5,34.5 310.5,31.1 324.8,31.1 324.8,34.5 "/>
<polygon class="st0" points="327.5,31.1 331.4,31.1 331.4,39.2 332.6,39.2 337.9,31.1 342.3,31.1 335.7,40.6 342.6,51.2 338,51.2   332.5,42.4 331.4,42.4 331.4,51.2 327.5,51.2 "/>
<rect x="345" y="31.1" class="st0" width="3.9" height="20.1"/>
<polygon class="st0" points="257.3,81.7 257.3,61.6 261.2,61.6 261.2,78.3 269.5,78.3 269.5,81.7 "/>
<polygon class="st0" points="299.7,81.7 293.8,81.7 288.4,61.6 292.5,61.6 296.8,78.3 296.9,78.3 301.2,61.6 305.1,61.6 "/>
<polygon class="st0" points="307.5,81.7 307.5,61.6 320.3,61.6 320.3,65 311.4,65 311.4,69.9 319.2,69.9 319.2,73.2 311.4,73.2   311.4,78.3 320.3,78.3 320.3,81.7 "/>
<polygon class="st0" points="327.4,66.6 327.3,66.6 327.3,81.7 323.8,81.7 323.8,61.6 329,61.6 335.8,77.1 335.9,77.1 335.9,61.6   339.4,61.6 339.4,81.7 334.2,81.7 "/>
<rect x="343.7" y="61.6" class="st0" width="3.9" height="20.1"/>
<polygon class="st0" points="360.5,61.6 360.5,81.7 373.3,81.7 373.3,78.3 364.4,78.3 364.4,73.2 372.2,73.2 372.2,69.9 364.4,69.9   364.4,65 373.3,65 373.3,61.6 "/>
<polygon class="st1" points="84.1,0.2 84.1,23 101.6,23 101.6,16.4 112.4,16.4 112.4,0.2 "/>
<rect x="206.1" class="st0" width="17.5" height="40.1"/>
<rect x="206.1" y="68" class="st1" width="17.5" height="13.9"/>
<polygon class="st2" points="206.1,40.1 206.1,55 206.1,62.7 206.1,68 223.6,68 223.6,62.7 223.6,55 223.6,40.1 "/>
<path class="st3" d="M24.9,58.5c4.1,4.4,9.9,7.2,16.7,7.4c0.2,0,0.4,0,0.7,0c0.1,0,0.3,0,0.4,0v0c13.8-0.2,23.4-11.2,23.4-24.7V41  c0-13.4-9.7-24.5-23.4-24.9v0c-0.2,0-0.4,0-0.7,0c-0.1,0-0.3,0-0.4,0c-13.7,0.2-23.2,11.1-23.3,24.4c0,0.1,0,0.2,0,0.3V41  c0,0.2,0,0.4,0,0.6c0.1,6.1,2.3,11.8,5.9,16.1l-6.9,6.7l6.9-6.7C24.5,58,24.7,58.3,24.9,58.5z"/>
<path class="st3" d="M284.4,34.5h-2.8v13.3h2.8c3.2,0,4.4-1.1,4.4-6.8C288.8,35.7,287.5,34.5,284.4,34.5z"/>
<path class="st3" d="M286.1,4h-2.8v5.8h2.8c2.7,0,3.4-0.8,3.4-2.9C289.5,4.6,288.7,4,286.1,4z"/>
<path class="st3" d="M249.3,3.6c-3.3,0-4.1,1.5-4.1,6.9c0,5.3,0.8,7,4.1,7c3.3,0,4.1-1.7,4.1-7C253.4,5.2,252.6,3.6,249.3,3.6z"/>
<path class="st3" d="M278.9,64.6c-3.3,0-4.1,1.5-4.1,6.9c0,5.3,0.8,7,4.1,7c3.3,0,4.1-1.7,4.1-7C283,66.2,282.1,64.6,278.9,64.6z"/>
<path class="st3" d="M266,34.1c-3.3,0-4.1,1.5-4.1,6.9c0,5.3,0.8,7,4.1,7c3.3,0,4.1-1.7,4.1-7C270.1,35.7,269.3,34.1,266,34.1z"/>
<path class="st3" d="M272.1,10.5c0-5.3-1.3-6.5-4.4-6.5h-2.8v13.3h2.8C270.9,17.3,272.1,16.2,272.1,10.5z"/>
<path class="st3" d="M248.6,34.5h-2.8v5.8h2.8c2.7,0,3.4-0.8,3.4-2.9C252,35.1,251.2,34.5,248.6,34.5z"/>
<path class="st3" d="M302.7,3.9h-2.8v5.7h2.8c2.7,0,3.4-0.8,3.4-2.9C306.1,4.5,305.2,3.9,302.7,3.9z"/>
<path class="st0" d="M42.7,16.1L42.7,16.1C56.4,16.5,66.1,27.7,66.1,41v0.2c0,13.5-9.5,24.5-23.4,24.7v0c0,0,0,0,0,0l0,16.1  c22.6-0.3,39.4-16.4,41.4-36.8v-8.6C82.1,16.2,65.4,0.2,42.7,0L42.7,16.1C42.7,16.1,42.7,16.1,42.7,16.1z"/>
<path class="st2" d="M42.7,66c-0.1,0-0.3,0-0.4,0c-0.2,0-0.4,0-0.7,0c-6.8-0.2-12.6-3-16.7-7.4c-0.3-0.3-0.5-0.6-0.7-0.8l-6.9,6.7  l-5.7,5.5c0.3,0.3,0.5,0.5,0.8,0.8c7.3,7,17.4,11.3,29.2,11.4c0.1,0,0.3,0,0.4,0c0.2,0,0.4,0,0.7,0v0c0,0,0,0,0,0V66z"/>
<polygon class="st2" points="42.7,66 42.7,82.1 42.7,82.1 42.7,66 "/>
<path class="st1" d="M11.6,69.9L11.6,69.9C11.6,69.9,11.6,69.9,11.6,69.9l5.7-5.5l6.9-6.7c-3.6-4.3-5.8-9.9-5.9-16.1  c0-0.2,0-0.4,0-0.6v-0.2c0-0.1,0-0.2,0-0.3c0.2-13.3,9.6-24.1,23.3-24.4c0.2,0,0.3,0,0.4,0c0.2,0,0.4,0,0.7,0V0c0,0,0,0,0,0v0  c-0.1,0-0.3,0-0.4,0c-0.2,0-0.4,0-0.7,0C17.7,0.3,0.3,18.4,0,40.5c0,0.2,0,0.4,0,0.6v0.2c0,0.1,0,0.2,0,0.3  C0.1,52.6,4.4,62.6,11.6,69.9z"/>
<polygon class="st1" points="42.7,16.1 42.7,16.1 42.7,0 42.7,0 "/>
<polygon class="st1" points="11.6,69.9 11.6,69.9 17.3,64.4 "/>
<path class="st0" d="M249.3,0.2c-5.5,0-8.2,2.4-8.2,10.4c0,8.1,2.7,10.3,8.2,10.3c5.6,0,8.2-2.3,8.2-10.4  C257.5,2.6,254.8,0.2,249.3,0.2z M249.3,17.6c-3.3,0-4.1-1.7-4.1-7c0-5.4,0.8-6.9,4.1-6.9c3.3,0,4.1,1.6,4.1,6.9  C253.4,15.9,252.6,17.6,249.3,17.6z"/>
<path class="st0" d="M276.1,10.5c0-7.3-1.8-10-8.7-10H261v20.1h6.5C273.9,20.7,276.1,17.9,276.1,10.5z M264.9,4h2.8  c3.2,0,4.4,1.2,4.4,6.5c0,5.7-1.2,6.8-4.4,6.8h-2.8V4z"/>
<path class="st0" d="M286.3,0.6h-7v20.1h3.9v-7.5h3.1c5.2,0,7.1-2.2,7.1-6.5C293.5,2.7,291.8,0.6,286.3,0.6z M286.1,9.8h-2.8V4h2.8  c2.6,0,3.4,0.6,3.4,2.9C289.5,9,288.8,9.8,286.1,9.8z"/>
<path class="st0" d="M310.1,6.6c0-3.9-1.7-6-7.1-6H296v20.1h3.9v-7.9h3l3.9,7.9h4.5l-4.4-8.5C309.1,11.3,310.1,9.3,310.1,6.6z   M302.7,9.6h-2.8V3.9h2.8c2.5,0,3.4,0.6,3.4,2.8C306.1,8.8,305.4,9.6,302.7,9.6z"/>
<path class="st0" d="M248.9,31.1h-7v20.1h3.9v-7.5h3.1c5.2,0,7.1-2.2,7.1-6.5C256,33.2,254.3,31.1,248.9,31.1z M248.6,40.3h-2.8  v-5.8h2.8c2.6,0,3.4,0.6,3.4,2.9C252,39.5,251.3,40.3,248.6,40.3z"/>
<path class="st0" d="M274.2,41.1c0-8-2.7-10.4-8.2-10.4c-5.5,0-8.2,2.4-8.2,10.4c0,8.1,2.7,10.3,8.2,10.3  C271.6,51.5,274.2,49.2,274.2,41.1z M266,48.1c-3.3,0-4.1-1.7-4.1-7c0-5.4,0.8-6.9,4.1-6.9c3.3,0,4.1,1.6,4.1,6.9  C270.1,46.4,269.3,48.1,266,48.1z"/>
<path class="st0" d="M284.1,31.1h-6.5v20.1h6.5c6.4,0,8.6-2.8,8.6-10.1C292.8,33.7,291,31.1,284.1,31.1z M284.4,47.8h-2.8V34.5h2.8  c3.2,0,4.4,1.2,4.4,6.5C288.8,46.7,287.6,47.8,284.4,47.8z"/>
<path class="st0" d="M248.7,69.9c-2.4-0.7-3.6-1.2-3.6-3.1c0-1.9,1.2-2.2,2.9-2.2c1.7,0,3.4,0.3,4.8,0.9l0.5-3.2  c-1.8-0.7-3.4-1-5.3-1c-4.5,0-6.9,1.6-6.9,5.8c0,3.9,2,5.1,5.7,6.2c2.6,0.8,3.4,1.3,3.4,2.9c0,2-1.3,2.6-3.2,2.6  c-1.7,0-3.8-0.4-5.3-0.9l-0.7,3.4c1.6,0.5,3.5,0.8,5.8,0.8c5.4,0,7.5-1.7,7.5-6.2C254.3,72.2,252.9,71.1,248.7,69.9z"/>
<path class="st0" d="M278.9,61.2c-5.5,0-8.2,2.4-8.2,10.4c0,8.1,2.7,10.3,8.2,10.3c5.6,0,8.2-2.3,8.2-10.4  C287,63.6,284.4,61.2,278.9,61.2z M278.9,78.6c-3.3,0-4.1-1.7-4.1-7c0-5.4,0.8-6.9,4.1-6.9c3.3,0,4.1,1.6,4.1,6.9  C283,76.9,282.1,78.6,278.9,78.6z"/>
<path class="st0" d="M352.4,79.9c0,2.6-0.8,3.7-3.4,4.5l1.1,3.3c4.8-1.2,6.2-3.6,6.2-8.1v-18h-3.9V79.9z"/>
<path class="st2" d="M116.5,0.2h-4.2v16.2h2.7c6.3,0,10.9,2.3,13,6.6l12.6-13C135.5,3.9,127.2,0.2,116.5,0.2z"/>
<path class="st1" d="M179,66.4c-0.5,0-1,0.1-1.5,0.1c-7.7,0-14.3-2.7-20.5-7.2l-11.6,11.6c9.2,7.4,20.5,11,31.7,11  c0.7,0,1.3,0,1.9-0.1v0c0,0-0.1,0-0.1,0V66.4z"/>
<path class="st2" d="M172,48.4L172,48.4c0.3,0.1,0.6,0.2,0.9,0.2c13.3,3.4,16,5.7,16,10.1V59c0,4.3-3.7,7-9.9,7.4v0v15.4  c0,0,0.1,0,0.1,0c16-0.7,27.1-9.4,27.1-24.5V57c0-12.4-7.3-18.3-20.4-22.4L172,48.4C172,48.4,172,48.4,172,48.4z"/>
<path class="st0" d="M146.9,28.5c1.7,12.2,11.1,16.2,25.1,19.9c0,0,0,0,0,0l13.8-13.8l0,0c-1.5-0.5-3.1-0.9-4.7-1.4  C167.4,29.7,164,28,164,22.8v-0.2c0-3.9,3.5-6.9,10.2-6.9c5.8,0,11.7,2.2,17.8,6l11.6-11.6c-8-6.3-17.7-9.8-29.1-9.8  c-16.2,0-27.8,9.5-27.8,23.9v0.2C146.8,25.7,146.9,27,146.9,28.5L146.9,28.5z"/>
<path class="st0" d="M84.3,41c0,1.4-0.1,2.8-0.2,4.2v36.6h17.5V57.3h13.3c17.8,0,32.1-9.8,32.1-28.7v-0.1c-0.2-1.3-0.3-2.7-0.3-4.1  v-0.1c-0.7-5.6-2.7-10.4-6-14.3L128,23c0.8,1.6,1.2,3.5,1.2,5.8V29c0,7-5.1,12.3-13.8,12.3h-13.8V23H84.1v13.6  c0.1,1.4,0.2,2.8,0.2,4.2V41z"/>
<path class="st0" d="M84.3,41v-0.2c0-1.4-0.1-2.8-0.2-4.2v8.6C84.3,43.8,84.3,42.5,84.3,41z"/>
<path class="st0" d="M146.9,28.5L146.9,28.5c0-1.5-0.1-2.9-0.3-4.2v0.1C146.7,25.9,146.7,27.2,146.9,28.5z"/>
</svg>