<svg width="163px" height="33px" viewBox="0 0 163 33" version="1.1" xmlns="http://www.w3.org/2000/svg" xmlns:xlink="http://www.w3.org/1999/xlink">
    <title>brang-bw-alt2</title>
    <g id="brang-bw-alt2" stroke="none" stroke-width="1" fill="none" fill-rule="evenodd">
        <g id="brand-bw-alt" fill-rule="nonzero">
            <path d="M88.603725,15.2573863 C90.0202907,15.2573863 90.2248569,14.3743701 90.2156459,12.9147746 C90.2062974,10.8424432 89.2280093,9.99957038 86.288608,9.99957038 C82.6785927,9.99957038 81.8194974,11.0676308 81.6244171,14.7697546 C81.5934848,15.093376 81.7574951,15.2573863 82.0811166,15.2573863 L88.603725,15.2573863 Z M86.3988648,25.3522003 C80.3385923,25.3522003 78.0082154,22.8872339 78.0082154,16.1883819 C78.0082154,9.3297814 80.4581976,7.10471277 86.1295468,7.10471277 C91.4754875,7.10471277 93.6682497,9.10913048 93.6776925,12.936496 C93.6868091,16.0546166 92.5867161,17.8995608 90.1529563,17.8995608 L82.1739137,17.8995608 C81.8504297,17.8995608 81.6864194,18.0946409 81.7173518,18.3918667 C82.1476556,21.7130411 83.6541314,22.4576176 86.8463533,22.4576176 C88.3001753,22.4576176 90.1074513,22.3370501 91.7384815,22.1543429 C92.5097289,22.087804 92.962029,22.4114253 93.0905703,23.209343 C93.2200739,23.9506201 92.9308217,24.4706964 92.2214391,24.6634395 C90.5066852,25.170043 88.0759499,25.3522003 86.3985898,25.3522003 L86.3988648,25.3522003 Z" id="Shape" fill="#FFF"></path>
            <path d="M97.76911,20.6768399 L97.76911,1.23563777 C97.76911,0.428784029 98.1903403,0.012090602 98.9926576,0.012090602 L100.002703,0.012090602 C100.809557,0.012090602 101.225976,0.428784029 101.225976,1.23563777 L101.195043,19.8973441 C101.195043,21.3761865 101.979351,22.1250248 103.45352,22.1250248 L103.936477,22.1250248 C104.672118,22.1250248 105.186008,22.5061117 105.248285,23.2417522 L105.279355,23.6581707 C105.34122,24.389137 105.114932,24.9298349 104.374617,25.0583761 C103.588385,25.1961282 102.703306,25.2625297 102.138412,25.2625297 C99.471766,25.2625297 97.76911,23.6408486 97.76911,20.6768399" id="Path" fill="#FFF"></path>
            <path d="M108.304216,23.7016209 L108.304216,8.78644342 C108.304216,7.97972716 108.725309,7.56289626 109.527351,7.56289626 L110.506602,7.56289626 C111.313318,7.56289626 111.730012,7.97972716 111.730012,8.78644342 L111.730012,23.7016209 C111.730012,24.5084746 111.313318,24.925168 110.506602,24.925168 L109.527351,24.925168 C108.725309,24.925168 108.304216,24.5038004 108.304216,23.7016209 M107.871025,2.13502107 C107.871025,0.967702079 108.834053,0 110.032443,0 C111.199762,0 112.167464,0.967702079 112.167464,2.13502107 C112.167464,3.3334099 111.199762,4.29643776 110.032443,4.29643776 C108.834053,4.29643776 107.871025,3.3334099 107.871025,2.13502107" id="Shape" fill="#FFF"></path>
            <path d="M116.938798,20.5971579 L116.938798,8.78649078 C116.938798,7.97977451 117.359891,7.56335604 118.161933,7.56335604 L119.171979,7.56335604 C119.974296,7.56335604 120.395664,7.97977451 120.395664,8.78649078 L120.395664,19.591787 C120.395664,21.8007708 120.963995,22.4577744 122.60616,22.4577744 C124.375768,22.4577744 125.975041,22.0869984 128.35436,20.9249035 C128.553977,20.8274322 128.651448,20.6943543 128.651448,20.4636675 L128.651448,8.78649078 C128.651448,7.97977451 129.068279,7.56335604 129.875133,7.56335604 L130.885178,7.56335604 C131.687358,7.56335604 132.108451,7.97977451 132.108451,8.78649078 L132.108451,23.6974064 C132.108451,24.4995859 131.691895,24.9252154 130.88944,24.9252154 L130.327158,24.9252154 C129.560585,24.9252154 129.172487,24.6326639 129.07749,24.0736816 L129.037346,23.7095044 C129.006277,23.4165405 128.779989,23.3454648 128.451831,23.5408199 C126.17617,24.8886464 123.928004,25.3832895 121.653855,25.3832895 C118.597599,25.3832895 116.938798,23.7198152 116.938798,20.5971579" id="Path" fill="#FFF"></path>
            <path d="M138.254093,24.9252212 C137.451914,24.9252212 137.030546,24.5083903 137.030546,23.701674 L137.030546,8.7864966 C137.030546,7.98431708 137.442703,7.56322439 138.244882,7.56322439 L138.687972,7.56322439 C139.459219,7.56322439 139.871376,7.60817944 140.030849,8.38396333 L140.070993,8.68613824 C140.132995,9.04069196 140.359008,9.1737699 140.687028,8.94775737 C142.8204,7.50699621 145.643358,7.10515033 147.005346,7.10515033 C148.913392,7.10515033 150.23015,7.40952487 151.252018,8.93882135 C151.442424,9.23137285 151.642179,9.26230522 151.996595,9.01003454 C154.148389,7.56927339 156.157757,7.10515033 158.277106,7.10515033 C161.35041,7.10515033 163,8.76876204 163,11.8914194 L163,23.701949 C163,24.5088027 162.578632,24.9254962 161.776452,24.9254962 L160.766407,24.9254962 C159.959553,24.9254962 159.542859,24.5088027 159.542859,23.701949 L159.542859,12.8967902 C159.511789,10.8735381 158.881181,10.0308028 157.045172,10.0308028 C155.718517,10.0308028 154.358042,10.2111729 152.028215,11.5807209 C151.797665,11.740057 151.700194,11.9042048 151.704731,12.1967563 C151.718616,12.6377832 151.727827,13.0477402 151.696894,13.5025148 L151.696894,23.701949 C151.665962,24.5088027 151.244594,24.9254962 150.442277,24.9254962 L149.556511,24.9254962 C148.749657,24.9254962 148.332964,24.5088027 148.332964,23.701949 L148.332964,12.8967902 C148.363896,10.7496712 147.547556,10.0308028 145.835277,10.0308028 C144.885309,10.0308028 143.206849,10.1229126 140.84609,11.5016715 C140.61554,11.6300752 140.518069,11.8251554 140.486999,12.1177069 L140.486999,23.701674 C140.456204,24.5085278 140.039235,24.9252212 139.232519,24.9252212 L138.253406,24.9252212 L138.254093,24.9252212 Z" id="Path" fill="#FFF"></path>
            <path d="M66.9156832,22.4578204 L66.9159581,22.457133 C65.6045626,22.4880654 63.7939871,22.3054957 62.9277429,22.0677976 C62.5419817,21.9701888 62.3159691,21.7488505 62.3159691,21.332157 L62.2848992,11.4718791 C62.2848992,11.0241159 62.3825081,10.7407753 62.6750597,10.6742364 C64.3667173,10.2492943 65.8238388,10.0920204 67.0388628,10.0920204 C69.9173616,10.0920204 71.0712082,11.0547733 71.0712082,16.259523 C71.0712082,20.9683923 69.8895912,22.3959557 66.9156832,22.4578204 M67.442771,7.10491554 C66.5593421,7.10491554 64.6004287,7.20032473 62.7690941,7.90434552 C62.3166565,8.06835583 62.0859696,8.1210096 62.1526461,7.60670736 C62.2902608,6.58387692 62.3166565,5.98200169 62.3166565,4.73178395 L62.3166565,1.23505112 C62.3166565,0.428197379 61.8952887,0.011503956 61.0929714,0.011503956 L60.0830635,0.011503956 C59.2808837,0.011503956 58.8593784,0.432871609 58.8593784,1.23505112 L58.8593784,24.3364465 L58.8876987,24.6362843 C59.0673815,25.5100894 59.5316422,25.5605436 60.400086,25.5605436 L60.899266,25.5605436 C61.5025162,25.5605436 61.9084865,25.3477288 62.1120903,24.9377718 C63.6210407,25.1845434 65.3920227,25.3517157 66.699294,25.3517157 L66.6999813,25.3524031 C72.8908572,25.3524031 74.6270575,22.1175643 74.6270575,16.3836649 C74.6270575,8.38799034 71.6792701,7.10491554 67.442771,7.10491554" id="Shape" fill="#FFF"></path>
            <path d="M51.7610911,21.3320698 C51.7610911,21.7489007 51.5350785,21.970239 51.1493173,22.0677103 C50.2830731,22.3055459 48.4724977,22.4881156 47.1611021,22.4570458 L47.1613771,22.4577332 C44.187469,22.3958684 43.005852,20.9683051 43.005852,16.2594357 C43.005852,11.054686 44.1596986,10.0919331 47.0381974,10.0919331 C48.2532214,10.0919331 49.7103429,10.2493445 51.4020005,10.6742866 C51.6945521,10.7408256 51.792161,11.0241661 51.792161,11.4717919 L51.7610911,21.3320698 Z M55.171352,7.80321252 C54.9916692,6.92940738 54.5274085,6.87881576 53.6589647,6.87881576 L53.1597847,6.87881576 C52.3427574,6.87881576 51.8864704,7.26773879 51.8061837,8.00984077 C51.8002721,8.0102532 51.5341162,7.98619469 51.3079661,7.90425827 C49.4766315,7.20037496 47.5177181,7.10496577 46.6342893,7.10496577 C42.3977901,7.10496577 39.4500028,8.38790309 39.4500028,16.3835776 C39.4500028,22.1176146 41.186203,25.3523158 47.3770789,25.3523158 L47.3777663,25.3516284 C48.6766514,25.3516284 50.4340232,25.1866558 51.9367871,24.9423588 C52.1600501,25.5216878 52.6087759,25.5605938 53.3617388,25.5605938 L53.8607813,25.5605938 C54.6611739,25.5605938 55.1145739,25.1865183 55.2080584,24.473699 L55.2143823,24.4739739 L55.2143823,23.3270016 C55.2164445,23.2908451 55.2176818,23.2537262 55.2176818,23.2155076 L55.2176818,8.23805294 C55.2176818,8.23805294 55.2142449,8.23777798 55.2123202,8.2376405 L55.171352,7.80321252 Z" id="Shape" fill="#FFF"></path>
            <path d="M21.6948735,21.9178817 C18.0810088,21.922281 16.408598,18.9274775 14.9135328,16.849372 C13.3707631,14.7008781 12.1444659,14.1144004 10.6437642,14.1067016 C9.48634316,14.1005152 7.60070511,14.7342851 7.60427951,16.8468974 C7.60565429,18.960472 9.64375462,19.6011158 10.6510505,19.6005659 C12.1129836,19.5986412 12.8196167,18.9159294 13.1230291,18.6461991 C13.2015286,18.5763607 13.2995498,18.538417 13.4045825,18.538417 L14.5059128,18.538417 C14.8563423,18.538417 15.1403703,18.8224449 15.1403703,19.1728743 L15.1403703,21.2834244 C15.1403703,21.4599451 15.0676448,21.6192812 14.9510641,21.7343497 C14.8361331,21.8494181 14.6774844,21.9209062 14.5019259,21.9209062 L13.6549286,21.9209062 C13.3192091,21.9209062 13.0514034,21.6606619 13.0288571,21.3309915 L13.0234955,21.3287919 C12.3541188,21.6262926 11.9441616,21.9158196 10.6887193,21.9178817 C7.25481233,21.922281 5.18110538,19.2579727 5.17876127,16.8468974 C5.1761562,14.3120926 7.36410675,11.7789375 10.6887193,11.7763254 C14.365686,11.7719262 16.0336975,15.039347 17.4543875,16.8463475 C18.9374922,18.7329472 19.8609269,19.5804942 21.6907492,19.5877805 C23.6194176,19.5960291 24.7581417,18.2344548 24.7566295,16.8468974 C24.7545673,15.2296155 23.3287907,14.0937788 21.6847002,14.0947411 C20.343747,14.0961159 19.5643884,14.8021988 19.2495655,15.0624432 C19.1735406,15.1252703 19.0818433,15.1574399 18.9831346,15.1574399 L17.8712186,15.1574399 C17.520789,15.1574399 17.2366235,14.8732746 17.2366235,14.5228451 L17.2366235,9.87611544 C17.2366235,9.52568603 17.520789,9.24152064 17.8712186,9.24152064 L18.7183534,9.24152064 C19.0686455,9.24152064 19.3528109,9.52279901 19.3528109,9.87322842 C19.3526735,10.5864602 19.352536,11.7280709 19.3529484,12.3472683 C20.0769037,12.0532045 20.4277456,11.7770128 21.6948735,11.7763254 C24.1133734,11.7731635 27.1514833,13.5426326 27.1558844,16.8468974 C27.1571199,19.0309978 25.3646914,21.9134825 21.6948735,21.9178817 M16.1673254,0.168574711 C7.23845253,0.168574711 3.55271368e-15,7.40702475 3.55271368e-15,16.3358946 C3.55271368e-15,25.2649019 6.67782028,32.5032144 16.1673254,32.5032144 C25.0961983,32.5032144 32.3346508,25.2649019 32.3346508,16.3358946 C32.3346508,7.40702475 25.0961983,0.168574711 16.1673254,0.168574711" id="Shape" fill="#FFF"></path>
            <path d="M21.6948735,21.9178817 C18.0810088,21.922281 16.408598,18.9274775 14.9135328,16.849372 C13.3707631,14.7008781 12.1444659,14.1144004 10.6437642,14.1067016 C9.48634316,14.1005152 7.60070511,14.7342851 7.60427951,16.8468974 C7.60565429,18.960472 9.64375462,19.6011158 10.6510505,19.6005659 C12.1129836,19.5986412 12.8196167,18.9159294 13.1230291,18.6461991 C13.2015286,18.5763607 13.2995498,18.538417 13.4045825,18.538417 L14.5059128,18.538417 C14.8563423,18.538417 15.1403703,18.8224449 15.1403703,19.1728743 L15.1403703,21.2834244 C15.1403703,21.4599451 15.0676448,21.6192812 14.9510641,21.7343497 C14.8361331,21.8494181 14.6774844,21.9209062 14.5019259,21.9209062 L13.6549286,21.9209062 C13.3192091,21.9209062 13.0514034,21.6606619 13.0288571,21.3309915 L13.0234955,21.3287919 C12.3541188,21.6262926 11.9441616,21.9158196 10.6887193,21.9178817 C7.25481233,21.922281 5.18110538,19.2579727 5.17876127,16.8468974 C5.1761562,14.3120926 7.36410675,11.7789375 10.6887193,11.7763254 C14.365686,11.7719262 16.0336975,15.039347 17.4543875,16.8463475 C18.9374922,18.7329472 19.8609269,19.5804942 21.6907492,19.5877805 C23.6194176,19.5960291 24.7581417,18.2344548 24.7566295,16.8468974 C24.7545673,15.2296155 23.3287907,14.0937788 21.6847002,14.0947411 C20.343747,14.0961159 19.5643884,14.8021988 19.2495655,15.0624432 C19.1735406,15.1252703 19.0818433,15.1574399 18.9831346,15.1574399 L17.8712186,15.1574399 C17.520789,15.1574399 17.2366235,14.8732746 17.2366235,14.5228451 L17.2366235,9.87611544 C17.2366235,9.52568603 17.520789,9.24152064 17.8712186,9.24152064 L18.7183534,9.24152064 C19.0686455,9.24152064 19.3528109,9.52279901 19.3528109,9.87322842 C19.3526735,10.5864602 19.352536,11.7280709 19.3529484,12.3472683 C20.0769037,12.0532045 20.4277456,11.7770128 21.6948735,11.7763254 C24.1133734,11.7731635 27.1514833,13.5426326 27.1558844,16.8468974 C27.1571199,19.0309978 25.3646914,21.9134825 21.6948735,21.9178817" id="Shape-path" fill="#000"></path>
        </g>
    </g>
</svg>