<svg width="900" height="350" viewBox="0 0 900 350" fill="none" xmlns="http://www.w3.org/2000/svg">
<path d="M486.456 169.212C493.625 169.212 494.661 164.743 494.614 157.357C494.567 146.869 489.615 142.604 474.738 142.604C456.467 142.604 452.118 148.009 451.131 166.744C450.974 168.382 451.805 169.212 453.442 169.212H486.456ZM475.296 220.297C444.623 220.297 432.828 207.823 432.828 173.923C432.828 139.214 445.228 127.954 473.933 127.954C500.991 127.954 512.089 138.098 512.137 157.466C512.183 173.246 506.615 182.583 494.297 182.583H453.912C452.275 182.583 451.445 183.57 451.601 185.074C453.779 201.881 461.404 205.649 477.561 205.649C484.919 205.649 494.067 205.039 502.322 204.114C506.225 203.778 508.515 205.415 509.165 209.453C509.821 213.205 508.357 215.836 504.766 216.812C496.087 219.376 483.786 220.297 475.296 220.297Z" fill="white"/>
<path d="M532.844 196.638V98.2534C532.844 94.1702 534.976 92.0615 539.037 92.0615H544.149C548.232 92.0615 550.34 94.1702 550.34 98.2534L550.184 192.693C550.184 200.177 554.153 203.966 561.615 203.966H564.059C567.782 203.966 570.383 205.895 570.698 209.618L570.856 211.725C571.169 215.424 570.024 218.16 566.277 218.811C562.297 219.508 557.817 219.844 554.958 219.844C541.461 219.844 532.844 211.637 532.844 196.638Z" fill="white"/>
<path d="M586.165 211.945V136.465C586.165 132.382 588.296 130.273 592.356 130.273H597.312C601.395 130.273 603.504 132.382 603.504 136.465V211.945C603.504 216.028 601.395 218.136 597.312 218.136H592.356C588.296 218.136 586.165 216.004 586.165 211.945ZM583.973 102.804C583.973 96.8972 588.847 92 594.912 92C600.821 92 605.718 96.8972 605.718 102.804C605.718 108.869 600.821 113.743 594.912 113.743C588.847 113.743 583.973 108.869 583.973 102.804Z" fill="white"/>
<path d="M629.867 196.234V136.465C629.867 132.383 631.998 130.275 636.058 130.275H641.17C645.231 130.275 647.364 132.383 647.364 136.465V191.147C647.364 202.325 650.24 205.65 658.552 205.65C667.508 205.65 675.603 203.774 687.645 197.893C688.656 197.4 689.149 196.726 689.149 195.559V136.465C689.149 132.383 691.259 130.275 695.343 130.275H700.455C704.515 130.275 706.646 132.383 706.646 136.465V211.923C706.646 215.983 704.538 218.137 700.476 218.137H697.63C693.751 218.137 691.786 216.656 691.305 213.828L691.102 211.985C690.945 210.502 689.8 210.142 688.139 211.131C676.621 217.952 665.242 220.455 653.732 220.455C638.263 220.455 629.867 212.037 629.867 196.234Z" fill="white"/>
<path d="M737.751 218.136C733.691 218.136 731.559 216.027 731.559 211.945V136.465C731.559 132.405 733.645 130.274 737.705 130.274H739.947C743.851 130.274 745.937 130.502 746.744 134.428L746.947 135.957C747.261 137.751 748.405 138.425 750.065 137.281C760.863 129.99 775.151 127.956 782.045 127.956C791.702 127.956 798.366 129.496 803.538 137.236C804.502 138.716 805.513 138.873 807.307 137.596C818.198 130.305 828.368 127.956 839.095 127.956C854.65 127.956 862.999 136.375 862.999 152.177V211.946C862.999 216.029 860.866 218.138 856.806 218.138H851.694C847.61 218.138 845.501 216.029 845.501 211.946V157.265C845.344 147.026 842.152 142.762 832.86 142.762C826.145 142.762 819.259 143.674 807.467 150.605C806.3 151.411 805.807 152.242 805.83 153.723C805.9 155.955 805.947 158.029 805.79 160.331V211.946C805.634 216.029 803.501 218.138 799.44 218.138H794.957C790.873 218.138 788.764 216.029 788.764 211.946V157.265C788.921 146.4 784.789 142.762 776.122 142.762C771.314 142.762 762.819 143.228 750.87 150.205C749.703 150.855 749.21 151.842 749.053 153.323V211.945C748.897 216.028 746.787 218.136 742.704 218.136H737.751Z" fill="white"/>
<path d="M376.682 205.651C370.045 205.807 360.882 204.88 356.498 203.677C354.545 203.183 353.401 202.063 353.401 199.954L353.244 150.055C353.244 147.789 353.738 146.355 355.219 146.018C363.781 143.868 371.156 143.072 377.305 143.072C391.875 143.072 397.715 147.944 397.715 174.283C397.715 198.113 391.734 205.337 376.682 205.651ZM379.35 127.956C374.878 127.956 364.964 128.438 355.695 132.001C353.405 132.831 352.237 133.098 352.575 130.495C353.271 125.319 353.405 122.273 353.405 115.946V98.2505C353.405 94.1673 351.272 92.0586 347.211 92.0586H342.1C338.04 92.0586 335.906 94.191 335.906 98.2505V215.158L336.05 216.675C336.959 221.097 339.309 221.352 343.704 221.352H346.231C349.284 221.352 351.339 220.275 352.369 218.201C360.007 219.449 368.97 220.295 375.587 220.295C406.921 220.295 415.712 203.929 415.712 174.912C415.712 134.449 400.792 127.956 379.35 127.956Z" fill="white"/>
<path d="M299.983 199.953C299.983 202.062 298.839 203.182 296.886 203.676C292.502 204.879 283.338 205.803 276.7 205.646C261.648 205.333 255.669 198.112 255.669 174.282C255.669 147.943 261.509 143.071 276.078 143.071C282.228 143.071 289.603 143.867 298.165 146.018C299.646 146.355 300.14 147.789 300.14 150.054L299.983 199.953ZM317.243 131.489C316.334 127.067 313.984 126.811 309.588 126.811H307.062C302.927 126.811 300.617 128.779 300.211 132.534C300.181 132.536 298.834 132.415 297.689 132C288.42 128.438 278.505 127.955 274.034 127.955C252.592 127.955 237.672 134.447 237.672 174.91C237.672 203.928 246.459 220.298 277.794 220.298C284.368 220.298 293.266 219.459 300.872 218.223C302.002 221.155 304.273 221.352 308.084 221.352H310.61C314.661 221.352 316.956 219.459 317.429 215.851L317.461 215.853V210.048C317.471 209.865 317.478 209.678 317.478 209.484V133.689C317.478 133.689 317.46 133.688 317.45 133.687L317.243 131.489Z" fill="white"/>
<path d="M147.805 202.918C129.514 202.94 121.05 187.785 113.483 177.268C105.674 166.396 99.4674 163.428 91.8718 163.389C86.0137 163.358 76.4698 166.565 76.4879 177.256C76.4949 187.952 86.8104 191.194 91.9087 191.191C99.308 191.181 102.885 187.726 104.42 186.361C104.818 186.008 105.314 185.816 105.845 185.816H111.419C113.193 185.816 114.631 187.253 114.631 189.027V199.707C114.631 200.601 114.263 201.407 113.673 201.989C113.091 202.572 112.288 202.933 111.399 202.933H107.112C105.413 202.933 104.058 201.616 103.944 199.948L103.916 199.937C100.529 201.443 98.4536 202.908 92.0994 202.918C74.7191 202.94 64.2234 189.457 64.2115 177.256C64.1983 164.428 75.2723 151.609 92.0994 151.596C110.71 151.574 119.152 168.109 126.343 177.253C133.849 186.8 138.523 191.09 147.784 191.126C157.546 191.168 163.31 184.278 163.302 177.256C163.292 169.072 156.075 163.323 147.754 163.328C140.967 163.335 137.022 166.909 135.429 168.226C135.044 168.543 134.58 168.706 134.08 168.706H128.452C126.679 168.706 125.241 167.268 125.241 165.495V141.98C125.241 140.206 126.679 138.768 128.452 138.768H132.74C134.513 138.768 135.951 140.192 135.951 141.965C135.951 145.574 135.95 151.352 135.952 154.485C139.616 152.997 141.392 151.599 147.805 151.596C160.046 151.58 175.423 160.534 175.445 177.256C175.452 188.309 166.38 202.896 147.805 202.918ZM119.828 92.8535C74.6363 92.8535 38 129.484 38 174.67C38 219.856 71.7988 256.486 119.828 256.486C165.021 256.486 201.657 219.856 201.657 174.67C201.657 129.484 165.021 92.8535 119.828 92.8535Z" fill="white"/>
</svg>
