<svg width="900" height="350" viewBox="0 0 900 350" fill="none" xmlns="http://www.w3.org/2000/svg">
<g clip-path="url(#clip0_4565_4291)">
<path d="M235.237 227.569C229.513 227.569 223.993 226.503 218.792 224.426C213.591 222.331 208.951 219.375 205.004 215.595C200.944 211.723 197.82 207.233 195.687 202.256C193.554 197.298 192.469 192.041 192.469 186.69C192.469 181.339 193.535 175.932 195.687 170.956C197.82 165.979 200.944 161.508 205.004 157.616C208.951 153.837 213.591 150.862 218.792 148.786C223.993 146.709 229.531 145.643 235.237 145.643C240.944 145.643 246.482 146.709 251.683 148.786C256.884 150.881 261.505 153.837 265.471 157.616C269.512 161.489 272.655 165.979 274.788 170.956C276.921 175.932 278.006 181.227 278.006 186.69V226.746C278.006 227.232 277.595 227.607 277.089 227.607H266.706C266.201 227.607 265.789 227.214 265.789 226.746V216.681C265.789 215.876 264.76 215.502 264.199 216.101C262.889 217.522 261.542 218.776 260.064 219.861C257.557 221.713 254.938 223.229 252.169 224.37C249.4 225.511 246.556 226.334 243.638 226.84C240.757 227.307 237.932 227.569 235.237 227.569ZM235.237 157.149C231.028 157.149 227.006 157.934 223.282 159.469C219.559 161.003 216.285 163.117 213.516 165.773C210.747 168.411 208.54 171.573 206.931 175.184C205.322 178.795 204.517 182.668 204.517 186.69C204.517 190.712 205.341 194.567 206.931 198.121C208.54 201.676 210.747 204.819 213.516 207.457C216.285 210.114 219.559 212.228 223.282 213.762C226.987 215.296 231.009 216.063 235.237 216.063C239.466 216.063 243.469 215.277 247.193 213.762C250.916 212.228 254.208 210.095 256.959 207.457C259.728 204.819 261.935 201.676 263.544 198.121C265.153 194.567 265.958 190.712 265.958 186.69C265.958 182.668 265.153 178.776 263.525 175.184C261.916 171.573 259.709 168.411 256.94 165.773C254.171 163.135 250.878 161.003 247.174 159.469C243.469 157.916 239.447 157.149 235.237 157.149Z" fill="white"/>
<path d="M331.399 259.675C325.693 259.675 320.193 258.627 315.048 256.588C304.571 251.798 297.985 244.09 296.095 241.677C295.777 241.265 295.871 240.704 296.301 240.423L304.589 234.811C305.001 234.53 305.562 234.624 305.862 235.016C307.171 236.738 310.876 241.209 316.582 244.502C320.96 246.953 325.974 248.075 331.399 248.075C335.609 248.075 339.631 247.29 343.336 245.737C347.059 244.184 350.333 242.051 353.083 239.376C355.833 236.7 358.022 233.538 359.631 229.965C361.24 226.373 362.007 222.5 362.007 218.44V217.636C362.007 216.85 361.053 216.457 360.454 217C356.563 220.48 352.26 223.136 347.938 224.932C342.643 227.14 337.068 228.263 331.362 228.263C325.656 228.263 320.136 227.196 314.935 225.082C309.734 222.968 305.113 219.974 301.166 216.177C297.106 212.266 293.981 207.739 291.867 202.725C289.734 197.729 288.668 192.435 288.668 187.028C288.668 181.621 289.753 176.177 291.867 171.163C294 166.149 297.124 161.621 301.166 157.711C305.113 153.894 309.734 150.901 314.935 148.806C320.118 146.71 325.656 145.625 331.362 145.625C334.168 145.625 337.124 145.924 340.118 146.523C343.111 147.122 346.048 147.982 348.855 149.086C351.661 150.19 354.336 151.649 356.769 153.408C358.321 154.53 359.743 155.709 361.034 157C361.558 157.524 362.475 157.262 362.606 156.551L363.841 146.579C363.915 146.149 364.308 145.831 364.757 145.831H373.251C373.756 145.831 374.168 146.242 374.168 146.729V218.422C374.168 223.922 373.027 229.254 370.894 234.268C368.761 239.282 365.599 243.754 361.558 247.57C357.611 251.462 352.971 254.492 347.77 256.55C342.643 258.608 337.105 259.675 331.399 259.675ZM331.399 157.243C327.19 157.243 323.167 158.029 319.463 159.582C315.74 161.135 312.466 163.268 309.697 165.943C306.947 168.6 304.72 171.799 303.111 175.428C301.502 179.058 300.698 182.968 300.698 187.028C300.698 191.088 301.502 194.979 303.111 198.553C304.72 202.145 306.928 205.307 309.697 207.963C312.466 210.639 315.74 212.771 319.463 214.324C323.167 215.877 327.19 216.644 331.399 216.644C335.609 216.644 339.631 215.858 343.336 214.324C347.04 212.771 350.333 210.639 353.083 207.963C355.833 205.307 358.06 202.145 359.669 198.553C361.277 194.961 362.082 191.088 362.082 187.028C362.082 182.968 361.259 179.058 359.669 175.428C358.06 171.799 355.852 168.6 353.083 165.943C350.314 163.268 347.04 161.135 343.336 159.582C339.631 158.029 335.609 157.243 331.399 157.243Z" fill="white"/>
<path d="M397.087 226.71V147.366C397.087 146.879 397.61 146.486 398.247 146.486H411.1C411.736 146.486 412.26 146.879 412.26 147.366V226.71C412.26 227.197 411.754 227.59 411.1 227.59H398.247C397.61 227.59 397.087 227.197 397.087 226.71ZM404.402 134.288C401.895 134.288 399.781 133.633 398.116 132.361C396.432 131.089 395.59 129.48 395.59 127.553C395.59 125.626 396.432 124.017 398.097 122.689C399.781 121.36 401.895 120.668 404.402 120.668C406.909 120.668 409.042 121.341 410.782 122.67C412.521 123.998 413.401 125.645 413.401 127.553C413.401 129.461 412.521 131.089 410.782 132.361C409.042 133.652 406.909 134.288 404.402 134.288Z" fill="white"/>
<path d="M438.363 226.729V121.547C438.363 121.079 438.85 120.687 439.43 120.687H451.553C452.133 120.687 452.62 121.079 452.62 121.547V226.71C452.62 227.197 452.152 227.59 451.553 227.59H439.43C438.85 227.59 438.363 227.197 438.363 226.729Z" fill="white"/>
<path d="M511.497 227.589C505.996 227.589 500.702 226.541 495.706 224.427C490.711 222.332 486.258 219.376 482.479 215.578C478.588 211.705 475.575 207.234 473.536 202.313C471.497 197.393 470.449 192.136 470.449 186.654C470.449 181.172 471.497 175.896 473.536 170.92C475.575 165.943 478.588 161.509 482.479 157.73C486.258 153.857 490.711 150.845 495.706 148.75C500.683 146.654 505.996 145.606 511.497 145.606C516.997 145.606 522.273 146.654 527.212 148.75C532.151 150.845 536.623 153.857 540.514 157.73C544.387 161.509 547.343 165.999 549.401 171.069C551.44 176.139 552.413 181.49 552.413 186.953V187.571H482.909C482.404 187.571 482.011 188.001 482.03 188.506C482.217 191.761 483.003 195.279 484.387 198.31C485.978 201.827 488.148 204.914 490.786 207.496C493.443 210.096 496.567 212.192 500.103 213.726C503.62 215.26 507.437 216.027 511.497 216.027C516.997 216.027 522.067 214.643 526.595 211.911C531.122 209.18 534.696 205.363 537.203 200.835L537.371 200.405H550.131L549.813 201.34C547.717 206.616 544.574 211.425 540.496 215.484C536.604 219.264 532.133 222.276 527.194 224.353C522.273 226.504 516.978 227.589 511.497 227.589ZM537.596 175.915C538.232 175.915 538.662 175.241 538.4 174.661C536.211 169.928 532.918 165.775 528.559 162.557C523.601 158.909 517.858 157.094 511.497 157.094C508.316 157.094 505.229 157.599 502.348 158.553C499.448 159.507 496.754 160.892 494.359 162.613C491.946 164.353 489.794 166.373 487.961 168.787C486.576 170.583 485.416 172.678 484.462 174.661C484.182 175.241 484.612 175.915 485.267 175.915H537.596Z" fill="white"/>
<path d="M606.009 227.59C600.265 227.59 594.728 226.542 589.508 224.465C584.288 222.388 579.648 219.451 575.682 215.691C571.603 211.837 568.46 207.384 566.327 202.463C564.194 197.543 563.109 192.286 563.109 186.86C563.109 181.435 564.194 176.327 566.327 171.407C568.46 166.467 571.603 162.015 575.682 158.179C579.648 154.438 584.307 151.481 589.508 149.405C594.728 147.328 600.284 146.28 606.009 146.28C611.734 146.28 617.291 147.328 622.51 149.405C626.439 150.958 632.632 155.336 635.476 157.45C636.074 157.917 636.972 157.506 636.972 156.757V121.566C636.972 121.079 637.384 120.687 637.889 120.687H647.693C648.198 120.687 648.609 121.079 648.609 121.566V186.86C648.609 192.286 647.674 197.543 645.541 202.463C643.408 207.384 640.34 211.855 636.28 215.691C632.314 219.451 627.693 222.388 622.492 224.465C617.253 226.542 611.734 227.59 606.009 227.59ZM606.009 157.693C601.781 157.693 597.74 158.46 594.017 159.994C590.294 161.528 586.982 163.624 584.213 166.243C581.444 168.862 579.218 171.987 577.609 175.523C576 179.04 575.195 182.856 575.195 186.86C575.195 190.864 576 194.718 577.609 198.291C579.218 201.865 581.444 205.008 584.213 207.627C586.982 210.246 590.275 212.36 594.017 213.895C597.74 215.41 601.781 216.196 606.009 216.196C610.237 216.196 614.278 215.429 618.001 213.895C621.725 212.36 625.036 210.265 627.805 207.627C630.574 205.008 632.8 201.865 634.409 198.291C636.018 194.699 636.841 190.864 636.841 186.86C636.841 182.856 636.018 179.04 634.409 175.523C632.782 171.987 630.574 168.881 627.805 166.243C625.036 163.624 621.725 161.51 618.001 159.994C614.26 158.46 610.237 157.693 606.009 157.693Z" fill="white"/>
<path d="M666.457 226.728V146.991C666.457 146.504 666.831 146.111 667.28 146.111H674.708C675.063 146.111 675.381 146.355 675.493 146.71L677.159 152.192C677.327 152.753 677.982 152.978 678.431 152.622C680.919 150.583 683.651 148.974 686.569 147.777C690.105 146.336 693.884 145.625 697.776 145.625C699.067 145.625 700.32 145.7 701.48 145.85C702.603 145.999 703.894 146.168 705.11 146.373L705.671 146.448V158.478L704.867 158.254C702.547 157.486 700.133 157.112 697.813 157.112C694.969 157.112 692.238 157.692 689.75 158.834C687.261 159.975 685.016 161.565 683.164 163.567C681.293 165.569 679.927 167.945 678.861 170.601C677.795 173.258 677.364 176.158 677.364 179.208V226.728C677.364 227.215 676.99 227.608 676.541 227.608H667.299C666.812 227.608 666.457 227.196 666.457 226.728Z" fill="white"/>
<path d="M757.244 227.589C751.781 227.589 746.505 226.523 741.584 224.427C736.645 222.332 732.211 219.376 728.32 215.597C724.541 211.705 721.566 207.215 719.47 202.257C717.375 197.299 716.309 192.042 716.309 186.673C716.309 181.303 717.375 175.915 719.47 170.938C721.547 165.962 724.541 161.472 728.301 157.599C732.193 153.82 736.645 150.845 741.566 148.75C746.486 146.654 751.743 145.606 757.225 145.606C762.707 145.606 767.983 146.673 772.959 148.75C777.917 150.845 782.407 153.801 786.28 157.58C790.078 161.472 793.034 165.943 795.129 170.92C797.225 175.896 798.273 181.191 798.273 186.654C798.273 192.117 797.225 197.262 795.129 202.239C793.053 207.196 790.078 211.687 786.299 215.559C782.426 219.339 777.936 222.313 772.959 224.409C768.001 226.541 762.726 227.589 757.244 227.589ZM757.244 157.15C753.221 157.15 749.367 157.936 745.813 159.47C742.258 161.004 739.096 163.137 736.458 165.775C733.82 168.413 731.687 171.593 730.172 175.185C728.638 178.796 727.852 182.669 727.852 186.71C727.852 190.751 728.638 194.587 730.172 198.141C731.706 201.696 733.82 204.839 736.458 207.477C739.115 210.134 742.258 212.248 745.813 213.782C749.349 215.316 753.221 216.083 757.244 216.083C761.266 216.083 765.12 215.297 768.675 213.782C772.248 212.248 775.41 210.115 778.104 207.477C780.798 204.839 782.95 201.696 784.484 198.141C786.018 194.587 786.804 190.732 786.804 186.71C786.804 182.688 786.018 178.796 784.484 175.185C782.95 171.593 780.798 168.413 778.104 165.775C775.429 163.137 772.248 161.004 768.675 159.47C765.139 157.917 761.285 157.15 757.244 157.15Z" fill="white"/>
<path d="M816.993 256.101C816.507 256.101 816.133 255.709 816.133 255.222V186.747C816.133 181.266 817.162 175.971 819.182 170.994C821.24 166.018 824.234 161.528 828.125 157.636C831.923 153.857 836.357 150.882 841.334 148.787C846.31 146.691 851.624 145.625 857.105 145.625C862.587 145.625 867.882 146.691 872.858 148.787C877.835 150.882 882.288 153.857 886.086 157.636C889.977 161.509 892.971 166.018 895.01 170.994C897.049 175.99 898.097 181.284 898.097 186.747C898.097 192.21 897.049 197.355 895.01 202.351C892.971 207.327 889.958 211.836 886.086 215.709C882.306 219.488 877.854 222.463 872.858 224.558C867.882 226.654 862.568 227.72 857.105 227.72C851.642 227.72 846.329 226.654 841.334 224.558C835.59 221.92 831.362 218.571 829.304 216.682C828.743 216.177 827.845 216.569 827.845 217.318V255.241C827.845 255.727 827.47 256.12 826.984 256.12H816.993V256.101ZM857.087 157.15C853.046 157.15 849.192 157.936 845.618 159.47C842.045 161.004 838.902 163.137 836.264 165.775C833.607 168.431 831.493 171.593 829.959 175.204C828.406 178.815 827.639 182.687 827.639 186.729C827.639 190.77 828.425 194.624 829.959 198.178C831.493 201.733 833.626 204.895 836.264 207.533C838.92 210.19 842.063 212.304 845.618 213.857C849.173 215.391 853.027 216.177 857.087 216.177C861.147 216.177 864.982 215.391 868.537 213.857C872.11 212.322 875.253 210.19 877.91 207.533C880.548 204.895 882.681 201.752 884.233 198.178C885.768 194.624 886.553 190.77 886.553 186.729C886.553 182.687 885.768 178.815 884.233 175.204C882.699 171.593 880.566 168.413 877.91 165.775C875.253 163.118 872.11 161.004 868.537 159.47C864.982 157.936 861.128 157.15 857.087 157.15Z" fill="white"/>
<path d="M138.417 229.178C138.043 229.178 137.725 229.346 137.5 229.645C134.881 233.275 131.906 236.774 128.595 239.973C123.936 244.463 118.791 248.373 113.216 251.591C112.225 252.152 112.636 253.63 113.777 253.63H152.917C153.534 253.63 154.039 253.144 154.039 252.527V230.282C154.039 229.664 153.534 229.178 152.917 229.178H138.417Z" fill="white"/>
<path d="M143.077 187.327C143.077 171.836 134.171 152.36 113.704 127.777C99.5973 110.808 85.6404 97.7861 85.0604 97.2248L77.2401 89.947C76.8098 89.5541 76.1363 89.5541 75.7059 89.947L67.8856 97.2248C67.3056 97.7674 53.3487 110.789 39.2235 127.777C18.7558 152.36 8.91493 173.875 8.91493 189.366C8.91493 199.806 11.4032 211.293 15.8185 220.442C16.0056 220.816 16.3985 221.059 16.8288 221.059H43.8633C44.8174 221.059 45.3413 219.956 44.7052 219.263C37.8951 211.593 33.8353 200.143 33.8353 189.385C33.8353 185.101 36.1926 171.2 58.4189 144.465C64.5928 137.037 70.8042 129.872 75.6685 124.802C76.0988 124.334 76.8472 124.334 77.2962 124.802C82.1793 129.816 88.3906 136.289 94.5646 143.717C116.791 170.47 119.204 183.211 119.204 187.496C119.204 210.47 97.8387 229.16 74.7331 229.31C74.6395 229.31 1.16941 229.254 1.16941 229.254C0.552017 229.254 0.046875 229.74 0.046875 230.358V252.584C0.046875 253.202 0.552017 253.688 1.16941 253.688H74.7518C111.702 253.445 143.077 223.772 143.077 187.327Z" fill="white"/>
</g>
<defs>
<clipPath id="clip0_4565_4291">
<rect width="900" height="170.252" fill="white" transform="translate(0 89.5352)"/>
</clipPath>
</defs>
</svg>
