<svg width="566" height="220" viewBox="0 0 566 220" fill="none" xmlns="http://www.w3.org/2000/svg">
<g clip-path="url(#clip0_4828_1737)">
<mask id="mask0_4828_1737" style="mask-type:luminance" maskUnits="userSpaceOnUse" x="-478" y="-635" width="1967" height="1391">
<path d="M1488.36 -634.779H-477.315V755.235H1488.36V-634.779Z" fill="white"/>
</mask>
<g mask="url(#mask0_4828_1737)">
<path d="M150.155 100.425C150.056 101.185 148.917 102.142 147.002 102.918L139.82 105.791C135.807 107.426 133.496 110.381 133.496 114.889C133.496 118.818 134.652 123.309 140.579 123.309C149.099 123.309 150.353 115.169 150.353 110.002V100.425H150.155ZM167.095 122.83C165.461 124.069 163.166 125.224 159.913 125.224C153.788 125.224 151.493 122.451 150.436 117.762H150.254C149.297 120.156 147.101 125.224 137.624 125.224C126.991 125.224 125.274 119.858 125.274 115.929C125.274 106.931 133.133 106.072 140.216 103.777C148.735 101.003 150.651 100.425 150.651 92.7644C150.651 86.639 149.594 82.9076 143.287 82.9076C139.077 82.9076 136.006 84.344 136.006 87.5966C136.006 89.7925 136.583 92.104 136.583 93.1442C136.583 94.8613 135.246 96.2977 132.852 96.2977C128.642 96.2977 128.163 94.5806 128.163 92.1866C128.163 86.5399 133.331 81.5537 143.105 81.5537C154.877 81.5537 158.625 87.9598 158.625 94.7622V118.604C158.625 122.236 159.863 123.293 161.977 123.293C163.314 123.293 165.048 122.715 166.385 121.757L167.095 122.83Z" fill="white"/>
</g>
<mask id="mask1_4828_1737" style="mask-type:luminance" maskUnits="userSpaceOnUse" x="-478" y="-635" width="1967" height="1391">
<path d="M1488.36 -634.779H-477.315V755.235H1488.36V-634.779Z" fill="white"/>
</mask>
<g mask="url(#mask1_4828_1737)">
<path d="M181.724 84.144H174.36V82.8067H189.781V92.4819H189.979C191.036 88.7505 194.486 81.75 202.527 81.75C208.471 81.75 211.047 85.8612 211.047 89.6916C211.047 93.9018 208.752 94.9585 206.259 94.9585C203.485 94.9585 202.048 93.9018 202.048 92.2838C202.048 89.9888 203.287 89.9888 203.287 86.7362C203.287 84.821 202.131 83.6652 199.935 83.6652C195.923 83.6652 189.979 89.9888 189.979 100.605V122.548H198.317V123.885H174.36V122.548H181.74V84.144H181.724Z" fill="white"/>
</g>
<mask id="mask2_4828_1737" style="mask-type:luminance" maskUnits="userSpaceOnUse" x="-478" y="-635" width="1967" height="1391">
<path d="M1488.36 -634.779H-477.315V755.235H1488.36V-634.779Z" fill="white"/>
</mask>
<g mask="url(#mask2_4828_1737)">
<path d="M224.8 84.144H217.42V82.8067H232.841V93.0433H233.039C234.574 89.6916 238.504 81.75 249.516 81.75C257.937 81.75 263.782 85.6795 263.782 94.5788V122.548H271.145V123.885H248.163V122.548H255.543V91.6234C255.543 86.6371 253.248 83.1039 248.262 83.1039C240.023 83.1039 233.039 90.7648 233.039 100.919V122.548H240.403V123.885H217.42V122.548H224.8V84.144Z" fill="white"/>
</g>
<mask id="mask3_4828_1737" style="mask-type:luminance" maskUnits="userSpaceOnUse" x="-478" y="-635" width="1967" height="1391">
<path d="M1488.36 -634.779H-477.315V755.235H1488.36V-634.779Z" fill="white"/>
</mask>
<g mask="url(#mask3_4828_1737)">
<path d="M306.66 98.8045C306.858 96.9883 306.858 95.5519 306.858 93.9173C306.858 85.2988 303.407 82.9047 298.437 82.9047C289.819 82.9047 287.623 90.4666 287.045 98.8045H306.66ZM286.946 100.142C286.946 101.397 286.847 102.635 286.847 104.649C286.847 113.169 288.184 123.901 299.494 123.901C310.804 123.901 313.281 116.141 314.238 113.086L315.675 113.367C314.816 116.141 312.224 125.238 299.395 125.238C286.566 125.238 277.271 116.619 277.271 103.593C277.271 92.2993 286.748 81.5674 298.817 81.5674C305.9 81.5674 316.434 86.1573 316.434 100.142H286.946Z" fill="white"/>
</g>
<mask id="mask4_4828_1737" style="mask-type:luminance" maskUnits="userSpaceOnUse" x="-478" y="-635" width="1967" height="1391">
<path d="M1488.36 -634.779H-477.315V755.235H1488.36V-634.779Z" fill="white"/>
</mask>
<g mask="url(#mask4_4828_1737)">
<path d="M358.074 111.633C358.074 118.617 352.526 125.238 342.851 125.238C335.471 125.337 326.374 122.266 326.374 114.423C326.374 111.65 328.19 109.734 331.36 109.734C333.457 109.734 335.95 110.593 335.95 112.987C335.95 114.704 334.612 117.676 334.612 119.211C334.612 122.365 338.344 123.719 342.851 123.9C347.639 123.9 351.371 121.506 351.371 115.959C351.371 103.79 328.19 109.932 328.19 94.2143C328.19 87.0322 334.034 81.6662 341.976 81.5837C347.92 81.4846 355.762 84.1758 355.762 90.9617C355.762 93.3558 354.227 94.9903 351.453 94.9903C349.637 94.9903 347.524 94.2308 347.524 92.2165C347.524 90.681 348.679 88.1054 348.679 86.7515C348.679 84.0768 345.427 82.921 341.976 82.921C335.851 82.921 332.301 85.893 332.301 90.4829C332.301 101.578 358.074 97.5495 358.074 111.633Z" fill="white"/>
</g>
<mask id="mask5_4828_1737" style="mask-type:luminance" maskUnits="userSpaceOnUse" x="-478" y="-635" width="1967" height="1391">
<path d="M1488.36 -634.779H-477.315V755.235H1488.36V-634.779Z" fill="white"/>
</mask>
<g mask="url(#mask5_4828_1737)">
<path d="M415.779 74.3351C422.548 67.4832 426.065 59.3435 427.6 51.2037C434.848 57.2301 439.471 65.2543 441.32 74.3186C433.792 76.7292 425.668 77.1254 415.58 74.3186M461.86 60.7634C461.612 60.4662 461.232 60.7634 461.232 60.7634C456.807 65.8157 451.491 70.0589 444.639 73.1464C442.575 62.5631 438.844 54.5389 427.996 46.3661C427.501 36.0635 424.777 28.2539 419.097 20.3123C418.75 19.8996 418.156 20.3123 418.371 20.7746C422.779 28.0558 424.876 36.2781 424.463 44.6985C414.524 40.2572 405.856 39.2005 395.305 40.7855C394.777 40.9011 394.876 41.6441 395.421 41.6276C406.054 41.0827 415.762 43.3282 424.001 48.8922C422.317 57.808 418.552 66.1459 411.387 72.9317C394.562 66.7568 385.746 52.6732 383.566 39.4482C383.401 38.9528 382.691 39.0684 382.724 39.5968C384.392 54.5884 391.871 67.7144 407.721 75.9697C400.539 81.7814 389.774 85.6779 379.34 85.5128C378.778 85.5459 378.762 86.2558 379.29 86.3549C391.293 87.4446 402.355 84.5717 412.229 77.6868C422.515 80.279 432.075 80.7578 441.849 77.5382C442.707 86.2393 441.353 94.8248 437.275 102.585C437.077 103.08 437.705 103.41 438.035 102.998C443.236 94.6928 445.25 86.2063 444.986 76.3494C453.076 71.6934 457.336 67.3842 461.843 61.3578C461.843 61.3413 462.107 61.0606 461.843 60.7799" fill="white"/>
</g>
<mask id="mask6_4828_1737" style="mask-type:luminance" maskUnits="userSpaceOnUse" x="-478" y="-635" width="1967" height="1391">
<path d="M1488.36 -634.779H-477.315V755.235H1488.36V-634.779Z" fill="white"/>
</mask>
<g mask="url(#mask6_4828_1737)">
<path d="M130.838 164.402C133.76 164.402 135.857 161.694 135.857 157.797C135.857 154.248 134.602 151.606 131.284 151.606C129.847 151.606 128.312 152.448 126.562 153.983V162.536C128.229 163.89 129.732 164.402 130.838 164.402ZM126.578 166.482V171.732H125.257V150.797H126.397L126.512 152.596H126.595C127.998 151.49 129.715 150.434 131.482 150.434C135.329 150.434 137.244 153.323 137.244 157.797C137.244 162.684 134.272 165.574 130.871 165.574C129.517 165.574 128.048 164.913 126.545 163.807V166.482H126.578Z" fill="white"/>
</g>
<mask id="mask7_4828_1737" style="mask-type:luminance" maskUnits="userSpaceOnUse" x="-478" y="-635" width="1967" height="1391">
<path d="M1488.36 -634.779H-477.315V755.235H1488.36V-634.779Z" fill="white"/>
</mask>
<g mask="url(#mask7_4828_1737)">
<path d="M147.134 164.402C150.04 164.402 152.236 161.809 152.236 158.028C152.236 154.248 150.04 151.606 147.134 151.606C144.228 151.606 142.049 154.215 142.049 158.028C142.065 161.826 144.228 164.402 147.134 164.402ZM147.134 150.434C150.618 150.434 153.623 153.191 153.623 158.028C153.623 162.866 150.618 165.574 147.134 165.574C143.65 165.574 140.678 162.817 140.678 158.028C140.678 153.24 143.683 150.434 147.134 150.434Z" fill="white"/>
</g>
<mask id="mask8_4828_1737" style="mask-type:luminance" maskUnits="userSpaceOnUse" x="-478" y="-635" width="1967" height="1391">
<path d="M1488.36 -634.779H-477.315V755.235H1488.36V-634.779Z" fill="white"/>
</mask>
<g mask="url(#mask8_4828_1737)">
<path d="M155.455 150.796H156.892L160.128 159.844C160.574 161.231 161.118 162.667 161.564 163.988H161.68C162.159 162.667 162.67 161.231 163.149 159.844L166.385 150.796H167.739L162.39 165.21H160.821L155.455 150.796Z" fill="white"/>
</g>
<mask id="mask9_4828_1737" style="mask-type:luminance" maskUnits="userSpaceOnUse" x="-478" y="-635" width="1967" height="1391">
<path d="M1488.36 -634.779H-477.315V755.235H1488.36V-634.779Z" fill="white"/>
</mask>
<g mask="url(#mask9_4828_1737)">
<path d="M180.139 157.17C180.139 153.472 178.488 151.589 175.896 151.589C173.303 151.589 171.24 153.719 170.942 157.17H180.139ZM175.879 150.434C179.297 150.434 181.41 152.861 181.41 157.104C181.41 157.467 181.41 157.83 181.344 158.177H170.959C171.025 161.809 173.155 164.418 176.391 164.418C177.959 164.418 179.181 163.906 180.271 163.13L180.816 164.154C179.677 164.847 178.389 165.574 176.275 165.574C172.577 165.574 169.605 162.751 169.605 158.028C169.605 153.323 172.66 150.434 175.879 150.434Z" fill="white"/>
</g>
<path d="M183.87 164.5L192.39 151.935H184.795V150.796H194.107V151.489L185.604 164.054H194.404V165.226H183.87V164.5Z" fill="white"/>
<mask id="mask10_4828_1737" style="mask-type:luminance" maskUnits="userSpaceOnUse" x="-478" y="-635" width="1967" height="1391">
<path d="M1488.36 -634.779H-477.315V755.235H1488.36V-634.779Z" fill="white"/>
</mask>
<g mask="url(#mask10_4828_1737)">
<path d="M197.689 150.796H199.01V159.86C199.01 162.931 199.968 164.368 202.279 164.368C203.997 164.368 205.251 163.46 206.935 161.429V150.796H208.256V165.21H207.15L207.001 162.799H206.935C205.532 164.45 204.03 165.556 202.048 165.556C199.076 165.556 197.689 163.757 197.689 160.025V150.796Z" fill="white"/>
</g>
<mask id="mask11_4828_1737" style="mask-type:luminance" maskUnits="userSpaceOnUse" x="-478" y="-635" width="1967" height="1391">
<path d="M1488.36 -634.779H-477.315V755.235H1488.36V-634.779Z" fill="white"/>
</mask>
<g mask="url(#mask11_4828_1737)">
<path d="M213.061 146.141C213.061 145.398 213.639 144.936 214.266 144.936C214.927 144.936 215.505 145.381 215.505 146.141C215.505 146.834 214.927 147.313 214.266 147.313C213.622 147.313 213.061 146.834 213.061 146.141ZM213.573 150.797H214.927V167.885C214.927 170.709 213.903 172.096 211.674 172.096C210.981 172.096 210.271 171.914 209.808 171.732L210.139 170.659C210.502 170.775 211.063 170.956 211.641 170.956C213.259 170.956 213.556 169.635 213.556 167.803V150.797H213.573Z" fill="white"/>
</g>
<mask id="mask12_4828_1737" style="mask-type:luminance" maskUnits="userSpaceOnUse" x="-478" y="-635" width="1967" height="1391">
<path d="M1488.36 -634.779H-477.315V755.235H1488.36V-634.779Z" fill="white"/>
</mask>
<g mask="url(#mask12_4828_1737)">
<path d="M229.654 157.17C229.654 153.472 228.003 151.589 225.411 151.589C222.819 151.589 220.755 153.719 220.458 157.17H229.654ZM225.394 150.434C228.812 150.434 230.925 152.861 230.925 157.104C230.925 157.467 230.925 157.83 230.859 158.177H220.474C220.54 161.809 222.67 164.418 225.906 164.418C227.475 164.418 228.697 163.906 229.786 163.13L230.331 164.154C229.192 164.847 227.904 165.574 225.791 165.574C222.092 165.574 219.12 162.751 219.12 158.028C219.12 153.306 222.175 150.434 225.394 150.434Z" fill="white"/>
</g>
<mask id="mask13_4828_1737" style="mask-type:luminance" maskUnits="userSpaceOnUse" x="-478" y="-635" width="1967" height="1391">
<path d="M1488.36 -634.779H-477.315V755.235H1488.36V-634.779Z" fill="white"/>
</mask>
<g mask="url(#mask13_4828_1737)">
<path d="M234.938 150.797H236.077L236.192 153.026H236.275C237.563 151.556 239.214 150.434 240.815 150.434C243.127 150.434 244.299 151.606 244.811 153.372C246.462 151.573 248.047 150.434 249.715 150.434C252.604 150.434 254.04 152.233 254.04 155.965V165.211H252.686V156.146C252.686 153.075 251.663 151.639 249.467 151.639C248.113 151.639 246.726 152.547 245.141 154.347V165.227H243.82V156.163C243.82 153.092 242.797 151.655 240.568 151.655C239.28 151.655 237.843 152.563 236.242 154.363V165.244H234.921V150.797H234.938Z" fill="white"/>
</g>
<mask id="mask14_4828_1737" style="mask-type:luminance" maskUnits="userSpaceOnUse" x="-478" y="-635" width="1967" height="1391">
<path d="M1488.36 -634.779H-477.315V755.235H1488.36V-634.779Z" fill="white"/>
</mask>
<g mask="url(#mask14_4828_1737)">
<path d="M264.69 164.402C267.596 164.402 269.792 161.809 269.792 158.028C269.792 154.248 267.596 151.606 264.69 151.606C261.784 151.606 259.604 154.215 259.604 158.028C259.604 161.826 261.784 164.402 264.69 164.402ZM264.69 150.434C268.173 150.434 271.178 153.191 271.178 158.028C271.178 162.866 268.173 165.574 264.69 165.574C261.206 165.574 258.234 162.817 258.234 158.028C258.234 153.24 261.239 150.434 264.69 150.434Z" fill="white"/>
</g>
<path d="M280.127 164.5L288.663 151.935H281.052V150.796H290.364V151.489L281.877 164.054H290.677V165.226H280.127V164.5Z" fill="white"/>
<mask id="mask15_4828_1737" style="mask-type:luminance" maskUnits="userSpaceOnUse" x="-478" y="-635" width="1967" height="1391">
<path d="M1488.36 -634.779H-477.315V755.235H1488.36V-634.779Z" fill="white"/>
</mask>
<g mask="url(#mask15_4828_1737)">
<path d="M294.211 150.797H295.35L295.466 153.026H295.548C297.018 151.556 298.52 150.434 300.501 150.434C303.473 150.434 304.86 152.233 304.86 155.965V165.211H303.539V156.146C303.539 153.075 302.582 151.639 300.237 151.639C298.52 151.639 297.298 152.547 295.515 154.347V165.227H294.194V150.797H294.211Z" fill="white"/>
</g>
<mask id="mask16_4828_1737" style="mask-type:luminance" maskUnits="userSpaceOnUse" x="-478" y="-635" width="1967" height="1391">
<path d="M1488.36 -634.779H-477.315V755.235H1488.36V-634.779Z" fill="white"/>
</mask>
<g mask="url(#mask16_4828_1737)">
<path d="M313.429 164.435C315.08 164.435 316.55 163.626 318.333 162.09V157.187C312.422 157.88 310.408 159.267 310.408 161.545C310.408 163.626 311.778 164.435 313.429 164.435ZM318.333 156.179C318.399 153.983 317.755 151.622 314.932 151.622C312.983 151.622 311.299 152.58 310.342 153.307L309.747 152.316C310.771 151.589 312.752 150.45 315.097 150.45C318.514 150.45 319.67 152.91 319.67 156.014V165.244H318.564L318.415 163.378H318.349C316.88 164.55 315.13 165.607 313.248 165.607C310.969 165.607 309.037 164.369 309.037 161.644C309.021 158.425 311.943 156.906 318.333 156.179Z" fill="white"/>
</g>
<mask id="mask17_4828_1737" style="mask-type:luminance" maskUnits="userSpaceOnUse" x="-478" y="-635" width="1967" height="1391">
<path d="M1488.36 -634.779H-477.315V755.235H1488.36V-634.779Z" fill="white"/>
</mask>
<g mask="url(#mask17_4828_1737)">
<path d="M324.706 150.797H325.845L325.961 153.026H326.043C327.513 151.556 329.015 150.434 330.996 150.434C333.968 150.434 335.355 152.233 335.355 155.965V165.211H334.034V156.146C334.034 153.075 333.077 151.639 330.732 151.639C329.015 151.639 327.793 152.547 326.01 154.347V165.227H324.689V150.797H324.706Z" fill="white"/>
</g>
<mask id="mask18_4828_1737" style="mask-type:luminance" maskUnits="userSpaceOnUse" x="-478" y="-635" width="1967" height="1391">
<path d="M1488.36 -634.779H-477.315V755.235H1488.36V-634.779Z" fill="white"/>
</mask>
<g mask="url(#mask18_4828_1737)">
<path d="M339.962 146.141C339.962 145.398 340.54 144.936 341.167 144.936C341.827 144.936 342.405 145.381 342.405 146.141C342.405 146.834 341.827 147.313 341.167 147.313C340.523 147.313 339.962 146.834 339.962 146.141ZM340.457 150.797H341.811V167.885C341.811 170.709 340.787 172.096 338.558 172.096C337.865 172.096 337.155 171.914 336.693 171.732L337.023 170.659C337.386 170.775 337.947 170.956 338.525 170.956C340.143 170.956 340.441 169.635 340.441 167.803V150.797H340.457Z" fill="white"/>
</g>
<mask id="mask19_4828_1737" style="mask-type:luminance" maskUnits="userSpaceOnUse" x="-478" y="-635" width="1967" height="1391">
<path d="M1488.36 -634.779H-477.315V755.235H1488.36V-634.779Z" fill="white"/>
</mask>
<g mask="url(#mask19_4828_1737)">
<path d="M356.555 157.17C356.555 153.472 354.904 151.589 352.312 151.589C349.719 151.589 347.656 153.719 347.358 157.17H356.555ZM352.279 150.434C355.696 150.434 357.81 152.861 357.81 157.104C357.81 157.467 357.81 157.83 357.744 158.177H347.358C347.424 161.809 349.554 164.418 352.79 164.418C354.359 164.418 355.581 163.906 356.67 163.13L357.215 164.154C356.076 164.847 354.788 165.574 352.675 165.574C348.976 165.574 346.005 162.751 346.005 158.028C346.005 153.323 349.076 150.434 352.279 150.434Z" fill="white"/>
</g>
</g>
<defs>
<clipPath id="clip0_4828_1737">
<rect width="388" height="191.523" fill="white" transform="translate(89 4)"/>
</clipPath>
</defs>
</svg>
