<svg width="566" height="220" viewBox="0 0 566 220" fill="none" xmlns="http://www.w3.org/2000/svg">
<path fill-rule="evenodd" clip-rule="evenodd" d="M189.856 135.149C193.139 135.357 196.503 135.52 199.899 135.62V73.1106H209.84V63H179.915V73.1106H189.856V135.149ZM239.847 134.469L241.76 125.778H230.59V63H219.816V135.62C226.741 135.42 233.53 134.996 239.847 134.469ZM261.246 85.4938L265.345 109.138H257.147L261.246 85.4938ZM253.157 132.386L255.466 119.183H267.026L268.955 130.212C271.055 129.88 272.221 129.674 272.221 129.674C272.221 129.674 274.973 129.187 279.667 128.502L265.973 63H256.519L241.761 133.602C245.849 133.218 249.678 132.802 253.157 132.386ZM296.007 124.286V92.2277L307.43 123.201C311.325 122.887 315.398 122.613 319.566 122.413V63H309.209V103.557L294.892 63H285.65V125.533C289.098 125.077 292.549 124.661 296.007 124.286ZM337.486 123.264C340.854 123.283 344.218 123.373 347.53 123.515V72.9059H357.47V63H327.546V72.9075H337.486V123.264ZM373.431 125.533V63H363.454V124.513C366.965 124.826 370.311 125.174 373.431 125.533ZM398.547 129.369C398.547 129.369 404.426 130.409 413.621 131.585C417.216 128.152 419.317 122.895 419.317 116.559V111.305H408.769V116.249C408.769 122.429 406.392 126.033 402.359 126.033C398.327 126.033 395.948 122.429 395.948 116.249V82.6716C395.948 76.4921 398.327 72.8882 402.359 72.8882C406.287 72.8882 408.771 76.4921 408.771 82.6716V86.585H419.317V82.3621C419.317 71.1362 412.388 63 402.359 63C392.226 63 385.4 70.9299 385.4 82.3621V116.559C385.4 120.878 386.375 124.695 388.134 127.775C394.607 128.673 398.547 129.369 398.547 129.369ZM164.464 85.3229L168.529 108.787H160.398L164.464 85.3229ZM147.431 129.163C147.431 129.163 150.892 129.775 156.66 130.593L158.731 118.753H170.197L172.612 132.559C176.151 132.933 179.944 133.289 183.905 133.6L169.155 63H159.774L146 128.921C146.932 129.076 147.431 129.163 147.431 129.163Z" fill="white"/>
<path fill-rule="evenodd" clip-rule="evenodd" d="M299.616 154.853C298.46 155.414 296.658 155.79 294.925 155.79C289.726 155.79 287.645 152.979 287.645 146.724C287.645 140.352 289.911 137.635 295.04 137.635C296.519 137.635 298.16 137.941 299.292 138.433L298.992 141.173C297.79 140.675 296.502 140.42 295.201 140.423C291.945 140.423 290.765 141.782 290.765 146.701C290.765 151.596 291.874 152.955 294.854 152.955C295.641 152.955 296.334 152.861 296.958 152.65V146.045H299.616V154.853ZM311.955 140.396H309.044V145.987H311.876C313.959 145.987 314.839 145.357 314.839 143.153C314.839 141.048 313.984 140.396 311.955 140.396ZM315.106 147.873L319.566 155.79H315.588L311.983 148.48H309.044V155.79H305.6V137.635H311.902C316.281 137.635 318.391 139.28 318.391 143.034C318.391 145.719 317.242 147.389 315.106 147.873ZM337.521 149.438C337.521 153.767 335.115 155.79 330.565 155.79C326.013 155.79 323.555 153.767 323.555 149.436V137.635H326.929V149.389C326.929 151.817 328.054 152.863 330.565 152.863C333.076 152.863 334.173 151.839 334.173 149.389V137.635H337.521V149.438ZM349.211 140.396H346.626V146.688H349.21C351.307 146.688 352.257 146.082 352.257 143.518C352.257 141.121 351.403 140.396 349.211 140.396ZM349.211 149.327H346.652V155.79H343.506V137.635H349.211C353.647 137.635 355.476 139.379 355.476 143.542C355.476 147.391 353.695 149.328 349.21 149.328M365.941 141.943L364.128 149.083H368.615L366.868 141.943L366.449 140.031H366.381L365.94 141.943H365.941ZM369.278 151.844H363.443L362.471 155.79H359.465L364.681 137.635H368.149L373.431 155.79H370.25L369.278 151.844Z" fill="white"/>
</svg>
