<svg width="900" height="350" viewBox="0 0 900 350" fill="none" xmlns="http://www.w3.org/2000/svg">
<g clip-path="url(#clip0_4828_1892)">
<path d="M203.33 187.474L203.359 187.402C203.757 186.415 204.508 185.614 205.462 185.157C206.417 184.7 207.506 184.62 208.516 184.933L258.504 200.214C259.051 200.381 259.56 200.658 260 201.029C260.439 201.4 260.8 201.856 261.06 202.372C261.321 202.886 261.475 203.449 261.514 204.025C261.553 204.602 261.477 205.181 261.289 205.727C260.094 209.151 258.715 212.507 257.155 215.779C256.908 216.301 256.558 216.767 256.127 217.148C255.695 217.529 255.193 217.818 254.647 217.997C254.102 218.176 253.527 218.24 252.955 218.188C252.385 218.134 251.83 217.966 251.327 217.689L205.257 192.889C204.323 192.392 203.608 191.561 203.252 190.558C202.895 189.557 202.923 188.457 203.33 187.474Z" fill="white"/>
<path d="M258.523 143.575C259.073 143.411 259.584 143.136 260.025 142.766C260.466 142.396 260.828 141.94 261.088 141.425C261.349 140.909 261.503 140.346 261.541 139.769C261.578 139.191 261.499 138.612 261.308 138.067C247.48 98.4206 210.028 70.0001 166.008 70.0001C151.817 69.9831 137.783 72.99 124.824 78.8237C111.865 84.6573 100.274 93.1864 90.8091 103.852C90.4266 104.282 90.1346 104.785 89.9508 105.332C89.767 105.879 89.6953 106.458 89.7399 107.034C89.7846 107.609 89.9447 108.17 90.2106 108.681C90.4765 109.193 90.8426 109.644 91.2868 110.009L131.562 143.511C132.381 144.191 133.422 144.538 134.482 144.483C135.541 144.429 136.542 143.977 137.289 143.217C141.983 138.436 147.777 134.901 154.155 132.928C160.532 130.955 167.295 130.605 173.84 131.909C180.384 133.214 186.506 136.132 191.661 140.404C196.815 144.676 200.841 150.168 203.38 156.391C203.781 157.378 204.532 158.179 205.487 158.638C206.442 159.097 207.532 159.18 208.544 158.873L258.523 143.575Z" fill="white"/>
<path d="M79.8005 127.307C80.1066 127.333 80.4122 127.39 80.7053 127.477L81.5475 127.827L124.98 151.218C125.946 151.743 126.694 152.612 127.077 153.655C127.364 154.438 127.434 155.282 127.283 156.092L127.05 156.889C124.508 163.636 123.728 170.93 124.783 178.069C125.707 184.315 128.012 190.264 131.511 195.475L133.088 197.661C133.766 198.537 134.105 199.639 134.038 200.752C133.987 201.587 133.712 202.385 133.249 203.064L132.721 203.699L97.8975 238.774L97.8885 238.782C97.4564 239.221 96.9417 239.566 96.3745 239.795C95.8062 240.025 95.1939 240.135 94.5827 240.117C93.9727 240.1 93.3718 239.957 92.8178 239.696C92.2627 239.436 91.7656 239.058 91.3575 238.594C78.5507 223.995 70.2092 205.954 67.3656 186.669C64.6998 168.585 66.9734 150.129 73.8966 133.283L75.339 129.932C75.5965 129.369 75.9672 128.867 76.423 128.454C76.8801 128.04 77.4192 127.728 77.9998 127.531C78.5795 127.335 79.1916 127.256 79.8005 127.307Z" fill="white" stroke="white" stroke-width="2.56645"/>
<path d="M174.618 215.876C174.401 214.827 173.805 213.897 172.945 213.265C172.086 212.635 171.024 212.35 169.968 212.465C168.641 212.598 167.292 212.666 165.932 212.666C159.253 212.676 152.678 211.009 146.798 207.814C145.872 207.3 144.789 207.154 143.761 207.406C142.734 207.657 141.838 208.289 141.249 209.175L112.233 252.982C111.915 253.462 111.696 254.001 111.589 254.569C111.483 255.137 111.491 255.72 111.613 256.284C111.736 256.848 111.97 257.382 112.301 257.852C112.633 258.323 113.056 258.721 113.544 259.023C129.335 268.714 147.469 273.829 165.953 273.805C171.09 273.806 176.22 273.415 181.3 272.636C181.866 272.548 182.409 272.344 182.896 272.038C183.383 271.732 183.803 271.329 184.131 270.855C184.46 270.38 184.689 269.844 184.805 269.277C184.923 268.711 184.925 268.126 184.812 267.558L174.618 215.876Z" fill="white"/>
<path d="M208.747 264.233C221.074 258.412 232.113 250.147 241.207 239.932C241.59 239.499 241.882 238.994 242.067 238.445C242.25 237.897 242.323 237.316 242.279 236.738C242.234 236.161 242.075 235.599 241.809 235.085C241.544 234.571 241.178 234.117 240.734 233.749L200.374 200.336C199.557 199.661 198.519 199.316 197.463 199.371C196.407 199.425 195.409 199.875 194.664 200.631C191.804 203.532 188.527 205.984 184.943 207.904C184.008 208.4 183.291 209.232 182.933 210.235C182.576 211.237 182.604 212.339 183.011 213.323L202.999 261.999C203.221 262.535 203.547 263.02 203.96 263.426C204.373 263.831 204.863 264.147 205.399 264.356C205.937 264.564 206.51 264.662 207.086 264.641C207.661 264.619 208.226 264.481 208.747 264.233Z" fill="white"/>
<path d="M783.844 138.729C819.387 138.729 828.353 145.454 828.353 172.032V236.714H797.933V223.586C794.731 233.832 786.405 238.476 771.195 238.635C741.416 239.596 734.051 233.672 734.051 209.016C734.051 185.64 741.416 179.717 770.715 179.717L797.933 179.556V174.112C797.933 162.425 796.492 161.144 783.523 161.144C768.954 161.144 767.353 162.425 767.673 173.633H737.252V170.27C737.252 144.974 746.539 138.729 783.844 138.729ZM766.071 209.336C766.071 216.38 767.833 217.181 783.523 216.861C793.61 216.701 797.933 213.499 797.933 206.134V201.971L783.523 202.131C767.833 202.131 766.071 202.772 766.071 209.336Z" fill="white"/>
<path d="M721.193 108.628V236.713H691.573V216.699C688.851 231.909 679.086 238.634 660.353 238.634C630.414 238.634 622.888 228.708 622.888 188.681C622.888 148.654 630.093 138.728 658.752 138.728C677.004 138.728 687.251 143.211 690.773 153.618V108.628H721.193ZM654.91 188.681C654.91 210.615 656.67 213.017 673.161 213.017C684.208 213.017 690.773 209.975 690.773 202.77V182.597C690.773 169.788 685.009 164.344 671.4 164.344C656.511 164.344 654.91 166.746 654.91 188.681Z" fill="white"/>
<path d="M613.318 209.495V236.713H595.867C575.213 236.713 570.09 231.429 570.25 210.455V108.628H600.669V201.329C600.669 208.694 601.951 209.495 613.318 209.495Z" fill="white"/>
<path d="M511.314 138.729C546.857 138.729 555.824 145.454 555.824 172.032V236.714H525.403V223.586C522.201 233.832 513.876 238.476 498.666 238.635C468.886 239.596 461.521 233.672 461.521 209.016C461.521 185.64 468.886 179.717 498.185 179.717L525.403 179.556V174.112C525.403 162.425 523.962 161.144 510.994 161.144C496.425 161.144 494.823 162.425 495.143 173.633H464.723V170.27C464.723 144.974 474.009 138.729 511.314 138.729ZM493.542 209.336C493.542 216.38 495.304 217.181 510.994 216.861C521.08 216.701 525.403 213.499 525.403 206.134V201.971L510.994 202.131C495.304 202.131 493.542 202.772 493.542 209.336Z" fill="white"/>
<path d="M451.841 183.727C452.161 227.596 439.513 238.643 388.439 238.643C337.366 238.643 324.558 225.834 324.558 174.281C324.558 122.726 337.366 109.918 388.439 109.918C439.513 109.918 452.161 120.805 451.841 164.514H416.618C416.938 139.858 414.056 137.136 388.439 137.136C362.662 137.136 359.781 140.818 359.781 174.281C359.781 207.743 362.662 211.425 388.439 211.425C414.056 211.425 416.938 208.703 416.618 183.727H451.841Z" fill="white"/>
</g>
<defs>
<clipPath id="clip0_4828_1892">
<rect width="770.609" height="211" fill="white" transform="translate(65 70)"/>
</clipPath>
</defs>
</svg>
