<svg width="900" height="350" viewBox="0 0 900 350" fill="none" xmlns="http://www.w3.org/2000/svg">
<g clip-path="url(#clip0_4565_4240)">
<path d="M270.105 174.839C270.105 140.464 291.065 114.468 325.44 114.468C350.589 114.468 370.713 129.232 372.384 153.033H355.67C353.987 138.781 342.299 129.566 326.32 129.566H324.649C300.336 129.566 286.92 149.679 286.92 174.839C286.92 199.999 300.291 220.111 324.604 220.111H326.276C342.21 220.111 353.943 210.885 355.625 196.634H372.339C370.668 220.446 350.544 235.198 325.395 235.198C291.065 235.198 270.105 209.203 270.105 174.839Z" fill="white"/>
<path d="M381.512 191.431C381.512 162.46 400.789 147.975 420.578 147.975C442.373 147.975 456.123 163.062 456.123 184.857V194.083H397.435C398.437 213.204 410.683 221.75 420.912 221.75H422.249C430.473 221.75 438.35 217.561 440.078 208.669H456.012C452.992 225.606 438.406 235.166 421.135 235.166C400.287 235.199 381.512 220.781 381.512 191.431ZM440.189 181.547C439.52 166.951 430.807 161.424 421.246 161.424H419.909C411.185 161.424 401.457 166.616 398.437 181.547H440.189Z" fill="white"/>
<path d="M470.785 122.836H486.719V233.483H470.785V122.836Z" fill="white"/>
<path d="M513.863 215.075V163.429H495.422V149.679H513.863V122.836H529.797V149.679H553.197V163.429H529.797V212.557C529.797 217.593 529.864 219.242 529.864 219.242H553.263V233.483H532.338C520.571 233.483 513.863 226.797 513.863 215.075Z" fill="white"/>
<path d="M565.43 149.679H580.517V168.132C583.86 155.552 593.888 148.844 604.83 148.844H609.031V164.276H605.688C590.601 164.276 581.375 174.305 581.375 191.097V233.483H565.43V149.679Z" fill="white"/>
<path d="M669.393 233.483L668.557 220.112C665.215 227.656 655.186 235.199 641.726 235.199C625.803 235.199 614.059 224.636 614.059 210.384C614.059 191.264 630.995 185.57 644.578 184.389L667.722 182.55V179.865C667.722 168.131 661.036 161.424 650.283 161.424H648.946C640.222 161.424 632.678 165.613 631.664 173.992H615.775C616.777 158.571 630.695 148.008 649.648 148.008C671.934 148.008 683.689 162.761 683.689 179.865V233.483H669.393ZM667.755 203.398V194.84L646.796 196.523C637.068 197.359 630.026 202.094 630.026 209.772C630.026 216.647 635.731 221.839 643.609 221.839H644.946C655.175 221.783 667.755 213.426 667.755 203.398Z" fill="white"/>
<path d="M684 272.115H217V287.158H684V272.115Z" fill="white"/>
<path d="M683.999 63H270.551V78.0426H683.999V63Z" fill="white"/>
<path d="M232.043 63H217V233.516H232.043V63Z" fill="white"/>
</g>
<defs>
<clipPath id="clip0_4565_4240">
<rect width="467" height="224.157" fill="white" transform="translate(217 63)"/>
</clipPath>
</defs>
</svg>
