<svg width="498" height="239" viewBox="0 0 498 239" fill="none" xmlns="http://www.w3.org/2000/svg">
<g clip-path="url(#clip0_4552_1547)">
<path d="M56.6211 119.245C56.6211 82.5932 78.9683 54.876 115.62 54.876C142.434 54.876 163.89 70.6176 165.672 95.9944H147.851C146.057 80.7992 133.595 70.9741 116.558 70.9741H114.776C88.8529 70.9741 74.5488 92.4184 74.5488 119.245C74.5488 146.071 88.8054 167.515 114.729 167.515H116.511C133.5 167.515 146.01 157.678 147.804 142.483H165.625C163.843 167.871 142.386 183.601 115.572 183.601C78.9683 183.601 56.6211 155.884 56.6211 119.245Z" fill="white"/>
<path d="M175.406 136.935C175.406 106.045 195.96 90.6006 217.059 90.6006C240.298 90.6006 254.958 106.687 254.958 129.925V139.762H192.383C193.453 160.149 206.509 169.261 217.416 169.261H218.841C227.609 169.261 236.009 164.794 237.85 155.314H254.839C251.62 173.372 236.068 183.565 217.653 183.565C195.425 183.601 175.406 168.228 175.406 136.935ZM237.969 126.397C237.256 110.833 227.966 104.94 217.772 104.94H216.346C207.044 104.94 196.672 110.477 193.453 126.397H237.969Z" fill="white"/>
<path d="M270.59 63.7979H287.579V181.771H270.59V63.7979Z" fill="white"/>
<path d="M316.522 162.145V107.079H296.859V92.418H316.522V63.7979H333.511V92.418H358.46V107.079H333.511V159.46C333.511 164.83 333.582 166.588 333.582 166.588H358.531V181.771H336.219C323.674 181.771 316.522 174.643 316.522 162.145Z" fill="white"/>
<path d="M371.504 92.4184H387.59V112.092C391.154 98.6794 401.847 91.5273 413.513 91.5273H417.992V107.982H414.428C398.342 107.982 388.505 118.674 388.505 136.578V181.772H371.504V92.4184Z" fill="white"/>
<path d="M482.35 181.772L481.459 167.515C477.895 175.559 467.203 183.602 452.851 183.602C435.874 183.602 423.352 172.339 423.352 157.144C423.352 136.757 441.41 130.686 455.892 129.427L480.568 127.466V124.603C480.568 112.093 473.44 104.941 461.975 104.941H460.549C451.247 104.941 443.204 109.408 442.123 118.342H425.181C426.25 101.899 441.089 90.6367 461.298 90.6367C485.059 90.6367 497.593 106.366 497.593 124.603V181.772H482.35ZM480.604 149.695V140.57L458.256 142.364C447.885 143.255 440.376 148.305 440.376 156.49C440.376 163.821 446.459 169.357 454.859 169.357H456.284C467.191 169.298 480.604 160.387 480.604 149.695Z" fill="white"/>
<path d="M497.924 222.962H0V239.001H497.924V222.962Z" fill="white"/>
<path d="M497.924 0H57.0977V16.0387H497.924V0Z" fill="white"/>
<path d="M16.0387 0H0V181.807H16.0387V0Z" fill="white"/>
</g>
<defs>
<clipPath id="clip0_4552_1547">
<rect width="497.924" height="239" fill="white"/>
</clipPath>
</defs>
</svg>
