<svg width="566" height="220" viewBox="0 0 566 220" fill="none" xmlns="http://www.w3.org/2000/svg">
<path d="M379.639 151.349C367.657 151.349 359.312 141.954 359.312 129.784C359.312 117.614 367.229 108.005 379.639 108.005C392.049 108.005 399.965 117.614 399.965 129.784C399.965 141.954 391.835 151.349 379.639 151.349ZM379.639 89.2161C357.386 89.2161 339.199 107.365 339.199 129.57C339.199 151.776 357.386 169.925 379.639 169.925C401.891 169.925 420.078 151.776 420.078 129.57C420.292 107.365 402.105 89.2161 379.639 89.2161Z" fill="white"/>
<path d="M505.022 151.349C493.04 151.349 484.696 141.954 484.696 129.784C484.696 117.614 492.612 108.005 505.022 108.005C517.432 108.005 525.349 117.614 525.349 129.784C525.349 141.954 517.218 151.349 505.022 151.349ZM505.236 89.2161C482.984 89.2161 464.797 107.365 464.797 129.57C464.797 151.776 482.984 169.925 505.236 169.925C527.489 169.925 545.676 151.776 545.676 129.57C545.676 107.365 527.489 89.2161 505.236 89.2161Z" fill="white"/>
<path d="M288.49 151.349C276.508 151.349 268.164 141.954 268.164 129.57C268.164 117.187 276.08 107.792 288.49 107.792C300.686 107.792 308.817 117.4 308.817 129.57C308.603 141.954 300.472 151.349 288.49 151.349ZM288.49 89.2161C264.312 89.2161 248.051 105.443 248.051 133.627V210.492H268.164V160.957C273.299 167.149 281.857 170.138 288.49 170.138C310.743 170.138 328.93 151.989 328.93 129.784C328.93 107.365 310.743 89.2161 288.49 89.2161Z" fill="white"/>
<path d="M452.604 50.9968H432.277V168.003H452.604V50.9968Z" fill="white"/>
<path d="M153.266 89.4295C142.782 90.2835 135.935 95.6214 132.725 102.667V50.9968H112.398V168.003H132.725V129.57C132.725 117.4 137.004 107.792 153.052 107.792C169.099 107.792 173.165 117.4 173.165 129.57V168.003H193.491V129.57C193.277 101.386 175.518 87.7214 153.266 89.4295Z" fill="white"/>
<path d="M230.722 91.3513H210.609V168.003H230.722V91.3513Z" fill="white"/>
<path d="M375.792 24.7347C375.792 33.7023 368.517 40.9618 359.531 40.9618C350.544 40.9618 343.27 33.7023 343.27 24.7347C343.27 15.7671 350.544 8.50757 359.531 8.50757C368.517 8.50757 375.792 15.7671 375.792 24.7347Z" fill="white"/>
<path d="M59.7637 150.708C47.5677 150.708 39.437 140.887 39.437 129.784C39.437 118.681 47.7816 108.86 59.7637 108.86C67.6804 108.86 74.9552 113.984 77.7368 120.603H99.1333C95.068 102.668 79.0206 89.4297 59.7637 89.4297C37.5113 89.4297 19.3242 107.578 19.3242 129.784C19.3242 151.99 37.5113 170.138 59.7637 170.138C79.0206 170.138 95.068 156.687 99.1333 138.752H77.7368C74.9552 145.584 67.6804 150.708 59.7637 150.708Z" fill="white"/>
</svg>
