<svg width="566" height="220" viewBox="0 0 566 220" fill="none" xmlns="http://www.w3.org/2000/svg">
<path d="M502.284 126.927C502.239 126.146 502.114 125.374 501.898 124.62C501.198 122.161 499.834 120.159 497.724 118.696C495.642 117.251 493.308 116.667 490.786 116.802C489.987 116.847 489.197 116.973 488.434 117.188C486.19 117.825 484.332 119.055 482.896 120.904C481.576 122.61 480.867 124.557 480.679 126.703C480.616 127.439 480.616 128.175 480.688 128.911C480.759 129.656 480.894 130.383 481.109 131.101C481.747 133.219 482.905 134.988 484.637 136.379C486.468 137.842 488.569 138.596 490.902 138.713C492.033 138.775 493.146 138.677 494.242 138.389C497.033 137.662 499.205 136.092 500.713 133.632C501.817 131.837 502.302 129.853 502.32 127.618C502.311 127.484 502.302 127.205 502.284 126.927ZM499.151 132.546C497.904 134.826 496.001 136.262 493.47 136.837C492.635 137.025 491.773 137.079 490.92 137.025C489.296 136.935 487.806 136.451 486.468 135.526C484.888 134.44 483.829 132.959 483.192 131.155C482.932 130.419 482.77 129.665 482.698 128.884C482.635 128.238 482.617 127.582 482.671 126.936C482.797 125.32 483.246 123.803 484.134 122.439C485.436 120.437 487.267 119.19 489.601 118.696C490.445 118.516 491.297 118.472 492.168 118.534C493.631 118.633 494.995 119.055 496.234 119.845C497.922 120.913 499.062 122.421 499.735 124.288C499.995 125.015 500.175 125.76 500.247 126.532C500.282 126.945 500.309 127.358 500.336 127.771C500.309 129.449 499.968 131.056 499.151 132.546Z" fill="white"/>
<path d="M496.827 133.156C496.791 133.13 496.764 133.085 496.746 133.04C496.701 132.905 496.656 132.77 496.638 132.627C496.584 132.142 496.548 131.657 496.503 131.164C496.468 130.706 496.405 130.257 496.288 129.817C496.153 129.351 495.965 128.92 495.588 128.597C495.337 128.372 495.04 128.229 494.717 128.13C494.654 128.112 494.636 128.085 494.663 128.031C494.672 128.013 494.708 128.004 494.735 127.995C495.292 127.789 495.776 127.475 496.126 126.99C496.647 126.263 496.746 125.446 496.584 124.593C496.423 123.723 495.938 123.067 495.202 122.592C494.403 122.071 493.505 121.856 492.554 121.856C490.687 121.847 488.82 121.856 486.944 121.856C486.908 121.856 486.881 121.856 486.845 121.856C486.845 125.733 486.845 129.602 486.845 133.462C487.886 133.462 488.928 133.462 489.978 133.462C489.978 132.061 489.978 130.661 489.978 129.252C490.023 129.252 490.059 129.252 490.086 129.252C490.561 129.252 491.037 129.252 491.504 129.252C491.674 129.252 491.854 129.261 492.024 129.288C492.689 129.378 493.128 129.781 493.263 130.437C493.326 130.769 493.353 131.119 493.398 131.451C493.452 131.918 493.497 132.376 493.568 132.842C493.595 133.013 493.658 133.174 493.721 133.336C493.757 133.426 493.82 133.462 493.927 133.462C494.888 133.453 495.839 133.462 496.8 133.462C496.836 133.462 496.871 133.462 496.916 133.462C496.925 133.345 496.943 133.228 496.827 133.156ZM493.488 126.146C493.353 126.568 493.03 126.801 492.617 126.9C492.428 126.945 492.231 126.972 492.042 126.972C491.378 126.981 490.714 126.972 490.05 126.972C490.032 126.972 490.014 126.972 489.987 126.972C489.987 126.092 489.987 125.231 489.987 124.36C490.023 124.36 490.05 124.36 490.086 124.36C490.705 124.36 491.333 124.36 491.953 124.36C492.258 124.36 492.554 124.387 492.841 124.503C493.299 124.683 493.514 125.024 493.559 125.5C493.568 125.715 493.559 125.931 493.488 126.146Z" fill="white"/>
<path d="M64 80H86.8531C102.498 80 112.57 92.6114 112.57 109.899C112.57 119.396 109.374 127.753 103.234 132.914C98.89 136.513 93.2441 138.569 85.8747 138.569H64V80ZM85.0489 128.318C96.1882 128.318 100.533 121.523 100.533 109.89C100.533 98.2574 95.4522 90.1519 85.381 90.1519H75.8754V128.318H85.0489Z" fill="white"/>
<path d="M119.041 80H162.127V89.9904H130.917V103.095H158.276V112.843H130.917V128.65H162.369V138.56H119.041V80Z" fill="white"/>
<path d="M169.738 80H181.614V128.65H209.134V138.56H169.738V80Z" fill="white"/>
<path d="M204.305 80H251.403V89.9904H233.792V138.56H221.916V89.9904H204.305V80Z" fill="white"/>
<path d="M266.141 80H278.43L299.075 138.56H286.706L282.774 126.11H261.644L257.794 138.56H245.757L266.141 80ZM264.418 117.017H279.902L274.66 100.142C273.681 97.0276 272.281 91.1303 272.281 91.1303H272.119C272.119 91.1303 270.647 97.0276 269.66 100.142L264.418 117.017Z" fill="white"/>
<path d="M302.997 80H320.115V101.462H338.139V80H355.256V138.56H338.139V115.626H320.115V138.56H302.997V80Z" fill="white"/>
<path d="M361.889 116.201V80H379.007V117.179C379.007 122.583 381.96 125.94 388.261 125.94C394.077 125.94 397.022 122.17 397.022 116.847V80H414.139V116.201C414.139 130.616 405.54 139.628 388.01 139.628C370.407 139.619 361.889 130.858 361.889 116.201Z" fill="white"/>
<path d="M420.772 80H451.076C456.811 80 461.066 81.3913 464.181 83.77C467.699 86.4718 469.746 90.4841 469.746 95.3222C469.746 100.896 467.367 104.415 462.457 106.542V106.785C468.848 108.831 472.528 114.235 472.528 120.868C472.528 127.178 469.988 131.927 465.814 134.871C462.296 137.33 457.709 138.56 451.641 138.56H420.763V80H420.772ZM448.212 102.763C451.488 102.763 453.697 101.21 453.697 98.0958C453.697 95.0619 451.399 93.2666 448.122 93.2666H437.558V102.763H448.212ZM449.765 125.123C453.454 125.123 455.985 122.915 455.985 119.387C455.985 115.617 453.203 113.732 449.675 113.732H437.558V125.114H449.765V125.123Z" fill="white"/>
</svg>
