<svg width="566" height="220" viewBox="0 0 566 220" fill="none" xmlns="http://www.w3.org/2000/svg">
<g clip-path="url(#clip0_4828_1770)">
<path fill-rule="evenodd" clip-rule="evenodd" d="M291.369 192.669C291.369 192.953 291.582 193.166 291.819 193.166C292.056 193.166 292.411 192.953 292.577 192.669C292.743 192.408 292.53 192.171 292.104 192.171C291.677 192.171 291.345 192.384 291.345 192.669M299.967 190.726C299.517 191.461 299.943 191.769 300.891 191.39C301.341 191.224 301.577 190.892 301.411 190.632C301.033 190.039 300.346 190.087 299.943 190.726M307.948 188.05C307.498 188.501 308.043 189.211 308.872 189.211C309.275 189.211 309.583 188.879 309.583 188.476C309.583 187.742 308.541 187.458 307.948 188.05ZM316.569 184.166C315.883 184.403 315.741 185.587 316.357 185.966C316.569 186.108 317.044 186.037 317.398 185.8C318.204 185.303 317.47 183.858 316.569 184.166ZM323.343 180.495C323.343 180.826 323.509 181.371 323.723 181.703C324.268 182.531 325.523 181.631 325.144 180.66C324.788 179.737 323.343 179.595 323.343 180.495ZM330.378 175.26C329.975 176.326 331.491 177.818 332.225 177.084C332.628 176.681 332.605 176.255 332.225 175.497C331.562 174.265 330.804 174.147 330.402 175.237M276.116 169.884C276.116 170.097 275.571 175.26 274.884 181.347C274.221 187.434 273.677 192.574 273.677 192.787C273.677 193 274.103 193.142 274.648 193.142C275.192 193.142 275.619 192.976 275.619 192.764C275.619 192.55 276.045 188.192 276.566 183.052C277.963 169.292 277.963 169.813 276.969 169.623C276.495 169.529 276.116 169.623 276.092 169.86M336.607 169.718C336.607 170.855 338.312 172.087 338.976 171.423C339.402 170.974 339.354 170.641 338.739 169.955C337.791 168.912 336.607 168.77 336.607 169.718ZM269.247 171.897C268.94 173.46 267.921 178.221 266.997 182.508C266.074 186.771 265.316 190.608 265.316 191.034C265.316 192.384 266.997 191.508 267.329 189.992C267.495 189.187 268.466 184.639 269.461 179.926C270.455 175.19 271.403 170.831 271.545 170.215C271.758 169.339 271.616 169.103 270.811 169.103C270.005 169.103 269.697 169.6 269.247 171.921M263.587 168.202C259.3 179.595 256.529 189.708 257.666 189.708C258.234 189.708 265.339 170.049 265.339 168.486C265.339 167.847 263.824 167.61 263.61 168.202M253.118 175.758C248.808 185.421 248.381 186.771 249.731 186.771C250.513 186.771 259.11 167.349 258.755 166.403C258.163 164.863 257.547 165.905 253.118 175.782M246.51 172.134C240.873 181.869 240.613 182.437 241.726 182.698C242.649 182.91 253.237 164.934 252.834 163.868C252.289 162.447 251.602 163.37 246.51 172.157M342.338 162.991C341.746 163.584 341.984 164.104 343.263 164.934C344.968 166.047 346.058 165.124 344.731 163.655C343.807 162.636 342.931 162.399 342.338 162.991ZM239.831 168.581C234.431 176.066 233.176 178.434 234.691 178.387C235.165 178.387 247.007 162.091 247.221 161.168C247.813 158.492 245.278 161.05 239.831 168.581ZM233.862 163.915C227.515 170.855 226.094 173.01 227.823 173.01C228.036 173.01 230.641 170.31 233.626 166.995C236.586 163.678 239.736 160.174 240.613 159.179C241.939 157.71 242.081 157.283 241.536 156.834C240.992 156.384 239.452 157.805 233.862 163.915ZM347.146 156.336C346.792 156.929 348.71 158.704 349.752 158.728C350.913 158.728 350.936 157.71 349.823 156.762C348.52 155.673 347.668 155.531 347.17 156.336M228.225 158.776C221.925 164.437 220.623 165.834 221.096 166.403C221.594 166.995 221.973 166.852 223.465 165.502C224.46 164.626 227.846 161.595 231.02 158.752C236.491 153.896 237.391 152.76 236.349 152.121C236.112 151.978 232.441 154.963 228.225 158.776ZM351.694 148.734C351.055 149.373 351.386 149.894 352.926 150.842C354.512 151.813 355.294 151.765 355.294 150.7C355.294 149.728 352.31 148.094 351.694 148.734ZM230.689 147.36C230.547 147.597 226.97 150.273 222.778 153.328C215.791 158.397 214.559 159.581 215.957 160.055C216.312 160.174 230.262 150.391 232.252 148.662C232.323 148.591 232.252 148.189 232.086 147.739C231.754 146.863 231.115 146.673 230.689 147.36ZM218.538 146.815C211.243 151.078 209.159 152.831 211.362 152.831C212.357 152.831 228.439 143.262 228.273 142.765C227.894 141.604 226.307 142.267 218.538 146.815ZM355.081 140.918C354.394 141.604 354.939 142.386 356.55 143.167C358.326 144.02 359.226 143.902 359.226 142.859C359.226 142.22 355.531 140.491 355.081 140.918ZM214.82 139.97C210.154 142.055 206.341 143.854 206.341 143.996C206.293 145.607 207.478 145.347 214.465 142.244C218.491 140.443 222.517 138.691 223.394 138.312C224.507 137.838 224.91 137.412 224.696 136.891C224.27 135.777 224.104 135.825 214.82 139.97ZM357.545 133.054C356.858 133.741 357.379 134.594 358.8 135.09C360.907 135.826 362.163 135.777 362.163 134.948C362.163 134.238 358.042 132.557 357.521 133.054M212.215 132.675C206.293 134.641 203.57 135.777 203.451 136.322C203.191 137.554 204.375 137.317 213.399 134.356C222.967 131.207 222.138 131.586 221.759 130.543C221.381 129.548 222.352 129.312 212.215 132.675ZM358.989 125.309C358.444 126.186 359.226 126.659 361.736 127.038C364.058 127.37 365.74 126.186 363.75 125.617C361.333 124.907 359.32 124.788 358.989 125.309ZM209.822 125.309C200.822 127.298 200.396 127.44 201.272 128.341C201.698 128.767 203.238 128.625 207.383 127.796C218.538 125.593 219.58 125.285 219.58 124.267C219.58 123.107 220.054 123.059 209.822 125.309ZM206.838 117.872C200.23 118.63 198.406 119.222 199.922 120.146C200.419 120.454 214.346 119.222 216.999 118.654C217.615 118.535 218.112 118.085 218.112 117.683C218.112 116.759 216.383 116.806 206.838 117.872ZM359.723 117.304C359.723 118.085 360.15 118.346 361.997 118.606C365.337 119.056 365.621 119.009 365.621 117.943C365.621 117.256 365.289 116.972 364.508 116.948C363.892 116.948 362.565 116.806 361.571 116.64C359.96 116.38 359.723 116.451 359.723 117.327M199.022 110.909C199.306 112.353 217.117 112.472 217.117 111.051C217.117 110.08 216.833 110.056 207.999 110.056C199.164 110.056 198.88 110.127 199.022 110.909ZM360.079 108.398C358.942 109.535 359.865 110.056 362.968 110.056C365.787 110.056 366.19 109.938 366.047 109.203C365.882 108.303 360.86 107.64 360.103 108.398M199.425 102.193C199.425 102.88 199.756 103.187 200.538 103.187C201.154 103.187 205.038 103.614 209.183 104.088C215.483 104.822 216.786 104.845 216.975 104.277C217.401 103.187 217.023 103.093 208.662 102.122C198.809 100.985 199.425 100.985 199.425 102.169M360.339 100.085C359.131 100.227 358.729 100.535 358.729 101.269C358.729 102.287 364.176 102.216 365.289 101.198C366.592 100.014 364.578 99.5638 360.315 100.085M200.727 93.5715C200.396 94.4241 200.183 94.3531 209.159 96.2715C217.473 98.0479 217.615 98.0715 217.615 96.7926C217.615 96.1531 217.283 95.7979 216.667 95.7979C216.146 95.7979 212.783 95.1347 209.183 94.3294C201.698 92.6477 201.106 92.6004 200.727 93.5715ZM359.486 91.9372C357.212 92.4583 356.668 92.8846 357.165 93.6899C357.521 94.2583 358.207 94.1873 363.039 93.074C363.655 92.9319 364.152 92.5056 364.152 92.0793C364.152 91.2504 362.565 91.203 359.486 91.9136M202.954 85.2581C203.096 85.945 216.691 90.8714 218.515 90.8714C221.38 90.8714 218.112 88.9766 211.717 86.8687C203.949 84.3108 202.717 84.0739 202.954 85.2581ZM357.047 83.9791C354.607 84.8081 353.683 85.7791 354.892 86.2055C356.052 86.6319 361.429 84.7371 361.594 83.837C361.808 82.7949 360.363 82.8186 357.047 83.9555M206.009 76.85C205.63 77.8448 204.801 77.3711 213.351 81.1844C219.249 83.8133 220.694 84.287 220.907 83.6949C221.309 82.6765 216.359 80.0475 206.933 76.2816C206.601 76.1395 206.175 76.4 206.009 76.85ZM354.252 76.2816C351.41 77.6553 350.226 79.0764 351.907 79.0764C353.447 79.0764 358.705 76.1158 358.444 75.4289C358.065 74.4579 358.113 74.4342 354.252 76.2816ZM210.083 68.584C209.893 68.7735 209.751 69.1762 209.751 69.4841C209.751 70.2419 222.873 77.75 223.512 77.3711C224.767 76.5894 224.27 76.2342 212.665 69.5551C211.433 68.8445 210.272 68.4182 210.083 68.584ZM350.013 69.0814C346.957 70.8104 346.365 71.5209 347.573 71.9946C348.425 72.3262 354.868 68.7261 354.655 68.0629C354.323 67.0919 353.068 67.3524 350.013 69.0814ZM214.394 61.9049C214.204 62.1891 214.488 62.7339 214.986 63.0892C215.483 63.4681 218.325 65.5287 221.309 67.684C226.496 71.4736 227.468 71.8999 227.468 70.5025C227.468 69.8394 216.123 61.3839 215.222 61.3839C214.962 61.3839 214.583 61.6207 214.417 61.9049M345.276 62.4023C342.646 64.3918 342.078 65.055 342.529 65.5761C343.144 66.334 350.084 61.6917 349.752 60.7443C349.397 59.6549 348.473 59.9865 345.276 62.4023ZM219.77 55.0837C219.557 55.4153 220.125 56.2679 221.167 57.168C222.138 57.9969 224.696 60.2944 226.852 62.2365C231.826 66.784 233.791 66.405 229.031 61.8102C221.57 54.6574 220.504 53.8757 219.77 55.06M340.16 55.889C337.176 58.589 336.393 59.8917 337.768 59.8917C339.142 59.8917 344.66 54.2784 343.926 53.6626C343.381 53.2126 342.599 53.6626 340.16 55.889ZM226.118 48.6415C225.644 49.1388 226.165 49.9677 228.581 52.6678C230.262 54.5389 232.418 56.9785 233.389 58.0917C235.852 60.9101 237.699 60.4365 235.378 57.5943C231.02 52.2178 226.71 48.0493 226.118 48.6651M333.978 50.3467C331.443 53.1889 330.497 55.5337 332.13 54.9179C333.006 54.5864 338.123 48.4994 337.957 47.9783C337.555 46.794 336.726 47.2914 333.978 50.3467ZM232.607 43.1939C232.228 43.7861 232.205 43.7623 236.705 49.9441C240.044 54.5864 241.702 56.0311 241.702 54.3258C241.702 53.5205 233.886 42.6966 233.318 42.6966C233.104 42.6966 232.773 42.9097 232.607 43.1939ZM327.346 45.4203C325.002 48.6888 324.362 50.6309 325.665 50.5363C326.423 50.4888 331.301 43.1466 331.017 42.4361C330.544 41.2044 330.07 41.607 327.346 45.4203ZM240.352 38.1491C239.097 38.5754 245.421 50.5599 246.913 50.5599C248.073 50.5599 247.742 49.6362 244.805 44.4493C241.205 38.078 241.086 37.8885 240.352 38.1491ZM320.217 41.2991C318.109 44.9229 317.589 47.0071 318.915 46.5572C319.602 46.3203 324.291 38.1491 324.007 37.6753C323.367 36.657 322.372 37.628 320.217 41.2991ZM247.718 34.2648C247.15 34.62 251.602 45.8703 252.763 47.0071C254.326 48.5704 253.971 45.6098 252.076 41.3466C250.915 38.6938 249.708 35.9464 249.423 35.1885C248.855 33.72 248.689 33.649 247.718 34.2648ZM312.685 37.9833C310.696 42.5071 310.601 43.1939 311.786 43.1939C312.496 43.1939 316.569 34.4542 316.167 33.8148C315.432 32.6305 314.533 33.72 312.662 38.007M255.487 31.7068C255.487 33.9806 259.158 43.6913 260.01 43.6913C261.147 43.6913 261.171 43.9282 258.968 37.0596C257.216 31.5884 255.487 28.9357 255.487 31.7068ZM306.598 30.5226C306.598 30.5226 305.841 32.8674 304.94 35.5675C303.401 40.186 303.354 41.1807 304.704 41.2045C305.082 41.2045 308.09 32.2753 308.09 31.1621C308.09 30.5699 306.669 29.9541 306.598 30.5226ZM264.06 28.9594C263.374 30.0963 265.932 41.2281 266.879 41.2281C268.063 41.2281 267.921 40.0912 265.529 29.5515C265.268 28.3673 264.582 28.1067 264.037 28.9831M298.024 29.0778C295.845 38.5991 295.798 38.9544 296.414 39.3333C297.432 39.9728 299.682 33.2463 299.729 29.362C299.729 28.0594 298.308 27.8225 298.024 29.0778ZM288.906 32.6305C288.29 38.4333 288.337 39.0728 289.545 38.6227C289.995 38.457 290.351 37.178 290.564 34.999C290.753 33.1516 291.037 30.5936 291.18 29.3147C291.44 27.2067 291.369 26.9699 290.493 26.9699C289.616 26.9699 289.451 27.4909 288.882 32.6542M272.469 27.4436C271.687 28.6988 273.298 39.7597 274.245 39.7597C275.311 39.7597 275.334 39.3096 274.506 32.1805C273.984 27.6567 273.298 26.0935 272.469 27.4436ZM280.782 27.112C280.071 28.9357 280.829 38.5044 281.682 38.6702C282.464 38.8123 282.535 38.2675 282.535 32.6542C282.535 26.7093 281.8 24.4356 280.782 27.112Z" fill="white"/>
<path d="M248.548 86.0867V92.4579H258.495V96.3659H248.548V106.313H244.403V82.1787H259.916V86.0867H248.548Z" fill="white"/>
<path d="M265.103 95.7501H275.5C274.908 93.2394 272.848 91.5815 270.29 91.5815C267.732 91.5815 265.742 93.2631 265.103 95.7501ZM279.574 98.9711H265.126C265.766 101.529 267.945 103.211 270.858 103.211C273.203 103.211 275.193 102.098 276.211 100.748L278.864 103.021C277.04 105.295 274.103 106.74 270.74 106.74C265.079 106.74 260.887 102.69 260.887 97.3369C260.887 91.9842 264.937 88.0762 270.29 88.0762C275.643 88.0762 279.669 92.0552 279.669 97.4553C279.669 97.9527 279.645 98.4975 279.574 98.9949" fill="white"/>
<path d="M285.874 95.7501H296.272C295.68 93.2394 293.619 91.5815 291.061 91.5815C288.503 91.5815 286.514 93.2631 285.874 95.7501ZM300.346 98.9711H285.898C286.514 101.529 288.716 103.211 291.63 103.211C293.975 103.211 295.964 102.098 296.983 100.748L299.635 103.021C297.812 105.295 294.874 106.74 291.511 106.74C285.851 106.74 281.658 102.69 281.658 97.3369C281.658 91.9842 285.708 88.0762 291.061 88.0762C296.414 88.0762 300.44 92.0552 300.44 97.4553C300.44 97.9527 300.417 98.4975 300.346 98.9949" fill="white"/>
<path d="M307.428 81.1133H303.519V106.29H307.428V81.1133Z" fill="white"/>
<path d="M248.545 121.166H254.348C256.48 121.166 258.09 119.533 258.09 117.353C258.09 115.174 256.48 113.564 254.348 113.564H248.545V121.166ZM251.695 124.814H248.545V133.815H244.377V109.68H254.419C258.943 109.68 262.353 112.972 262.353 117.33C262.353 121.001 259.914 123.843 256.409 124.601L262.922 133.815H257.924L251.695 124.814Z" fill="white"/>
<path d="M279.195 124.858C279.195 121.708 276.85 119.292 273.7 119.292C270.55 119.292 268.182 121.708 268.182 124.858C268.182 128.008 270.574 130.424 273.7 130.424C276.827 130.424 279.195 128.008 279.195 124.858ZM264.155 124.858C264.155 119.553 268.253 115.526 273.7 115.526C279.148 115.526 283.245 119.553 283.245 124.858C283.245 130.164 279.124 134.19 273.7 134.19C268.276 134.19 264.155 130.164 264.155 124.858Z" fill="white"/>
<path d="M300.368 124.858C300.368 121.708 298.024 119.292 294.874 119.292C291.724 119.292 289.355 121.708 289.355 124.858C289.355 128.008 291.747 130.424 294.874 130.424C298.001 130.424 300.368 128.008 300.368 124.858ZM285.329 124.858C285.329 119.553 289.426 115.526 294.874 115.526C300.321 115.526 304.419 119.553 304.419 124.858C304.419 130.164 300.298 134.19 294.874 134.19C289.45 134.19 285.329 130.164 285.329 124.858Z" fill="white"/>
<path d="M312.401 119.506V127.939C312.401 129.62 313.349 130.426 314.983 130.426C315.953 130.426 316.736 130.141 317.423 129.786V133.457C316.451 133.954 315.457 134.191 314.178 134.191C310.317 134.191 308.47 132.013 308.47 128.554V119.483H305.461V115.907H308.47V111.288H312.377V115.907H317.423V119.483H312.377L312.401 119.506Z" fill="white"/>
<path d="M338.123 115.955L328.98 137.177C328.009 139.497 326.043 140.848 323.888 140.848C322.396 140.848 320.596 140.137 319.436 139.095L321.023 136.04C321.591 136.632 322.42 137.058 323.273 137.058C324.125 137.058 324.906 136.608 325.404 135.566L326.351 133.576L318.891 115.955H323.367L328.531 128.958L333.741 115.955H338.123Z" fill="white"/>
<path d="M338.171 131.347C338.171 131.347 338.336 131.347 338.432 131.347C338.527 131.347 338.597 131.323 338.644 131.276C338.716 131.252 338.763 131.205 338.786 131.134C338.834 131.086 338.858 130.992 338.858 130.874C338.858 130.779 338.858 130.708 338.786 130.66C338.739 130.613 338.692 130.566 338.644 130.541C338.574 130.518 338.502 130.494 338.432 130.494C338.36 130.494 338.289 130.494 338.218 130.494H337.626V131.371H338.171V131.347ZM337.626 133.029H337.129V130.068H338.242C338.597 130.068 338.858 130.14 339.047 130.257C339.237 130.399 339.308 130.613 339.308 130.921C339.308 131.181 339.237 131.394 339.095 131.513C338.953 131.631 338.763 131.703 338.55 131.726L339.379 133.029H338.834L338.076 131.75H337.626V133.029ZM340.207 131.489C340.207 131.158 340.16 130.874 340.042 130.589C339.948 130.329 339.781 130.092 339.592 129.879C339.403 129.689 339.189 129.523 338.953 129.429C338.716 129.311 338.432 129.262 338.147 129.262C337.863 129.262 337.579 129.311 337.342 129.429C337.081 129.547 336.868 129.689 336.679 129.879C336.489 130.068 336.347 130.305 336.252 130.589C336.158 130.874 336.086 131.158 336.086 131.489C336.086 131.797 336.134 132.081 336.228 132.342C336.323 132.602 336.466 132.84 336.631 133.052C336.821 133.242 337.034 133.408 337.271 133.526C337.532 133.644 337.816 133.716 338.124 133.716C338.408 133.716 338.669 133.668 338.928 133.55C339.189 133.455 339.403 133.289 339.568 133.1C339.758 132.91 339.9 132.673 340.018 132.413C340.113 132.129 340.184 131.845 340.184 131.513M340.776 131.489C340.776 131.892 340.705 132.247 340.563 132.579C340.421 132.91 340.232 133.194 339.995 133.432C339.758 133.668 339.473 133.858 339.166 133.976C338.858 134.095 338.502 134.166 338.171 134.166C337.792 134.166 337.437 134.095 337.105 133.953C336.773 133.81 336.513 133.621 336.276 133.384C336.039 133.147 335.874 132.863 335.732 132.531C335.613 132.2 335.542 131.845 335.542 131.466C335.542 131.086 335.613 130.708 335.755 130.376C335.897 130.045 336.086 129.76 336.323 129.523C336.561 129.287 336.845 129.12 337.153 128.978C337.484 128.861 337.816 128.789 338.171 128.789C338.527 128.789 338.858 128.861 339.166 128.978C339.473 129.12 339.758 129.287 339.995 129.523C340.232 129.76 340.421 130.045 340.563 130.376C340.705 130.708 340.776 131.063 340.776 131.466" fill="white"/>
</g>
<defs>
<clipPath id="clip0_4828_1770">
<rect width="167.072" height="168" fill="white" transform="translate(199 26)"/>
</clipPath>
</defs>
</svg>
