<svg width="900" height="350" viewBox="0 0 900 350" fill="none" xmlns="http://www.w3.org/2000/svg">
<g clip-path="url(#clip0_4828_1706)">
<path d="M388.506 284.507H170V66.001H388.506V284.507ZM176.292 278.216H382.214V72.2989H176.292V278.216Z" fill="white"/>
<path d="M200.728 187.745H213.884V210.728H233.537V187.745H246.694V244.592H233.537V222.015H213.884V244.592H200.728V187.745Z" fill="white"/>
<path d="M258.39 225.345V187.745H271.461V224.532C271.461 231.029 275.359 234.684 281.294 234.684C287.303 234.684 291.119 231.029 291.119 224.532V187.745H304.275V225.345C304.275 238.583 295.261 246.053 281.294 246.053C267.326 246.053 258.39 238.583 258.39 225.345Z" fill="white"/>
<path d="M358.524 228.837C358.524 238.583 351.622 244.592 340.333 244.592H316.052V187.745H339.435C350.724 187.745 357.708 193.348 357.708 202.525C357.708 209.915 353.403 214.301 346.826 215.518C353.408 216.168 358.524 220.96 358.524 228.837ZM329.209 197.25V211.052H336.524C341.56 211.052 344.558 208.453 344.558 204.149C344.558 199.846 341.635 197.247 336.524 197.247L329.209 197.25ZM345.29 227.135C345.29 222.911 342.121 220.151 337.411 220.151H329.209V234.603H337.411C342.28 234.603 345.288 231.841 345.288 227.132L345.29 227.135Z" fill="white"/>
<path d="M200.728 152.69H208.265V178.056H200.728V152.69Z" fill="white"/>
<path d="M215.979 152.69H225.545L230.941 169.251L236.304 152.69H245.657V178.056H238.409V161.967L233.772 178.056H228.192L223.227 161.895V178.056H215.981L215.979 152.69Z" fill="white"/>
<path d="M275.019 162.148C275.057 163.396 274.841 164.639 274.381 165.799C273.921 166.959 273.229 168.014 272.346 168.897C271.463 169.779 270.409 170.471 269.248 170.93C268.088 171.391 266.845 171.608 265.598 171.568H260.887V178.055H253.35V152.689H265.598C266.848 152.654 268.091 152.875 269.253 153.339C270.414 153.802 271.468 154.499 272.351 155.385C273.233 156.27 273.925 157.327 274.383 158.491C274.842 159.654 275.058 160.898 275.019 162.148ZM267.373 162.148C267.399 161.691 267.333 161.233 267.179 160.803C267.024 160.372 266.784 159.977 266.472 159.642C266.161 159.307 265.784 159.038 265.367 158.852C264.948 158.666 264.496 158.567 264.039 158.56H260.887V165.735H264.004C264.465 165.732 264.919 165.635 265.34 165.452C265.762 165.267 266.143 165 266.458 164.664C266.772 164.328 267.016 163.932 267.174 163.499C267.331 163.068 267.398 162.607 267.373 162.148Z" fill="white"/>
<path d="M293.528 175.12H285.339L284.541 178.056H276.715L285.375 152.69H293.529L302.152 178.056H294.326L293.528 175.12ZM292.078 169.65L289.433 159.793L286.787 169.65H292.078Z" fill="white"/>
<path d="M305.157 165.374C305.157 157.511 310.881 151.895 319.215 151.895C327.114 151.895 332.261 155.771 332.876 162.439H324.904C324.397 160.121 322.368 158.601 319.253 158.601C315.339 158.601 313.017 161.208 313.017 165.377C313.017 169.545 315.336 172.152 319.253 172.152C322.37 172.152 324.397 170.63 324.904 168.315H332.876C332.261 174.982 327.114 178.86 319.215 178.86C310.881 178.854 305.157 173.237 305.157 165.374Z" fill="white"/>
<path d="M343.681 159.177H337.159V152.69H357.777V159.177H351.253V178.056H343.681V159.177Z" fill="white"/>
<path d="M432.83 246.298C418.861 246.298 410.497 238.826 410.497 226.075H423.653C423.653 232.247 427.145 235.902 432.912 235.902C437.784 235.902 440.545 233.628 440.545 229.649C440.545 226.157 438.759 224.37 433.642 222.34L423.41 218.36C415.776 215.518 411.878 210.239 411.878 202.849C411.878 192.859 419.755 186.2 432.1 186.2C444.606 186.2 452.889 193.266 452.889 204.229H439.734C439.734 198.951 436.972 196.027 431.855 196.027C427.552 196.027 425.033 198.219 425.033 201.631C425.033 204.798 427.227 206.746 432.83 209.021L442.251 212.756C450.128 215.843 453.701 221.122 453.701 228.755C453.701 239.394 445.418 246.298 432.83 246.298ZM460.934 244.673V187.824H473.36V244.673H460.934ZM502.295 245.891C488.813 245.891 480.53 237.039 480.53 225.1C480.53 213.163 488.813 204.391 502.295 204.391C515.695 204.391 523.978 213.163 523.978 225.1C523.978 237.039 515.695 245.891 502.295 245.891ZM502.295 235.334C508.142 235.334 511.634 231.029 511.634 225.1C511.634 219.172 508.142 214.868 502.295 214.868C496.367 214.868 492.955 219.172 492.955 225.1C492.955 231.029 496.367 235.334 502.295 235.334ZM540.83 244.673L523.937 205.529H537.663L546.433 230.136L555.205 205.529H569.011L552.037 244.673H540.83ZM610.54 223.07C610.54 225.182 610.458 226.237 610.215 228.512H581.303C581.547 233.628 584.958 236.552 590.48 236.552C594.297 236.552 596.734 235.334 597.789 232.897H609.971C608.753 240.613 600.876 245.891 590.48 245.891C577.161 245.891 568.959 238.176 568.959 225.1C568.959 212.27 577.325 204.391 590.074 204.391C602.256 204.391 610.54 212.026 610.54 223.07ZM581.303 220.797H598.277C598.196 215.598 595.272 212.675 589.994 212.675C584.633 212.675 581.385 216.005 581.303 220.797ZM617.648 244.673V205.529H630.074V211.213C632.347 206.828 636.814 204.473 642.743 204.473C652.245 204.473 657.035 209.833 657.035 220.472V244.673H644.529V224.532C644.529 217.954 642.661 214.95 637.626 214.95C632.672 214.95 630.074 218.198 630.074 224.207V244.673H617.648ZM673.231 202.118C668.764 202.118 665.516 198.707 665.516 194.484C665.516 190.342 668.764 186.85 673.231 186.85C677.779 186.85 680.946 190.342 680.946 194.484C680.946 198.707 677.779 202.118 673.231 202.118ZM666.977 244.673V205.529H679.403V244.673H666.977ZM705.253 245.728C693.559 245.728 686.817 236.876 686.817 225.1C686.817 213.406 694.046 204.473 705.415 204.473C711.1 204.473 715.567 207.153 717.678 211.133V205.529H730.022V244.673H717.678V239.151C715.567 243.048 710.693 245.728 705.253 245.728ZM708.826 235.414C714.998 235.414 718.165 230.786 718.165 225.1C718.165 219.497 714.998 214.868 708.826 214.868C703.06 214.868 699.486 219.172 699.486 225.1C699.486 231.029 703.06 235.414 708.826 235.414Z" fill="white"/>
</g>
<defs>
<clipPath id="clip0_4828_1706">
<rect width="560" height="218.244" fill="white" transform="translate(170 66)"/>
</clipPath>
</defs>
</svg>
