<svg width="566" height="220" viewBox="0 0 566 220" fill="none" xmlns="http://www.w3.org/2000/svg">
<path d="M358 185H209V36H358V185ZM268.85 145.689C268.85 154.95 275.08 160.252 284.929 160.252C294.777 160.252 301.091 154.949 301.091 145.689V119.257H291.831V145.101C291.831 149.731 289.138 152.256 284.929 152.256C283.985 152.316 283.038 152.171 282.156 151.829C281.274 151.487 280.477 150.957 279.82 150.276C279.164 149.596 278.663 148.779 278.354 147.886C278.044 146.992 277.932 146.042 278.026 145.101V119.257H268.85V145.689ZM228.361 159.158H237.621V143.327H251.426V159.158H260.687V119.257H251.426V135.419H237.621V119.257H228.361V159.158ZM309.338 159.153H326.343C334.256 159.153 339.138 154.944 339.138 148.125C339.271 145.787 338.482 143.49 336.939 141.728C335.397 139.965 333.224 138.878 330.889 138.701C333.091 138.465 335.117 137.387 336.544 135.693C337.971 134 338.69 131.821 338.55 129.61C338.55 123.213 333.668 119.257 325.754 119.257H309.338V159.153ZM324.32 141.98C327.687 141.981 329.876 143.916 329.876 146.862L329.878 146.868C329.921 147.598 329.805 148.328 329.537 149.008C329.269 149.688 328.857 150.302 328.328 150.807C327.799 151.311 327.166 151.694 326.474 151.929C325.782 152.164 325.047 152.245 324.32 152.167H318.597V141.98H324.32ZM323.649 125.823C327.268 125.823 329.289 127.675 329.289 130.705C329.289 133.735 327.188 135.587 323.649 135.587H318.515V125.823H323.649ZM311.536 94.085C310.256 93.9972 308.971 94.1781 307.765 94.6152C306.558 95.0523 305.456 95.7367 304.529 96.624C303.602 97.5114 302.87 98.5823 302.381 99.7686C301.892 100.955 301.656 102.231 301.688 103.514C301.659 104.803 301.896 106.084 302.384 107.278C302.872 108.472 303.601 109.554 304.524 110.454C305.448 111.354 306.548 112.055 307.754 112.512C308.96 112.969 310.248 113.173 311.536 113.111C317.094 113.111 320.713 110.418 321.134 105.704H315.578C315.354 106.554 314.829 107.294 314.103 107.789C313.376 108.284 312.495 108.5 311.622 108.396C310.424 108.288 309.309 107.737 308.498 106.849C307.687 105.961 307.237 104.801 307.237 103.599C307.237 102.396 307.687 101.236 308.498 100.348C309.309 99.4597 310.424 98.9081 311.622 98.7998C312.495 98.6968 313.376 98.9125 314.103 99.4072C314.829 99.902 315.354 100.642 315.578 101.492H321.134C320.713 96.7785 317.092 94.085 311.536 94.085ZM273.901 94.6738H265.315V112.522H270.618V107.976H273.901C274.782 108.002 275.66 107.848 276.479 107.523C277.297 107.199 278.041 106.71 278.664 106.087C279.287 105.464 279.776 104.72 280.101 103.901C280.425 103.083 280.579 102.206 280.553 101.325C280.579 100.445 280.425 99.567 280.101 98.748C279.776 97.9292 279.287 97.1854 278.664 96.5625C278.041 95.9396 277.297 95.4508 276.479 95.126C275.66 94.8011 274.782 94.6473 273.901 94.6738ZM228.361 112.521H233.663V94.6748H228.361V112.521ZM239.138 112.439H244.188V101.078L247.64 112.439H251.602L254.885 101.16V112.521H259.931V94.6748H253.365L249.577 106.291L245.788 94.6748H239.138V112.439ZM324.163 94.6748V99.2217H328.793V112.445H334.096V99.2217H338.643V94.6748H324.163ZM281.729 112.442H287.201L287.789 110.422H293.515L294.104 112.438H299.573L293.513 94.5908H287.789L281.729 112.442ZM292.504 106.544H288.807L290.654 99.6475L292.504 106.544ZM272.807 98.7988C273.129 98.8034 273.448 98.8732 273.743 99.0039C274.038 99.1345 274.303 99.3238 274.523 99.5596C274.744 99.7954 274.914 100.074 275.024 100.377C275.134 100.68 275.183 101.003 275.165 101.325C275.187 101.972 274.95 102.602 274.508 103.075C274.066 103.549 273.454 103.828 272.807 103.851H270.618V98.7988H272.807Z" fill="white"/>
</svg>
