<svg width="566" height="220" viewBox="0 0 566 220" fill="none" xmlns="http://www.w3.org/2000/svg">
<g clip-path="url(#clip0_4652_2179)">
<path fill-rule="evenodd" clip-rule="evenodd" d="M0 170H121.188L239.796 52H0V170ZM142.304 74.1898L118.703 74.1721V129.998L98.0861 74.1721H77.6409L60.0368 120.859C58.1625 109.088 45.9203 105.023 36.2879 101.973C29.9296 99.9433 23.1797 96.952 23.245 93.6539C23.2984 90.9458 26.8631 88.4265 33.9332 88.8041C38.6842 89.0519 42.8717 89.4354 51.2111 93.4356L59.414 79.2284C51.8042 75.3757 41.288 72.9449 32.6758 72.9331H32.6283C22.5807 72.9331 14.2116 76.1722 9.01581 81.5058C5.39772 85.2346 3.45225 89.9664 3.36921 95.1997C3.23872 102.404 5.89595 107.513 11.4714 111.59C16.1867 115.03 22.2129 117.254 27.5215 118.894C34.0755 120.912 39.4256 122.67 39.3603 126.417C39.3129 127.774 38.7909 129.048 37.8063 130.081C36.1752 131.756 33.6663 132.387 30.1965 132.446C23.5119 132.588 18.5533 131.55 10.6528 126.906L3.36328 141.308C11.24 145.769 20.564 148.382 30.0838 148.382L31.3116 148.365C39.5976 148.217 46.2822 145.869 51.6203 141.591C51.9287 141.35 52.2016 141.102 52.4863 140.848L50.1197 147.137H71.5613L75.1616 136.252C78.928 137.532 83.2163 138.24 87.7656 138.24C92.315 138.24 96.372 137.562 100.067 136.358L103.537 147.132H138.508V124.599H146.136C164.564 124.599 175.472 115.254 175.472 99.607C175.472 82.1725 164.878 74.1721 142.322 74.1721L142.304 74.1898ZM87.7538 121.956C85.0017 121.956 82.4156 121.484 80.1914 120.646L87.6707 97.1644H87.8131L95.162 120.711C92.9555 121.49 90.4288 121.956 87.7538 121.956ZM143.692 108.463H138.49V89.5416H143.692C150.626 89.5416 156.153 91.8308 156.153 98.8754C156.153 105.92 150.626 108.463 143.692 108.463Z" fill="white"/>
<path d="M238.902 73.9185H252.841V135.219H285.908V147.368H238.902V73.9185Z" fill="white"/>
<path d="M290.852 118.847C290.852 98.9875 304.001 89.2407 319.624 89.2407C338.8 89.2407 345.615 103.212 345.615 117.077C345.615 118.747 345.508 120.464 345.408 122.08H304.849C305.792 132.924 311.451 138.087 321.41 138.087C327.857 138.087 332.151 136.211 336.03 131.727L343.735 139.391C338.391 145.385 331.843 148.412 320.781 148.412C302.388 148.412 290.857 137.933 290.857 118.859L290.852 118.847ZM332.406 113.897C331.671 103.837 326.748 99.4064 319.304 99.4064C311.86 99.4064 306.362 103.837 305.051 113.897H332.406Z" fill="white"/>
<path d="M351.817 131.827C351.817 119.579 361.876 113.844 376.758 113.844H387.131V110.557C387.131 103.678 383.78 99.9256 376.805 99.9256C370.31 99.9256 365.749 102.687 362.184 107.171L354.272 99.3533C359.563 93.6185 366.746 89.2407 378.223 89.2407C392.79 89.2407 400.335 96.7986 400.335 110.611V147.362H387.547V136.777H387.232C383.721 144.754 377.956 148.4 368.94 148.4C358.934 148.4 351.805 142.459 351.805 131.827H351.817ZM373.667 138.24C382.209 138.24 387.137 131.827 387.137 125.107V121.408H379.012C371.414 121.408 365.02 123.437 365.02 130.582C365.02 135.326 368.27 138.246 373.667 138.246V138.24Z" fill="white"/>
<path d="M413.52 90.3381H426.355V102.327H426.562C429.184 95.8133 434.421 89.2466 445.377 89.2466C457.69 89.2466 463.194 97.5892 463.194 109.731V147.367H449.938V112.911C449.938 105.247 447.269 100.61 439.564 100.61C431.859 100.61 426.782 105.826 426.782 115.413V147.367H413.525V90.344L413.52 90.3381Z" fill="white"/>
<path d="M477.41 73.9185H491.349V147.368H477.41V73.9185Z" fill="white"/>
<path d="M524.287 109.053L500.811 73.9185H516.95L532.46 99.3062L547.917 73.9185H564.056L540.58 109.053L565.996 147.368H549.958L532.454 118.074L514.898 147.368H498.859L524.275 109.053H524.287Z" fill="white"/>
</g>
<defs>
<clipPath id="clip0_4652_2179">
<rect width="566" height="118" fill="white" transform="translate(0 52)"/>
</clipPath>
</defs>
</svg>
