<svg width="566" height="220" viewBox="0 0 566 220" fill="none" xmlns="http://www.w3.org/2000/svg">
<path d="M420.026 43L408.611 156.258L153.35 177.825L145 43H420.026ZM232.687 87.5508C224.368 87.7048 214.97 92.6345 213.584 106.499L210.503 106.961C208.655 107.269 207.731 108.81 207.73 110.658C207.73 112.507 209.733 113.585 211.428 113.585L213.43 112.969C214.2 123.444 219.746 133.304 233.303 133.304C246.705 133.15 249.632 121.134 249.632 118.515C249.632 116.358 248.4 115.434 247.014 115.434C245.781 115.434 245.473 115.897 243.778 117.745C242.854 118.823 241.313 120.056 239.465 120.672C237.782 121.59 235.338 121.444 235.306 121.442C231.3 121.442 227.757 119.285 225.908 115.742C224.984 114.356 224.83 112.507 224.676 111.429L245.781 107.886H246.089C247.475 107.886 249.633 107.423 249.479 103.88C249.478 99.5662 246.089 87.3967 232.687 87.5508ZM275.513 87.0889C264.729 87.2429 255.332 94.7915 255.64 110.351C255.794 124.831 264.421 132.996 275.667 132.688C287.683 132.533 296.001 122.982 295.539 108.964C295.077 98.3344 288.915 86.9349 275.513 87.0889ZM179.385 130.685C179.385 132.071 179.847 132.533 181.233 132.533L209.117 132.38C210.349 132.38 210.812 131.763 210.812 130.685V124.985C210.657 123.291 210.195 122.982 208.809 122.982L202.185 123.137V123.291H193.558L193.403 87.0889C193.403 83.6998 190.631 81.2344 187.396 81.2344C186.471 81.2344 185.547 81.3886 184.623 81.3887C182.774 81.3887 180.771 81.3887 178.923 80.7725C179.077 97.4098 179.231 114.201 179.385 130.685ZM370.254 86.3184C361.781 86.4724 352.384 91.7101 350.997 105.267L347.916 106.037C346.068 106.037 345.144 107.886 345.144 109.734C345.144 111.429 347.146 112.661 348.841 112.353L350.844 111.891C351.768 122.366 357.159 132.379 370.716 132.071C384.118 131.917 387.199 120.055 387.199 117.282C387.199 115.434 385.812 114.355 384.58 114.355C383.502 114.356 382.886 114.664 381.191 116.513C380.113 117.591 378.881 118.669 377.032 119.439C375.345 120.36 372.742 120.211 372.719 120.21C368.713 120.21 365.17 118.207 363.321 114.51C362.551 113.123 362.09 111.583 361.936 110.196L383.04 106.807H383.656C384.889 106.653 386.892 106.036 386.892 102.647C386.891 98.3338 383.656 86.1644 370.254 86.3184ZM324.347 86.7803C321.42 86.7803 319.879 86.7805 316.952 87.5508C314.95 87.8589 312.947 88.3213 310.944 88.3213C307.863 88.3213 304.936 87.7046 302.317 86.7803C302.471 100.953 302.472 115.126 302.626 129.145C302.626 130.377 302.934 131.147 304.475 131.147H313.717C315.103 130.993 315.874 130.685 315.874 129.299L315.72 100.646C315.566 98.3347 315.566 94.0212 320.958 93.8672C320.986 93.8645 322.514 93.7212 324.192 94.6367H324.347C324.501 94.7906 325.116 95.4059 325.271 95.4072C326.503 96.4856 326.503 98.1807 326.503 100.646L326.812 129.145C326.812 130.531 327.274 131.147 328.66 131.147L337.749 130.993C339.598 130.993 340.06 130.377 340.06 128.683L339.752 98.334C339.752 96.1772 339.752 92.1719 334.977 89.2451C334.052 88.6289 331.433 86.7803 324.347 86.7803ZM276.129 95.0996C276.591 95.4076 277.053 95.4075 277.361 95.5615H277.516C277.823 95.7155 277.824 95.8697 277.978 96.1777L277.823 96.0234C279.98 98.1801 281.52 102.956 281.521 108.655C281.675 113.431 280.904 119.286 278.901 122.059C278.901 122.068 278.897 122.217 278.748 122.366C278.748 122.52 278.594 122.828 278.439 122.828C278.29 122.978 278.14 122.982 278.132 122.982H277.978C276.906 123.901 276.138 123.907 276.129 123.907H275.82C271.199 123.907 269.505 115.434 269.351 108.81C269.351 102.802 270.583 95.1001 275.204 95.0996C275.358 95.0996 275.666 95.0993 275.82 95.2529C275.821 95.0993 275.975 95.0996 276.129 95.0996ZM230.684 95.4072C230.684 95.4072 232.224 95.4074 233.148 96.0234C234.535 96.7937 236.076 98.6426 236.384 102.956L228.527 104.034L225.754 104.496H225.601L224.984 104.65L223.598 104.805C223.752 100.183 225.601 95.4072 230.53 95.4072H230.684ZM368.56 94.4834C368.584 94.4834 369.954 94.4889 370.87 95.0996C372.411 95.8699 373.797 97.7188 374.259 101.878L366.248 103.11L363.321 103.418H363.167L362.551 103.572L361.165 103.88C361.165 99.1045 363.167 94.4837 368.097 94.4834H368.56Z" fill="white"/>
</svg>
