<svg width="566" height="220" viewBox="0 0 566 220" fill="none" xmlns="http://www.w3.org/2000/svg">
<path d="M204.271 59.2764L204.221 59.9805C201.164 61.6276 199.031 63.1052 197.821 64.4149C196.644 65.692 195.771 67.6578 195.2 70.3114C194.662 72.8657 194.394 76.9121 194.394 82.4541V133.048H178.068C167.754 115.31 156.215 96.6653 143.449 77.1134V109.818C143.449 115.26 143.734 119.326 144.305 122.012C144.841 124.6 145.732 126.565 146.976 127.908C148.151 129.15 150.302 130.628 153.427 132.342V133.047H129.691V132.342C132.815 130.627 134.966 129.15 136.141 127.908C137.317 126.633 138.19 124.665 138.762 122.012C139.299 119.46 139.568 115.395 139.568 109.818V72.7793C139.131 70.5625 138.123 68.4973 136.544 66.582C134.931 64.6016 132.664 62.4002 129.74 59.9805V59.2764H156.145C167.299 76.3417 178.738 94.7859 190.462 114.607V82.5079C190.462 76.9301 190.193 72.8657 189.657 70.3123C189.084 67.6578 188.212 65.6928 187.036 64.4166C185.86 63.1403 183.692 61.6619 180.535 59.9813V59.2772L204.271 59.2764Z" fill="white"/>
<path d="M241.914 134.41V134.511C230.054 134.511 220.681 131.134 213.795 124.382C206.874 117.63 203.414 108.223 203.414 96.1623C203.414 84.1353 206.874 74.7628 213.795 68.0431C220.714 61.3243 230.088 57.9648 241.914 57.9648C253.806 57.9648 263.195 61.3071 270.083 67.9926C276.969 74.6772 280.413 84.0514 280.413 96.1109C280.413 108.139 276.969 117.528 270.083 124.279C263.161 131.032 253.772 134.41 241.914 134.41ZM244.685 130.883H244.483C248.581 130.883 251.855 128.717 254.309 124.382C256.794 120.015 258.039 113.919 258.039 106.09C258.039 102.161 257.736 97.8933 257.132 93.2918C256.527 88.6904 255.569 83.9014 254.259 78.9291C252.95 73.9584 250.95 69.8264 248.263 66.5338C245.608 63.2754 242.535 61.6462 239.041 61.6462C234.909 61.6462 231.633 63.8117 229.214 68.1458C226.796 72.4792 225.585 78.4939 225.585 86.1867C225.585 90.084 225.888 94.3847 226.492 99.0873C227.098 103.891 228.07 108.729 229.415 113.601C230.792 118.573 232.809 122.704 235.462 125.997C238.117 129.255 241.19 130.883 244.685 130.883Z" fill="white"/>
<path d="M349.749 121.51L349.648 121.359C352.032 125.087 355.123 128.716 358.92 132.244V132.947H332.716C326.367 121.93 320.252 110.307 314.374 98.0775L310.644 98.3783V120.147C310.644 124.045 311.048 126.616 311.855 127.857C312.661 129.101 314.608 130.563 317.701 132.242V132.947H282.426V132.242C285.583 130.595 287.566 129.118 288.372 127.807C289.177 126.498 289.58 123.945 289.58 120.148V71.9747C289.58 68.1793 289.177 65.625 288.372 64.3153C287.566 63.0064 285.583 61.5272 282.426 59.8817V59.1768H319.261C328.5 59.1768 335.807 60.8051 341.182 64.0643C346.557 67.3227 349.245 71.8076 349.245 77.5183C349.245 81.5827 347.851 85.2119 345.062 88.4035C342.273 91.5616 338.594 93.8795 334.026 95.3579C338.393 103.353 343.635 112.071 349.749 121.51ZM310.644 62.6022L310.595 94.7018H315.128C319.293 94.7018 322.503 93.1737 324.753 90.1166C327.039 87.0261 328.18 82.9446 328.18 77.8712C328.18 67.6919 323.461 62.603 314.022 62.603H310.644V62.6022Z" fill="white"/>
<path d="M392.733 59.2764C406.775 59.2764 417.541 62.2324 425.034 68.1452C432.492 74.058 436.221 82.7247 436.221 94.1461C436.221 105.266 432.81 114.538 425.991 121.963C419.204 129.354 409.597 133.049 397.167 133.049H361.188V132.344C364.345 130.7 366.328 129.22 367.135 127.911C367.941 126.6 368.343 124.048 368.343 120.251V72.0768C368.343 68.2813 367.941 65.7271 367.135 64.4174C366.328 63.1085 364.345 61.6301 361.188 59.983V59.2788H392.733V59.2764ZM396.865 129.321H396.814C401.484 128.917 405.431 125.828 408.656 120.048C411.882 114.27 413.494 105.956 413.494 95.1054C413.494 90.6376 413.192 86.64 412.589 83.1119C411.983 79.5854 411.229 76.7117 410.32 74.494C409.38 72.2112 408.203 70.3131 406.793 68.8013C405.315 67.2218 404.004 66.0637 402.863 65.3237C401.722 64.5853 400.309 63.9805 398.631 63.5095C396.951 63.0392 395.726 62.7874 394.952 62.7532C394.415 62.7206 393.356 62.7026 391.778 62.7026H389.509V124.332C389.509 125.777 390.165 126.936 391.475 127.81C392.783 128.649 394.58 129.153 396.865 129.321Z" fill="white"/>
<path d="M130.23 145.865H131.721V152.302H141.796V145.865H143.287V160.141H141.796V153.68H131.721V160.141H130.23V145.865Z" fill="white"/>
<path d="M163.575 145.753H165.314L171.616 160.14H170.012L168.318 156.21H160.684L159.036 160.14H157.477L163.575 145.753ZM167.912 154.855L164.456 146.972L161.159 154.855H167.912Z" fill="white"/>
<path d="M185.832 145.865H195.545C197.735 145.865 199.16 147.424 199.16 149.797C199.16 151.962 197.962 153.568 195.997 153.657L194.98 153.704L198.639 160.142H196.991L193.354 153.68H187.323V160.142H185.832V145.865ZM195.545 152.301C196.877 152.301 197.668 151.376 197.668 149.818C197.668 148.26 196.833 147.243 195.545 147.243H187.322V152.301H195.545Z" fill="white"/>
<path d="M214.055 145.865H220.584C224.536 145.865 227.382 148.846 227.382 152.979C227.382 157.114 224.512 160.14 220.584 160.14H214.055V145.865ZM220.584 158.763C223.564 158.763 225.756 156.323 225.756 153.003C225.756 149.683 223.564 147.243 220.584 147.243H215.545V158.763L220.584 158.763Z" fill="white"/>
<path d="M259.723 156.863H261.235C261.665 158.219 263.54 159.078 266.001 159.078C268.825 159.078 270.631 157.948 270.631 156.165C270.631 154.47 268.961 153.523 265.91 153.523C261.708 153.523 259.947 152.416 259.947 149.773C259.947 147.107 262.002 145.549 265.525 145.549C268.983 145.549 271.376 146.926 271.76 149.118H270.247C269.841 147.785 268.079 146.926 265.707 146.926C263.086 146.926 261.438 147.987 261.438 149.66C261.438 151.264 262.974 152.145 265.775 152.145C270.225 152.145 272.122 153.317 272.122 156.053C272.122 158.831 269.931 160.458 266.226 160.458C262.658 160.457 260.129 159.054 259.723 156.863Z" fill="white"/>
<path d="M286.879 145.865H299.618V147.243H288.37V152.302H296.749V153.68H288.37V158.763H299.618V160.141H286.879V145.865Z" fill="white"/>
<path d="M314.672 145.865H316.163V158.763H324.837V160.142H314.672V145.865Z" fill="white"/>
<path d="M342.325 147.243H336.543V145.865H349.598V147.243H343.816V160.139H342.325V147.243Z" fill="white"/>
<path d="M363.656 158.649L374.249 147.243H363.927V145.865H376.125V147.355L365.509 158.763H376.396V160.14H363.656V158.649Z" fill="white"/>
<path d="M391.445 145.865H404.186V147.243H392.936V152.302H401.317V153.68H392.936V158.763H404.186V160.141H391.445V145.865Z" fill="white"/>
<path d="M419.238 145.865H428.951C431.142 145.865 432.566 147.424 432.566 149.797C432.566 151.962 431.369 153.568 429.404 153.657L428.387 153.704L432.047 160.142H430.399L426.762 153.68H420.732V160.142H419.24L419.238 145.865ZM428.951 152.301C430.284 152.301 431.074 151.376 431.074 149.818C431.074 148.26 430.238 147.243 428.951 147.243H420.731V152.301H428.951Z" fill="white"/>
</svg>
