<svg width="900" height="350" viewBox="0 0 900 350" fill="none" xmlns="http://www.w3.org/2000/svg">
<g clip-path="url(#clip0_4565_4278)">
<path d="M173.912 114.082C157.661 114.136 142.095 120.625 130.63 132.124C119.166 143.624 112.739 159.195 112.761 175.42C112.679 183.459 114.205 191.432 117.249 198.874C120.294 206.316 124.796 213.077 130.491 218.759C136.187 224.442 142.961 228.932 150.417 231.966C157.873 235.001 165.861 236.519 173.912 236.432C190.163 236.432 205.748 229.987 217.239 218.514C228.73 207.041 235.185 191.481 235.185 175.257C235.185 159.032 228.73 143.472 217.239 132C205.748 120.527 190.163 114.082 173.912 114.082ZM173.912 205.068C166.009 205.052 158.436 201.902 152.859 196.311C147.283 190.721 144.159 183.147 144.175 175.257C144.191 167.367 147.346 159.806 152.946 154.238C158.546 148.67 166.132 145.551 174.035 145.568C177.948 145.576 181.821 146.353 185.433 147.856C189.045 149.358 192.326 151.556 195.087 154.325C197.849 157.093 200.037 160.377 201.527 163.99C203.017 167.602 203.78 171.472 203.772 175.379C203.763 179.286 202.985 183.153 201.48 186.76C199.975 190.366 197.773 193.641 195 196.398C192.228 199.155 188.938 201.34 185.32 202.827C181.701 204.315 177.825 205.076 173.912 205.068ZM341.453 114H321.533C319.667 114 317.878 114.74 316.558 116.057C315.239 117.375 314.498 119.161 314.498 121.024V186.283C314.498 190.518 312.813 194.579 309.813 197.574C306.814 200.568 302.746 202.251 298.504 202.251C294.263 202.251 290.195 200.568 287.195 197.574C284.196 194.579 282.511 190.518 282.511 186.283V121.024C282.511 120.102 282.329 119.188 281.975 118.336C281.622 117.484 281.104 116.71 280.45 116.057C279.797 115.405 279.021 114.888 278.168 114.535C277.314 114.182 276.399 114 275.476 114H255.678C253.815 114.021 252.033 114.767 250.712 116.078C249.391 117.39 248.634 119.164 248.602 121.024V187.549C248.602 200.773 253.864 213.456 263.23 222.807C272.596 232.158 285.299 237.412 298.545 237.412C311.791 237.412 324.494 232.158 333.86 222.807C343.227 213.456 348.489 200.773 348.489 187.549V120.983C348.398 119.153 347.627 117.423 346.326 116.131C345.024 114.839 343.287 114.079 341.453 114ZM442.076 114H369.431C367.533 114 365.712 114.753 364.37 116.093C363.027 117.434 362.273 119.251 362.273 121.147V139.891C362.273 140.828 362.458 141.755 362.819 142.62C363.179 143.485 363.707 144.27 364.372 144.93C365.037 145.591 365.827 146.113 366.695 146.468C367.563 146.823 368.493 147.002 369.431 146.997H388.738V229.163C388.769 231.048 389.534 232.848 390.869 234.181C392.205 235.515 394.007 236.278 395.896 236.309H415.53C417.414 236.277 419.212 235.513 420.541 234.178C421.87 232.844 422.626 231.044 422.647 229.163V147.038H442.076C443.014 147.038 443.943 146.853 444.809 146.493C445.675 146.133 446.462 145.606 447.123 144.942C447.785 144.278 448.308 143.49 448.663 142.623C449.018 141.756 449.199 140.828 449.193 139.891V121.106C449.199 120.171 449.018 119.245 448.662 118.38C448.307 117.516 447.783 116.73 447.121 116.069C446.459 115.408 445.672 114.885 444.806 114.53C443.94 114.175 443.012 113.995 442.076 114ZM673.59 114H601.027C600.086 113.995 599.153 114.176 598.282 114.533C597.411 114.89 596.62 115.417 595.954 116.081C595.288 116.746 594.761 117.536 594.403 118.405C594.045 119.275 593.864 120.207 593.869 121.147V139.891C593.869 140.828 594.055 141.755 594.415 142.62C594.775 143.485 595.303 144.27 595.968 144.93C596.634 145.591 597.423 146.113 598.291 146.468C599.159 146.823 600.089 147.002 601.027 146.997H620.334V229.163C620.355 231.051 621.116 232.857 622.454 234.193C623.792 235.528 625.6 236.288 627.492 236.309H647.126C649.011 236.277 650.809 235.513 652.138 234.178C653.467 232.844 654.222 231.044 654.243 229.163V147.038H673.59C674.53 147.043 675.461 146.862 676.33 146.504C677.199 146.147 677.987 145.62 678.65 144.954C679.312 144.289 679.836 143.499 680.189 142.629C680.542 141.76 680.719 140.829 680.708 139.891V121.106C680.708 119.221 679.958 117.414 678.623 116.081C677.288 114.749 675.478 114 673.59 114ZM525.765 114H469.809C467.917 114.011 466.107 114.769 464.773 116.108C463.44 117.447 462.691 119.258 462.691 121.147V229.122C462.691 231.01 463.44 232.822 464.773 234.161C466.107 235.5 467.917 236.258 469.809 236.268H489.033C490.929 236.247 492.742 235.489 494.086 234.154C495.431 232.82 496.201 231.014 496.232 229.122V193.593H517.87C519.766 193.561 521.574 192.792 522.911 191.45C524.248 190.108 525.007 188.298 525.029 186.405V170.356C525.007 168.467 524.246 166.662 522.908 165.326C521.571 163.991 519.762 163.231 517.87 163.21H496.232V147.079H525.765C526.71 147.09 527.647 146.912 528.523 146.558C529.399 146.203 530.195 145.678 530.865 145.012C531.535 144.347 532.066 143.555 532.426 142.683C532.787 141.811 532.969 140.876 532.964 139.932V121.228C532.975 120.28 532.796 119.338 532.439 118.459C532.081 117.58 531.552 116.78 530.882 116.108C530.212 115.435 529.414 114.902 528.536 114.54C527.657 114.178 526.715 113.995 525.765 114ZM573.213 163.046H553.62C551.735 163.078 549.937 163.842 548.608 165.177C547.279 166.512 546.524 168.311 546.503 170.193V228.999C546.513 230.888 547.264 232.698 548.594 234.041C549.924 235.385 551.728 236.155 553.62 236.187H573.254C575.135 236.145 576.927 235.377 578.254 234.045C579.581 232.712 580.34 230.919 580.371 229.04V170.315C580.372 168.405 579.623 166.57 578.285 165.203C576.947 163.837 575.126 163.048 573.213 163.005V163.046ZM573.213 114H553.62C551.735 114.032 549.937 114.796 548.608 116.131C547.279 117.465 546.524 119.265 546.503 121.147V139.891C546.524 141.769 547.281 143.564 548.611 144.892C549.941 146.22 551.739 146.976 553.62 146.997H573.254C575.132 146.966 576.924 146.207 578.252 144.881C579.58 143.555 580.34 141.766 580.371 139.891V121.106C580.329 119.227 579.56 117.438 578.226 116.113C576.891 114.789 575.095 114.031 573.213 114ZM708.318 236.268H724.965C727.262 236.324 729.518 235.661 731.418 234.372C733.318 233.083 734.766 231.233 735.559 229.081L785.462 125.026C786.11 123.694 786.392 122.215 786.28 120.738C786.091 118.918 785.243 117.228 783.895 115.988C782.547 114.747 780.791 114.04 778.958 114H707.868C705.915 114 704.042 114.775 702.661 116.153C701.281 117.532 700.505 119.401 700.505 121.351V140.055C700.505 142.004 701.281 143.874 702.661 145.252C704.042 146.631 705.915 147.405 707.868 147.405H735.232C736.018 147.404 736.775 147.704 737.346 148.244C737.916 148.784 738.258 149.521 738.3 150.305C738.341 150.836 738.259 151.367 738.014 151.816L701.609 225.161C700.957 226.42 700.669 227.836 700.778 229.25C700.886 230.663 701.387 232.019 702.223 233.165L702.55 233.573C703.244 234.419 704.118 235.1 705.108 235.567C706.099 236.033 707.182 236.273 708.277 236.268H708.318Z" fill="white"/>
</g>
<defs>
<clipPath id="clip0_4565_4278">
<rect width="679" height="122.513" fill="white" transform="translate(111 114)"/>
</clipPath>
</defs>
</svg>
