<svg width="120" height="120" viewBox="20 20 120 120" fill="none" xmlns="http://www.w3.org/2000/svg">
<g filter="url(#filter0_d_4536_1540)">
<path d="M104.113 60.5098C105.431 60.5098 106.5 61.5783 106.5 62.8965C106.5 64.2146 105.431 65.2832 104.113 65.2832C102.795 65.2832 101.727 64.2146 101.727 62.8965C101.727 61.5783 102.795 60.5098 104.113 60.5098Z" fill="#FF5757" stroke="#FF5757"/>
</g>
<g filter="url(#filter1_d_4536_1540)">
<path d="M134.125 65.9167H121.635C119.838 54.7989 109.983 49.0159 100.268 51.1013C92.3281 52.8056 86.5141 59.6169 86.0778 67.7257C86.0861 69.5311 86.3988 71.3222 87.0023 73.0238C80.3362 73.0945 73.8311 75.0819 68.2635 78.7486V74.0195C68.2635 73.0376 67.4675 72.2416 66.4856 72.2416H51.7648C50.7829 72.2489 49.9929 73.0508 50 74.0325C50.0014 74.2215 50.0331 74.4092 50.0936 74.5884L58.8762 100.616C59.0852 101.415 59.3465 102.199 59.6584 102.963C63.5341 112.208 74.7347 118.893 88.1044 118.893C104.496 118.893 117.83 108.581 117.83 95.8872C117.768 91.0739 115.932 86.4528 112.675 82.9087C115.011 81.7144 117.061 80.0282 118.684 77.9662H124.5C132.596 77.9662 136.5 75.2949 138 71.7949C139.668 67.9038 137.767 65.9167 134.125 65.9167ZM60.2629 87.6024L59.8007 88.598C59.6229 89.0246 59.4452 89.4513 59.2674 89.878L59.0895 90.3402L54.2181 75.8328H64.8853V81.5931C64.3875 82.0909 63.9253 82.5886 63.4631 83.122L63.2142 83.3708C62.8942 83.762 62.5742 84.1531 62.2897 84.5797L61.6852 85.4331L60.8673 86.4998L60.2629 87.6024ZM108.657 80.7399C107.721 81.0387 107.205 82.0391 107.504 82.9745C107.601 83.2783 107.778 83.5504 108.017 83.7622C111.64 86.8255 113.786 91.2869 113.919 96.0295C113.919 106.697 102.185 115.479 87.7489 115.479C74.9127 115.479 64.2455 108.581 62.0054 99.5497C61.87 99.0105 61.7633 98.4645 61.6853 97.9141C61.6462 97.2984 61.6462 96.6809 61.6853 96.0652C61.6955 95.048 61.8147 94.0346 62.0409 93.0429C65.0743 101.801 74.6339 106.443 83.3923 103.409C90.1817 101.058 94.7209 94.6453 94.6826 87.4604C94.6826 86.4785 93.8865 85.6825 92.9047 85.6825C91.9228 85.6825 91.1267 86.4785 91.1267 87.4604C91.1267 94.7951 85.1807 100.741 77.846 100.741C70.5113 100.741 64.5653 94.7951 64.5653 87.4604C65.4505 86.1557 66.4891 84.9618 67.6588 83.9047C73.2949 79.1688 80.4597 76.6415 87.8199 76.7932H89.6333C90.277 76.8378 90.8925 76.5231 91.2334 75.9753C91.5509 75.4252 91.5509 74.7475 91.2334 74.1973C90.1592 72.2721 89.5846 70.1083 89.5621 67.9037C90.155 59.9134 97.1129 53.9166 105.103 54.5095C111.207 54.9622 116.658 58.7949 118.008 66.0945H116.658C115.058 66.0945 109 65.795 109 72.6683C109 73.9629 109 77.795 109 77.795H114C112.522 78.9171 110.444 80.2408 108.657 80.7399ZM124 74.5529H112.213C112.213 74.1087 112.213 72.6683 112.213 72.6683C112.213 69.6459 114.5 69.4725 116.35 69.4725H133.084C133.084 69.4725 135.5 69.2949 134.125 71.5127C133.019 73.2949 130.132 74.5529 124 74.5529Z" fill="#FF5757"/>
<path d="M100.373 51.5898C109.824 49.5613 119.392 55.1767 121.142 65.9961L121.21 66.417H134.125C135.88 66.4171 137.067 66.8979 137.65 67.6924C138.221 68.4697 138.342 69.727 137.54 71.5977C136.151 74.8382 132.493 77.4658 124.5 77.4658H118.441L118.291 77.6572C116.713 79.6624 114.719 81.3025 112.447 82.4639L111.861 82.7627L112.307 83.2471C115.48 86.7006 117.269 91.2034 117.33 95.8936C117.326 108.197 104.344 118.393 88.1045 118.393C74.8786 118.393 63.8968 111.781 60.1191 102.77C59.8165 102.027 59.5633 101.266 59.3604 100.49L59.3555 100.473L59.3496 100.457L50.5674 74.4287C50.5238 74.2998 50.501 74.1647 50.5 74.0293C50.4952 73.3679 50.9939 72.8194 51.6377 72.749L51.7686 72.7412H66.4854C67.1911 72.7412 67.7637 73.3138 67.7637 74.0195V79.6768L68.5381 79.166C74.0256 75.5521 80.4376 73.5931 87.0078 73.5234L87.708 73.5166L87.4736 72.8564C86.89 71.211 86.5873 69.4792 86.5781 67.7334C87.0105 59.8584 92.6602 53.2454 100.373 51.5898ZM53.7441 75.9922L58.6152 90.499L59.0576 91.8154L59.5566 90.5195L59.7334 90.0566C59.8204 89.8479 59.9082 89.6394 59.9951 89.4307C60.084 89.2173 60.1738 89.0033 60.2627 88.79L60.2617 88.7891L60.7109 87.8232L61.2881 86.7705L62.082 85.7373L62.0879 85.7295L62.0928 85.7217L62.6973 84.8691H62.6982L62.7061 84.8574C62.9714 84.4595 63.2709 84.0909 63.5889 83.7021L63.8164 83.4756L63.8291 83.4629L63.8408 83.4492C64.2955 82.9245 64.7501 82.4354 65.2393 81.9463L65.3857 81.7998V75.333H53.5225L53.7441 75.9922ZM133.089 68.9717C133.078 68.9722 133.068 68.9722 133.062 68.9727H116.35C115.435 68.9727 114.281 69.0087 113.355 69.4941C112.878 69.7447 112.457 70.1154 112.161 70.6523C111.867 71.1849 111.713 71.8504 111.713 72.668V75.0527H124C127.094 75.0527 129.408 74.7361 131.104 74.1758C132.804 73.6143 133.917 72.7964 134.55 71.7764C134.917 71.1836 135.09 70.6616 135.039 70.2031C134.983 69.7054 134.679 69.3939 134.357 69.2207C134.054 69.0574 133.717 69.0019 133.484 68.9814C133.363 68.9708 133.257 68.9691 133.182 68.9697C133.144 68.97 133.112 68.9707 133.089 68.9717ZM114.419 96.0156C114.282 91.134 112.074 86.5417 108.347 83.3867C108.176 83.2347 108.05 83.0397 107.98 82.8223C107.767 82.1525 108.133 81.4356 108.801 81.2178C110.68 80.6904 112.815 79.3224 114.303 78.1934L115.485 77.2949H109.5V72.668C109.5 71.0244 109.862 69.8519 110.395 69.0088C110.927 68.1666 111.652 67.6182 112.438 67.2588C114.034 66.5285 115.831 66.5947 116.658 66.5947H118.609L118.5 66.0039C117.104 58.4548 111.443 54.4783 105.141 54.0107C96.875 53.3975 89.677 59.6008 89.0635 67.8662L89.0615 67.8877L89.0625 67.9092C89.0859 70.1972 89.682 72.4433 90.7969 74.4414L90.8008 74.4473C91.0267 74.8389 91.0272 75.3197 90.8057 75.7129C90.5623 76.1019 90.1259 76.3257 89.668 76.2939L89.6504 76.293H87.8301C80.3487 76.1388 73.0658 78.7076 67.3369 83.5215L67.3301 83.5273L67.3232 83.5342C66.124 84.618 65.0589 85.842 64.1514 87.1797L64.0654 87.3066V87.46C64.0654 95.0707 70.235 101.241 77.8457 101.241C85.4566 101.241 91.627 95.0708 91.627 87.46C91.6272 86.7545 92.1989 86.1828 92.9043 86.1826C93.6099 86.1826 94.1824 86.7544 94.1826 87.46V87.4629C94.2198 94.4337 89.8156 100.655 83.2285 102.937C74.731 105.88 65.4568 101.377 62.5137 92.8789L61.9414 91.2285L61.5537 92.9316C61.3216 93.9495 61.1989 94.9893 61.1865 96.0332C61.146 96.67 61.146 97.3094 61.1865 97.9463L61.1875 97.9648L61.1904 97.9844C61.2709 98.5519 61.3809 99.1156 61.5205 99.6719V99.6709C63.8361 109.004 74.777 115.979 87.749 115.979C95.0648 115.979 101.714 113.754 106.546 110.155C111.377 106.557 114.419 101.558 114.419 96.0293V96.0156Z" stroke="#331111"/>
</g>
<defs>
<filter id="filter0_d_4536_1540" x="51.2266" y="10.0098" width="105.773" height="105.773" filterUnits="userSpaceOnUse" color-interpolation-filters="sRGB">
<feFlood flood-opacity="0" result="BackgroundImageFix"/>
<feColorMatrix in="SourceAlpha" type="matrix" values="0 0 0 0 0 0 0 0 0 0 0 0 0 0 0 0 0 0 127 0" result="hardAlpha"/>
<feOffset/>
<feGaussianBlur stdDeviation="25"/>
<feComposite in2="hardAlpha" operator="out"/>
<feColorMatrix type="matrix" values="0 0 0 0 1 0 0 0 0 0.341176 0 0 0 0 0.341176 0 0 0 0.32 0"/>
<feBlend mode="normal" in2="BackgroundImageFix" result="effect1_dropShadow_4536_1540"/>
<feBlend mode="normal" in="SourceGraphic" in2="effect1_dropShadow_4536_1540" result="shape"/>
</filter>
<filter id="filter1_d_4536_1540" x="0" y="0.680664" width="188.609" height="168.212" filterUnits="userSpaceOnUse" color-interpolation-filters="sRGB">
<feFlood flood-opacity="0" result="BackgroundImageFix"/>
<feColorMatrix in="SourceAlpha" type="matrix" values="0 0 0 0 0 0 0 0 0 0 0 0 0 0 0 0 0 0 127 0" result="hardAlpha"/>
<feOffset/>
<feGaussianBlur stdDeviation="25"/>
<feComposite in2="hardAlpha" operator="out"/>
<feColorMatrix type="matrix" values="0 0 0 0 1 0 0 0 0 0.341176 0 0 0 0 0.341176 0 0 0 0.32 0"/>
<feBlend mode="normal" in2="BackgroundImageFix" result="effect1_dropShadow_4536_1540"/>
<feBlend mode="normal" in="SourceGraphic" in2="effect1_dropShadow_4536_1540" result="shape"/>
</filter>
</defs>
</svg>
