<svg width="566" height="220" viewBox="0 0 566 220" fill="none" xmlns="http://www.w3.org/2000/svg">
<g clip-path="url(#clip0_4627_1540)">
<mask id="mask0_4627_1540" style="mask-type:luminance" maskUnits="userSpaceOnUse" x="0" y="64" width="564" height="92">
<path d="M0 64.7207H563.96V155.281H0V64.7207Z" fill="white"/>
</mask>
<g mask="url(#mask0_4627_1540)">
<path fill-rule="evenodd" clip-rule="evenodd" d="M492.815 128.233V104.335H479.656V130.773C479.656 139.719 488.916 146.979 500.342 146.979C511.767 146.979 521.027 139.719 521.027 130.773V104.335H507.966V128.233C507.966 132.207 504.57 135.437 500.394 135.437C496.216 135.437 492.823 132.21 492.823 128.233H492.815Z" fill="white"/>
<path d="M563.958 75.9297H550.703V145.49H563.958V75.9297ZM541.559 75.9297H528.305V145.49H541.559V75.9297Z" fill="white"/>
<path fill-rule="evenodd" clip-rule="evenodd" d="M285.843 90.5241H278.639V145.489H264.539V79.1211H288.776C299.812 79.1211 308.75 87.8954 308.75 98.7198C308.75 107.937 302.265 115.665 293.536 117.763L313.014 145.489H296.391L282.301 123.76V107.886H285.574C290.779 107.886 295 103.995 295 99.2003C295 94.4031 291.048 90.514 285.836 90.514L285.843 90.5241Z" fill="white"/>
<path d="M354.663 127.614C354.752 126.709 354.792 125.78 354.784 124.83C354.985 110.488 345.491 102.612 333.394 102.612C321.296 102.612 311.488 112.541 311.488 124.787C311.488 137.033 321.296 146.979 333.394 146.979C342.626 146.979 349.833 142.801 353.541 136.255L342.784 131.295C341.408 134.255 338.206 136.343 334.48 136.333C329.321 136.326 325.51 132.54 325.465 128.075V127.622H354.655L354.663 127.614ZM325.422 119.992C325.459 117.87 326.329 115.848 327.842 114.361C329.356 112.873 331.394 112.04 333.516 112.04C335.638 112.04 337.675 112.873 339.189 114.361C340.703 115.848 341.572 117.87 341.61 119.992H325.412H325.422ZM407.416 145.49L407.399 75.9297H394.19V108.843C390.673 105.362 385.991 103.256 380.875 103.256C369.927 103.256 361.057 112.959 361.057 124.933C361.057 136.907 369.927 146.612 380.875 146.612C386.044 146.612 390.726 144.411 394.25 140.859V145.487L407.416 145.49ZM384.633 135.327C379.265 135.327 374.903 130.555 374.903 124.681C374.903 118.807 379.255 114.04 384.633 114.04C390.011 114.04 394.363 118.807 394.363 124.681C394.363 130.555 390.011 135.324 384.633 135.324V135.327ZM463.438 109.364C467.068 105.978 469.287 101.445 469.287 96.4667C469.287 91.9588 467.546 87.8081 464.51 84.553C461.35 81.0715 455.755 79.1219 448.191 79.1219H425.539V145.49H454.797C466.006 145.306 475.04 136.839 475.04 126.457C475.04 118.903 472.376 113.515 463.448 109.364H463.438ZM452.344 133.966H439.663V90.5224H448.506C452.387 90.5224 455.537 94.0744 455.537 97.9634C455.537 98.8871 455.356 99.8018 455.003 100.655C454.65 101.509 454.132 102.284 453.479 102.937C452.826 103.591 452.051 104.109 451.197 104.462C450.344 104.816 449.429 104.997 448.506 104.997H443.902V116.928H452.344C457.051 116.928 460.61 120.722 460.61 125.431C460.444 130.293 457.461 133.654 452.344 133.966Z" fill="white"/>
<path d="M118.897 65.2207C143.626 65.2209 163.677 85.2701 163.677 110.001C163.677 134.732 143.626 154.78 118.897 154.78C94.1666 154.78 74.1173 134.732 74.1172 110.001C74.1172 85.27 94.1665 65.2207 118.897 65.2207Z" stroke="white"/>
<path d="M171.87 131.037C171.73 130.861 171.453 130.835 171.294 130.835C171.227 130.834 171.16 130.837 171.093 130.845C170.608 130.906 170.162 130.931 169.702 130.931C169.465 130.93 169.227 130.924 168.99 130.913C168.796 130.913 168.623 130.896 168.449 130.896C168.163 130.896 167.929 130.913 167.695 130.959H167.639L167.614 131.009C167.579 131.079 166.683 132.644 166.804 133.638C166.935 134.709 168.022 134.926 168.849 135.092C169.146 135.152 169.486 135.212 169.833 135.212C170.423 135.211 170.817 135.014 171.015 134.621C171.447 133.563 171.756 132.459 171.938 131.331C171.952 131.277 171.954 131.221 171.942 131.167C171.93 131.113 171.906 131.062 171.87 131.019V131.037ZM230.994 134.568C230.48 133.829 229.585 133.235 228.87 132.757C228.585 132.582 228.311 132.388 228.05 132.176L227.904 132.071C227.742 131.932 227.535 131.855 227.321 131.854C226.511 131.854 225.633 132.828 225.615 133.157C225.59 133.645 226.284 134.516 227.19 135.597L227.381 135.831C227.842 136.38 228.335 136.672 228.86 136.709C229.391 136.709 229.809 136.533 230.254 136.118C230.584 135.814 231.316 135.046 230.984 134.576L230.994 134.568ZM234.782 140.87C234.657 140.624 234.553 140.368 234.47 140.105C234.395 139.737 234.336 139.365 234.294 138.991C234.219 138.397 234.148 137.834 233.964 137.398C233.833 137.13 233.631 136.903 233.379 136.741C233.128 136.58 232.837 136.491 232.538 136.483C232.332 136.48 232.128 136.529 231.944 136.624C231.059 137.066 230.526 137.547 230.674 138.546C231.162 140 231.404 141.054 231.728 142.487C231.763 142.706 231.912 143.428 232.256 143.428C232.285 143.428 232.312 143.426 232.337 143.421L234.888 142.586C234.947 142.568 235.002 142.538 235.048 142.497C235.095 142.456 235.132 142.406 235.157 142.349C235.305 142.009 235.036 141.436 234.774 140.877L234.782 140.87Z" fill="white"/>
<path d="M230.27 142.903C230.068 141.336 229.634 139.808 228.98 138.37L228.947 138.302H228.869C227.387 138.395 226.474 137.195 225.586 136.046C225.292 135.663 225.02 135.306 224.726 134.994C224.286 134.502 223.812 134.042 223.307 133.618C222.784 133.165 222.341 132.765 222.168 132.411C221.959 131.973 221.732 131.138 221.514 130.328C221.358 129.754 221.212 129.206 221.071 128.831L220.983 128.597C220.714 127.883 220.392 126.995 219.468 126.849C219.008 126.771 218.503 126.753 218.025 126.736C216.691 126.683 215.353 126.449 214.666 125.49C214.03 124.61 214.289 123.792 214.649 122.924C214.805 122.54 214.918 122.22 215.006 121.853C215.484 120.243 215.65 118.241 215.283 116.839C215.223 116.613 215.154 116.39 215.074 116.17C214.883 115.587 214.656 114.699 214.797 114.429C214.943 114.16 215.091 114.115 215.361 114.115C215.597 114.115 215.866 114.196 216.118 114.266C216.301 114.316 216.44 114.341 216.616 114.387C217.275 114.543 218.269 114.724 219.174 114.724C220.671 114.724 222.243 114.402 223.602 113.818C226.17 112.575 228.703 109.766 228.572 106.284C228.233 102.76 226.057 99.3562 221.906 95.8672C221.81 95.7791 221.697 95.6911 221.592 95.6056C221.053 95.1603 220.399 94.5968 220.384 94.0987C220.369 93.6007 221.662 93.2988 222.472 93.1076C222.662 93.0674 222.829 93.0271 222.975 92.9869L223.184 92.934C224.22 92.6649 225.282 92.3856 226.162 91.7769C229.121 89.782 229.015 86.2754 228.678 84.3434C228.663 84.2931 228.648 84.2327 228.633 84.1623C228.582 83.9107 228.512 83.5963 228.275 83.5963C228.19 83.602 228.109 83.6387 228.049 83.6994L227.78 83.951C227.44 84.2755 227.065 84.6403 226.63 84.8817C225.692 85.4402 224.56 85.6767 223.473 85.9031C222.776 86.049 222.054 86.1974 221.385 86.4313C218.442 87.4501 216.616 88.9393 215.962 90.8612C215.622 91.8624 215.806 93.1252 216.457 94.3427C217.423 95.8672 218.807 97.1979 220.155 98.4859C222.281 100.523 224.472 102.619 224.978 105.474C225.254 107.134 224.578 108.538 222.915 109.748C222.044 110.269 220.93 110.548 219.695 110.548C218.129 110.534 216.59 110.146 215.205 109.416C213.481 108.556 211.819 107.441 210.209 106.362C207.789 104.745 205.283 103.072 202.509 102.186C201.306 101.635 199.968 101.366 198.677 101.105C196.841 100.732 194.944 100.35 193.42 99.155C192.896 98.8101 192.383 98.4502 191.88 98.0758C190.497 97.0772 189.071 96.0382 187.453 95.6307C186.849 95.4219 186.261 95.3439 185.685 95.2584C184.797 95.1276 183.971 95.0144 183.204 94.466L182.16 93.7088C180.872 92.768 179.542 91.7945 178.211 91.1228C175.922 89.9833 173.484 89.3921 170.76 88.801C169.889 88.5922 169.351 87.9381 168.775 87.2413C168.393 86.7734 167.993 86.293 167.487 85.9534C165.392 84.2931 163.485 83.1787 161.03 83.1787C160.8 83.1787 160.571 83.1871 160.343 83.2039C159.055 83.2919 157.802 84.2654 156.967 84.9975C154.522 87.1357 151.886 89.0425 149.345 90.8889C145.546 93.6308 141.632 96.4659 138.281 100.131C134.984 103.535 133.791 107.778 132.624 111.896C132.45 112.505 132.287 113.106 132.103 113.715C131.789 114.839 131.502 115.997 131.223 117.111C129.711 123.174 128.154 129.234 122.094 133.165C121.694 133.427 121.835 133.933 122.207 134.071C122.366 134.131 124.906 134.984 127.439 132.443C128.969 130.547 129.822 128.796 131.65 126.839C131.711 126.778 131.92 126.612 132.093 126.63C132.216 126.69 132.252 126.753 132.216 126.97C131.98 127.754 131.502 128.441 131.034 129.11C130.556 129.797 130.066 130.504 129.822 131.311C129.241 133.052 127.621 134.463 126.184 135.698C126.184 135.698 125.958 135.847 125.829 136.013C125.699 136.176 125.699 136.247 125.699 136.247C125.653 136.629 125.958 136.866 126.577 136.891C129.973 136.891 132.39 134.481 134.722 132.139C134.773 132.087 134.834 132.048 134.902 132.022C134.97 131.996 135.042 131.986 135.114 131.991C135.242 131.987 135.369 132.007 135.489 132.051C135.645 132.139 136.002 132.489 136.279 132.73C137.046 133.409 137.829 134.114 138.855 134.322H138.89C140.128 134.149 141.24 134.011 142.389 134.011C142.725 134.009 143.033 134.021 143.313 134.046C144.548 134.418 145.793 134.888 146.985 135.334C147.828 135.656 148.698 135.978 149.576 136.272H149.614C150.746 136.229 151.551 135.178 152.145 134.244C152.421 133.583 152.293 132.939 152.162 132.313C152.084 131.923 152.006 131.558 152.031 131.198C152.24 131.095 152.527 131.113 152.834 131.155C153.103 131.198 153.493 131.155 153.624 131.138C153.921 131.095 154.233 130.755 154.147 130.313C153.921 129.181 153.355 128.484 152.789 127.613C152.293 126.874 151.823 126.18 151.589 125.395C151.214 124.358 150.422 123.498 149.657 122.663C148.769 121.697 147.934 120.781 147.68 119.624C147.68 119.624 147.604 119.38 147.69 119.284C147.775 119.189 148.012 119.302 148.012 119.302C148.419 119.599 148.829 119.931 149.219 120.25C150.51 121.297 151.84 122.384 153.46 122.628C154.965 122.776 156.617 122.967 158.227 122.829C158.655 122.758 158.871 122.384 158.768 122.026C158.124 120.668 157.463 119.209 157.063 117.614C156.723 116.414 155.966 113.255 156.741 110.87C156.819 110.636 156.975 110.556 157.115 110.556C157.129 110.554 157.149 110.557 157.176 110.566C157.437 110.626 157.611 110.94 157.646 111.182L157.671 111.496C157.898 114.741 158.114 117.805 160.099 120.416C160.63 121.262 161.387 121.704 162.119 122.14C162.622 122.436 163.206 122.706 163.573 123.176C163.99 123.704 164.058 124.61 163.774 125.158L161.334 128.756C160.76 129.573 160.202 130.451 160.003 131.347C159.822 132.252 159.9 133.133 159.978 133.985L159.996 134.192C159.918 134.143 159.854 134.075 159.812 133.993C158.831 132.217 158.63 130.713 159.133 129.555C159.455 128.806 161.44 125.996 162.013 125.073C162.197 124.776 162.345 124.482 162.189 124.28C161.996 124.029 160.509 123.392 160.116 123.392C160.091 123.391 160.065 123.394 160.038 123.402C159.691 123.498 159.465 123.82 159.264 124.107L159.125 124.298L156.122 129.747L156.051 129.948C155.878 130.494 155.724 130.964 155.878 131.591C156.044 132.408 156.295 133.289 156.487 133.93L156.645 134.463C156.914 135.412 157.166 136.3 157.583 136.795C157.709 136.946 157.868 137.066 158.048 137.145C158.228 137.223 158.424 137.259 158.62 137.248C158.846 137.248 159.08 137.213 159.306 137.178C159.684 137.117 160.091 137.074 160.396 137.152C160.849 137.266 161.16 137.605 161.492 137.952C161.822 138.31 162.162 138.674 162.667 138.823C163.598 139.137 164.572 139.389 165.512 139.633C166.765 139.962 168.063 140.302 169.298 140.78C169.995 141.006 170.742 141.215 171.464 141.215C172.267 141.215 172.762 140.989 173.459 140.425C174.433 139.633 174.754 138.848 174.999 137.718C175.19 136.682 175.537 136.612 176.286 136.569C176.651 136.551 176.704 136.569 177.061 136.448C177.436 136.325 178.523 134.994 179.089 133.907C179.248 133.609 179.407 133.341 179.567 133.105C179.717 132.907 179.8 132.667 179.803 132.418C179.803 131.877 179.35 131.714 179.064 131.704H178.87C178.87 131.704 175.668 131.679 174.79 131.704C173.477 131.774 172.903 133.037 172.44 134.159C172.257 134.594 172.091 134.994 171.874 135.351C171.527 135.978 170.848 136.36 170.013 136.342C169.769 136.342 169.228 136.194 168.951 136.126C167.218 135.698 165.434 135.263 164.702 133.54C164.634 133.246 164.521 132.635 164.954 132.121C165.877 131.052 167.097 129.694 168.35 128.72C170.091 128.353 171.831 127.065 172.787 125.448C172.989 125.168 173.092 124.839 173.197 124.524C173.353 124.036 173.499 123.576 173.944 123.289C174.224 123.148 174.45 123.194 174.51 123.438C174.677 124.343 174.337 125.211 173.997 126.054C173.921 126.242 173.849 126.431 173.781 126.622L173.728 126.761L173.877 126.778C174.358 126.824 174.848 126.847 175.346 126.849C177.132 126.849 178.827 126.544 180.472 126.248C182.1 125.951 183.788 125.646 185.529 125.646C185.713 125.645 185.902 125.648 186.095 125.656C186.869 125.656 187.617 125.724 188.349 125.787C189.063 125.848 189.803 125.918 190.542 125.918C190.801 125.918 191.045 125.918 191.289 125.893C193.518 125.787 195.138 124.776 195.624 123.176C196.084 121.81 196.034 119.453 195.475 116.16C195.45 116.004 195.432 115.901 195.432 115.883V115.823C195.432 115.7 195.432 115.572 195.598 115.491C195.807 115.378 196.026 115.491 196.127 115.76C196.972 118.127 197.46 120.852 197.722 122.723C198.008 124.542 198.765 126.386 200.053 128.353C201.646 130.73 204.275 132.096 207.258 132.096C207.955 132.096 208.652 131.965 209.338 131.877C209.816 131.817 210 131.842 210.322 131.842C214.118 131.842 217.416 133.487 219.879 136.597C219.879 136.597 219.921 136.657 219.921 136.742C219.921 136.873 219.73 137.004 219.564 136.934L219.242 136.682C217.104 135.022 214.89 133.306 212.116 132.967C211.598 132.878 211.074 132.834 210.548 132.836C209.762 132.848 208.978 132.906 208.199 133.009C207.434 133.097 206.72 133.185 205.98 133.185C205.12 133.201 204.265 133.048 203.465 132.733C200.27 131.676 197.661 128.003 196.823 125.724C196.793 125.66 196.746 125.606 196.686 125.568C196.626 125.529 196.557 125.509 196.486 125.508C196.399 125.506 196.309 125.536 196.215 125.596C195.842 125.83 195.779 125.951 195.729 126.177C195.676 126.368 195.988 128.006 196.129 128.71C196.547 130.451 197.173 133.08 199.452 134.053C199.734 134.223 200.016 134.4 200.297 134.584C201.437 135.314 202.612 136.073 203.96 136.073C204.284 136.073 204.602 136.03 204.916 135.942C205.729 135.765 206.554 135.675 207.389 135.673C210.018 135.673 212.689 136.569 214.935 138.204C215.308 138.423 215.665 138.717 216.005 139.006C216.493 139.414 216.988 139.832 217.582 140.05C217.954 140.201 218.354 140.277 218.782 140.277C219.801 140.277 220.06 139.972 220.784 139.615C221.05 139.484 221.341 139.412 221.637 139.406C222.454 139.406 222.907 140.04 223.481 140.85C223.828 141.338 224.22 141.887 224.751 142.365C225.491 143.087 226.517 143.175 227.327 143.175C227.772 143.175 228.215 143.139 228.65 143.114C229.068 143.089 229.573 143.069 229.843 143.044C230.104 143.009 230.253 142.973 230.253 142.973V142.87L230.27 142.903ZM143.798 130.765C143.652 131.035 143.295 131.191 142.825 131.191C142.434 131.199 142.049 131.093 141.718 130.886C141.109 130.451 140.754 129.729 140.701 128.781C140.691 128.562 140.676 128.335 140.971 128.119C141.119 128.031 141.207 128.031 141.381 128.031C141.962 128.031 142.895 128.406 143.391 129.007C143.426 129.05 144.201 130.076 143.801 130.773L143.798 130.765ZM144.636 117.37C144.417 117.649 144.087 117.858 143.765 117.702C143.461 117.597 143.189 117.204 143.026 116.91C142.817 116.535 142.641 116.213 142.145 116.248H142.067C141.632 116.283 141.303 116.5 140.953 116.769C140.779 116.91 140.073 117.433 139.901 117.579C138.953 118.381 137.995 119.207 137.768 120.328C137.721 120.529 137.677 120.73 137.637 120.932C137.567 121.322 137.499 121.73 137.167 121.938H137.142C137.097 121.965 137.045 121.978 136.993 121.974C136.843 121.968 136.699 121.914 136.583 121.818C136.524 121.773 136.475 121.715 136.441 121.649C136.407 121.583 136.387 121.51 136.385 121.435C136.219 119.503 136.873 117.763 138.229 116.527C139.109 115.805 139.813 114.9 140.5 114.019C140.832 113.592 141.179 113.149 141.537 112.742C141.806 112.472 142.251 112.699 142.981 113.496C143.285 113.828 144.243 115.458 144.679 116.527C144.729 116.661 144.751 116.803 144.742 116.945C144.733 117.088 144.695 117.226 144.628 117.353L144.636 117.37ZM160.622 94.9087C160.257 95.2584 159.872 95.6056 159.49 95.9628C158.132 97.1979 156.731 98.4783 155.81 99.9223C155.375 100.513 155.053 101.193 154.738 101.854C154.703 101.925 154.625 102.071 154.477 102.071C154.4 102.065 154.328 102.031 154.275 101.975C154.016 101.713 154.233 99.8946 154.572 98.9814C155.322 96.964 157.017 94.8484 159.239 93.1856C159.485 93.0346 159.767 92.9537 160.056 92.9516C160.474 92.9516 160.796 93.1428 160.926 93.4724C161.203 93.9176 161.103 94.4383 160.622 94.9087ZM69.9363 133.158C69.8582 133.027 69.786 132.893 69.72 132.755C69.4936 132.33 69.3729 131.877 69.2597 131.485C69.0333 130.695 68.8421 130.006 67.9792 130.127C66.7617 130.303 65.5769 130.381 64.2562 130.381C64.2361 130.381 63.8286 130.381 63.6978 130.667C63.5493 130.999 63.8814 131.311 64.2386 131.633C64.4373 131.817 64.6461 132.008 64.7845 132.217C65.0285 132.574 65.2624 133.087 65.4888 133.583C65.846 134.375 66.1605 135.054 66.5177 135.168C66.6812 135.215 66.8507 135.237 67.0208 135.236C67.8509 135.236 68.988 134.793 69.8156 134.149C70.2759 133.756 70.13 133.495 69.9212 133.148L69.9363 133.158ZM10.4208 131.923L10.3529 131.87C10.1013 131.669 9.64854 131.694 9.34164 131.905C9.13285 132.051 8.914 132.192 8.70772 132.333C8.02852 132.783 7.32417 133.243 6.58459 133.87C6.31291 134.096 6.1645 134.524 6.13934 134.853C6.11418 135.115 6.1645 135.324 6.27015 135.457C6.33052 135.525 6.87137 136.124 6.98457 136.222C7.22199 136.433 7.5271 136.553 7.84489 136.559C8.09963 136.553 8.34945 136.487 8.5744 136.368C9.89003 135.709 11.2484 133.271 11.3013 133.13C11.4396 132.74 10.9969 132.383 10.4208 131.923ZM6.08651 137.701C5.81735 137.318 4.92181 136.264 4.41618 136.264C4.37342 136.264 4.32814 136.264 4.29544 136.29C3.59863 136.576 2.78862 137.482 2.74586 138.023C2.56977 140.38 2.50185 140.631 1.85787 141.356C1.67423 141.557 1.55348 142.025 1.76227 142.226C1.94339 142.407 4.26022 143.139 4.51932 143.139H4.57215C4.78094 143.069 4.95451 142.538 5.42744 140.911C5.67899 140.03 5.96577 139.039 6.28776 138.144C6.30537 138.083 6.31291 137.995 6.10412 137.701H6.08651Z" fill="white"/>
<path d="M77.0767 137.545C78.0251 137.474 79.0087 137.404 79.7055 136.664C80.5859 135.384 81.3406 134.099 82.0047 132.74C82.5959 131.52 82.6034 130.328 82.0223 129.397C80.2715 126.595 79.9596 125.855 79.2452 123.951L79.2275 123.898L79.1772 123.88C78.9704 123.816 78.7665 123.743 78.566 123.662C78.1383 123.498 77.6855 123.314 77.1749 123.314H77.1044C76.5032 123.332 76.0957 123.523 75.9297 123.855L75.9045 123.906L79.0791 130.172C79.2804 130.66 79.5143 131.155 79.3936 131.887C79.2703 132.617 77.7132 135.072 77.2428 135.384C77.1641 135.449 77.0676 135.488 76.9661 135.497C76.9308 135.497 76.7648 135.465 76.868 135.097C77.1648 134.081 77.5396 131.686 77.434 130.921C77.3208 130.033 74.6593 125.629 74.5461 125.438L74.4933 125.362C74.0832 124.69 73.6581 123.994 73.6933 123.184C73.6933 122.809 74.0405 122.55 74.292 122.454C74.7549 122.278 75.1976 122.21 75.668 122.104C76.8 121.853 77.9647 121.601 78.3848 120.965C79.6552 119.033 80.4099 117.015 80.9155 114.221C80.9406 114.097 81.0287 113.863 81.2023 113.863C81.3079 113.863 81.411 113.899 81.4538 114.14C81.6837 115.462 81.6484 116.816 81.35 118.123C81.0516 119.431 80.496 120.666 79.7156 121.757C79.6054 121.94 79.5651 122.156 79.6024 122.366C79.6376 122.592 79.8891 122.776 79.8891 122.776C80.4979 123.194 82.7267 122.95 84.3442 122.104C85.5793 122.13 86.739 121.913 87.8685 121.704C88.2274 121.636 88.5812 121.572 88.93 121.513C89.0432 121.574 89.1313 121.679 89.1489 121.757C88.2005 122.826 87.6245 124.029 87.3302 125.533C87.0605 125.806 86.7819 126.071 86.495 126.326C85.4586 127.274 84.3442 128.338 84.2914 129.694C84.2914 129.694 84.2587 130.182 84.7894 130.215C84.953 130.225 85.1441 130.139 85.3177 130.069C85.4882 129.98 85.6766 129.932 85.8686 129.928C85.9497 129.939 86.0242 129.979 86.0793 130.04C86.1344 130.1 86.1666 130.178 86.1705 130.26L84.9882 131.991C84.5454 132.713 84.7366 133.48 84.9102 134.229C85.041 134.637 84.9806 134.959 85.0938 135.324C85.3881 136.186 86.4422 136.594 87.2773 136.594C88.8169 136.526 90.2205 136.02 91.5764 135.532C91.8204 135.447 92.0544 135.359 92.3059 135.273C93.7951 134.629 95.7799 134.499 98.1395 134.881C100.036 134.758 101.463 133.505 102.846 132.287C103.438 132.304 104.048 132.652 104.675 133.331C106.728 135.532 109.243 136.602 112.367 136.602H112.725L113.037 136.576C113.359 136.501 113.447 136.342 113.464 136.141C113.489 135.9 113.298 135.656 112.951 135.49L111.2 134.559C109.799 133.671 108.277 132.599 107.86 131.188C107.407 129.684 106.562 128.154 105.928 127.136C105.798 126.928 105.662 126.725 105.518 126.527C105.274 126.17 105.015 125.802 104.838 125.42C106.745 126.099 107.814 127.508 109.105 129.86C110.061 131.608 112.551 133.487 114.908 133.487C115.223 133.487 115.517 133.452 115.814 133.392C116.065 133.341 116.231 133.175 116.267 132.957C116.292 132.765 116.267 132.582 116.058 132.469L114.629 131.757C112.933 130.763 111.957 129.128 111.009 127.536C110.634 126.907 110.254 126.265 109.834 125.682C109.565 125.279 109.095 124.864 108.687 124.499C108.33 124.177 107.99 123.87 107.928 123.707C106.38 119.476 104.693 114.507 104.282 108.981C104.222 108.138 103.628 106.284 102.924 105.082C100.723 101.497 95.4655 95.3615 95.1787 95.0572C94.9976 94.8669 94.8122 94.6807 94.6227 94.4987L94.4819 94.3604L85.0133 86.4942C83.1342 85.171 82.5607 84.9346 81.1947 84.4491C80.2376 84.1199 79.2309 83.9582 78.2188 83.9711C76.878 83.9711 75.5372 84.2302 74.4404 84.7006C73.6858 85.1031 72.9538 85.571 72.2393 86.0238C71.0319 86.7986 69.7741 87.5985 68.4182 88.0513C67.3566 88.5293 66.2171 88.879 65.1128 89.2186C62.962 89.8776 60.7432 90.5669 58.9849 92.1869C58.4717 92.6548 58.0541 93.0472 57.7045 93.3868C56.0794 94.9188 55.9134 95.0823 54.5827 95.0823C51.5011 95.0823 49.3176 95.8395 47.036 97.6935C45.2348 99.3286 43.4513 100.863 41.371 101.585C40.4402 101.907 39.4038 102.028 38.307 102.133C36.7323 102.272 36.4883 102.289 35.0016 102.647C32.7552 103.16 30.3729 105.011 28.3605 106.578C27.6989 107.092 26.821 107.771 26.4034 108.042C26.1845 108.181 25.9254 108.344 25.7141 108.47C23.2086 109.929 20.8491 111.313 17.8203 111.313H17.5939C15.3324 111.149 13.2797 109.59 12.5905 107.527C11.9566 105.205 12.6358 102.82 14.4696 100.991C15.34 100.121 16.3311 99.2783 17.2996 98.4607C18.8492 97.1451 20.3107 95.8999 21.3295 94.5364C22.5118 92.9516 22.381 90.2801 21.0503 88.8261C19.7271 87.3721 16.7688 86.6502 15.6544 86.381L15.4633 86.3357C15.3501 86.3106 15.1589 86.2854 15.0532 86.2603C14.3489 86.1194 13.6697 86.0238 12.9829 85.8578C11.2245 85.3798 9.85859 84.0139 8.30147 83.1787C7.70025 84.0994 7.499 85.1006 7.5795 86.215C7.87382 88.5645 9.83344 91.0021 12.0069 91.9932C12.1025 92.0284 12.1905 92.0712 12.2861 92.0989C12.9729 92.3932 13.6948 92.4385 14.374 92.4385H15.2545C15.672 92.4385 16.1777 92.4385 16.628 92.5517C16.8671 92.6207 17.081 92.7578 17.2436 92.9463C17.4062 93.1348 17.5104 93.3665 17.5436 93.6132C17.5788 93.9252 17.438 94.1692 17.0405 94.4736L15.9337 95.3867C14.0621 96.9287 12.1301 98.5311 10.5629 100.468C8.45743 102.742 8.36184 106.692 9.34542 109.25C10.5982 112.621 14.0621 114.507 16.9424 114.872C17.4556 114.95 17.9687 114.995 18.5096 114.995C20.2051 114.995 21.815 114.585 23.3822 114.193C23.4409 114.178 23.4904 114.172 23.5306 114.175C23.6011 114.175 23.7394 114.175 23.7646 114.533C23.8099 115.229 23.8526 116.022 23.8878 116.787C23.9382 118.032 24.001 119.206 24.0891 119.705C24.2954 120.809 24.8438 122.157 25.211 123.045C25.367 123.42 25.4877 123.714 25.523 123.863C25.6638 124.366 25.533 124.917 25.1934 125.229C24.0111 126.318 21.5962 127.178 21.1534 127.241C20.4415 127.327 19.6844 127.369 19.1259 127.397C18.8492 127.412 18.6228 127.422 18.5096 127.44C18.2601 127.466 18.0268 127.576 17.848 127.752C17.5084 128.084 17.1436 129.032 16.7085 130.129C16.4468 130.791 16.1852 131.477 15.9161 132.043C15.1589 133.296 13.8961 134.036 12.671 134.74C12.3624 134.916 12.0605 135.096 11.7654 135.281L11.7302 135.316C11.2271 136.116 10.7189 136.873 10.0674 137.447C9.56427 137.917 8.91778 138.023 8.2914 138.101H8.24864L8.22348 138.136C7.26506 139.233 6.96067 140.684 6.65629 142.103C6.61101 142.323 6.56405 142.537 6.51542 142.747L6.47266 142.948H6.59592C7.09903 143.009 7.60214 143.114 8.13544 143.235C8.83979 143.391 9.56176 143.55 10.2762 143.55C10.9554 143.55 11.5289 143.409 12.0522 143.122C12.9653 142.704 13.4533 141.859 13.9313 141.052C14.2457 140.521 14.5677 139.962 15.0029 139.537C15.1239 139.4 15.2741 139.291 15.4425 139.219C15.6109 139.146 15.7933 139.113 15.9764 139.12C16.3336 139.12 16.7261 139.223 17.0984 139.328C17.448 139.424 17.8027 139.52 18.1423 139.537C19.8328 139.633 21.4327 138.571 22.2075 137.952C22.5471 137.683 22.8867 137.361 23.2162 137.057C23.7294 136.579 24.2526 136.081 24.8186 135.734C25.5053 135.402 26.333 135.246 27.3593 135.246C28.6297 135.246 29.978 135.497 31.0496 135.698C31.6206 135.847 32.208 135.923 32.7979 135.925C33.7612 135.943 34.7125 135.708 35.5575 135.246C36.4983 134.717 37.4442 134.219 38.2039 133.819C38.6466 133.583 39.039 133.384 39.3434 133.211C40.6918 132.471 41.8414 130.416 42.2665 129.563C42.669 128.771 43.3482 127.058 43.3557 127.04L43.3909 126.962L41.8137 125.76L41.7533 125.865C41.7533 125.865 40.7094 127.578 40.0402 128.371C37.2631 132.149 32.7451 132.635 29.1177 132.635C28.8661 132.624 28.6163 132.619 28.368 132.617C23.8778 132.617 20.2579 134.124 17.6115 137.1C17.4908 137.238 17.2719 137.266 17.1839 137.142C17.1336 137.074 17.116 136.961 17.1512 136.82C17.2048 136.556 17.3053 136.303 17.448 136.073C20.2579 132.079 25.0626 131.487 28.9341 131.417C31.7968 131.226 33.8771 130.73 35.6883 129.807C38.0127 128.625 39.7258 126.014 40.405 123.941C40.8477 122.582 41.0666 121.131 41.2754 119.73C41.4414 118.615 41.615 117.466 41.8917 116.404C41.9169 116.338 41.9613 116.281 42.0191 116.241C42.077 116.201 42.1456 116.179 42.2162 116.178C42.2489 116.178 42.2766 116.178 42.3269 116.203C42.4778 116.231 42.7545 116.334 42.7545 116.553C42.3621 118.746 41.8313 121.757 42.8325 124.263C43.3029 125.254 44.294 125.742 45.8788 125.742C46.8347 125.742 47.8812 125.576 48.8975 125.42C49.6824 125.299 50.4219 125.176 51.0558 125.151C51.3242 125.126 51.5975 125.114 51.8759 125.116C53.1362 125.116 54.3563 125.36 55.531 125.593C56.5574 125.802 57.6189 126.011 58.7056 126.064C58.9002 126.074 59.1065 126.089 59.3245 126.109C59.6993 126.142 60.0892 126.17 60.4917 126.17C61.4124 126.17 62.0664 125.986 62.5368 125.604C62.8664 125.334 62.7532 124.924 62.6048 124.411L62.5796 124.316C62.5561 124.227 62.5268 124.131 62.4916 124.029C62.2828 123.35 61.9633 122.323 62.4916 121.843C62.5779 121.78 62.6818 121.747 62.7884 121.747C62.8739 121.747 62.9972 121.772 63.0324 121.913L63.206 122.504C63.4399 123.324 63.6839 124.177 64.2072 124.907C65.314 126.315 67.017 127.656 69.1402 128.763C70.5086 129.701 72.1513 131.286 72.2846 133.497C72.2846 134.499 71.3086 135.193 70.5866 135.628C69.4446 136.194 67.495 136.83 66.5743 136.83C66.4521 136.84 66.3295 136.819 66.2171 136.77C64.8939 136.066 64.2147 134.924 63.4927 133.714C63.1154 133.05 62.6882 132.416 62.2148 131.817C61.5256 131.052 60.6552 130.755 59.4804 130.851C58.3484 130.939 57.3045 131.155 56.0693 131.417C55.949 131.438 55.8355 131.488 55.7387 131.562C55.6418 131.637 55.5645 131.734 55.5134 131.845C55.4596 131.977 55.4377 132.119 55.4495 132.262C55.4613 132.404 55.5065 132.541 55.5813 132.662C56.2253 133.809 56.8441 134.853 57.5057 135.958L57.8026 136.456C57.9585 136.725 58.2981 136.76 58.5748 136.76C58.7258 136.76 58.8884 136.752 59.0629 136.735C59.2473 136.721 59.436 136.713 59.6289 136.71C60.2024 136.71 60.5697 136.848 60.8036 137.135C61.0049 137.437 61.1784 137.761 61.352 138.073C61.7872 138.848 62.2325 139.658 62.9796 140.232C63.6588 140.835 64.6398 141.172 65.6687 141.172C66.1215 141.172 66.5567 141.102 66.9743 140.981C69.9426 140.05 72.8305 139.094 75.58 137.623C75.58 137.623 76.6692 137.605 77.0868 137.57L77.0767 137.545ZM82.0123 104.264C81.962 104.448 81.8462 104.568 81.7154 104.568C81.6651 104.568 81.5243 104.543 81.4815 104.307C80.9859 101.776 80.6891 100.531 80.1055 99.3638C79.9244 98.9915 79.6879 98.677 79.4892 98.3978C79.0615 97.8167 78.6968 97.3186 79.1068 96.642C79.2276 96.4407 79.5319 96.3099 79.8615 96.3099C80.0275 96.3116 80.1759 96.3435 80.3067 96.4055C80.7947 96.642 81.2727 97.2331 81.7607 98.2167C82.9782 100.715 82.0123 104.239 82.0022 104.274L82.0123 104.264ZM97.9307 129.485C97.9307 129.485 97.8502 130.199 97.5207 130.511C97.1811 130.816 95.9811 130.982 95.3447 130.964C94.7108 130.939 94.4919 130.851 94.3636 130.66C94.2127 130.441 94.4567 130.016 94.4567 130.016C94.5347 129.86 95.2743 128.318 96.771 127.91C96.771 127.91 97.249 127.734 97.7119 127.961C98.1722 128.187 97.9559 129.337 97.9383 129.495L97.9307 129.485ZM102.262 119.528C102.219 119.88 102.113 120.222 101.951 120.537C101.873 120.678 101.742 120.982 101.307 120.99C100.829 120.99 100.861 120.434 100.861 120.356C100.861 120.356 100.801 118.796 100.504 118.145C100.182 117.431 98.6175 115.421 97.7119 115.509C97.4855 115.526 96.8943 115.883 96.4591 116.447C95.9283 117.136 95.9283 117.222 95.7623 117.327C95.5963 117.433 95.3875 117.378 95.3196 116.97C95.2491 116.56 95.1686 116.231 95.3623 115.456C95.5535 114.681 95.7447 114.507 95.9711 113.952C95.9711 113.952 96.4415 112.862 96.6151 112.593C97.1031 111.854 97.7471 111.906 97.7471 111.906C97.9206 111.914 98.4766 111.843 99.0803 112.593C99.7746 113.463 99.6262 113.386 99.8174 113.69C100.009 113.992 100.22 114.316 100.793 114.943C101.367 115.572 102.001 116.787 102.177 117.544C102.351 118.301 102.343 118.945 102.245 119.531L102.262 119.528Z" fill="white"/>
</g>
</g>
<defs>
<clipPath id="clip0_4627_1540">
<rect width="566" height="90.56" fill="white" transform="translate(0 64.7207)"/>
</clipPath>
</defs>
</svg>
