<svg width="566" height="220" viewBox="0 0 566 220" fill="none" xmlns="http://www.w3.org/2000/svg">
<g clip-path="url(#clip0_4652_2178)">
<path d="M159.251 67.5C151.923 54.8807 141.429 44.3156 128.852 36.8784C131.97 44.6624 134 52.8958 134.812 61.3888C143.284 62.2699 151.489 64.3442 159.251 67.5Z" fill="white"/>
<path d="M35.4315 150.382C35.4315 136.517 38.5803 123.139 44.5362 111.043C38.046 98.5279 34.6016 84.5603 34.6016 70.065C34.6016 68.3073 34.6607 66.5624 34.7571 64.8237C25.6129 65.9147 16.9176 68.4513 8.89237 72.1872C3.20353 83.5764 0 96.4162 0 110C0 123.122 2.98675 135.54 8.31426 146.635C16.714 150.677 25.8712 153.394 35.5278 154.498C35.4687 153.13 35.4315 151.756 35.4315 150.382Z" fill="white"/>
<path d="M45.0001 59.7159C59.6188 59.7159 73.7007 63.1771 86.3218 69.6964C98.3217 63.9387 111.567 60.8851 125.288 60.8851C126.943 60.8851 128.594 60.9392 130.229 61.0247C129.196 51.2251 126.474 41.923 122.38 33.4082C111.175 28.0207 98.6082 25 85.3346 25C71.6289 25 58.6793 28.2261 47.203 33.947C43.4104 41.9772 40.8397 50.7036 39.7383 59.8728C41.4835 59.7706 43.2352 59.7159 45.0001 59.7159Z" fill="white"/>
<path d="M135.229 70.0672C135.229 84.1722 131.971 97.7731 125.824 110.026C131.723 122.081 134.85 135.405 134.85 149.211C134.85 150.967 134.795 152.714 134.692 154.452C144.62 153.27 154.019 150.387 162.598 146.11C167.77 135.154 170.667 122.914 170.667 110.003C170.667 97.1081 167.783 84.8919 162.629 73.9472C154.152 69.8338 144.892 67.0683 135.132 65.9539C135.192 67.3213 135.229 68.6954 135.229 70.0672Z" fill="white"/>
<path d="M40.7168 37.5344C29.2056 44.5819 19.5052 54.2721 12.4609 65.7573C19.6979 62.9633 27.3027 61.0968 35.1418 60.2525C35.998 52.4005 37.8811 44.7801 40.7168 37.5344Z" fill="white"/>
<path d="M108.909 133.35C103.172 139.065 96.796 143.911 89.9375 147.822C100.492 152.474 112.168 155.065 124.456 155.065C126.366 155.065 128.262 154.993 130.138 154.873C130.261 153.002 130.333 151.113 130.333 149.211C130.333 137.038 127.756 125.464 123.124 114.986C119.253 121.614 114.497 127.784 108.909 133.35Z" fill="white"/>
<path d="M11.7734 153.095C19.0345 165.37 29.3064 175.667 41.5752 182.978C38.5907 175.368 36.644 167.338 35.8513 159.067C27.5108 158.199 19.4265 156.164 11.7734 153.095Z" fill="white"/>
<path d="M47.2545 115.93C42.5598 126.46 39.9453 138.118 39.9453 150.382C39.9453 151.9 39.9891 153.405 40.0658 154.899C41.8241 155.006 43.5955 155.067 45.378 155.067C57.6598 155.067 69.3335 152.476 79.8878 147.822C73.0361 143.911 66.6552 139.067 60.9229 133.35C55.5951 128.051 51.0252 122.196 47.2545 115.93Z" fill="white"/>
<path d="M159.16 152.655C151.283 155.935 142.932 158.095 134.311 159.026C133.382 167.571 131.234 175.835 127.965 183.643C140.884 176.213 151.662 165.501 159.16 152.655Z" fill="white"/>
<path d="M123.183 105.029C128.024 94.3686 130.715 82.5294 130.715 70.067C130.715 68.5511 130.673 67.0508 130.595 65.5522C128.836 65.4433 127.067 65.3909 125.285 65.3909C113.176 65.3909 101.664 67.9034 91.2305 72.4311C97.4561 76.1676 103.265 80.6757 108.533 85.9236C114.332 91.6986 119.232 98.1219 123.183 105.029Z" fill="white"/>
<path d="M61.751 87.1012C67.6565 81.219 74.2431 76.2592 81.3314 72.2876C70.3063 67.114 57.9935 64.2156 45.0021 64.2156C43.0927 64.2156 41.1964 64.2832 39.3177 64.4071C39.1907 66.2787 39.125 68.1631 39.125 70.0693C39.125 82.9504 42.0088 95.1665 47.1568 106.105C51.1005 99.2386 55.9835 92.846 61.751 87.1012Z" fill="white"/>
<path d="M124.457 159.562C110.517 159.562 97.075 156.422 84.9176 150.478C72.7629 156.422 59.3178 159.562 45.3806 159.562C43.723 159.562 42.0742 159.514 40.4297 159.425C41.4479 168.998 44.0602 178.095 47.9995 186.448C59.2763 191.923 71.9439 195 85.3341 195C98.2421 195 110.469 192.139 121.435 187.031C125.686 178.533 128.539 169.224 129.719 159.408C127.974 159.51 126.22 159.562 124.457 159.562Z" fill="white"/>
<path d="M86.2424 74.7869C70.6167 82.8064 57.8045 95.496 49.6523 110.999C57.7456 125.636 70.0382 137.636 84.9172 145.403C100.131 137.464 112.643 125.091 120.723 109.996C112.961 95.1538 100.926 82.8785 86.2424 74.7869ZM85.3315 119.477C79.8766 119.477 75.4577 115.071 75.4577 109.636C75.4577 104.203 79.8766 99.7948 85.3315 99.7948C90.7925 99.7948 95.2114 104.203 95.2114 109.636C95.2114 115.071 90.7925 119.477 85.3315 119.477Z" fill="white"/>
<path d="M269.671 136.794V120.255H263.494L262.101 128.715H245.496L270.363 90.7913L268.821 83.6422H233.293V100.177H239.319L240.789 91.7142H257.851L231.828 130.72L233.293 136.794H269.671ZM295.463 136.794V130.101L291.447 129.483V118.947C292.428 118.947 293.392 118.923 294.344 118.868C295.294 118.82 296.21 118.768 297.088 118.72L305.12 136.794H318.168V130.101L313.303 129.335L306.506 116.41C309.854 115.025 312.477 113.04 314.387 110.449C316.289 107.858 317.24 104.691 317.24 100.951C317.24 97.5613 316.445 94.5758 314.851 91.9845C313.254 89.3999 310.804 87.3608 307.511 85.8734C304.217 84.3859 300.044 83.6422 294.999 83.6422H276.082V90.6411L281.333 91.1816V129.178L276.003 130.258L276.695 136.794L295.463 136.794ZM291.447 91.7924H292.373C296.131 91.8471 299.056 92.2419 301.141 92.9856C303.224 93.7293 304.693 94.7913 305.542 96.1766C306.39 97.5613 306.819 99.2302 306.819 101.178C306.819 102.977 306.379 104.602 305.505 106.065C304.627 107.522 303.248 108.68 301.369 109.524C299.49 110.371 297.036 110.792 293.994 110.792H291.447V91.7924ZM354.622 136.332C356.628 135.824 358.447 135.128 360.066 134.258C361.686 133.383 362.963 132.41 363.889 131.331L360.644 124.489C359.205 125.976 357.412 127.104 355.279 127.871C353.142 128.639 351.018 129.023 348.905 129.023C345.713 129.023 342.918 128.205 340.529 126.563C338.132 124.92 336.266 122.679 334.93 119.834C333.588 116.986 332.894 113.719 332.841 110.024C332.942 106.227 333.719 102.977 335.158 100.255C336.603 97.5373 338.517 95.4329 340.915 93.9454C343.304 92.458 345.918 91.7142 348.754 91.7142C349.573 91.7142 350.193 91.7338 350.609 91.7578C351.018 91.7819 351.403 91.8231 351.764 91.8711L356.321 101.411H362.578L361.029 85.4825C360.204 85.2318 358.686 84.8588 356.479 84.368C354.263 83.8817 351.428 83.6422 347.983 83.6422C344.841 83.6422 341.751 84.2307 338.709 85.411C335.677 86.5864 332.931 88.3334 330.485 90.6411C328.041 92.9504 326.097 95.8058 324.658 99.2168C323.213 102.63 322.497 106.586 322.497 111.103C322.497 115.409 323.189 119.193 324.579 122.449C325.97 125.706 327.873 128.423 330.293 130.6C332.714 132.783 335.495 134.408 338.633 135.488C341.775 136.568 345.068 137.1 348.517 137.1C350.578 137.1 352.612 136.842 354.622 136.332ZM409.647 136.253C411.935 135.69 414.007 134.785 415.861 133.525C417.716 132.267 419.196 130.641 420.304 128.639C421.413 126.641 421.966 124.207 421.966 121.335C421.966 118.868 421.474 116.746 420.497 114.947C419.516 113.154 418.034 111.54 416.054 110.1C414.073 108.667 411.563 107.23 408.528 105.795C407.39 105.232 406.223 104.68 405.012 104.14C403.801 103.601 402.671 103.014 401.615 102.371C400.556 101.729 399.708 101.01 399.062 100.218C398.418 99.4194 398.101 98.5144 398.101 97.4831C398.101 96.4099 398.384 95.4328 398.948 94.5624C399.515 93.6941 400.376 92.9856 401.538 92.4468C402.695 91.9057 404.175 91.6422 405.975 91.6422C406.855 91.6422 407.781 91.6902 408.756 91.7924C409.733 91.8951 410.556 91.9956 411.23 92.1045L415.012 100.255H421.502L420.341 85.6399C418.336 85.0771 416.054 84.5908 413.508 84.1765C410.961 83.7684 408.346 83.5657 405.669 83.5657C402.375 83.5657 399.347 84.1525 396.594 85.3345C393.837 86.5143 391.652 88.1765 390.032 90.329C388.407 92.4881 387.599 95.0487 387.599 98.0236C387.599 100.331 387.956 102.294 388.679 103.906C389.399 105.527 390.387 106.923 391.652 108.105C392.909 109.28 394.391 110.347 396.095 111.296C397.792 112.242 399.647 113.178 401.653 114.1C403.869 115.079 405.679 115.961 407.094 116.759C408.511 117.548 409.581 118.395 410.304 119.296C411.02 120.194 411.381 121.335 411.381 122.72C411.381 124.207 410.961 125.411 410.111 126.336C409.262 127.252 408.154 127.937 406.788 128.369C405.421 128.805 403.917 129.023 402.272 129.023C400.827 129.023 399.527 128.872 398.37 128.568C397.214 128.255 396.299 128.026 395.631 127.871L395.011 119.331L388.521 118.792L386.98 133.64C389.038 134.46 391.429 135.241 394.161 135.985C396.89 136.729 399.75 137.1 402.736 137.1C405.046 137.1 407.354 136.818 409.647 136.253ZM444.049 136.794V130.947L437.252 129.717L440.191 120.026H455.328L458.109 129.411L451.926 131.025V136.794H472.005L472.783 130.792L469.229 129.411L453.702 83.6422H444.128L428.836 129.411L424.592 130.792L425.59 136.794H444.049ZM447.838 94.5624L451.926 111.95H442.582L447.838 94.5624ZM512.942 136.794V120.255H506.758L505.372 128.715H488.768L513.634 90.7913L512.092 83.6422H476.562V100.177H482.59L484.053 91.7142H501.122L475.093 130.72L476.562 136.794H512.942ZM553.37 134.755C556.019 133.191 558.026 130.947 559.392 128.026C560.752 125.1 561.436 121.664 561.436 117.719V91.6422L565.999 90.6411V83.6422H548.384V90.4077L553.329 91.1034V117.483C553.329 120.153 552.943 122.347 552.172 124.063C551.395 125.784 550.287 127.036 548.848 127.834C547.41 128.626 545.658 129.023 543.597 129.023C539.739 129.023 537.048 128.074 535.524 126.179C534.007 124.284 533.249 121.411 533.249 117.562V91.2536L538.734 90.4077V83.6422H517.956V90.4859L523.135 91.1816V117.719C523.135 121.771 523.761 125.243 525.024 128.14C526.284 131.036 528.408 133.257 531.394 134.796C534.381 136.332 538.452 137.1 543.597 137.1C547.458 137.1 550.716 136.321 553.37 134.755Z" fill="white"/>
</g>
<defs>
<clipPath id="clip0_4652_2178">
<rect width="566" height="170" fill="white" transform="translate(0 25)"/>
</clipPath>
</defs>
</svg>
