<svg width="900" height="350" viewBox="0 0 900 350" fill="none" xmlns="http://www.w3.org/2000/svg">
<g clip-path="url(#clip0_4565_4310)">
<g clip-path="url(#clip1_4565_4310)">
<mask id="mask0_4565_4310" style="mask-type:luminance" maskUnits="userSpaceOnUse" x="419" y="-1" width="292" height="351">
<path d="M710.014 -0.692383H419.5V349.308H710.014V-0.692383Z" fill="white"/>
</mask>
<g mask="url(#mask0_4565_4310)">
<path d="M438.176 231.673C436.239 233.611 433.334 234.441 430.291 234.441C426.97 234.441 424.342 233.472 422.405 231.811C420.607 230.151 419.5 227.798 419.5 225.169H423.097C423.097 226.829 423.927 228.489 425.034 229.597C426.279 230.842 428.354 231.258 430.291 231.258C432.366 231.258 434.164 230.842 435.409 229.597C436.239 228.767 436.792 227.798 436.792 226.276C436.792 224.061 435.547 222.263 432.227 221.848C430.706 221.571 429.46 221.431 427.939 221.155C423.789 220.463 420.607 218.249 420.607 213.82C420.607 211.745 421.437 209.807 422.958 208.285C424.895 206.485 427.247 205.517 430.152 205.517C432.919 205.517 435.409 206.347 437.346 208.146C439.006 209.807 439.836 211.745 439.974 214.096H436.377C436.239 212.713 435.824 211.606 434.994 210.637C433.887 209.391 432.366 208.7 430.152 208.7C428.215 208.7 426.555 209.253 425.31 210.637C424.619 211.468 424.204 212.298 424.204 213.681C424.204 216.173 426.14 217.28 428.215 217.556C429.737 217.695 431.259 217.971 432.781 218.249C437.346 218.941 440.389 221.709 440.389 226.138C440.528 228.489 439.559 230.289 438.176 231.673Z" fill="white"/>
<path d="M453.531 233.887V206.069H457.128V230.565H471.377V233.887H453.531Z" fill="white"/>
<path d="M495.586 211.051C494.203 209.667 492.681 208.975 490.744 208.975C488.808 208.975 487.286 209.667 485.902 211.051C483.689 213.403 483.689 217.14 483.689 220.046C483.689 222.953 483.551 226.689 485.902 229.042C487.286 230.426 488.808 231.118 490.744 231.118C492.681 231.118 494.203 230.426 495.586 229.042C497.8 226.689 497.8 222.953 497.8 220.046C497.661 217.14 497.8 213.403 495.586 211.051ZM497.938 231.394C496.001 233.332 493.511 234.439 490.744 234.439C487.978 234.439 485.487 233.332 483.551 231.394C480.507 228.488 480.23 224.474 480.23 220.046C480.23 215.618 480.645 211.605 483.551 208.698C485.487 206.76 487.978 205.653 490.744 205.653C493.511 205.653 496.001 206.76 497.938 208.698C500.981 211.605 501.258 215.618 501.258 220.046C501.396 224.474 500.981 228.488 497.938 231.394Z" fill="white"/>
<path d="M522.977 233.887H518.827L510.25 206.069H513.985L521.041 229.873L527.958 206.069H531.554L522.977 233.887Z" fill="white"/>
<path d="M542.898 233.887V206.069H561.298V209.253H546.357V217.694H557.562V221.016H546.357V230.704H561.298V233.887H542.898Z" fill="white"/>
<path d="M586.475 233.887L575.269 210.774V233.887H571.949V206.069H576.238L587.305 229.182V206.069H590.763V233.887H586.475Z" fill="white"/>
<path d="M619.402 231.673C617.466 233.611 614.561 234.441 611.517 234.441C608.197 234.441 605.568 233.472 603.632 231.811C601.833 230.151 600.727 227.798 600.727 225.169H604.323C604.323 226.829 605.153 228.489 606.26 229.597C607.505 230.842 609.58 231.258 611.517 231.258C613.592 231.258 615.391 230.842 616.636 229.597C617.466 228.767 618.019 227.798 618.019 226.276C618.019 224.061 616.774 222.263 613.454 221.848C611.932 221.571 610.687 221.431 609.165 221.155C605.015 220.463 601.833 218.249 601.833 213.82C601.833 211.745 602.663 209.807 604.185 208.285C606.122 206.485 608.474 205.517 611.379 205.517C614.146 205.517 616.636 206.347 618.572 208.146C620.232 209.807 621.063 211.745 621.201 214.096H617.604C617.466 212.713 617.051 211.606 616.221 210.637C615.114 209.391 613.592 208.7 611.379 208.7C609.442 208.7 607.782 209.253 606.537 210.637C605.845 211.468 605.43 212.298 605.43 213.681C605.43 216.173 607.367 217.28 609.442 217.556C610.964 217.695 612.485 217.971 614.007 218.249C618.572 218.941 621.616 221.709 621.616 226.138C621.754 228.489 620.786 230.289 619.402 231.673Z" fill="white"/>
<path d="M649.144 233.887L641.121 219.909L636.417 225.307V233.887H632.82V206.069H636.417V220.324L648.868 206.069H653.156L643.472 217.002L653.156 233.887H649.144Z" fill="white"/>
<path d="M663.945 233.887V230.98H670.171V208.976H663.945V206.069H679.854V208.976H673.629V230.98H679.854V233.887H663.945Z" fill="white"/>
<path d="M432.09 266.824V291.32H428.493V266.824H419.086V263.503H441.497V266.824H432.09Z" fill="white"/>
<path d="M452.285 291.32V263.503H470.684V266.686H455.744V275.267H467.088V278.451H455.744V288.139H470.684V291.32H452.285Z" fill="white"/>
<path d="M496.551 291.32V278.451H484.792V291.32H481.195V263.503H484.792V275.129H496.551V263.503H500.148V291.32H496.551Z" fill="white"/>
<path d="M526.022 291.32L514.955 268.348V291.32H511.496V263.503H515.785L526.99 286.754V263.503H530.31V291.32H526.022Z" fill="white"/>
<path d="M555.901 268.485C554.518 267.102 552.996 266.408 551.059 266.408C549.122 266.408 547.601 267.102 546.217 268.485C544.004 270.838 544.004 274.575 544.004 277.48C544.004 280.386 543.865 284.123 546.217 286.476C547.601 287.859 549.122 288.553 551.059 288.553C552.996 288.553 554.518 287.859 555.901 286.476C558.114 284.123 558.114 280.386 558.114 277.48C558.114 274.575 558.253 270.838 555.901 268.485ZM558.391 288.829C556.454 290.766 553.964 291.874 551.197 291.874C548.431 291.874 545.941 290.766 544.004 288.829C540.96 285.923 540.684 281.909 540.684 277.48C540.684 273.052 541.099 269.038 544.004 266.132C545.941 264.195 548.431 263.087 551.197 263.087C553.964 263.087 556.454 264.195 558.391 266.132C561.435 269.038 561.711 273.052 561.711 277.48C561.711 281.909 561.435 285.923 558.391 288.829Z" fill="white"/>
<path d="M574.301 291.32V263.503H577.898V288.139H592.147V291.32H574.301Z" fill="white"/>
<path d="M616.356 268.485C614.972 267.102 613.451 266.408 611.514 266.408C609.577 266.408 608.055 267.102 606.672 268.485C604.459 270.838 604.458 274.575 604.458 277.48C604.458 280.386 604.32 284.123 606.672 286.476C608.055 287.859 609.577 288.553 611.514 288.553C613.451 288.553 614.972 287.859 616.356 286.476C618.569 284.123 618.569 280.386 618.569 277.48C618.569 274.575 618.569 270.838 616.356 268.485ZM618.708 288.829C616.771 290.766 614.281 291.874 611.514 291.874C608.747 291.874 606.257 290.766 604.32 288.829C601.277 285.923 601 281.909 601 277.48C601 273.052 601.415 269.038 604.32 266.132C606.257 264.195 608.747 263.087 611.514 263.087C614.281 263.087 616.771 264.195 618.708 266.132C621.751 269.038 622.028 273.052 622.028 277.48C622.166 281.909 621.751 285.923 618.708 288.829Z" fill="white"/>
<path d="M649.559 289.107C647.622 291.043 644.717 291.875 641.673 291.875C638.353 291.875 635.725 290.905 633.788 289.245C631.99 287.583 630.883 285.232 630.883 282.602H634.48C634.48 284.262 635.31 285.923 636.416 287.03C637.661 288.276 639.737 288.692 641.673 288.692C643.748 288.692 645.547 288.276 646.792 287.03C647.622 286.2 648.175 285.232 648.175 283.709C648.175 281.495 646.93 279.695 643.61 279.28C642.088 279.004 640.843 278.865 639.322 278.589C635.171 277.897 631.99 275.682 631.99 271.254C631.99 269.177 632.82 267.241 634.341 265.717C636.278 263.919 638.63 262.949 641.535 262.949C644.302 262.949 646.792 263.781 648.729 265.579C650.389 267.241 651.219 269.177 651.357 271.53H647.76C647.622 270.146 647.207 269.039 646.377 268.071C645.27 266.824 643.748 266.132 641.535 266.132C639.598 266.132 637.938 266.686 636.693 268.071C636.001 268.901 635.586 269.731 635.586 271.115C635.586 273.606 637.523 274.714 639.598 274.99C641.12 275.129 642.642 275.405 644.163 275.682C648.729 276.374 651.772 279.142 651.772 283.57C651.91 286.062 650.942 287.722 649.559 289.107Z" fill="white"/>
<path d="M679.305 291.32L671.281 277.342L666.577 282.74V291.32H662.98V263.503H666.577V277.759L679.028 263.503H683.316L673.771 274.437L683.455 291.32H679.305Z" fill="white"/>
<path d="M694.102 263.503V266.409H700.327V288.415H694.102V291.32H710.011V288.415H703.785V266.409H710.011V263.503H694.102Z" fill="white"/>
<path d="M422.543 320.937V348.754H426.001V336.574H437.899V333.253H426.001V324.258H441.081V320.937H422.543Z" fill="white"/>
<path d="M465.288 325.918C463.904 324.535 462.383 323.843 460.446 323.843C458.509 323.843 456.987 324.535 455.604 325.918C453.39 328.271 453.39 332.008 453.39 334.914C453.39 337.821 453.252 341.557 455.604 343.909C456.987 345.294 458.509 345.986 460.446 345.986C462.383 345.986 463.904 345.294 465.288 343.909C467.501 341.557 467.501 337.821 467.501 334.914C467.501 332.008 467.639 328.271 465.288 325.918ZM467.778 346.262C465.841 348.201 463.351 349.307 460.584 349.307C457.817 349.307 455.327 348.201 453.39 346.262C450.347 343.356 450.07 339.343 450.07 334.914C450.07 330.486 450.485 326.471 453.39 323.566C455.327 321.628 457.817 320.521 460.584 320.521C463.351 320.521 465.841 321.628 467.778 323.566C470.821 326.471 471.098 330.486 471.098 334.914C471.098 339.343 470.821 343.356 467.778 346.262Z" fill="white"/>
<path d="M491.575 324.258H485.488V334.084H491.575C494.895 334.084 497.247 332.7 497.247 329.24C497.247 325.503 494.895 324.258 491.575 324.258ZM497.247 348.754L491.99 337.129H485.626V348.754H482.168V320.937H491.713C495.034 320.937 497.247 321.905 498.769 323.428C500.152 324.811 500.982 326.611 500.982 329.101C500.982 331.593 500.152 333.115 498.907 334.638C498.077 335.468 496.97 336.159 495.587 336.574L501.121 348.754H497.247Z" fill="white"/>
<path d="M520.906 349.307C514.404 349.307 511.223 344.879 511.223 338.651V320.937H514.681V338.651C514.681 342.941 516.341 345.986 520.906 345.986C525.472 345.986 527.132 342.941 527.132 338.651V320.937H530.59V338.651C530.59 344.879 527.408 349.307 520.906 349.307Z" fill="white"/>
<path d="M556.588 320.937L551.193 336.574L545.66 320.937H541.371V348.754H544.691V326.195L549.533 340.311H552.715L557.419 326.195V348.754H560.877V320.937H556.588Z" fill="white"/>
<path d="M646.93 256.028H635.863V258.518H646.93V256.028Z" fill="white"/>
<path d="M438.176 231.673C436.239 233.611 433.334 234.441 430.291 234.441C426.97 234.441 424.342 233.472 422.405 231.811C420.607 230.151 419.5 227.798 419.5 225.169H423.097C423.097 226.829 423.927 228.489 425.034 229.597C426.279 230.842 428.354 231.258 430.291 231.258C432.366 231.258 434.164 230.842 435.409 229.597C436.239 228.767 436.792 227.798 436.792 226.276C436.792 224.061 435.547 222.263 432.227 221.848C430.706 221.571 429.46 221.431 427.939 221.155C423.789 220.463 420.607 218.249 420.607 213.82C420.607 211.745 421.437 209.807 422.958 208.285C424.895 206.485 427.247 205.517 430.152 205.517C432.919 205.517 435.409 206.347 437.346 208.146C439.006 209.807 439.836 211.745 439.974 214.096H436.377C436.239 212.713 435.824 211.606 434.994 210.637C433.887 209.391 432.366 208.7 430.152 208.7C428.215 208.7 426.555 209.253 425.31 210.637C424.619 211.468 424.204 212.298 424.204 213.681C424.204 216.173 426.14 217.28 428.215 217.556C429.737 217.695 431.259 217.971 432.781 218.249C437.346 218.941 440.389 221.709 440.389 226.138C440.528 228.489 439.559 230.289 438.176 231.673Z" fill="white"/>
<path d="M453.531 233.887V206.069H457.128V230.565H471.377V233.887H453.531Z" fill="white"/>
<path d="M495.586 211.051C494.203 209.667 492.681 208.975 490.744 208.975C488.808 208.975 487.286 209.667 485.902 211.051C483.689 213.403 483.689 217.14 483.689 220.046C483.689 222.953 483.551 226.689 485.902 229.042C487.286 230.426 488.808 231.118 490.744 231.118C492.681 231.118 494.203 230.426 495.586 229.042C497.8 226.689 497.8 222.953 497.8 220.046C497.661 217.14 497.8 213.403 495.586 211.051ZM497.938 231.394C496.001 233.332 493.511 234.439 490.744 234.439C487.978 234.439 485.487 233.332 483.551 231.394C480.507 228.488 480.23 224.474 480.23 220.046C480.23 215.618 480.645 211.605 483.551 208.698C485.487 206.76 487.978 205.653 490.744 205.653C493.511 205.653 496.001 206.76 497.938 208.698C500.981 211.605 501.258 215.618 501.258 220.046C501.396 224.474 500.981 228.488 497.938 231.394Z" fill="white"/>
<path d="M522.977 233.887H518.827L510.25 206.069H513.985L521.041 229.873L527.958 206.069H531.554L522.977 233.887Z" fill="white"/>
<path d="M542.898 233.887V206.069H561.298V209.253H546.357V217.694H557.562V221.016H546.357V230.704H561.298V233.887H542.898Z" fill="white"/>
<path d="M586.475 233.887L575.269 210.774V233.887H571.949V206.069H576.238L587.305 229.182V206.069H590.763V233.887H586.475Z" fill="white"/>
<path d="M619.402 231.673C617.466 233.611 614.561 234.441 611.517 234.441C608.197 234.441 605.568 233.472 603.632 231.811C601.833 230.151 600.727 227.798 600.727 225.169H604.323C604.323 226.829 605.153 228.489 606.26 229.597C607.505 230.842 609.58 231.258 611.517 231.258C613.592 231.258 615.391 230.842 616.636 229.597C617.466 228.767 618.019 227.798 618.019 226.276C618.019 224.061 616.774 222.263 613.454 221.848C611.932 221.571 610.687 221.431 609.165 221.155C605.015 220.463 601.833 218.249 601.833 213.82C601.833 211.745 602.663 209.807 604.185 208.285C606.122 206.485 608.474 205.517 611.379 205.517C614.146 205.517 616.636 206.347 618.572 208.146C620.232 209.807 621.063 211.745 621.201 214.096H617.604C617.466 212.713 617.051 211.606 616.221 210.637C615.114 209.391 613.592 208.7 611.379 208.7C609.442 208.7 607.782 209.253 606.537 210.637C605.845 211.468 605.43 212.298 605.43 213.681C605.43 216.173 607.367 217.28 609.442 217.556C610.964 217.695 612.485 217.971 614.007 218.249C618.572 218.941 621.616 221.709 621.616 226.138C621.754 228.489 620.786 230.289 619.402 231.673Z" fill="white"/>
<path d="M649.144 233.887L641.121 219.909L636.417 225.307V233.887H632.82V206.069H636.417V220.324L648.868 206.069H653.156L643.472 217.002L653.156 233.887H649.144Z" fill="white"/>
<path d="M663.945 233.887V230.98H670.171V208.976H663.945V206.069H679.854V208.976H673.629V230.98H679.854V233.887H663.945Z" fill="white"/>
<path d="M432.09 266.824V291.32H428.493V266.824H419.086V263.503H441.497V266.824H432.09Z" fill="white"/>
<path d="M452.285 291.32V263.503H470.684V266.686H455.744V275.267H467.088V278.451H455.744V288.139H470.684V291.32H452.285Z" fill="white"/>
<path d="M496.551 291.32V278.451H484.792V291.32H481.195V263.503H484.792V275.129H496.551V263.503H500.148V291.32H496.551Z" fill="white"/>
<path d="M526.022 291.32L514.955 268.348V291.32H511.496V263.503H515.785L526.99 286.754V263.503H530.31V291.32H526.022Z" fill="white"/>
<path d="M555.901 268.485C554.518 267.102 552.996 266.408 551.059 266.408C549.122 266.408 547.601 267.102 546.217 268.485C544.004 270.838 544.004 274.575 544.004 277.48C544.004 280.386 543.865 284.123 546.217 286.476C547.601 287.859 549.122 288.553 551.059 288.553C552.996 288.553 554.518 287.859 555.901 286.476C558.114 284.123 558.114 280.386 558.114 277.48C558.114 274.575 558.253 270.838 555.901 268.485ZM558.391 288.829C556.454 290.766 553.964 291.874 551.197 291.874C548.431 291.874 545.941 290.766 544.004 288.829C540.96 285.923 540.684 281.909 540.684 277.48C540.684 273.052 541.099 269.038 544.004 266.132C545.941 264.195 548.431 263.087 551.197 263.087C553.964 263.087 556.454 264.195 558.391 266.132C561.435 269.038 561.711 273.052 561.711 277.48C561.711 281.909 561.435 285.923 558.391 288.829Z" fill="white"/>
<path d="M574.301 291.32V263.503H577.898V288.139H592.147V291.32H574.301Z" fill="white"/>
<path d="M616.356 268.485C614.972 267.102 613.451 266.408 611.514 266.408C609.577 266.408 608.055 267.102 606.672 268.485C604.459 270.838 604.458 274.575 604.458 277.48C604.458 280.386 604.32 284.123 606.672 286.476C608.055 287.859 609.577 288.553 611.514 288.553C613.451 288.553 614.972 287.859 616.356 286.476C618.569 284.123 618.569 280.386 618.569 277.48C618.569 274.575 618.569 270.838 616.356 268.485ZM618.708 288.829C616.771 290.766 614.281 291.874 611.514 291.874C608.747 291.874 606.257 290.766 604.32 288.829C601.277 285.923 601 281.909 601 277.48C601 273.052 601.415 269.038 604.32 266.132C606.257 264.195 608.747 263.087 611.514 263.087C614.281 263.087 616.771 264.195 618.708 266.132C621.751 269.038 622.028 273.052 622.028 277.48C622.166 281.909 621.751 285.923 618.708 288.829Z" fill="white"/>
<path d="M649.559 289.107C647.622 291.043 644.717 291.875 641.673 291.875C638.353 291.875 635.725 290.905 633.788 289.245C631.99 287.583 630.883 285.232 630.883 282.602H634.48C634.48 284.262 635.31 285.923 636.416 287.03C637.661 288.276 639.737 288.692 641.673 288.692C643.748 288.692 645.547 288.276 646.792 287.03C647.622 286.2 648.175 285.232 648.175 283.709C648.175 281.495 646.93 279.695 643.61 279.28C642.088 279.004 640.843 278.865 639.322 278.589C635.171 277.897 631.99 275.682 631.99 271.254C631.99 269.177 632.82 267.241 634.341 265.717C636.278 263.919 638.63 262.949 641.535 262.949C644.302 262.949 646.792 263.781 648.729 265.579C650.389 267.241 651.219 269.177 651.357 271.53H647.76C647.622 270.146 647.207 269.039 646.377 268.071C645.27 266.824 643.748 266.132 641.535 266.132C639.598 266.132 637.938 266.686 636.693 268.071C636.001 268.901 635.586 269.731 635.586 271.115C635.586 273.606 637.523 274.714 639.598 274.99C641.12 275.129 642.642 275.405 644.163 275.682C648.729 276.374 651.772 279.142 651.772 283.57C651.91 286.062 650.942 287.722 649.559 289.107Z" fill="white"/>
<path d="M679.305 291.32L671.281 277.342L666.577 282.74V291.32H662.98V263.503H666.577V277.759L679.028 263.503H683.316L673.771 274.437L683.455 291.32H679.305Z" fill="white"/>
<path d="M694.102 263.503V266.409H700.327V288.415H694.102V291.32H710.011V288.415H703.785V266.409H710.011V263.503H694.102Z" fill="white"/>
<path d="M422.543 320.937V348.754H426.001V336.574H437.899V333.253H426.001V324.258H441.081V320.937H422.543Z" fill="white"/>
<path d="M465.288 325.918C463.904 324.535 462.383 323.843 460.446 323.843C458.509 323.843 456.987 324.535 455.604 325.918C453.39 328.271 453.39 332.008 453.39 334.914C453.39 337.821 453.252 341.557 455.604 343.909C456.987 345.294 458.509 345.986 460.446 345.986C462.383 345.986 463.904 345.294 465.288 343.909C467.501 341.557 467.501 337.821 467.501 334.914C467.501 332.008 467.639 328.271 465.288 325.918ZM467.778 346.262C465.841 348.201 463.351 349.307 460.584 349.307C457.817 349.307 455.327 348.201 453.39 346.262C450.347 343.356 450.07 339.343 450.07 334.914C450.07 330.486 450.485 326.471 453.39 323.566C455.327 321.628 457.817 320.521 460.584 320.521C463.351 320.521 465.841 321.628 467.778 323.566C470.821 326.471 471.098 330.486 471.098 334.914C471.098 339.343 470.821 343.356 467.778 346.262Z" fill="white"/>
<path d="M491.575 324.258H485.488V334.084H491.575C494.895 334.084 497.247 332.7 497.247 329.24C497.247 325.503 494.895 324.258 491.575 324.258ZM497.247 348.754L491.99 337.129H485.626V348.754H482.168V320.937H491.713C495.034 320.937 497.247 321.905 498.769 323.428C500.152 324.811 500.982 326.611 500.982 329.101C500.982 331.593 500.152 333.115 498.907 334.638C498.077 335.468 496.97 336.159 495.587 336.574L501.121 348.754H497.247Z" fill="white"/>
<path d="M520.906 349.307C514.404 349.307 511.223 344.879 511.223 338.651V320.937H514.681V338.651C514.681 342.941 516.341 345.986 520.906 345.986C525.472 345.986 527.132 342.941 527.132 338.651V320.937H530.59V338.651C530.59 344.879 527.408 349.307 520.906 349.307Z" fill="white"/>
<path d="M556.588 320.937L551.193 336.574L545.66 320.937H541.371V348.754H544.691V326.195L549.533 340.311H552.715L557.419 326.195V348.754H560.877V320.937H556.588Z" fill="white"/>
<path d="M646.93 256.028H635.863V258.518H646.93V256.028Z" fill="white"/>
</g>
</g>
<mask id="mask1_4565_4310" style="mask-type:luminance" maskUnits="userSpaceOnUse" x="126" y="0" width="293" height="292">
<path d="M418.807 0H126.91V291.897H418.807V0Z" fill="white"/>
</mask>
<g mask="url(#mask1_4565_4310)">
<path d="M265.396 -0.00390625L261.246 0.00447492L261.503 127.139L265.653 127.131L265.396 -0.00390625Z" fill="white"/>
<path d="M418.943 134.338L291.809 134.594L291.817 138.745L418.953 138.489L418.943 134.338Z" fill="white"/>
<path d="M294.232 151.759L291.238 154.633L343.65 209.222L346.643 206.348L294.232 151.759Z" fill="white"/>
<path d="M284.361 164.898L280.211 164.905L280.452 292.04L284.602 292.033L284.361 164.898Z" fill="white"/>
<path d="M254.041 153.291L126.906 153.547L126.915 157.697L254.049 157.441L254.041 153.291Z" fill="white"/>
<path d="M333.308 72.3271L278.719 124.738L281.593 127.731L336.182 75.3211L333.308 72.3271Z" fill="white"/>
<path d="M202.24 82.8047L199.246 85.6791L251.656 140.268L254.65 137.394L202.24 82.8047Z" fill="white"/>
<path d="M264.39 164.396L209.801 216.806L212.675 219.799L267.266 167.389L264.39 164.396Z" fill="white"/>
<path d="M265.396 -0.00390625L261.246 0.00447492L261.503 127.139L265.653 127.131L265.396 -0.00390625Z" fill="white"/>
<path d="M418.943 134.338L291.809 134.594L291.817 138.745L418.953 138.489L418.943 134.338Z" fill="white"/>
<path d="M294.232 151.759L291.238 154.633L343.65 209.222L346.643 206.348L294.232 151.759Z" fill="white"/>
<path d="M284.361 164.898L280.211 164.905L280.452 292.04L284.602 292.033L284.361 164.898Z" fill="white"/>
<path d="M254.041 153.291L126.906 153.547L126.915 157.697L254.049 157.441L254.041 153.291Z" fill="white"/>
<path d="M333.308 72.3271L278.719 124.738L281.593 127.731L336.182 75.3211L333.308 72.3271Z" fill="white"/>
<path d="M202.24 82.8047L199.246 85.6791L251.656 140.268L254.65 137.394L202.24 82.8047Z" fill="white"/>
<path d="M264.39 164.396L209.801 216.806L212.675 219.799L267.266 167.389L264.39 164.396Z" fill="white"/>
</g>
</g>
<defs>
<clipPath id="clip0_4565_4310">
<rect width="582.411" height="350" fill="white" transform="translate(128.293)"/>
</clipPath>
<clipPath id="clip1_4565_4310">
<rect width="290.514" height="350" fill="white" transform="translate(419.5 -0.692383)"/>
</clipPath>
</defs>
</svg>
