<svg width="686" height="216" viewBox="0 0 686 216" fill="none" xmlns="http://www.w3.org/2000/svg">
<path d="M189.906 63.4332C189.906 64.5847 188.975 65.5157 187.824 65.5157C186.672 65.5157 185.741 64.5847 185.741 63.4332C185.741 62.2816 186.672 61.3506 187.824 61.3506C188.975 61.3506 189.906 62.2816 189.906 63.4332Z" fill="white"/>
<path d="M194.807 63.4332C194.807 64.5847 193.876 65.5157 192.724 65.5157C191.573 65.5157 190.642 64.5847 190.642 63.4332C190.642 62.2816 191.573 61.3506 192.724 61.3506C193.876 61.3506 194.807 62.2816 194.807 63.4332Z" fill="white"/>
<path d="M199.731 63.4332C199.731 64.5847 198.8 65.5157 197.648 65.5157C196.496 65.5157 195.565 64.5847 195.565 63.4332C195.565 62.2816 196.496 61.3506 197.648 61.3506C198.8 61.3506 199.731 62.2816 199.731 63.4332Z" fill="white"/>
<path d="M204.631 63.4332C204.631 64.5847 203.7 65.5157 202.548 65.5157C201.397 65.5157 200.466 64.5847 200.466 63.4332C200.466 62.2816 201.397 61.3506 202.548 61.3506C203.7 61.3506 204.631 62.2816 204.631 63.4332Z" fill="white"/>
<path d="M209.556 63.4332C209.556 64.5847 208.625 65.5157 207.474 65.5157C206.322 65.5157 205.391 64.5847 205.391 63.4332C205.391 62.2816 206.322 61.3506 207.474 61.3506C208.625 61.3506 209.556 62.2816 209.556 63.4332Z" fill="white"/>
<path d="M199.731 68.357C199.731 69.5085 198.8 70.4396 197.648 70.4396C196.496 70.4396 195.565 69.5085 195.565 68.357C195.565 67.2055 196.496 66.2744 197.648 66.2744C198.8 66.2744 199.731 67.2055 199.731 68.357Z" fill="white"/>
<path d="M199.731 73.2574C199.731 74.4089 198.8 75.34 197.648 75.34C196.496 75.34 195.565 74.4089 195.565 73.2574C195.565 72.1059 196.496 71.1748 197.648 71.1748C198.8 71.1748 199.731 72.1059 199.731 73.2574Z" fill="white"/>
<path d="M199.731 78.1812C199.731 79.3327 198.8 80.2638 197.648 80.2638C196.496 80.2638 195.565 79.3327 195.565 78.1812C195.565 77.0296 196.496 76.0986 197.648 76.0986C198.8 76.0986 199.731 77.0296 199.731 78.1812Z" fill="white"/>
<path d="M199.731 83.0816C199.731 84.2331 198.8 85.1642 197.648 85.1642C196.496 85.1642 195.565 84.2331 195.565 83.0816C195.565 81.93 196.496 80.999 197.648 80.999C198.8 80.999 199.731 81.93 199.731 83.0816Z" fill="white"/>
<path d="M199.731 87.981C199.731 89.1325 198.8 90.0636 197.648 90.0636C196.496 90.0636 195.565 89.1325 195.565 87.981C195.565 86.8294 196.496 85.8984 197.648 85.8984C198.8 85.8984 199.731 86.8294 199.731 87.981Z" fill="white"/>
<path d="M199.731 92.9078C199.731 94.0593 198.8 94.9903 197.648 94.9903C196.496 94.9903 195.565 94.0593 195.565 92.9078C195.565 91.7562 196.496 90.8252 197.648 90.8252C198.8 90.8252 199.731 91.7562 199.731 92.9078Z" fill="white"/>
<path d="M224.28 63.4332C224.28 64.5847 223.349 65.5157 222.198 65.5157C221.046 65.5157 220.115 64.5847 220.115 63.4332C220.115 62.2816 221.046 61.3506 222.198 61.3506C223.349 61.3506 224.28 62.2816 224.28 63.4332Z" fill="white"/>
<path d="M229.206 63.4332C229.206 64.5847 228.275 65.5157 227.124 65.5157C225.972 65.5157 225.041 64.5847 225.041 63.4332C225.041 62.2816 225.972 61.3506 227.124 61.3506C228.275 61.3506 229.206 62.2816 229.206 63.4332Z" fill="white"/>
<path d="M234.106 63.4332C234.106 64.5847 233.175 65.5157 232.023 65.5157C230.872 65.5157 229.941 64.5847 229.941 63.4332C229.941 62.2816 230.872 61.3506 232.023 61.3506C233.175 61.3506 234.106 62.2816 234.106 63.4332Z" fill="white"/>
<path d="M239.03 63.4332C239.03 64.5847 238.099 65.5157 236.948 65.5157C235.796 65.5157 234.865 64.5847 234.865 63.4332C234.865 62.2816 235.796 61.3506 236.948 61.3506C238.099 61.3506 239.03 62.2816 239.03 63.4332Z" fill="white"/>
<path d="M243.93 63.4332C243.93 64.5847 242.999 65.5157 241.848 65.5157C240.696 65.5157 239.765 64.5847 239.765 63.4332C239.765 62.2816 240.696 61.3506 241.848 61.3506C242.999 61.3506 243.93 62.2816 243.93 63.4332Z" fill="white"/>
<path d="M224.28 68.357C224.28 69.5085 223.349 70.4396 222.198 70.4396C221.046 70.4396 220.115 69.5085 220.115 68.357C220.115 67.2055 221.046 66.2744 222.198 66.2744C223.349 66.2744 224.28 67.2055 224.28 68.357Z" fill="white"/>
<path d="M224.28 73.2574C224.28 74.4089 223.349 75.34 222.198 75.34C221.046 75.34 220.115 74.4089 220.115 73.2574C220.115 72.1059 221.046 71.1748 222.198 71.1748C223.349 71.1748 224.28 72.1059 224.28 73.2574Z" fill="white"/>
<path d="M224.28 78.1812C224.28 79.3327 223.349 80.2638 222.198 80.2638C221.046 80.2638 220.115 79.3327 220.115 78.1812C220.115 77.0296 221.046 76.0986 222.198 76.0986C223.349 76.0986 224.28 77.0296 224.28 78.1812Z" fill="white"/>
<path d="M229.206 78.1812C229.206 79.3327 228.275 80.2638 227.124 80.2638C225.972 80.2638 225.041 79.3327 225.041 78.1812C225.041 77.0296 225.972 76.0986 227.124 76.0986C228.275 76.0986 229.206 77.0296 229.206 78.1812Z" fill="white"/>
<path d="M234.106 78.1812C234.106 79.3327 233.175 80.2638 232.023 80.2638C230.872 80.2638 229.941 79.3327 229.941 78.1812C229.941 77.0296 230.872 76.0986 232.023 76.0986C233.175 76.0986 234.106 77.0296 234.106 78.1812Z" fill="white"/>
<path d="M239.03 78.1812C239.03 79.3327 238.099 80.2638 236.948 80.2638C235.796 80.2638 234.865 79.3327 234.865 78.1812C234.865 77.0296 235.796 76.0986 236.948 76.0986C238.099 76.0986 239.03 77.0296 239.03 78.1812Z" fill="white"/>
<path d="M224.28 83.0816C224.28 84.2331 223.349 85.1642 222.198 85.1642C221.046 85.1642 220.115 84.2331 220.115 83.0816C220.115 81.93 221.046 80.999 222.198 80.999C223.349 80.999 224.28 81.93 224.28 83.0816Z" fill="white"/>
<path d="M224.28 87.981C224.28 89.1325 223.349 90.0636 222.198 90.0636C221.046 90.0636 220.115 89.1325 220.115 87.981C220.115 86.8294 221.046 85.8984 222.198 85.8984C223.349 85.8984 224.28 86.8294 224.28 87.981Z" fill="white"/>
<path d="M224.28 92.9078C224.28 94.0593 223.349 94.9903 222.198 94.9903C221.046 94.9903 220.115 94.0593 220.115 92.9078C220.115 91.7562 221.046 90.8252 222.198 90.8252C223.349 90.8252 224.28 91.7562 224.28 92.9078Z" fill="white"/>
<path d="M229.206 92.9078C229.206 94.0593 228.275 94.9903 227.124 94.9903C225.972 94.9903 225.041 94.0593 225.041 92.9078C225.041 91.7562 225.972 90.8252 227.124 90.8252C228.275 90.8252 229.206 91.7562 229.206 92.9078Z" fill="white"/>
<path d="M234.106 92.9078C234.106 94.0593 233.175 94.9903 232.023 94.9903C230.872 94.9903 229.941 94.0593 229.941 92.9078C229.941 91.7562 230.872 90.8252 232.023 90.8252C233.175 90.8252 234.106 91.7562 234.106 92.9078Z" fill="white"/>
<path d="M239.03 92.9078C239.03 94.0593 238.099 94.9903 236.948 94.9903C235.796 94.9903 234.865 94.0593 234.865 92.9078C234.865 91.7562 235.796 90.8252 236.948 90.8252C238.099 90.8252 239.03 91.7562 239.03 92.9078Z" fill="white"/>
<path d="M243.93 92.9078C243.93 94.0593 242.999 94.9903 241.848 94.9903C240.696 94.9903 239.765 94.0593 239.765 92.9078C239.765 91.7562 240.696 90.8252 241.848 90.8252C242.999 90.8252 243.93 91.7562 243.93 92.9078Z" fill="white"/>
<path d="M258.68 63.4332C258.68 64.5847 257.749 65.5157 256.597 65.5157C255.446 65.5157 254.515 64.5847 254.515 63.4332C254.515 62.2816 255.446 61.3506 256.597 61.3506C257.749 61.3506 258.68 62.2816 258.68 63.4332Z" fill="white"/>
<path d="M278.33 63.4332C278.33 64.5847 277.399 65.5157 276.247 65.5157C275.096 65.5157 274.165 64.5847 274.165 63.4332C274.165 62.2816 275.096 61.3506 276.247 61.3506C277.399 61.3506 278.33 62.2816 278.33 63.4332Z" fill="white"/>
<path d="M258.68 68.357C258.68 69.5085 257.749 70.4396 256.597 70.4396C255.446 70.4396 254.515 69.5085 254.515 68.357C254.515 67.2055 255.446 66.2744 256.597 66.2744C257.749 66.2744 258.68 67.2055 258.68 68.357Z" fill="white"/>
<path d="M278.33 68.357C278.33 69.5085 277.399 70.4396 276.247 70.4396C275.096 70.4396 274.165 69.5085 274.165 68.357C274.165 67.2055 275.096 66.2744 276.247 66.2744C277.399 66.2744 278.33 67.2055 278.33 68.357Z" fill="white"/>
<path d="M258.68 73.2574C258.68 74.4089 257.749 75.34 256.597 75.34C255.446 75.34 254.515 74.4089 254.515 73.2574C254.515 72.1059 255.446 71.1748 256.597 71.1748C257.749 71.1748 258.68 72.1059 258.68 73.2574Z" fill="white"/>
<path d="M278.33 73.2574C278.33 74.4089 277.399 75.34 276.247 75.34C275.096 75.34 274.165 74.4089 274.165 73.2574C274.165 72.1059 275.096 71.1748 276.247 71.1748C277.399 71.1748 278.33 72.1059 278.33 73.2574Z" fill="white"/>
<path d="M258.68 78.1812C258.68 79.3327 257.749 80.2638 256.597 80.2638C255.446 80.2638 254.515 79.3327 254.515 78.1812C254.515 77.0296 255.446 76.0986 256.597 76.0986C257.749 76.0986 258.68 77.0296 258.68 78.1812Z" fill="white"/>
<path d="M263.58 78.1812C263.58 79.3327 262.649 80.2638 261.498 80.2638C260.346 80.2638 259.415 79.3327 259.415 78.1812C259.415 77.0296 260.346 76.0986 261.498 76.0986C262.649 76.0986 263.58 77.0296 263.58 78.1812Z" fill="white"/>
<path d="M268.505 78.1812C268.505 79.3327 267.574 80.2638 266.423 80.2638C265.271 80.2638 264.34 79.3327 264.34 78.1812C264.34 77.0296 265.271 76.0986 266.423 76.0986C267.574 76.0986 268.505 77.0296 268.505 78.1812Z" fill="white"/>
<path d="M273.405 78.1812C273.405 79.3327 272.474 80.2638 271.323 80.2638C270.171 80.2638 269.24 79.3327 269.24 78.1812C269.24 77.0296 270.171 76.0986 271.323 76.0986C272.474 76.0986 273.405 77.0296 273.405 78.1812Z" fill="white"/>
<path d="M278.33 78.1812C278.33 79.3327 277.399 80.2638 276.247 80.2638C275.096 80.2638 274.165 79.3327 274.165 78.1812C274.165 77.0296 275.096 76.0986 276.247 76.0986C277.399 76.0986 278.33 77.0296 278.33 78.1812Z" fill="white"/>
<path d="M258.68 83.0816C258.68 84.2331 257.749 85.1642 256.597 85.1642C255.446 85.1642 254.515 84.2331 254.515 83.0816C254.515 81.93 255.446 80.999 256.597 80.999C257.749 80.999 258.68 81.93 258.68 83.0816Z" fill="white"/>
<path d="M278.33 83.0816C278.33 84.2331 277.399 85.1642 276.247 85.1642C275.096 85.1642 274.165 84.2331 274.165 83.0816C274.165 81.93 275.096 80.999 276.247 80.999C277.399 80.999 278.33 81.93 278.33 83.0816Z" fill="white"/>
<path d="M258.68 87.981C258.68 89.1325 257.749 90.0636 256.597 90.0636C255.446 90.0636 254.515 89.1325 254.515 87.981C254.515 86.8294 255.446 85.8984 256.597 85.8984C257.749 85.8984 258.68 86.8294 258.68 87.981Z" fill="white"/>
<path d="M278.33 87.981C278.33 89.1325 277.399 90.0636 276.247 90.0636C275.096 90.0636 274.165 89.1325 274.165 87.981C274.165 86.8294 275.096 85.8984 276.247 85.8984C277.399 85.8984 278.33 86.8294 278.33 87.981Z" fill="white"/>
<path d="M258.68 92.9078C258.68 94.0593 257.749 94.9903 256.597 94.9903C255.446 94.9903 254.515 94.0593 254.515 92.9078C254.515 91.7562 255.446 90.8252 256.597 90.8252C257.749 90.8252 258.68 91.7562 258.68 92.9078Z" fill="white"/>
<path d="M278.33 92.9078C278.33 94.0593 277.399 94.9903 276.247 94.9903C275.096 94.9903 274.165 94.0593 274.165 92.9078C274.165 91.7562 275.096 90.8252 276.247 90.8252C277.399 90.8252 278.33 91.7562 278.33 92.9078Z" fill="white"/>
<path d="M293.055 63.4332C293.055 64.5847 292.124 65.5157 290.973 65.5157C289.821 65.5157 288.89 64.5847 288.89 63.4332C288.89 62.2816 289.821 61.3506 290.973 61.3506C292.124 61.3506 293.055 62.2816 293.055 63.4332Z" fill="white"/>
<path d="M312.705 63.4332C312.705 64.5847 311.774 65.5157 310.623 65.5157C309.471 65.5157 308.54 64.5847 308.54 63.4332C308.54 62.2816 309.471 61.3506 310.623 61.3506C311.774 61.3506 312.705 62.2816 312.705 63.4332Z" fill="white"/>
<path d="M293.055 68.357C293.055 69.5085 292.124 70.4396 290.973 70.4396C289.821 70.4396 288.89 69.5085 288.89 68.357C288.89 67.2055 289.821 66.2744 290.973 66.2744C292.124 66.2744 293.055 67.2055 293.055 68.357Z" fill="white"/>
<path d="M312.705 68.357C312.705 69.5085 311.774 70.4396 310.623 70.4396C309.471 70.4396 308.54 69.5085 308.54 68.357C308.54 67.2055 309.471 66.2744 310.623 66.2744C311.774 66.2744 312.705 67.2055 312.705 68.357Z" fill="white"/>
<path d="M293.055 73.2574C293.055 74.4089 292.124 75.34 290.973 75.34C289.821 75.34 288.89 74.4089 288.89 73.2574C288.89 72.1059 289.821 71.1748 290.973 71.1748C292.124 71.1748 293.055 72.1059 293.055 73.2574Z" fill="white"/>
<path d="M297.98 73.2574C297.98 74.4089 297.049 75.34 295.897 75.34C294.745 75.34 293.814 74.4089 293.814 73.2574C293.814 72.1059 294.745 71.1748 295.897 71.1748C297.049 71.1748 297.98 72.1059 297.98 73.2574Z" fill="white"/>
<path d="M312.705 73.2574C312.705 74.4089 311.774 75.34 310.623 75.34C309.471 75.34 308.54 74.4089 308.54 73.2574C308.54 72.1059 309.471 71.1748 310.623 71.1748C311.774 71.1748 312.705 72.1059 312.705 73.2574Z" fill="white"/>
<path d="M293.055 78.1812C293.055 79.3327 292.124 80.2638 290.973 80.2638C289.821 80.2638 288.89 79.3327 288.89 78.1812C288.89 77.0296 289.821 76.0986 290.973 76.0986C292.124 76.0986 293.055 77.0296 293.055 78.1812Z" fill="white"/>
<path d="M302.879 78.1812C302.879 79.3327 301.948 80.2638 300.797 80.2638C299.645 80.2638 298.714 79.3327 298.714 78.1812C298.714 77.0296 299.645 76.0986 300.797 76.0986C301.948 76.0986 302.879 77.0296 302.879 78.1812Z" fill="white"/>
<path d="M312.705 78.1812C312.705 79.3327 311.774 80.2638 310.623 80.2638C309.471 80.2638 308.54 79.3327 308.54 78.1812C308.54 77.0296 309.471 76.0986 310.623 76.0986C311.774 76.0986 312.705 77.0296 312.705 78.1812Z" fill="white"/>
<path d="M293.055 83.0816C293.055 84.2331 292.124 85.1642 290.973 85.1642C289.821 85.1642 288.89 84.2331 288.89 83.0816C288.89 81.93 289.821 80.999 290.973 80.999C292.124 80.999 293.055 81.93 293.055 83.0816Z" fill="white"/>
<path d="M307.78 83.0816C307.78 84.2331 306.849 85.1642 305.697 85.1642C304.546 85.1642 303.615 84.2331 303.615 83.0816C303.615 81.93 304.546 80.999 305.697 80.999C306.849 80.999 307.78 81.93 307.78 83.0816Z" fill="white"/>
<path d="M312.705 83.0816C312.705 84.2331 311.774 85.1642 310.623 85.1642C309.471 85.1642 308.54 84.2331 308.54 83.0816C308.54 81.93 309.471 80.999 310.623 80.999C311.774 80.999 312.705 81.93 312.705 83.0816Z" fill="white"/>
<path d="M293.055 87.981C293.055 89.1325 292.124 90.0636 290.973 90.0636C289.821 90.0636 288.89 89.1325 288.89 87.981C288.89 86.8294 289.821 85.8984 290.973 85.8984C292.124 85.8984 293.055 86.8294 293.055 87.981Z" fill="white"/>
<path d="M312.705 87.981C312.705 89.1325 311.774 90.0636 310.623 90.0636C309.471 90.0636 308.54 89.1325 308.54 87.981C308.54 86.8294 309.471 85.8984 310.623 85.8984C311.774 85.8984 312.705 86.8294 312.705 87.981Z" fill="white"/>
<path d="M293.055 92.9078C293.055 94.0593 292.124 94.9903 290.973 94.9903C289.821 94.9903 288.89 94.0593 288.89 92.9078C288.89 91.7562 289.821 90.8252 290.973 90.8252C292.124 90.8252 293.055 91.7562 293.055 92.9078Z" fill="white"/>
<path d="M312.705 92.9078C312.705 94.0593 311.774 94.9903 310.623 94.9903C309.471 94.9903 308.54 94.0593 308.54 92.9078C308.54 91.7562 309.471 90.8252 310.623 90.8252C311.774 90.8252 312.705 91.7562 312.705 92.9078Z" fill="white"/>
<path d="M332.355 63.4332C332.355 64.5847 331.424 65.5157 330.272 65.5157C329.12 65.5157 328.189 64.5847 328.189 63.4332C328.189 62.2816 329.12 61.3506 330.272 61.3506C331.424 61.3506 332.355 62.2816 332.355 63.4332Z" fill="white"/>
<path d="M337.255 63.4332C337.255 64.5847 336.324 65.5157 335.172 65.5157C334.021 65.5157 333.09 64.5847 333.09 63.4332C333.09 62.2816 334.021 61.3506 335.172 61.3506C336.324 61.3506 337.255 62.2816 337.255 63.4332Z" fill="white"/>
<path d="M342.179 63.4332C342.179 64.5847 341.248 65.5157 340.097 65.5157C338.945 65.5157 338.014 64.5847 338.014 63.4332C338.014 62.2816 338.945 61.3506 340.097 61.3506C341.248 61.3506 342.179 62.2816 342.179 63.4332Z" fill="white"/>
<path d="M327.43 68.357C327.43 69.5085 326.499 70.4396 325.347 70.4396C324.196 70.4396 323.265 69.5085 323.265 68.357C323.265 67.2055 324.196 66.2744 325.347 66.2744C326.499 66.2744 327.43 67.2055 327.43 68.357Z" fill="white"/>
<path d="M347.079 68.357C347.079 69.5085 346.148 70.4396 344.997 70.4396C343.845 70.4396 342.914 69.5085 342.914 68.357C342.914 67.2055 343.845 66.2744 344.997 66.2744C346.148 66.2744 347.079 67.2055 347.079 68.357Z" fill="white"/>
<path d="M327.43 73.2574C327.43 74.4089 326.499 75.34 325.347 75.34C324.196 75.34 323.265 74.4089 323.265 73.2574C323.265 72.1059 324.196 71.1748 325.347 71.1748C326.499 71.1748 327.43 72.1059 327.43 73.2574Z" fill="white"/>
<path d="M347.079 73.2574C347.079 74.4089 346.148 75.34 344.997 75.34C343.845 75.34 342.914 74.4089 342.914 73.2574C342.914 72.1059 343.845 71.1748 344.997 71.1748C346.148 71.1748 347.079 72.1059 347.079 73.2574Z" fill="white"/>
<path d="M327.43 78.1812C327.43 79.3327 326.499 80.2638 325.347 80.2638C324.196 80.2638 323.265 79.3327 323.265 78.1812C323.265 77.0296 324.196 76.0986 325.347 76.0986C326.499 76.0986 327.43 77.0296 327.43 78.1812Z" fill="white"/>
<path d="M347.079 78.1812C347.079 79.3327 346.148 80.2638 344.997 80.2638C343.845 80.2638 342.914 79.3327 342.914 78.1812C342.914 77.0296 343.845 76.0986 344.997 76.0986C346.148 76.0986 347.079 77.0296 347.079 78.1812Z" fill="white"/>
<path d="M327.43 83.0816C327.43 84.2331 326.499 85.1642 325.347 85.1642C324.196 85.1642 323.265 84.2331 323.265 83.0816C323.265 81.93 324.196 80.999 325.347 80.999C326.499 80.999 327.43 81.93 327.43 83.0816Z" fill="white"/>
<path d="M347.079 83.0816C347.079 84.2331 346.148 85.1642 344.997 85.1642C343.845 85.1642 342.914 84.2331 342.914 83.0816C342.914 81.93 343.845 80.999 344.997 80.999C346.148 80.999 347.079 81.93 347.079 83.0816Z" fill="white"/>
<path d="M327.43 87.981C327.43 89.1325 326.499 90.0636 325.347 90.0636C324.196 90.0636 323.265 89.1325 323.265 87.981C323.265 86.8294 324.196 85.8984 325.347 85.8984C326.499 85.8984 327.43 86.8294 327.43 87.981Z" fill="white"/>
<path d="M347.079 87.981C347.079 89.1325 346.148 90.0636 344.997 90.0636C343.845 90.0636 342.914 89.1325 342.914 87.981C342.914 86.8294 343.845 85.8984 344.997 85.8984C346.148 85.8984 347.079 86.8294 347.079 87.981Z" fill="white"/>
<path d="M332.355 92.9078C332.355 94.0593 331.424 94.9903 330.272 94.9903C329.12 94.9903 328.189 94.0593 328.189 92.9078C328.189 91.7562 329.12 90.8252 330.272 90.8252C331.424 90.8252 332.355 91.7562 332.355 92.9078Z" fill="white"/>
<path d="M337.255 92.9078C337.255 94.0593 336.324 94.9903 335.172 94.9903C334.021 94.9903 333.09 94.0593 333.09 92.9078C333.09 91.7562 334.021 90.8252 335.172 90.8252C336.324 90.8252 337.255 91.7562 337.255 92.9078Z" fill="white"/>
<path d="M342.179 92.9078C342.179 94.0593 341.248 94.9903 340.097 94.9903C338.945 94.9903 338.014 94.0593 338.014 92.9078C338.014 91.7562 338.945 90.8252 340.097 90.8252C341.248 90.8252 342.179 91.7562 342.179 92.9078Z" fill="white"/>
<path d="M361.829 63.4332C361.829 64.5847 360.898 65.5157 359.746 65.5157C358.595 65.5157 357.664 64.5847 357.664 63.4332C357.664 62.2816 358.595 61.3506 359.746 61.3506C360.898 61.3506 361.829 62.2816 361.829 63.4332Z" fill="white"/>
<path d="M361.829 68.357C361.829 69.5085 360.898 70.4396 359.746 70.4396C358.595 70.4396 357.664 69.5085 357.664 68.357C357.664 67.2055 358.595 66.2744 359.746 66.2744C360.898 66.2744 361.829 67.2055 361.829 68.357Z" fill="white"/>
<path d="M361.829 73.2574C361.829 74.4089 360.898 75.34 359.746 75.34C358.595 75.34 357.664 74.4089 357.664 73.2574C357.664 72.1059 358.595 71.1748 359.746 71.1748C360.898 71.1748 361.829 72.1059 361.829 73.2574Z" fill="white"/>
<path d="M361.829 78.1812C361.829 79.3327 360.898 80.2638 359.746 80.2638C358.595 80.2638 357.664 79.3327 357.664 78.1812C357.664 77.0296 358.595 76.0986 359.746 76.0986C360.898 76.0986 361.829 77.0296 361.829 78.1812Z" fill="white"/>
<path d="M361.829 83.0816C361.829 84.2331 360.898 85.1642 359.746 85.1642C358.595 85.1642 357.664 84.2331 357.664 83.0816C357.664 81.93 358.595 80.999 359.746 80.999C360.898 80.999 361.829 81.93 361.829 83.0816Z" fill="white"/>
<path d="M361.829 87.981C361.829 89.1325 360.898 90.0636 359.746 90.0636C358.595 90.0636 357.664 89.1325 357.664 87.981C357.664 86.8294 358.595 85.8984 359.746 85.8984C360.898 85.8984 361.829 86.8294 361.829 87.981Z" fill="white"/>
<path d="M361.829 92.9078C361.829 94.0593 360.898 94.9903 359.746 94.9903C358.595 94.9903 357.664 94.0593 357.664 92.9078C357.664 91.7562 358.595 90.8252 359.746 90.8252C360.898 90.8252 361.829 91.7562 361.829 92.9078Z" fill="white"/>
<path d="M366.729 92.9078C366.729 94.0593 365.798 94.9903 364.647 94.9903C363.495 94.9903 362.564 94.0593 362.564 92.9078C362.564 91.7562 363.495 90.8252 364.647 90.8252C365.798 90.8252 366.729 91.7562 366.729 92.9078Z" fill="white"/>
<path d="M371.654 92.9078C371.654 94.0593 370.723 94.9903 369.572 94.9903C368.42 94.9903 367.489 94.0593 367.489 92.9078C367.489 91.7562 368.42 90.8252 369.572 90.8252C370.723 90.8252 371.654 91.7562 371.654 92.9078Z" fill="white"/>
<path d="M376.554 92.9078C376.554 94.0593 375.623 94.9903 374.472 94.9903C373.32 94.9903 372.389 94.0593 372.389 92.9078C372.389 91.7562 373.32 90.8252 374.472 90.8252C375.623 90.8252 376.554 91.7562 376.554 92.9078Z" fill="white"/>
<path d="M381.479 92.9078C381.479 94.0593 380.548 94.9903 379.396 94.9903C378.245 94.9903 377.313 94.0593 377.313 92.9078C377.313 91.7562 378.245 90.8252 379.396 90.8252C380.548 90.8252 381.479 91.7562 381.479 92.9078Z" fill="white"/>
<path d="M401.129 63.4332C401.129 64.5847 400.198 65.5157 399.046 65.5157C397.894 65.5157 396.963 64.5847 396.963 63.4332C396.963 62.2816 397.894 61.3506 399.046 61.3506C400.198 61.3506 401.129 62.2816 401.129 63.4332Z" fill="white"/>
<path d="M406.028 63.4332C406.028 64.5847 405.097 65.5157 403.946 65.5157C402.794 65.5157 401.863 64.5847 401.863 63.4332C401.863 62.2816 402.794 61.3506 403.946 61.3506C405.097 61.3506 406.028 62.2816 406.028 63.4332Z" fill="white"/>
<path d="M410.929 63.4332C410.929 64.5847 409.998 65.5157 408.846 65.5157C407.695 65.5157 406.764 64.5847 406.764 63.4332C406.764 62.2816 407.695 61.3506 408.846 61.3506C409.998 61.3506 410.929 62.2816 410.929 63.4332Z" fill="white"/>
<path d="M396.203 68.357C396.203 69.5085 395.272 70.4396 394.121 70.4396C392.969 70.4396 392.038 69.5085 392.038 68.357C392.038 67.2055 392.969 66.2744 394.121 66.2744C395.272 66.2744 396.203 67.2055 396.203 68.357Z" fill="white"/>
<path d="M415.853 68.357C415.853 69.5085 414.922 70.4396 413.77 70.4396C412.619 70.4396 411.688 69.5085 411.688 68.357C411.688 67.2055 412.619 66.2744 413.77 66.2744C414.922 66.2744 415.853 67.2055 415.853 68.357Z" fill="white"/>
<path d="M396.203 73.2574C396.203 74.4089 395.272 75.34 394.121 75.34C392.969 75.34 392.038 74.4089 392.038 73.2574C392.038 72.1059 392.969 71.1748 394.121 71.1748C395.272 71.1748 396.203 72.1059 396.203 73.2574Z" fill="white"/>
<path d="M415.853 73.2574C415.853 74.4089 414.922 75.34 413.77 75.34C412.619 75.34 411.688 74.4089 411.688 73.2574C411.688 72.1059 412.619 71.1748 413.77 71.1748C414.922 71.1748 415.853 72.1059 415.853 73.2574Z" fill="white"/>
<path d="M396.203 78.1812C396.203 79.3327 395.272 80.2638 394.121 80.2638C392.969 80.2638 392.038 79.3327 392.038 78.1812C392.038 77.0296 392.969 76.0986 394.121 76.0986C395.272 76.0986 396.203 77.0296 396.203 78.1812Z" fill="white"/>
<path d="M415.853 78.1812C415.853 79.3327 414.922 80.2638 413.77 80.2638C412.619 80.2638 411.688 79.3327 411.688 78.1812C411.688 77.0296 412.619 76.0986 413.77 76.0986C414.922 76.0986 415.853 77.0296 415.853 78.1812Z" fill="white"/>
<path d="M396.203 83.0816C396.203 84.2331 395.272 85.1642 394.121 85.1642C392.969 85.1642 392.038 84.2331 392.038 83.0816C392.038 81.93 392.969 80.999 394.121 80.999C395.272 80.999 396.203 81.93 396.203 83.0816Z" fill="white"/>
<path d="M415.853 83.0816C415.853 84.2331 414.922 85.1642 413.77 85.1642C412.619 85.1642 411.688 84.2331 411.688 83.0816C411.688 81.93 412.619 80.999 413.77 80.999C414.922 80.999 415.853 81.93 415.853 83.0816Z" fill="white"/>
<path d="M396.203 87.981C396.203 89.1325 395.272 90.0636 394.121 90.0636C392.969 90.0636 392.038 89.1325 392.038 87.981C392.038 86.8294 392.969 85.8984 394.121 85.8984C395.272 85.8984 396.203 86.8294 396.203 87.981Z" fill="white"/>
<path d="M415.853 87.981C415.853 89.1325 414.922 90.0636 413.77 90.0636C412.619 90.0636 411.688 89.1325 411.688 87.981C411.688 86.8294 412.619 85.8984 413.77 85.8984C414.922 85.8984 415.853 86.8294 415.853 87.981Z" fill="white"/>
<path d="M401.129 92.9078C401.129 94.0593 400.198 94.9903 399.046 94.9903C397.894 94.9903 396.963 94.0593 396.963 92.9078C396.963 91.7562 397.894 90.8252 399.046 90.8252C400.198 90.8252 401.129 91.7562 401.129 92.9078Z" fill="white"/>
<path d="M406.028 92.9078C406.028 94.0593 405.097 94.9903 403.946 94.9903C402.794 94.9903 401.863 94.0593 401.863 92.9078C401.863 91.7562 402.794 90.8252 403.946 90.8252C405.097 90.8252 406.028 91.7562 406.028 92.9078Z" fill="white"/>
<path d="M410.929 92.9078C410.929 94.0593 409.998 94.9903 408.846 94.9903C407.695 94.9903 406.764 94.0593 406.764 92.9078C406.764 91.7562 407.695 90.8252 408.846 90.8252C409.998 90.8252 410.929 91.7562 410.929 92.9078Z" fill="white"/>
<path d="M440.403 53.6089C440.403 54.7605 439.472 55.6915 438.32 55.6915C437.169 55.6915 436.238 54.7605 436.238 53.6089C436.238 52.4574 437.169 51.5264 438.32 51.5264C439.472 51.5264 440.403 52.4574 440.403 53.6089Z" fill="white"/>
<path d="M435.503 48.7085C435.503 49.8601 434.572 50.7911 433.42 50.7911C432.268 50.7911 431.337 49.8601 431.337 48.7085C431.337 47.557 432.268 46.626 433.42 46.626C434.572 46.626 435.503 47.557 435.503 48.7085Z" fill="white"/>
<path d="M445.328 48.7085C445.328 49.8601 444.397 50.7911 443.246 50.7911C442.094 50.7911 441.163 49.8601 441.163 48.7085C441.163 47.557 442.094 46.626 443.246 46.626C444.397 46.626 445.328 47.557 445.328 48.7085Z" fill="white"/>
<path d="M435.503 63.4332C435.503 64.5847 434.572 65.5157 433.42 65.5157C432.268 65.5157 431.337 64.5847 431.337 63.4332C431.337 62.2816 432.268 61.3506 433.42 61.3506C434.572 61.3506 435.503 62.2816 435.503 63.4332Z" fill="white"/>
<path d="M440.403 63.4332C440.403 64.5847 439.472 65.5157 438.32 65.5157C437.169 65.5157 436.238 64.5847 436.238 63.4332C436.238 62.2816 437.169 61.3506 438.32 61.3506C439.472 61.3506 440.403 62.2816 440.403 63.4332Z" fill="white"/>
<path d="M445.328 63.4332C445.328 64.5847 444.397 65.5157 443.246 65.5157C442.094 65.5157 441.163 64.5847 441.163 63.4332C441.163 62.2816 442.094 61.3506 443.246 61.3506C444.397 61.3506 445.328 62.2816 445.328 63.4332Z" fill="white"/>
<path d="M430.578 68.357C430.578 69.5085 429.647 70.4396 428.496 70.4396C427.344 70.4396 426.413 69.5085 426.413 68.357C426.413 67.2055 427.344 66.2744 428.496 66.2744C429.647 66.2744 430.578 67.2055 430.578 68.357Z" fill="white"/>
<path d="M450.228 68.357C450.228 69.5085 449.297 70.4396 448.146 70.4396C446.994 70.4396 446.063 69.5085 446.063 68.357C446.063 67.2055 446.994 66.2744 448.146 66.2744C449.297 66.2744 450.228 67.2055 450.228 68.357Z" fill="white"/>
<path d="M430.578 73.2574C430.578 74.4089 429.647 75.34 428.496 75.34C427.344 75.34 426.413 74.4089 426.413 73.2574C426.413 72.1059 427.344 71.1748 428.496 71.1748C429.647 71.1748 430.578 72.1059 430.578 73.2574Z" fill="white"/>
<path d="M435.503 78.1812C435.503 79.3327 434.572 80.2638 433.42 80.2638C432.268 80.2638 431.337 79.3327 431.337 78.1812C431.337 77.0296 432.268 76.0986 433.42 76.0986C434.572 76.0986 435.503 77.0296 435.503 78.1812Z" fill="white"/>
<path d="M440.403 78.1812C440.403 79.3327 439.472 80.2638 438.32 80.2638C437.169 80.2638 436.238 79.3327 436.238 78.1812C436.238 77.0296 437.169 76.0986 438.32 76.0986C439.472 76.0986 440.403 77.0296 440.403 78.1812Z" fill="white"/>
<path d="M445.328 78.1812C445.328 79.3327 444.397 80.2638 443.246 80.2638C442.094 80.2638 441.163 79.3327 441.163 78.1812C441.163 77.0296 442.094 76.0986 443.246 76.0986C444.397 76.0986 445.328 77.0296 445.328 78.1812Z" fill="white"/>
<path d="M450.228 83.0816C450.228 84.2331 449.297 85.1642 448.146 85.1642C446.994 85.1642 446.063 84.2331 446.063 83.0816C446.063 81.93 446.994 80.999 448.146 80.999C449.297 80.999 450.228 81.93 450.228 83.0816Z" fill="white"/>
<path d="M430.578 87.981C430.578 89.1325 429.647 90.0636 428.496 90.0636C427.344 90.0636 426.413 89.1325 426.413 87.981C426.413 86.8294 427.344 85.8984 428.496 85.8984C429.647 85.8984 430.578 86.8294 430.578 87.981Z" fill="white"/>
<path d="M450.228 87.981C450.228 89.1325 449.297 90.0636 448.146 90.0636C446.994 90.0636 446.063 89.1325 446.063 87.981C446.063 86.8294 446.994 85.8984 448.146 85.8984C449.297 85.8984 450.228 86.8294 450.228 87.981Z" fill="white"/>
<path d="M435.503 92.9078C435.503 94.0593 434.572 94.9903 433.42 94.9903C432.268 94.9903 431.337 94.0593 431.337 92.9078C431.337 91.7562 432.268 90.8252 433.42 90.8252C434.572 90.8252 435.503 91.7562 435.503 92.9078Z" fill="white"/>
<path d="M440.403 92.9078C440.403 94.0593 439.472 94.9903 438.32 94.9903C437.169 94.9903 436.238 94.0593 436.238 92.9078C436.238 91.7562 437.169 90.8252 438.32 90.8252C439.472 90.8252 440.403 91.7562 440.403 92.9078Z" fill="white"/>
<path d="M445.328 92.9078C445.328 94.0593 444.397 94.9903 443.246 94.9903C442.094 94.9903 441.163 94.0593 441.163 92.9078C441.163 91.7562 442.094 90.8252 443.246 90.8252C444.397 90.8252 445.328 91.7562 445.328 92.9078Z" fill="white"/>
<path d="M464.978 63.4332C464.978 64.5847 464.047 65.5157 462.895 65.5157C461.744 65.5157 460.812 64.5847 460.812 63.4332C460.812 62.2816 461.744 61.3506 462.895 61.3506C464.047 61.3506 464.978 62.2816 464.978 63.4332Z" fill="white"/>
<path d="M484.628 63.4332C484.628 64.5847 483.697 65.5157 482.545 65.5157C481.393 65.5157 480.462 64.5847 480.462 63.4332C480.462 62.2816 481.393 61.3506 482.545 61.3506C483.697 61.3506 484.628 62.2816 484.628 63.4332Z" fill="white"/>
<path d="M464.978 68.357C464.978 69.5085 464.047 70.4396 462.895 70.4396C461.744 70.4396 460.812 69.5085 460.812 68.357C460.812 67.2055 461.744 66.2744 462.895 66.2744C464.047 66.2744 464.978 67.2055 464.978 68.357Z" fill="white"/>
<path d="M479.702 68.357C479.702 69.5085 478.771 70.4396 477.62 70.4396C476.468 70.4396 475.537 69.5085 475.537 68.357C475.537 67.2055 476.468 66.2744 477.62 66.2744C478.771 66.2744 479.702 67.2055 479.702 68.357Z" fill="white"/>
<path d="M464.978 73.2574C464.978 74.4089 464.047 75.34 462.895 75.34C461.744 75.34 460.812 74.4089 460.812 73.2574C460.812 72.1059 461.744 71.1748 462.895 71.1748C464.047 71.1748 464.978 72.1059 464.978 73.2574Z" fill="white"/>
<path d="M474.802 73.2574C474.802 74.4089 473.871 75.34 472.719 75.34C471.568 75.34 470.637 74.4089 470.637 73.2574C470.637 72.1059 471.568 71.1748 472.719 71.1748C473.871 71.1748 474.802 72.1059 474.802 73.2574Z" fill="white"/>
<path d="M464.978 78.1812C464.978 79.3327 464.047 80.2638 462.895 80.2638C461.744 80.2638 460.812 79.3327 460.812 78.1812C460.812 77.0296 461.744 76.0986 462.895 76.0986C464.047 76.0986 464.978 77.0296 464.978 78.1812Z" fill="white"/>
<path d="M469.878 78.1812C469.878 79.3327 468.947 80.2638 467.795 80.2638C466.644 80.2638 465.713 79.3327 465.713 78.1812C465.713 77.0296 466.644 76.0986 467.795 76.0986C468.947 76.0986 469.878 77.0296 469.878 78.1812Z" fill="white"/>
<path d="M474.802 78.1812C474.802 79.3327 473.871 80.2638 472.719 80.2638C471.568 80.2638 470.637 79.3327 470.637 78.1812C470.637 77.0296 471.568 76.0986 472.719 76.0986C473.871 76.0986 474.802 77.0296 474.802 78.1812Z" fill="white"/>
<path d="M479.702 78.1812C479.702 79.3327 478.771 80.2638 477.62 80.2638C476.468 80.2638 475.537 79.3327 475.537 78.1812C475.537 77.0296 476.468 76.0986 477.62 76.0986C478.771 76.0986 479.702 77.0296 479.702 78.1812Z" fill="white"/>
<path d="M464.978 83.0816C464.978 84.2331 464.047 85.1642 462.895 85.1642C461.744 85.1642 460.812 84.2331 460.812 83.0816C460.812 81.93 461.744 80.999 462.895 80.999C464.047 80.999 464.978 81.93 464.978 83.0816Z" fill="white"/>
<path d="M484.628 83.0816C484.628 84.2331 483.697 85.1642 482.545 85.1642C481.393 85.1642 480.462 84.2331 480.462 83.0816C480.462 81.93 481.393 80.999 482.545 80.999C483.697 80.999 484.628 81.93 484.628 83.0816Z" fill="white"/>
<path d="M464.978 87.981C464.978 89.1325 464.047 90.0636 462.895 90.0636C461.744 90.0636 460.812 89.1325 460.812 87.981C460.812 86.8294 461.744 85.8984 462.895 85.8984C464.047 85.8984 464.978 86.8294 464.978 87.981Z" fill="white"/>
<path d="M484.628 87.981C484.628 89.1325 483.697 90.0636 482.545 90.0636C481.393 90.0636 480.462 89.1325 480.462 87.981C480.462 86.8294 481.393 85.8984 482.545 85.8984C483.697 85.8984 484.628 86.8294 484.628 87.981Z" fill="white"/>
<path d="M464.978 92.9078C464.978 94.0593 464.047 94.9903 462.895 94.9903C461.744 94.9903 460.812 94.0593 460.812 92.9078C460.812 91.7562 461.744 90.8252 462.895 90.8252C464.047 90.8252 464.978 91.7562 464.978 92.9078Z" fill="white"/>
<path d="M484.628 92.9078C484.628 94.0593 483.697 94.9903 482.545 94.9903C481.393 94.9903 480.462 94.0593 480.462 92.9078C480.462 91.7562 481.393 90.8252 482.545 90.8252C483.697 90.8252 484.628 91.7562 484.628 92.9078Z" fill="white"/>
<path d="M504.277 63.4332C504.277 64.5847 503.346 65.5157 502.195 65.5157C501.043 65.5157 500.112 64.5847 500.112 63.4332C500.112 62.2816 501.043 61.3506 502.195 61.3506C503.346 61.3506 504.277 62.2816 504.277 63.4332Z" fill="white"/>
<path d="M509.177 63.4332C509.177 64.5847 508.246 65.5157 507.095 65.5157C505.943 65.5157 505.012 64.5847 505.012 63.4332C505.012 62.2816 505.943 61.3506 507.095 61.3506C508.246 61.3506 509.177 62.2816 509.177 63.4332Z" fill="white"/>
<path d="M514.078 63.4332C514.078 64.5847 513.147 65.5157 511.995 65.5157C510.844 65.5157 509.913 64.5847 509.913 63.4332C509.913 62.2816 510.844 61.3506 511.995 61.3506C513.147 61.3506 514.078 62.2816 514.078 63.4332Z" fill="white"/>
<path d="M509.177 68.357C509.177 69.5085 508.246 70.4396 507.095 70.4396C505.943 70.4396 505.012 69.5085 505.012 68.357C505.012 67.2055 505.943 66.2744 507.095 66.2744C508.246 66.2744 509.177 67.2055 509.177 68.357Z" fill="white"/>
<path d="M509.177 73.2574C509.177 74.4089 508.246 75.34 507.095 75.34C505.943 75.34 505.012 74.4089 505.012 73.2574C505.012 72.1059 505.943 71.1748 507.095 71.1748C508.246 71.1748 509.177 72.1059 509.177 73.2574Z" fill="white"/>
<path d="M509.177 78.1812C509.177 79.3327 508.246 80.2638 507.095 80.2638C505.943 80.2638 505.012 79.3327 505.012 78.1812C505.012 77.0296 505.943 76.0986 507.095 76.0986C508.246 76.0986 509.177 77.0296 509.177 78.1812Z" fill="white"/>
<path d="M509.177 83.0816C509.177 84.2331 508.246 85.1642 507.095 85.1642C505.943 85.1642 505.012 84.2331 505.012 83.0816C505.012 81.93 505.943 80.999 507.095 80.999C508.246 80.999 509.177 81.93 509.177 83.0816Z" fill="white"/>
<path d="M509.177 87.981C509.177 89.1325 508.246 90.0636 507.095 90.0636C505.943 90.0636 505.012 89.1325 505.012 87.981C505.012 86.8294 505.943 85.8984 507.095 85.8984C508.246 85.8984 509.177 86.8294 509.177 87.981Z" fill="white"/>
<path d="M504.277 92.9078C504.277 94.0593 503.346 94.9903 502.195 94.9903C501.043 94.9903 500.112 94.0593 500.112 92.9078C500.112 91.7562 501.043 90.8252 502.195 90.8252C503.346 90.8252 504.277 91.7562 504.277 92.9078Z" fill="white"/>
<path d="M509.177 92.9078C509.177 94.0593 508.246 94.9903 507.095 94.9903C505.943 94.9903 505.012 94.0593 505.012 92.9078C505.012 91.7562 505.943 90.8252 507.095 90.8252C508.246 90.8252 509.177 91.7562 509.177 92.9078Z" fill="white"/>
<path d="M514.078 92.9078C514.078 94.0593 513.147 94.9903 511.995 94.9903C510.844 94.9903 509.913 94.0593 509.913 92.9078C509.913 91.7562 510.844 90.8252 511.995 90.8252C513.147 90.8252 514.078 91.7562 514.078 92.9078Z" fill="white"/>
<path d="M563.201 63.4332C563.201 64.5847 562.27 65.5157 561.119 65.5157C559.967 65.5157 559.036 64.5847 559.036 63.4332C559.036 62.2816 559.967 61.3506 561.119 61.3506C562.27 61.3506 563.201 62.2816 563.201 63.4332Z" fill="white"/>
<path d="M568.127 63.4332C568.127 64.5847 567.196 65.5157 566.044 65.5157C564.892 65.5157 563.961 64.5847 563.961 63.4332C563.961 62.2816 564.892 61.3506 566.044 61.3506C567.196 61.3506 568.127 62.2816 568.127 63.4332Z" fill="white"/>
<path d="M573.027 63.4332C573.027 64.5847 572.096 65.5157 570.944 65.5157C569.793 65.5157 568.862 64.5847 568.862 63.4332C568.862 62.2816 569.793 61.3506 570.944 61.3506C572.096 61.3506 573.027 62.2816 573.027 63.4332Z" fill="white"/>
<path d="M577.951 63.4332C577.951 64.5847 577.02 65.5157 575.869 65.5157C574.717 65.5157 573.786 64.5847 573.786 63.4332C573.786 62.2816 574.717 61.3506 575.869 61.3506C577.02 61.3506 577.951 62.2816 577.951 63.4332Z" fill="white"/>
<path d="M563.201 68.357C563.201 69.5085 562.27 70.4396 561.119 70.4396C559.967 70.4396 559.036 69.5085 559.036 68.357C559.036 67.2055 559.967 66.2744 561.119 66.2744C562.27 66.2744 563.201 67.2055 563.201 68.357Z" fill="white"/>
<path d="M582.851 68.357C582.851 69.5085 581.92 70.4396 580.769 70.4396C579.617 70.4396 578.686 69.5085 578.686 68.357C578.686 67.2055 579.617 66.2744 580.769 66.2744C581.92 66.2744 582.851 67.2055 582.851 68.357Z" fill="white"/>
<path d="M563.201 73.2574C563.201 74.4089 562.27 75.34 561.119 75.34C559.967 75.34 559.036 74.4089 559.036 73.2574C559.036 72.1059 559.967 71.1748 561.119 71.1748C562.27 71.1748 563.201 72.1059 563.201 73.2574Z" fill="white"/>
<path d="M582.851 73.2574C582.851 74.4089 581.92 75.34 580.769 75.34C579.617 75.34 578.686 74.4089 578.686 73.2574C578.686 72.1059 579.617 71.1748 580.769 71.1748C581.92 71.1748 582.851 72.1059 582.851 73.2574Z" fill="white"/>
<path d="M563.201 78.1812C563.201 79.3327 562.27 80.2638 561.119 80.2638C559.967 80.2638 559.036 79.3327 559.036 78.1812C559.036 77.0296 559.967 76.0986 561.119 76.0986C562.27 76.0986 563.201 77.0296 563.201 78.1812Z" fill="white"/>
<path d="M568.127 78.1812C568.127 79.3327 567.196 80.2638 566.044 80.2638C564.892 80.2638 563.961 79.3327 563.961 78.1812C563.961 77.0296 564.892 76.0986 566.044 76.0986C567.196 76.0986 568.127 77.0296 568.127 78.1812Z" fill="white"/>
<path d="M573.027 78.1812C573.027 79.3327 572.096 80.2638 570.944 80.2638C569.793 80.2638 568.862 79.3327 568.862 78.1812C568.862 77.0296 569.793 76.0986 570.944 76.0986C572.096 76.0986 573.027 77.0296 573.027 78.1812Z" fill="white"/>
<path d="M577.951 78.1812C577.951 79.3327 577.02 80.2638 575.869 80.2638C574.717 80.2638 573.786 79.3327 573.786 78.1812C573.786 77.0296 574.717 76.0986 575.869 76.0986C577.02 76.0986 577.951 77.0296 577.951 78.1812Z" fill="white"/>
<path d="M563.201 83.0816C563.201 84.2331 562.27 85.1642 561.119 85.1642C559.967 85.1642 559.036 84.2331 559.036 83.0816C559.036 81.93 559.967 80.999 561.119 80.999C562.27 80.999 563.201 81.93 563.201 83.0816Z" fill="white"/>
<path d="M563.201 87.981C563.201 89.1325 562.27 90.0636 561.119 90.0636C559.967 90.0636 559.036 89.1325 559.036 87.981C559.036 86.8294 559.967 85.8984 561.119 85.8984C562.27 85.8984 563.201 86.8294 563.201 87.981Z" fill="white"/>
<path d="M563.201 92.9078C563.201 94.0593 562.27 94.9903 561.119 94.9903C559.967 94.9903 559.036 94.0593 559.036 92.9078C559.036 91.7562 559.967 90.8252 561.119 90.8252C562.27 90.8252 563.201 91.7562 563.201 92.9078Z" fill="white"/>
<path d="M602.501 63.4332C602.501 64.5847 601.57 65.5157 600.419 65.5157C599.267 65.5157 598.336 64.5847 598.336 63.4332C598.336 62.2816 599.267 61.3506 600.419 61.3506C601.57 61.3506 602.501 62.2816 602.501 63.4332Z" fill="white"/>
<path d="M607.426 63.4332C607.426 64.5847 606.495 65.5157 605.344 65.5157C604.192 65.5157 603.261 64.5847 603.261 63.4332C603.261 62.2816 604.192 61.3506 605.344 61.3506C606.495 61.3506 607.426 62.2816 607.426 63.4332Z" fill="white"/>
<path d="M612.326 63.4332C612.326 64.5847 611.395 65.5157 610.244 65.5157C609.092 65.5157 608.161 64.5847 608.161 63.4332C608.161 62.2816 609.092 61.3506 610.244 61.3506C611.395 61.3506 612.326 62.2816 612.326 63.4332Z" fill="white"/>
<path d="M597.601 68.357C597.601 69.5085 596.67 70.4396 595.518 70.4396C594.367 70.4396 593.436 69.5085 593.436 68.357C593.436 67.2055 594.367 66.2744 595.518 66.2744C596.67 66.2744 597.601 67.2055 597.601 68.357Z" fill="white"/>
<path d="M617.251 68.357C617.251 69.5085 616.32 70.4396 615.168 70.4396C614.016 70.4396 613.085 69.5085 613.085 68.357C613.085 67.2055 614.016 66.2744 615.168 66.2744C616.32 66.2744 617.251 67.2055 617.251 68.357Z" fill="white"/>
<path d="M597.601 73.2574C597.601 74.4089 596.67 75.34 595.518 75.34C594.367 75.34 593.436 74.4089 593.436 73.2574C593.436 72.1059 594.367 71.1748 595.518 71.1748C596.67 71.1748 597.601 72.1059 597.601 73.2574Z" fill="white"/>
<path d="M617.251 73.2574C617.251 74.4089 616.32 75.34 615.168 75.34C614.016 75.34 613.085 74.4089 613.085 73.2574C613.085 72.1059 614.016 71.1748 615.168 71.1748C616.32 71.1748 617.251 72.1059 617.251 73.2574Z" fill="white"/>
<path d="M597.601 78.1812C597.601 79.3327 596.67 80.2638 595.518 80.2638C594.367 80.2638 593.436 79.3327 593.436 78.1812C593.436 77.0296 594.367 76.0986 595.518 76.0986C596.67 76.0986 597.601 77.0296 597.601 78.1812Z" fill="white"/>
<path d="M617.251 78.1812C617.251 79.3327 616.32 80.2638 615.168 80.2638C614.016 80.2638 613.085 79.3327 613.085 78.1812C613.085 77.0296 614.016 76.0986 615.168 76.0986C616.32 76.0986 617.251 77.0296 617.251 78.1812Z" fill="white"/>
<path d="M597.601 83.0816C597.601 84.2331 596.67 85.1642 595.518 85.1642C594.367 85.1642 593.436 84.2331 593.436 83.0816C593.436 81.93 594.367 80.999 595.518 80.999C596.67 80.999 597.601 81.93 597.601 83.0816Z" fill="white"/>
<path d="M602.501 83.0816C602.501 84.2331 601.57 85.1642 600.419 85.1642C599.267 85.1642 598.336 84.2331 598.336 83.0816C598.336 81.93 599.267 80.999 600.419 80.999C601.57 80.999 602.501 81.93 602.501 83.0816Z" fill="white"/>
<path d="M607.426 83.0816C607.426 84.2331 606.495 85.1642 605.344 85.1642C604.192 85.1642 603.261 84.2331 603.261 83.0816C603.261 81.93 604.192 80.999 605.344 80.999C606.495 80.999 607.426 81.93 607.426 83.0816Z" fill="white"/>
<path d="M612.326 83.0816C612.326 84.2331 611.395 85.1642 610.244 85.1642C609.092 85.1642 608.161 84.2331 608.161 83.0816C608.161 81.93 609.092 80.999 610.244 80.999C611.395 80.999 612.326 81.93 612.326 83.0816Z" fill="white"/>
<path d="M617.251 83.0816C617.251 84.2331 616.32 85.1642 615.168 85.1642C614.016 85.1642 613.085 84.2331 613.085 83.0816C613.085 81.93 614.016 80.999 615.168 80.999C616.32 80.999 617.251 81.93 617.251 83.0816Z" fill="white"/>
<path d="M597.601 87.981C597.601 89.1325 596.67 90.0636 595.518 90.0636C594.367 90.0636 593.436 89.1325 593.436 87.981C593.436 86.8294 594.367 85.8984 595.518 85.8984C596.67 85.8984 597.601 86.8294 597.601 87.981Z" fill="white"/>
<path d="M617.251 87.981C617.251 89.1325 616.32 90.0636 615.168 90.0636C614.016 90.0636 613.085 89.1325 613.085 87.981C613.085 86.8294 614.016 85.8984 615.168 85.8984C616.32 85.8984 617.251 86.8294 617.251 87.981Z" fill="white"/>
<path d="M597.601 92.9078C597.601 94.0593 596.67 94.9903 595.518 94.9903C594.367 94.9903 593.436 94.0593 593.436 92.9078C593.436 91.7562 594.367 90.8252 595.518 90.8252C596.67 90.8252 597.601 91.7562 597.601 92.9078Z" fill="white"/>
<path d="M617.251 92.9078C617.251 94.0593 616.32 94.9903 615.168 94.9903C614.016 94.9903 613.085 94.0593 613.085 92.9078C613.085 91.7562 614.016 90.8252 615.168 90.8252C616.32 90.8252 617.251 91.7562 617.251 92.9078Z" fill="white"/>
<path d="M631.976 63.4332C631.976 64.5847 631.045 65.5157 629.894 65.5157C628.742 65.5157 627.811 64.5847 627.811 63.4332C627.811 62.2816 628.742 61.3506 629.894 61.3506C631.045 61.3506 631.976 62.2816 631.976 63.4332Z" fill="white"/>
<path d="M636.876 63.4332C636.876 64.5847 635.945 65.5157 634.794 65.5157C633.642 65.5157 632.711 64.5847 632.711 63.4332C632.711 62.2816 633.642 61.3506 634.794 61.3506C635.945 61.3506 636.876 62.2816 636.876 63.4332Z" fill="white"/>
<path d="M641.8 63.4332C641.8 64.5847 640.869 65.5157 639.718 65.5157C638.566 65.5157 637.635 64.5847 637.635 63.4332C637.635 62.2816 638.566 61.3506 639.718 61.3506C640.869 61.3506 641.8 62.2816 641.8 63.4332Z" fill="white"/>
<path d="M646.701 63.4332C646.701 64.5847 645.77 65.5157 644.618 65.5157C643.467 65.5157 642.536 64.5847 642.536 63.4332C642.536 62.2816 643.467 61.3506 644.618 61.3506C645.77 61.3506 646.701 62.2816 646.701 63.4332Z" fill="white"/>
<path d="M631.976 68.357C631.976 69.5085 631.045 70.4396 629.894 70.4396C628.742 70.4396 627.811 69.5085 627.811 68.357C627.811 67.2055 628.742 66.2744 629.894 66.2744C631.045 66.2744 631.976 67.2055 631.976 68.357Z" fill="white"/>
<path d="M651.625 68.357C651.625 69.5085 650.694 70.4396 649.542 70.4396C648.391 70.4396 647.459 69.5085 647.459 68.357C647.459 67.2055 648.391 66.2744 649.542 66.2744C650.694 66.2744 651.625 67.2055 651.625 68.357Z" fill="white"/>
<path d="M631.976 73.2574C631.976 74.4089 631.045 75.34 629.894 75.34C628.742 75.34 627.811 74.4089 627.811 73.2574C627.811 72.1059 628.742 71.1748 629.894 71.1748C631.045 71.1748 631.976 72.1059 631.976 73.2574Z" fill="white"/>
<path d="M651.625 73.2574C651.625 74.4089 650.694 75.34 649.542 75.34C648.391 75.34 647.459 74.4089 647.459 73.2574C647.459 72.1059 648.391 71.1748 649.542 71.1748C650.694 71.1748 651.625 72.1059 651.625 73.2574Z" fill="white"/>
<path d="M631.976 78.1812C631.976 79.3327 631.045 80.2638 629.894 80.2638C628.742 80.2638 627.811 79.3327 627.811 78.1812C627.811 77.0296 628.742 76.0986 629.894 76.0986C631.045 76.0986 631.976 77.0296 631.976 78.1812Z" fill="white"/>
<path d="M636.876 78.1812C636.876 79.3327 635.945 80.2638 634.794 80.2638C633.642 80.2638 632.711 79.3327 632.711 78.1812C632.711 77.0296 633.642 76.0986 634.794 76.0986C635.945 76.0986 636.876 77.0296 636.876 78.1812Z" fill="white"/>
<path d="M641.8 78.1812C641.8 79.3327 640.869 80.2638 639.718 80.2638C638.566 80.2638 637.635 79.3327 637.635 78.1812C637.635 77.0296 638.566 76.0986 639.718 76.0986C640.869 76.0986 641.8 77.0296 641.8 78.1812Z" fill="white"/>
<path d="M646.701 78.1812C646.701 79.3327 645.77 80.2638 644.618 80.2638C643.467 80.2638 642.536 79.3327 642.536 78.1812C642.536 77.0296 643.467 76.0986 644.618 76.0986C645.77 76.0986 646.701 77.0296 646.701 78.1812Z" fill="white"/>
<path d="M631.976 83.0816C631.976 84.2331 631.045 85.1642 629.894 85.1642C628.742 85.1642 627.811 84.2331 627.811 83.0816C627.811 81.93 628.742 80.999 629.894 80.999C631.045 80.999 631.976 81.93 631.976 83.0816Z" fill="white"/>
<path d="M641.8 83.0816C641.8 84.2331 640.869 85.1642 639.718 85.1642C638.566 85.1642 637.635 84.2331 637.635 83.0816C637.635 81.93 638.566 80.999 639.718 80.999C640.869 80.999 641.8 81.93 641.8 83.0816Z" fill="white"/>
<path d="M631.976 87.981C631.976 89.1325 631.045 90.0636 629.894 90.0636C628.742 90.0636 627.811 89.1325 627.811 87.981C627.811 86.8294 628.742 85.8984 629.894 85.8984C631.045 85.8984 631.976 86.8294 631.976 87.981Z" fill="white"/>
<path d="M646.701 87.981C646.701 89.1325 645.77 90.0636 644.618 90.0636C643.467 90.0636 642.536 89.1325 642.536 87.981C642.536 86.8294 643.467 85.8984 644.618 85.8984C645.77 85.8984 646.701 86.8294 646.701 87.981Z" fill="white"/>
<path d="M631.976 92.9078C631.976 94.0593 631.045 94.9903 629.894 94.9903C628.742 94.9903 627.811 94.0593 627.811 92.9078C627.811 91.7562 628.742 90.8252 629.894 90.8252C631.045 90.8252 631.976 91.7562 631.976 92.9078Z" fill="white"/>
<path d="M651.625 92.9078C651.625 94.0593 650.694 94.9903 649.542 94.9903C648.391 94.9903 647.459 94.0593 647.459 92.9078C647.459 91.7562 648.391 90.8252 649.542 90.8252C650.694 90.8252 651.625 91.7562 651.625 92.9078Z" fill="white"/>
<path d="M666.35 63.4332C666.35 64.5847 665.419 65.5157 664.268 65.5157C663.116 65.5157 662.185 64.5847 662.185 63.4332C662.185 62.2816 663.116 61.3506 664.268 61.3506C665.419 61.3506 666.35 62.2816 666.35 63.4332Z" fill="white"/>
<path d="M686 63.4332C686 64.5847 685.069 65.5157 683.918 65.5157C682.766 65.5157 681.835 64.5847 681.835 63.4332C681.835 62.2816 682.766 61.3506 683.918 61.3506C685.069 61.3506 686 62.2816 686 63.4332Z" fill="white"/>
<path d="M666.35 68.357C666.35 69.5085 665.419 70.4396 664.268 70.4396C663.116 70.4396 662.185 69.5085 662.185 68.357C662.185 67.2055 663.116 66.2744 664.268 66.2744C665.419 66.2744 666.35 67.2055 666.35 68.357Z" fill="white"/>
<path d="M681.1 68.357C681.1 69.5085 680.169 70.4396 679.017 70.4396C677.866 70.4396 676.935 69.5085 676.935 68.357C676.935 67.2055 677.866 66.2744 679.017 66.2744C680.169 66.2744 681.1 67.2055 681.1 68.357Z" fill="white"/>
<path d="M666.35 73.2574C666.35 74.4089 665.419 75.34 664.268 75.34C663.116 75.34 662.185 74.4089 662.185 73.2574C662.185 72.1059 663.116 71.1748 664.268 71.1748C665.419 71.1748 666.35 72.1059 666.35 73.2574Z" fill="white"/>
<path d="M676.175 73.2574C676.175 74.4089 675.244 75.34 674.092 75.34C672.941 75.34 672.01 74.4089 672.01 73.2574C672.01 72.1059 672.941 71.1748 674.092 71.1748C675.244 71.1748 676.175 72.1059 676.175 73.2574Z" fill="white"/>
<path d="M666.35 78.1812C666.35 79.3327 665.419 80.2638 664.268 80.2638C663.116 80.2638 662.185 79.3327 662.185 78.1812C662.185 77.0296 663.116 76.0986 664.268 76.0986C665.419 76.0986 666.35 77.0296 666.35 78.1812Z" fill="white"/>
<path d="M671.274 78.1812C671.274 79.3327 670.344 80.2638 669.192 80.2638C668.04 80.2638 667.109 79.3327 667.109 78.1812C667.109 77.0296 668.04 76.0986 669.192 76.0986C670.344 76.0986 671.274 77.0296 671.274 78.1812Z" fill="white"/>
<path d="M676.175 78.1812C676.175 79.3327 675.244 80.2638 674.092 80.2638C672.941 80.2638 672.01 79.3327 672.01 78.1812C672.01 77.0296 672.941 76.0986 674.092 76.0986C675.244 76.0986 676.175 77.0296 676.175 78.1812Z" fill="white"/>
<path d="M681.1 78.1812C681.1 79.3327 680.169 80.2638 679.017 80.2638C677.866 80.2638 676.935 79.3327 676.935 78.1812C676.935 77.0296 677.866 76.0986 679.017 76.0986C680.169 76.0986 681.1 77.0296 681.1 78.1812Z" fill="white"/>
<path d="M666.35 83.0816C666.35 84.2331 665.419 85.1642 664.268 85.1642C663.116 85.1642 662.185 84.2331 662.185 83.0816C662.185 81.93 663.116 80.999 664.268 80.999C665.419 80.999 666.35 81.93 666.35 83.0816Z" fill="white"/>
<path d="M686 83.0816C686 84.2331 685.069 85.1642 683.918 85.1642C682.766 85.1642 681.835 84.2331 681.835 83.0816C681.835 81.93 682.766 80.999 683.918 80.999C685.069 80.999 686 81.93 686 83.0816Z" fill="white"/>
<path d="M666.35 87.981C666.35 89.1325 665.419 90.0636 664.268 90.0636C663.116 90.0636 662.185 89.1325 662.185 87.981C662.185 86.8294 663.116 85.8984 664.268 85.8984C665.419 85.8984 666.35 86.8294 666.35 87.981Z" fill="white"/>
<path d="M686 87.981C686 89.1325 685.069 90.0636 683.918 90.0636C682.766 90.0636 681.835 89.1325 681.835 87.981C681.835 86.8294 682.766 85.8984 683.918 85.8984C685.069 85.8984 686 86.8294 686 87.981Z" fill="white"/>
<path d="M666.35 92.9078C666.35 94.0593 665.419 94.9903 664.268 94.9903C663.116 94.9903 662.185 94.0593 662.185 92.9078C662.185 91.7562 663.116 90.8252 664.268 90.8252C665.419 90.8252 666.35 91.7562 666.35 92.9078Z" fill="white"/>
<path d="M686 92.9078C686 94.0593 685.069 94.9903 683.918 94.9903C682.766 94.9903 681.835 94.0593 681.835 92.9078C681.835 91.7562 682.766 90.8252 683.918 90.8252C685.069 90.8252 686 91.7562 686 92.9078Z" fill="white"/>
<path d="M390.127 123.507C390.127 124.659 389.196 125.59 388.045 125.59C386.893 125.59 385.962 124.659 385.962 123.507C385.962 122.356 386.893 121.425 388.045 121.425C389.196 121.425 390.127 122.356 390.127 123.507Z" fill="white"/>
<path d="M390.127 128.408C390.127 129.559 389.196 130.49 388.045 130.49C386.893 130.49 385.962 129.559 385.962 128.408C385.962 127.256 386.893 126.325 388.045 126.325C389.196 126.325 390.127 127.256 390.127 128.408Z" fill="white"/>
<path d="M390.127 133.332C390.127 134.483 389.196 135.414 388.045 135.414C386.893 135.414 385.962 134.483 385.962 133.332C385.962 132.18 386.893 131.249 388.045 131.249C389.196 131.249 390.127 132.18 390.127 133.332Z" fill="white"/>
<path d="M390.127 138.232C390.127 139.384 389.196 140.315 388.045 140.315C386.893 140.315 385.962 139.384 385.962 138.232C385.962 137.08 386.893 136.149 388.045 136.149C389.196 136.149 390.127 137.08 390.127 138.232Z" fill="white"/>
<path d="M390.127 143.156C390.127 144.307 389.196 145.238 388.045 145.238C386.893 145.238 385.962 144.307 385.962 143.156C385.962 142.004 386.893 141.073 388.045 141.073C389.196 141.073 390.127 142.004 390.127 143.156Z" fill="white"/>
<path d="M390.127 148.056C390.127 149.208 389.196 150.139 388.045 150.139C386.893 150.139 385.962 149.208 385.962 148.056C385.962 146.905 386.893 145.974 388.045 145.974C389.196 145.974 390.127 146.905 390.127 148.056Z" fill="white"/>
<path d="M390.127 152.983C390.127 154.134 389.196 155.066 388.045 155.066C386.893 155.066 385.962 154.134 385.962 152.983C385.962 151.831 386.893 150.9 388.045 150.9C389.196 150.9 390.127 151.831 390.127 152.983Z" fill="white"/>
<path d="M395.052 152.983C395.052 154.134 394.121 155.066 392.97 155.066C391.818 155.066 390.887 154.134 390.887 152.983C390.887 151.831 391.818 150.9 392.97 150.9C394.121 150.9 395.052 151.831 395.052 152.983Z" fill="white"/>
<path d="M399.952 152.983C399.952 154.134 399.021 155.066 397.87 155.066C396.718 155.066 395.787 154.134 395.787 152.983C395.787 151.831 396.718 150.9 397.87 150.9C399.021 150.9 399.952 151.831 399.952 152.983Z" fill="white"/>
<path d="M404.877 152.983C404.877 154.134 403.946 155.066 402.794 155.066C401.642 155.066 400.711 154.134 400.711 152.983C400.711 151.831 401.642 150.9 402.794 150.9C403.946 150.9 404.877 151.831 404.877 152.983Z" fill="white"/>
<path d="M409.776 152.983C409.776 154.134 408.845 155.066 407.694 155.066C406.542 155.066 405.611 154.134 405.611 152.983C405.611 151.831 406.542 150.9 407.694 150.9C408.845 150.9 409.776 151.831 409.776 152.983Z" fill="white"/>
<path d="M444.176 123.507C444.176 124.659 443.245 125.59 442.093 125.59C440.942 125.59 440.011 124.659 440.011 123.507C440.011 122.356 440.942 121.425 442.093 121.425C443.245 121.425 444.176 122.356 444.176 123.507Z" fill="white"/>
<path d="M424.526 148.056C424.526 149.208 423.595 150.139 422.444 150.139C421.292 150.139 420.361 149.208 420.361 148.056C420.361 146.905 421.292 145.974 422.444 145.974C423.595 145.974 424.526 146.905 424.526 148.056Z" fill="white"/>
<path d="M439.251 123.507C439.251 124.659 438.32 125.59 437.168 125.59C436.016 125.59 435.085 124.659 435.085 123.507C435.085 122.356 436.016 121.425 437.168 121.425C438.32 121.425 439.251 122.356 439.251 123.507Z" fill="white"/>
<path d="M434.351 123.507C434.351 124.659 433.42 125.59 432.268 125.59C431.117 125.59 430.186 124.659 430.186 123.507C430.186 122.356 431.117 121.425 432.268 121.425C433.42 121.425 434.351 122.356 434.351 123.507Z" fill="white"/>
<path d="M439.251 128.408C439.251 129.559 438.32 130.49 437.168 130.49C436.016 130.49 435.085 129.559 435.085 128.408C435.085 127.256 436.016 126.325 437.168 126.325C438.32 126.325 439.251 127.256 439.251 128.408Z" fill="white"/>
<path d="M439.251 133.332C439.251 134.483 438.32 135.414 437.168 135.414C436.016 135.414 435.085 134.483 435.085 133.332C435.085 132.18 436.016 131.249 437.168 131.249C438.32 131.249 439.251 132.18 439.251 133.332Z" fill="white"/>
<path d="M439.251 138.232C439.251 139.384 438.32 140.315 437.168 140.315C436.016 140.315 435.085 139.384 435.085 138.232C435.085 137.08 436.016 136.149 437.168 136.149C438.32 136.149 439.251 137.08 439.251 138.232Z" fill="white"/>
<path d="M439.251 143.156C439.251 144.307 438.32 145.238 437.168 145.238C436.016 145.238 435.085 144.307 435.085 143.156C435.085 142.004 436.016 141.073 437.168 141.073C438.32 141.073 439.251 142.004 439.251 143.156Z" fill="white"/>
<path d="M439.251 148.056C439.251 149.208 438.32 150.139 437.168 150.139C436.016 150.139 435.085 149.208 435.085 148.056C435.085 146.905 436.016 145.974 437.168 145.974C438.32 145.974 439.251 146.905 439.251 148.056Z" fill="white"/>
<path d="M429.426 152.983C429.426 154.134 428.495 155.066 427.344 155.066C426.192 155.066 425.261 154.134 425.261 152.983C425.261 151.831 426.192 150.9 427.344 150.9C428.495 150.9 429.426 151.831 429.426 152.983Z" fill="white"/>
<path d="M434.351 152.983C434.351 154.134 433.42 155.066 432.268 155.066C431.117 155.066 430.186 154.134 430.186 152.983C430.186 151.831 431.117 150.9 432.268 150.9C433.42 150.9 434.351 151.831 434.351 152.983Z" fill="white"/>
<path d="M458.9 123.507C458.9 124.659 457.969 125.59 456.818 125.59C455.666 125.59 454.735 124.659 454.735 123.507C454.735 122.356 455.666 121.425 456.818 121.425C457.969 121.425 458.9 122.356 458.9 123.507Z" fill="white"/>
<path d="M478.55 123.507C478.55 124.659 477.619 125.59 476.468 125.59C475.316 125.59 474.385 124.659 474.385 123.507C474.385 122.356 475.316 121.425 476.468 121.425C477.619 121.425 478.55 122.356 478.55 123.507Z" fill="white"/>
<path d="M458.9 128.408C458.9 129.559 457.969 130.49 456.818 130.49C455.666 130.49 454.735 129.559 454.735 128.408C454.735 127.256 455.666 126.325 456.818 126.325C457.969 126.325 458.9 127.256 458.9 128.408Z" fill="white"/>
<path d="M478.55 128.408C478.55 129.559 477.619 130.49 476.468 130.49C475.316 130.49 474.385 129.559 474.385 128.408C474.385 127.256 475.316 126.325 476.468 126.325C477.619 126.325 478.55 127.256 478.55 128.408Z" fill="white"/>
<path d="M458.9 133.332C458.9 134.483 457.969 135.414 456.818 135.414C455.666 135.414 454.735 134.483 454.735 133.332C454.735 132.18 455.666 131.249 456.818 131.249C457.969 131.249 458.9 132.18 458.9 133.332Z" fill="white"/>
<path d="M478.55 133.332C478.55 134.483 477.619 135.414 476.468 135.414C475.316 135.414 474.385 134.483 474.385 133.332C474.385 132.18 475.316 131.249 476.468 131.249C477.619 131.249 478.55 132.18 478.55 133.332Z" fill="white"/>
<path d="M458.9 138.232C458.9 139.384 457.969 140.315 456.818 140.315C455.666 140.315 454.735 139.384 454.735 138.232C454.735 137.08 455.666 136.149 456.818 136.149C457.969 136.149 458.9 137.08 458.9 138.232Z" fill="white"/>
<path d="M478.55 138.232C478.55 139.384 477.619 140.315 476.468 140.315C475.316 140.315 474.385 139.384 474.385 138.232C474.385 137.08 475.316 136.149 476.468 136.149C477.619 136.149 478.55 137.08 478.55 138.232Z" fill="white"/>
<path d="M458.9 143.156C458.9 144.307 457.969 145.238 456.818 145.238C455.666 145.238 454.735 144.307 454.735 143.156C454.735 142.004 455.666 141.073 456.818 141.073C457.969 141.073 458.9 142.004 458.9 143.156Z" fill="white"/>
<path d="M478.55 143.156C478.55 144.307 477.619 145.238 476.468 145.238C475.316 145.238 474.385 144.307 474.385 143.156C474.385 142.004 475.316 141.073 476.468 141.073C477.619 141.073 478.55 142.004 478.55 143.156Z" fill="white"/>
<path d="M458.9 148.056C458.9 149.208 457.969 150.139 456.818 150.139C455.666 150.139 454.735 149.208 454.735 148.056C454.735 146.905 455.666 145.974 456.818 145.974C457.969 145.974 458.9 146.905 458.9 148.056Z" fill="white"/>
<path d="M478.55 148.056C478.55 149.208 477.619 150.139 476.468 150.139C475.316 150.139 474.385 149.208 474.385 148.056C474.385 146.905 475.316 145.974 476.468 145.974C477.619 145.974 478.55 146.905 478.55 148.056Z" fill="white"/>
<path d="M463.826 152.983C463.826 154.134 462.895 155.066 461.743 155.066C460.592 155.066 459.661 154.134 459.661 152.983C459.661 151.831 460.592 150.9 461.743 150.9C462.895 150.9 463.826 151.831 463.826 152.983Z" fill="white"/>
<path d="M468.726 152.983C468.726 154.134 467.795 155.066 466.643 155.066C465.492 155.066 464.561 154.134 464.561 152.983C464.561 151.831 465.492 150.9 466.643 150.9C467.795 150.9 468.726 151.831 468.726 152.983Z" fill="white"/>
<path d="M473.65 152.983C473.65 154.134 472.719 155.066 471.567 155.066C470.416 155.066 469.485 154.134 469.485 152.983C469.485 151.831 470.416 150.9 471.567 150.9C472.719 150.9 473.65 151.831 473.65 152.983Z" fill="white"/>
<path d="M493.276 123.507C493.276 124.659 492.345 125.59 491.193 125.59C490.042 125.59 489.111 124.659 489.111 123.507C489.111 122.356 490.042 121.425 491.193 121.425C492.345 121.425 493.276 122.356 493.276 123.507Z" fill="white"/>
<path d="M498.2 123.507C498.2 124.659 497.269 125.59 496.117 125.59C494.966 125.59 494.035 124.659 494.035 123.507C494.035 122.356 494.966 121.425 496.117 121.425C497.269 121.425 498.2 122.356 498.2 123.507Z" fill="white"/>
<path d="M503.1 123.507C503.1 124.659 502.169 125.59 501.018 125.59C499.866 125.59 498.935 124.659 498.935 123.507C498.935 122.356 499.866 121.425 501.018 121.425C502.169 121.425 503.1 122.356 503.1 123.507Z" fill="white"/>
<path d="M508.025 123.507C508.025 124.659 507.094 125.59 505.943 125.59C504.791 125.59 503.86 124.659 503.86 123.507C503.86 122.356 504.791 121.425 505.943 121.425C507.094 121.425 508.025 122.356 508.025 123.507Z" fill="white"/>
<path d="M493.276 128.408C493.276 129.559 492.345 130.49 491.193 130.49C490.042 130.49 489.111 129.559 489.111 128.408C489.111 127.256 490.042 126.325 491.193 126.325C492.345 126.325 493.276 127.256 493.276 128.408Z" fill="white"/>
<path d="M512.925 128.408C512.925 129.559 511.994 130.49 510.843 130.49C509.691 130.49 508.76 129.559 508.76 128.408C508.76 127.256 509.691 126.325 510.843 126.325C511.994 126.325 512.925 127.256 512.925 128.408Z" fill="white"/>
<path d="M493.276 133.332C493.276 134.483 492.345 135.414 491.193 135.414C490.042 135.414 489.111 134.483 489.111 133.332C489.111 132.18 490.042 131.249 491.193 131.249C492.345 131.249 493.276 132.18 493.276 133.332Z" fill="white"/>
<path d="M512.925 133.332C512.925 134.483 511.994 135.414 510.843 135.414C509.691 135.414 508.76 134.483 508.76 133.332C508.76 132.18 509.691 131.249 510.843 131.249C511.994 131.249 512.925 132.18 512.925 133.332Z" fill="white"/>
<path d="M493.276 138.232C493.276 139.384 492.345 140.315 491.193 140.315C490.042 140.315 489.111 139.384 489.111 138.232C489.111 137.08 490.042 136.149 491.193 136.149C492.345 136.149 493.276 137.08 493.276 138.232Z" fill="white"/>
<path d="M498.2 138.232C498.2 139.384 497.269 140.315 496.117 140.315C494.966 140.315 494.035 139.384 494.035 138.232C494.035 137.08 494.966 136.149 496.117 136.149C497.269 136.149 498.2 137.08 498.2 138.232Z" fill="white"/>
<path d="M503.1 138.232C503.1 139.384 502.169 140.315 501.018 140.315C499.866 140.315 498.935 139.384 498.935 138.232C498.935 137.08 499.866 136.149 501.018 136.149C502.169 136.149 503.1 137.08 503.1 138.232Z" fill="white"/>
<path d="M508.025 138.232C508.025 139.384 507.094 140.315 505.943 140.315C504.791 140.315 503.86 139.384 503.86 138.232C503.86 137.08 504.791 136.149 505.943 136.149C507.094 136.149 508.025 137.08 508.025 138.232Z" fill="white"/>
<path d="M493.276 143.156C493.276 144.307 492.345 145.238 491.193 145.238C490.042 145.238 489.111 144.307 489.111 143.156C489.111 142.004 490.042 141.073 491.193 141.073C492.345 141.073 493.276 142.004 493.276 143.156Z" fill="white"/>
<path d="M512.925 143.156C512.925 144.307 511.994 145.238 510.843 145.238C509.691 145.238 508.76 144.307 508.76 143.156C508.76 142.004 509.691 141.073 510.843 141.073C511.994 141.073 512.925 142.004 512.925 143.156Z" fill="white"/>
<path d="M493.276 148.056C493.276 149.208 492.345 150.139 491.193 150.139C490.042 150.139 489.111 149.208 489.111 148.056C489.111 146.905 490.042 145.974 491.193 145.974C492.345 145.974 493.276 146.905 493.276 148.056Z" fill="white"/>
<path d="M512.925 148.056C512.925 149.208 511.994 150.139 510.843 150.139C509.691 150.139 508.76 149.208 508.76 148.056C508.76 146.905 509.691 145.974 510.843 145.974C511.994 145.974 512.925 146.905 512.925 148.056Z" fill="white"/>
<path d="M493.276 152.983C493.276 154.134 492.345 155.066 491.193 155.066C490.042 155.066 489.111 154.134 489.111 152.983C489.111 151.831 490.042 150.9 491.193 150.9C492.345 150.9 493.276 151.831 493.276 152.983Z" fill="white"/>
<path d="M498.2 152.983C498.2 154.134 497.269 155.066 496.117 155.066C494.966 155.066 494.035 154.134 494.035 152.983C494.035 151.831 494.966 150.9 496.117 150.9C497.269 150.9 498.2 151.831 498.2 152.983Z" fill="white"/>
<path d="M503.1 152.983C503.1 154.134 502.169 155.066 501.018 155.066C499.866 155.066 498.935 154.134 498.935 152.983C498.935 151.831 499.866 150.9 501.018 150.9C502.169 150.9 503.1 151.831 503.1 152.983Z" fill="white"/>
<path d="M508.025 152.983C508.025 154.134 507.094 155.066 505.943 155.066C504.791 155.066 503.86 154.134 503.86 152.983C503.86 151.831 504.791 150.9 505.943 150.9C507.094 150.9 508.025 151.831 508.025 152.983Z" fill="white"/>
<path d="M527.675 123.507C527.675 124.659 526.744 125.59 525.593 125.59C524.441 125.59 523.51 124.659 523.51 123.507C523.51 122.356 524.441 121.425 525.593 121.425C526.744 121.425 527.675 122.356 527.675 123.507Z" fill="white"/>
<path d="M527.675 128.408C527.675 129.559 526.744 130.49 525.593 130.49C524.441 130.49 523.51 129.559 523.51 128.408C523.51 127.256 524.441 126.325 525.593 126.325C526.744 126.325 527.675 127.256 527.675 128.408Z" fill="white"/>
<path d="M527.675 133.332C527.675 134.483 526.744 135.414 525.593 135.414C524.441 135.414 523.51 134.483 523.51 133.332C523.51 132.18 524.441 131.249 525.593 131.249C526.744 131.249 527.675 132.18 527.675 133.332Z" fill="white"/>
<path d="M527.675 138.232C527.675 139.384 526.744 140.315 525.593 140.315C524.441 140.315 523.51 139.384 523.51 138.232C523.51 137.08 524.441 136.149 525.593 136.149C526.744 136.149 527.675 137.08 527.675 138.232Z" fill="white"/>
<path d="M527.675 143.156C527.675 144.307 526.744 145.238 525.593 145.238C524.441 145.238 523.51 144.307 523.51 143.156C523.51 142.004 524.441 141.073 525.593 141.073C526.744 141.073 527.675 142.004 527.675 143.156Z" fill="white"/>
<path d="M527.675 148.056C527.675 149.208 526.744 150.139 525.593 150.139C524.441 150.139 523.51 149.208 523.51 148.056C523.51 146.905 524.441 145.974 525.593 145.974C526.744 145.974 527.675 146.905 527.675 148.056Z" fill="white"/>
<path d="M527.675 152.983C527.675 154.134 526.744 155.066 525.593 155.066C524.441 155.066 523.51 154.134 523.51 152.983C523.51 151.831 524.441 150.9 525.593 150.9C526.744 150.9 527.675 151.831 527.675 152.983Z" fill="white"/>
<path d="M532.575 152.983C532.575 154.134 531.644 155.066 530.493 155.066C529.341 155.066 528.41 154.134 528.41 152.983C528.41 151.831 529.341 150.9 530.493 150.9C531.644 150.9 532.575 151.831 532.575 152.983Z" fill="white"/>
<path d="M537.5 152.983C537.5 154.134 536.569 155.066 535.417 155.066C534.265 155.066 533.334 154.134 533.334 152.983C533.334 151.831 534.265 150.9 535.417 150.9C536.569 150.9 537.5 151.831 537.5 152.983Z" fill="white"/>
<path d="M542.4 152.983C542.4 154.134 541.468 155.066 540.317 155.066C539.165 155.066 538.234 154.134 538.234 152.983C538.234 151.831 539.165 150.9 540.317 150.9C541.468 150.9 542.4 151.831 542.4 152.983Z" fill="white"/>
<path d="M547.325 152.983C547.325 154.134 546.394 155.066 545.242 155.066C544.091 155.066 543.16 154.134 543.16 152.983C543.16 151.831 544.091 150.9 545.242 150.9C546.394 150.9 547.325 151.831 547.325 152.983Z" fill="white"/>
<path d="M581.699 123.507C581.699 124.659 580.768 125.59 579.617 125.59C578.465 125.59 577.534 124.659 577.534 123.507C577.534 122.356 578.465 121.425 579.617 121.425C580.768 121.425 581.699 122.356 581.699 123.507Z" fill="white"/>
<path d="M562.049 148.056C562.049 149.208 561.118 150.139 559.967 150.139C558.815 150.139 557.884 149.208 557.884 148.056C557.884 146.905 558.815 145.974 559.967 145.974C561.118 145.974 562.049 146.905 562.049 148.056Z" fill="white"/>
<path d="M576.799 123.507C576.799 124.659 575.868 125.59 574.716 125.59C573.565 125.59 572.634 124.659 572.634 123.507C572.634 122.356 573.565 121.425 574.716 121.425C575.868 121.425 576.799 122.356 576.799 123.507Z" fill="white"/>
<path d="M571.875 123.507C571.875 124.659 570.944 125.59 569.792 125.59C568.641 125.59 567.709 124.659 567.709 123.507C567.709 122.356 568.641 121.425 569.792 121.425C570.944 121.425 571.875 122.356 571.875 123.507Z" fill="white"/>
<path d="M576.799 128.408C576.799 129.559 575.868 130.49 574.716 130.49C573.565 130.49 572.634 129.559 572.634 128.408C572.634 127.256 573.565 126.325 574.716 126.325C575.868 126.325 576.799 127.256 576.799 128.408Z" fill="white"/>
<path d="M576.799 133.332C576.799 134.483 575.868 135.414 574.716 135.414C573.565 135.414 572.634 134.483 572.634 133.332C572.634 132.18 573.565 131.249 574.716 131.249C575.868 131.249 576.799 132.18 576.799 133.332Z" fill="white"/>
<path d="M576.799 138.232C576.799 139.384 575.868 140.315 574.716 140.315C573.565 140.315 572.634 139.384 572.634 138.232C572.634 137.08 573.565 136.149 574.716 136.149C575.868 136.149 576.799 137.08 576.799 138.232Z" fill="white"/>
<path d="M576.799 143.156C576.799 144.307 575.868 145.238 574.716 145.238C573.565 145.238 572.634 144.307 572.634 143.156C572.634 142.004 573.565 141.073 574.716 141.073C575.868 141.073 576.799 142.004 576.799 143.156Z" fill="white"/>
<path d="M576.799 148.056C576.799 149.208 575.868 150.139 574.716 150.139C573.565 150.139 572.634 149.208 572.634 148.056C572.634 146.905 573.565 145.974 574.716 145.974C575.868 145.974 576.799 146.905 576.799 148.056Z" fill="white"/>
<path d="M566.975 152.983C566.975 154.134 566.044 155.066 564.892 155.066C563.741 155.066 562.81 154.134 562.81 152.983C562.81 151.831 563.741 150.9 564.892 150.9C566.044 150.9 566.975 151.831 566.975 152.983Z" fill="white"/>
<path d="M571.875 152.983C571.875 154.134 570.944 155.066 569.792 155.066C568.641 155.066 567.709 154.134 567.709 152.983C567.709 151.831 568.641 150.9 569.792 150.9C570.944 150.9 571.875 151.831 571.875 152.983Z" fill="white"/>
<path d="M601.349 123.507C601.349 124.659 600.418 125.59 599.266 125.59C598.115 125.59 597.184 124.659 597.184 123.507C597.184 122.356 598.115 121.425 599.266 121.425C600.418 121.425 601.349 122.356 601.349 123.507Z" fill="white"/>
<path d="M606.249 123.507C606.249 124.659 605.318 125.59 604.167 125.59C603.015 125.59 602.084 124.659 602.084 123.507C602.084 122.356 603.015 121.425 604.167 121.425C605.318 121.425 606.249 122.356 606.249 123.507Z" fill="white"/>
<path d="M611.174 123.507C611.174 124.659 610.243 125.59 609.092 125.59C607.94 125.59 607.009 124.659 607.009 123.507C607.009 122.356 607.94 121.425 609.092 121.425C610.243 121.425 611.174 122.356 611.174 123.507Z" fill="white"/>
<path d="M596.449 128.408C596.449 129.559 595.518 130.49 594.366 130.49C593.215 130.49 592.284 129.559 592.284 128.408C592.284 127.256 593.215 126.325 594.366 126.325C595.518 126.325 596.449 127.256 596.449 128.408Z" fill="white"/>
<path d="M616.074 128.408C616.074 129.559 615.143 130.49 613.992 130.49C612.84 130.49 611.909 129.559 611.909 128.408C611.909 127.256 612.84 126.325 613.992 126.325C615.143 126.325 616.074 127.256 616.074 128.408Z" fill="white"/>
<path d="M596.449 133.332C596.449 134.483 595.518 135.414 594.366 135.414C593.215 135.414 592.284 134.483 592.284 133.332C592.284 132.18 593.215 131.249 594.366 131.249C595.518 131.249 596.449 132.18 596.449 133.332Z" fill="white"/>
<path d="M616.074 133.332C616.074 134.483 615.143 135.414 613.992 135.414C612.84 135.414 611.909 134.483 611.909 133.332C611.909 132.18 612.84 131.249 613.992 131.249C615.143 131.249 616.074 132.18 616.074 133.332Z" fill="white"/>
<path d="M596.449 138.232C596.449 139.384 595.518 140.315 594.366 140.315C593.215 140.315 592.284 139.384 592.284 138.232C592.284 137.08 593.215 136.149 594.366 136.149C595.518 136.149 596.449 137.08 596.449 138.232Z" fill="white"/>
<path d="M616.074 138.232C616.074 139.384 615.143 140.315 613.992 140.315C612.84 140.315 611.909 139.384 611.909 138.232C611.909 137.08 612.84 136.149 613.992 136.149C615.143 136.149 616.074 137.08 616.074 138.232Z" fill="white"/>
<path d="M596.449 143.156C596.449 144.307 595.518 145.238 594.366 145.238C593.215 145.238 592.284 144.307 592.284 143.156C592.284 142.004 593.215 141.073 594.366 141.073C595.518 141.073 596.449 142.004 596.449 143.156Z" fill="white"/>
<path d="M601.349 143.156C601.349 144.307 600.418 145.238 599.266 145.238C598.115 145.238 597.184 144.307 597.184 143.156C597.184 142.004 598.115 141.073 599.266 141.073C600.418 141.073 601.349 142.004 601.349 143.156Z" fill="white"/>
<path d="M606.249 143.156C606.249 144.307 605.318 145.238 604.167 145.238C603.015 145.238 602.084 144.307 602.084 143.156C602.084 142.004 603.015 141.073 604.167 141.073C605.318 141.073 606.249 142.004 606.249 143.156Z" fill="white"/>
<path d="M611.174 143.156C611.174 144.307 610.243 145.238 609.092 145.238C607.94 145.238 607.009 144.307 607.009 143.156C607.009 142.004 607.94 141.073 609.092 141.073C610.243 141.073 611.174 142.004 611.174 143.156Z" fill="white"/>
<path d="M616.074 143.156C616.074 144.307 615.143 145.238 613.992 145.238C612.84 145.238 611.909 144.307 611.909 143.156C611.909 142.004 612.84 141.073 613.992 141.073C615.143 141.073 616.074 142.004 616.074 143.156Z" fill="white"/>
<path d="M596.449 148.056C596.449 149.208 595.518 150.139 594.366 150.139C593.215 150.139 592.284 149.208 592.284 148.056C592.284 146.905 593.215 145.974 594.366 145.974C595.518 145.974 596.449 146.905 596.449 148.056Z" fill="white"/>
<path d="M616.074 148.056C616.074 149.208 615.143 150.139 613.992 150.139C612.84 150.139 611.909 149.208 611.909 148.056C611.909 146.905 612.84 145.974 613.992 145.974C615.143 145.974 616.074 146.905 616.074 148.056Z" fill="white"/>
<path d="M596.449 152.983C596.449 154.134 595.518 155.066 594.366 155.066C593.215 155.066 592.284 154.134 592.284 152.983C592.284 151.831 593.215 150.9 594.366 150.9C595.518 150.9 596.449 151.831 596.449 152.983Z" fill="white"/>
<path d="M616.074 152.983C616.074 154.134 615.143 155.066 613.992 155.066C612.84 155.066 611.909 154.134 611.909 152.983C611.909 151.831 612.84 150.9 613.992 150.9C615.143 150.9 616.074 151.831 616.074 152.983Z" fill="white"/>
<path d="M630.824 123.507C630.824 124.659 629.893 125.59 628.742 125.59C627.59 125.59 626.659 124.659 626.659 123.507C626.659 122.356 627.59 121.425 628.742 121.425C629.893 121.425 630.824 122.356 630.824 123.507Z" fill="white"/>
<path d="M650.473 123.507C650.473 124.659 649.542 125.59 648.39 125.59C647.239 125.59 646.308 124.659 646.308 123.507C646.308 122.356 647.239 121.425 648.39 121.425C649.542 121.425 650.473 122.356 650.473 123.507Z" fill="white"/>
<path d="M630.824 128.408C630.824 129.559 629.893 130.49 628.742 130.49C627.59 130.49 626.659 129.559 626.659 128.408C626.659 127.256 627.59 126.325 628.742 126.325C629.893 126.325 630.824 127.256 630.824 128.408Z" fill="white"/>
<path d="M650.473 128.408C650.473 129.559 649.542 130.49 648.39 130.49C647.239 130.49 646.308 129.559 646.308 128.408C646.308 127.256 647.239 126.325 648.39 126.325C649.542 126.325 650.473 127.256 650.473 128.408Z" fill="white"/>
<path d="M630.824 133.332C630.824 134.483 629.893 135.414 628.742 135.414C627.59 135.414 626.659 134.483 626.659 133.332C626.659 132.18 627.59 131.249 628.742 131.249C629.893 131.249 630.824 132.18 630.824 133.332Z" fill="white"/>
<path d="M635.724 133.332C635.724 134.483 634.793 135.414 633.642 135.414C632.49 135.414 631.559 134.483 631.559 133.332C631.559 132.18 632.49 131.249 633.642 131.249C634.793 131.249 635.724 132.18 635.724 133.332Z" fill="white"/>
<path d="M650.473 133.332C650.473 134.483 649.542 135.414 648.39 135.414C647.239 135.414 646.308 134.483 646.308 133.332C646.308 132.18 647.239 131.249 648.39 131.249C649.542 131.249 650.473 132.18 650.473 133.332Z" fill="white"/>
<path d="M630.824 138.232C630.824 139.384 629.893 140.315 628.742 140.315C627.59 140.315 626.659 139.384 626.659 138.232C626.659 137.08 627.59 136.149 628.742 136.149C629.893 136.149 630.824 137.08 630.824 138.232Z" fill="white"/>
<path d="M640.649 138.232C640.649 139.384 639.718 140.315 638.566 140.315C637.414 140.315 636.483 139.384 636.483 138.232C636.483 137.08 637.414 136.149 638.566 136.149C639.718 136.149 640.649 137.08 640.649 138.232Z" fill="white"/>
<path d="M650.473 138.232C650.473 139.384 649.542 140.315 648.39 140.315C647.239 140.315 646.308 139.384 646.308 138.232C646.308 137.08 647.239 136.149 648.39 136.149C649.542 136.149 650.473 137.08 650.473 138.232Z" fill="white"/>
<path d="M630.824 143.156C630.824 144.307 629.893 145.238 628.742 145.238C627.59 145.238 626.659 144.307 626.659 143.156C626.659 142.004 627.59 141.073 628.742 141.073C629.893 141.073 630.824 142.004 630.824 143.156Z" fill="white"/>
<path d="M645.548 143.156C645.548 144.307 644.617 145.238 643.466 145.238C642.314 145.238 641.383 144.307 641.383 143.156C641.383 142.004 642.314 141.073 643.466 141.073C644.617 141.073 645.548 142.004 645.548 143.156Z" fill="white"/>
<path d="M650.473 143.156C650.473 144.307 649.542 145.238 648.39 145.238C647.239 145.238 646.308 144.307 646.308 143.156C646.308 142.004 647.239 141.073 648.39 141.073C649.542 141.073 650.473 142.004 650.473 143.156Z" fill="white"/>
<path d="M630.824 148.056C630.824 149.208 629.893 150.139 628.742 150.139C627.59 150.139 626.659 149.208 626.659 148.056C626.659 146.905 627.59 145.974 628.742 145.974C629.893 145.974 630.824 146.905 630.824 148.056Z" fill="white"/>
<path d="M650.473 148.056C650.473 149.208 649.542 150.139 648.39 150.139C647.239 150.139 646.308 149.208 646.308 148.056C646.308 146.905 647.239 145.974 648.39 145.974C649.542 145.974 650.473 146.905 650.473 148.056Z" fill="white"/>
<path d="M630.824 152.983C630.824 154.134 629.893 155.066 628.742 155.066C627.59 155.066 626.659 154.134 626.659 152.983C626.659 151.831 627.59 150.9 628.742 150.9C629.893 150.9 630.824 151.831 630.824 152.983Z" fill="white"/>
<path d="M650.473 152.983C650.473 154.134 649.542 155.066 648.39 155.066C647.239 155.066 646.308 154.134 646.308 152.983C646.308 151.831 647.239 150.9 648.39 150.9C649.542 150.9 650.473 151.831 650.473 152.983Z" fill="white"/>
<path d="M670.122 123.507C670.122 124.659 669.191 125.59 668.04 125.59C666.888 125.59 665.957 124.659 665.957 123.507C665.957 122.356 666.888 121.425 668.04 121.425C669.191 121.425 670.122 122.356 670.122 123.507Z" fill="white"/>
<path d="M675.023 123.507C675.023 124.659 674.092 125.59 672.94 125.59C671.788 125.59 670.857 124.659 670.857 123.507C670.857 122.356 671.788 121.425 672.94 121.425C674.092 121.425 675.023 122.356 675.023 123.507Z" fill="white"/>
<path d="M679.948 123.507C679.948 124.659 679.017 125.59 677.865 125.59C676.714 125.59 675.783 124.659 675.783 123.507C675.783 122.356 676.714 121.425 677.865 121.425C679.017 121.425 679.948 122.356 679.948 123.507Z" fill="white"/>
<path d="M665.198 128.408C665.198 129.559 664.267 130.49 663.116 130.49C661.964 130.49 661.033 129.559 661.033 128.408C661.033 127.256 661.964 126.325 663.116 126.325C664.267 126.325 665.198 127.256 665.198 128.408Z" fill="white"/>
<path d="M684.848 128.408C684.848 129.559 683.917 130.49 682.766 130.49C681.614 130.49 680.683 129.559 680.683 128.408C680.683 127.256 681.614 126.325 682.766 126.325C683.917 126.325 684.848 127.256 684.848 128.408Z" fill="white"/>
<path d="M665.198 133.332C665.198 134.483 664.267 135.414 663.116 135.414C661.964 135.414 661.033 134.483 661.033 133.332C661.033 132.18 661.964 131.249 663.116 131.249C664.267 131.249 665.198 132.18 665.198 133.332Z" fill="white"/>
<path d="M684.848 133.332C684.848 134.483 683.917 135.414 682.766 135.414C681.614 135.414 680.683 134.483 680.683 133.332C680.683 132.18 681.614 131.249 682.766 131.249C683.917 131.249 684.848 132.18 684.848 133.332Z" fill="white"/>
<path d="M665.198 138.232C665.198 139.384 664.267 140.315 663.116 140.315C661.964 140.315 661.033 139.384 661.033 138.232C661.033 137.08 661.964 136.149 663.116 136.149C664.267 136.149 665.198 137.08 665.198 138.232Z" fill="white"/>
<path d="M684.848 138.232C684.848 139.384 683.917 140.315 682.766 140.315C681.614 140.315 680.683 139.384 680.683 138.232C680.683 137.08 681.614 136.149 682.766 136.149C683.917 136.149 684.848 137.08 684.848 138.232Z" fill="white"/>
<path d="M665.198 143.156C665.198 144.307 664.267 145.238 663.116 145.238C661.964 145.238 661.033 144.307 661.033 143.156C661.033 142.004 661.964 141.073 663.116 141.073C664.267 141.073 665.198 142.004 665.198 143.156Z" fill="white"/>
<path d="M670.122 143.156C670.122 144.307 669.191 145.238 668.04 145.238C666.888 145.238 665.957 144.307 665.957 143.156C665.957 142.004 666.888 141.073 668.04 141.073C669.191 141.073 670.122 142.004 670.122 143.156Z" fill="white"/>
<path d="M675.023 143.156C675.023 144.307 674.092 145.238 672.94 145.238C671.788 145.238 670.857 144.307 670.857 143.156C670.857 142.004 671.788 141.073 672.94 141.073C674.092 141.073 675.023 142.004 675.023 143.156Z" fill="white"/>
<path d="M679.948 143.156C679.948 144.307 679.017 145.238 677.865 145.238C676.714 145.238 675.783 144.307 675.783 143.156C675.783 142.004 676.714 141.073 677.865 141.073C679.017 141.073 679.948 142.004 679.948 143.156Z" fill="white"/>
<path d="M684.848 143.156C684.848 144.307 683.917 145.238 682.766 145.238C681.614 145.238 680.683 144.307 680.683 143.156C680.683 142.004 681.614 141.073 682.766 141.073C683.917 141.073 684.848 142.004 684.848 143.156Z" fill="white"/>
<path d="M665.198 148.056C665.198 149.208 664.267 150.139 663.116 150.139C661.964 150.139 661.033 149.208 661.033 148.056C661.033 146.905 661.964 145.974 663.116 145.974C664.267 145.974 665.198 146.905 665.198 148.056Z" fill="white"/>
<path d="M684.848 148.056C684.848 149.208 683.917 150.139 682.766 150.139C681.614 150.139 680.683 149.208 680.683 148.056C680.683 146.905 681.614 145.974 682.766 145.974C683.917 145.974 684.848 146.905 684.848 148.056Z" fill="white"/>
<path d="M665.198 152.983C665.198 154.134 664.267 155.066 663.116 155.066C661.964 155.066 661.033 154.134 661.033 152.983C661.033 151.831 661.964 150.9 663.116 150.9C664.267 150.9 665.198 151.831 665.198 152.983Z" fill="white"/>
<path d="M684.848 152.983C684.848 154.134 683.917 155.066 682.766 155.066C681.614 155.066 680.683 154.134 680.683 152.983C680.683 151.831 681.614 150.9 682.766 150.9C683.917 150.9 684.848 151.831 684.848 152.983Z" fill="white"/>
<path d="M636.166 184.221C636.166 185.373 635.235 186.304 634.083 186.304C632.932 186.304 632 185.373 632 184.221C632 183.07 632.932 182.139 634.083 182.139C635.235 182.139 636.166 183.07 636.166 184.221Z" fill="white"/>
<path d="M641.09 184.221C641.09 185.373 640.159 186.304 639.007 186.304C637.856 186.304 636.925 185.373 636.925 184.221C636.925 183.07 637.856 182.139 639.007 182.139C640.159 182.139 641.09 183.07 641.09 184.221Z" fill="white"/>
<path d="M645.99 184.221C645.99 185.373 645.059 186.304 643.907 186.304C642.756 186.304 641.825 185.373 641.825 184.221C641.825 183.07 642.756 182.139 643.907 182.139C645.059 182.139 645.99 183.07 645.99 184.221Z" fill="white"/>
<path d="M631.266 189.146C631.266 190.298 630.335 191.229 629.183 191.229C628.032 191.229 627.101 190.298 627.101 189.146C627.101 187.995 628.032 187.063 629.183 187.063C630.335 187.063 631.266 187.995 631.266 189.146Z" fill="white"/>
<path d="M650.915 189.146C650.915 190.298 649.984 191.229 648.833 191.229C647.681 191.229 646.75 190.298 646.75 189.146C646.75 187.995 647.681 187.063 648.833 187.063C649.984 187.063 650.915 187.995 650.915 189.146Z" fill="white"/>
<path d="M631.266 194.045C631.266 195.197 630.335 196.128 629.183 196.128C628.032 196.128 627.101 195.197 627.101 194.045C627.101 192.894 628.032 191.963 629.183 191.963C630.335 191.963 631.266 192.894 631.266 194.045Z" fill="white"/>
<path d="M636.166 194.045C636.166 195.197 635.235 196.128 634.083 196.128C632.932 196.128 632 195.197 632 194.045C632 192.894 632.932 191.963 634.083 191.963C635.235 191.963 636.166 192.894 636.166 194.045Z" fill="white"/>
<path d="M650.915 194.045C650.915 195.197 649.984 196.128 648.833 196.128C647.681 196.128 646.75 195.197 646.75 194.045C646.75 192.894 647.681 191.963 648.833 191.963C649.984 191.963 650.915 192.894 650.915 194.045Z" fill="white"/>
<path d="M631.266 198.972C631.266 200.124 630.335 201.055 629.183 201.055C628.032 201.055 627.101 200.124 627.101 198.972C627.101 197.821 628.032 196.89 629.183 196.89C630.335 196.89 631.266 197.821 631.266 198.972Z" fill="white"/>
<path d="M641.09 198.972C641.09 200.124 640.159 201.055 639.007 201.055C637.856 201.055 636.925 200.124 636.925 198.972C636.925 197.821 637.856 196.89 639.007 196.89C640.159 196.89 641.09 197.821 641.09 198.972Z" fill="white"/>
<path d="M650.915 198.972C650.915 200.124 649.984 201.055 648.833 201.055C647.681 201.055 646.75 200.124 646.75 198.972C646.75 197.821 647.681 196.89 648.833 196.89C649.984 196.89 650.915 197.821 650.915 198.972Z" fill="white"/>
<path d="M631.266 203.873C631.266 205.024 630.335 205.955 629.183 205.955C628.032 205.955 627.101 205.024 627.101 203.873C627.101 202.721 628.032 201.79 629.183 201.79C630.335 201.79 631.266 202.721 631.266 203.873Z" fill="white"/>
<path d="M645.99 203.873C645.99 205.024 645.059 205.955 643.907 205.955C642.756 205.955 641.825 205.024 641.825 203.873C641.825 202.721 642.756 201.79 643.907 201.79C645.059 201.79 645.99 202.721 645.99 203.873Z" fill="white"/>
<path d="M650.915 203.873C650.915 205.024 649.984 205.955 648.833 205.955C647.681 205.955 646.75 205.024 646.75 203.873C646.75 202.721 647.681 201.79 648.833 201.79C649.984 201.79 650.915 202.721 650.915 203.873Z" fill="white"/>
<path d="M631.266 208.796C631.266 209.948 630.335 210.879 629.183 210.879C628.032 210.879 627.101 209.948 627.101 208.796C627.101 207.645 628.032 206.714 629.183 206.714C630.335 206.714 631.266 207.645 631.266 208.796Z" fill="white"/>
<path d="M650.915 208.796C650.915 209.948 649.984 210.879 648.833 210.879C647.681 210.879 646.75 209.948 646.75 208.796C646.75 207.645 647.681 206.714 648.833 206.714C649.984 206.714 650.915 207.645 650.915 208.796Z" fill="white"/>
<path d="M636.166 213.697C636.166 214.848 635.235 215.779 634.083 215.779C632.932 215.779 632 214.848 632 213.697C632 212.545 632.932 211.614 634.083 211.614C635.235 211.614 636.166 212.545 636.166 213.697Z" fill="white"/>
<path d="M641.09 213.697C641.09 214.848 640.159 215.779 639.007 215.779C637.856 215.779 636.925 214.848 636.925 213.697C636.925 212.545 637.856 211.614 639.007 211.614C640.159 211.614 641.09 212.545 641.09 213.697Z" fill="white"/>
<path d="M645.99 213.697C645.99 214.848 645.059 215.779 643.907 215.779C642.756 215.779 641.825 214.848 641.825 213.697C641.825 212.545 642.756 211.614 643.907 211.614C645.059 211.614 645.99 212.545 645.99 213.697Z" fill="white"/>
<path d="M670.54 184.221C670.54 185.373 669.609 186.304 668.458 186.304C667.306 186.304 666.375 185.373 666.375 184.221C666.375 183.07 667.306 182.139 668.458 182.139C669.609 182.139 670.54 183.07 670.54 184.221Z" fill="white"/>
<path d="M675.465 184.221C675.465 185.373 674.534 186.304 673.382 186.304C672.231 186.304 671.3 185.373 671.3 184.221C671.3 183.07 672.231 182.139 673.382 182.139C674.534 182.139 675.465 183.07 675.465 184.221Z" fill="white"/>
<path d="M665.64 184.221C665.64 185.373 664.709 186.304 663.557 186.304C662.406 186.304 661.475 185.373 661.475 184.221C661.475 183.07 662.406 182.139 663.557 182.139C664.709 182.139 665.64 183.07 665.64 184.221Z" fill="white"/>
<path d="M675.465 189.146C675.465 190.298 674.534 191.229 673.382 191.229C672.231 191.229 671.3 190.298 671.3 189.146C671.3 187.995 672.231 187.063 673.382 187.063C674.534 187.063 675.465 187.995 675.465 189.146Z" fill="white"/>
<path d="M675.465 194.045C675.465 195.197 674.534 196.128 673.382 196.128C672.231 196.128 671.3 195.197 671.3 194.045C671.3 192.894 672.231 191.963 673.382 191.963C674.534 191.963 675.465 192.894 675.465 194.045Z" fill="white"/>
<path d="M675.465 198.972C675.465 200.124 674.534 201.055 673.382 201.055C672.231 201.055 671.3 200.124 671.3 198.972C671.3 197.821 672.231 196.89 673.382 196.89C674.534 196.89 675.465 197.821 675.465 198.972Z" fill="white"/>
<path d="M675.465 203.873C675.465 205.024 674.534 205.955 673.382 205.955C672.231 205.955 671.3 205.024 671.3 203.873C671.3 202.721 672.231 201.79 673.382 201.79C674.534 201.79 675.465 202.721 675.465 203.873Z" fill="white"/>
<path d="M675.465 208.796C675.465 209.948 674.534 210.879 673.382 210.879C672.231 210.879 671.3 209.948 671.3 208.796C671.3 207.645 672.231 206.714 673.382 206.714C674.534 206.714 675.465 207.645 675.465 208.796Z" fill="white"/>
<path d="M665.64 213.697C665.64 214.848 664.709 215.779 663.557 215.779C662.406 215.779 661.475 214.848 661.475 213.697C661.475 212.545 662.406 211.614 663.557 211.614C664.709 211.614 665.64 212.545 665.64 213.697Z" fill="white"/>
<path d="M670.54 213.697C670.54 214.848 669.609 215.779 668.458 215.779C667.306 215.779 666.375 214.848 666.375 213.697C666.375 212.545 667.306 211.614 668.458 211.614C669.609 211.614 670.54 212.545 670.54 213.697Z" fill="white"/>
<path d="M675.465 213.697C675.465 214.848 674.534 215.779 673.382 215.779C672.231 215.779 671.3 214.848 671.3 213.697C671.3 212.545 672.231 211.614 673.382 211.614C674.534 211.614 675.465 212.545 675.465 213.697Z" fill="white"/>
<path d="M680.389 213.697C680.389 214.848 679.458 215.779 678.307 215.779C677.155 215.779 676.224 214.848 676.224 213.697C676.224 212.545 677.155 211.614 678.307 211.614C679.458 211.614 680.389 212.545 680.389 213.697Z" fill="white"/>
<path d="M685.29 213.697C685.29 214.848 684.359 215.779 683.207 215.779C682.055 215.779 681.125 214.848 681.125 213.697C681.125 212.545 682.055 211.614 683.207 211.614C684.359 211.614 685.29 212.545 685.29 213.697Z" fill="white"/>
<path d="M71.7626 39.2749L74.3842 57.8955C74.3842 57.8955 75.0947 60.0516 77.7408 60.0516C80.3869 60.0516 81.0974 57.8955 81.0974 57.8955L83.719 39.2749C91.9023 36.7268 97.8805 29.156 97.8805 20.1397C97.8805 9.01629 88.8642 0 77.7408 0C66.6174 0 57.6011 9.01629 57.6011 20.1397C57.6011 29.1805 63.5793 36.7268 71.7626 39.2749Z" fill="white"/>
<path d="M83.9402 116.476L81.3186 97.8553C81.3186 97.8553 80.6081 95.6992 77.962 95.6992C75.3159 95.6992 74.6054 97.8553 74.6054 97.8553L71.9838 116.476C63.8005 119.024 57.8223 126.595 57.8223 135.611C57.8223 146.735 66.8386 155.751 77.962 155.751C89.0854 155.751 98.1017 146.735 98.1017 135.611C98.1017 126.57 92.1235 119.024 83.9402 116.476Z" fill="white"/>
<path d="M46.2335 54.8821L61.277 66.2015C61.277 66.2015 63.3106 67.2305 65.1727 65.3684C67.0347 63.5064 66.0057 61.4728 66.0057 61.4728L54.6863 46.4293C58.6799 38.834 57.5529 29.2542 51.1827 22.8839C43.3179 15.0192 30.5529 15.0192 22.6881 22.8839C14.8234 30.7487 14.8234 43.5137 22.6881 51.3539C29.0829 57.7487 38.6382 58.8512 46.2335 54.8821Z" fill="white"/>
<path d="M109.446 100.871L94.4024 89.5512C94.4024 89.5512 92.3689 88.5222 90.5068 90.3842C88.6447 92.2463 89.6738 94.2799 89.6738 94.2799L100.993 109.299C96.9995 116.894 98.1266 126.474 104.497 132.844C112.362 140.709 125.127 140.709 132.991 132.844C140.856 124.979 140.856 112.215 132.991 104.35C126.597 97.955 117.041 96.8525 109.446 100.822V100.871Z" fill="white"/>
<path d="M39.2504 83.9656L57.8956 81.344C57.8956 81.344 60.0516 80.6335 60.0516 77.9874C60.0516 75.3413 57.8956 74.6308 57.8956 74.6308L39.2749 72.0092C36.7268 63.8259 29.156 57.8477 20.1397 57.8477C9.01632 57.8477 0 66.864 0 77.9874C0 89.1108 9.01632 98.1271 20.1397 98.1271C29.1805 98.1271 36.7268 92.1489 39.2749 83.9656H39.2504Z" fill="white"/>
<path d="M116.452 71.7865L97.8314 74.4081C97.8314 74.4081 95.6753 75.1186 95.6753 77.7402C95.6753 80.3618 97.8314 81.0968 97.8314 81.0968L116.452 83.7185C119 91.9017 126.571 97.9044 135.587 97.9044C146.711 97.9044 155.727 88.8881 155.727 77.7647C155.727 66.6413 146.711 57.625 135.587 57.625C126.546 57.625 119 63.6032 116.452 71.7865Z" fill="white"/>
<path d="M54.8572 109.47L66.1766 94.4264C66.1766 94.4264 67.2056 92.3928 65.3436 90.5307C63.4815 88.6687 61.4479 89.6977 61.4479 89.6977L46.4044 101.017C38.8091 97.0235 29.2293 98.1505 22.859 104.521C14.9943 112.385 14.9943 125.15 22.859 133.015C30.7238 140.88 43.4643 140.905 51.3535 133.015C57.7483 126.621 58.8508 117.065 54.8817 109.47H54.8572Z" fill="white"/>
<path d="M100.821 46.2832L89.5014 61.3267C89.5014 61.3267 88.4724 63.3603 90.3344 65.2224C92.1965 67.0844 94.2301 66.0554 94.2301 66.0554L109.274 54.736C116.869 58.7296 126.449 57.6026 132.819 51.2323C140.684 43.3676 140.684 30.6026 132.819 22.7379C124.954 14.8731 112.214 14.8486 104.324 22.7379C97.9297 29.1326 96.8272 38.6879 100.796 46.2832H100.821Z" fill="white"/>
</svg>
