<svg width="41" height="41" viewBox="0 0 41 41" fill="none" xmlns="http://www.w3.org/2000/svg">
<path d="M29.5829 1H10.5276C5.26566 1 1 5.26566 1 10.5276V29.5829C1 34.8448 5.26566 39.1105 10.5276 39.1105H29.5829C34.8448 39.1105 39.1105 34.8448 39.1105 29.5829V10.5276C39.1105 5.26566 34.8448 1 29.5829 1Z" stroke="#F0514D" stroke-width="2" stroke-linecap="round" stroke-linejoin="round"/>
<path d="M27.6779 18.8548C27.913 20.4406 27.6422 22.0603 26.9038 23.4833C26.1654 24.9064 24.9971 26.0604 23.565 26.7811C22.133 27.5019 20.5101 27.7528 18.9273 27.4981C17.3445 27.2434 15.8822 26.4961 14.7486 25.3625C13.6149 24.2288 12.8676 22.7666 12.6129 21.1837C12.3582 19.6009 12.6091 17.978 13.3299 16.546C14.0507 15.114 15.2047 13.9457 16.6277 13.2073C18.0508 12.4689 19.6704 12.198 21.2563 12.4332C22.8739 12.673 24.3715 13.4268 25.5279 14.5832C26.6842 15.7395 27.438 17.2371 27.6779 18.8548Z" stroke="#F0514D" stroke-width="2" stroke-linecap="round" stroke-linejoin="round"/>
<path d="M30.5356 9.57489H30.5558" stroke="#F0514D" stroke-width="2" stroke-linecap="round" stroke-linejoin="round"/>
</svg>
