<svg width="42" height="40" viewBox="0 0 42 40" fill="none" xmlns="http://www.w3.org/2000/svg">
<path d="M29.0847 12.9149C32.2447 12.9149 35.2753 14.1702 37.5098 16.4046C39.7442 18.6391 40.9996 21.6697 40.9996 24.8297V38.7303H33.0563V24.8297C33.0563 23.7763 32.6379 22.7661 31.8931 22.0213C31.1483 21.2765 30.1381 20.8581 29.0847 20.8581C28.0314 20.8581 27.0212 21.2765 26.2764 22.0213C25.5316 22.7661 25.1131 23.7763 25.1131 24.8297V38.7303H17.1699V24.8297C17.1699 21.6697 18.4252 18.6391 20.6597 16.4046C22.8942 14.1702 25.9247 12.9149 29.0847 12.9149Z" stroke="#F0514D" stroke-width="2" stroke-linecap="round" stroke-linejoin="round"/>
<path d="M9.2269 14.9006H1.28369V38.7303H9.2269V14.9006Z" stroke="#F0514D" stroke-width="2" stroke-linecap="round" stroke-linejoin="round"/>
<path d="M5.2553 8.94321C7.44875 8.94321 9.2269 7.16506 9.2269 4.97161C9.2269 2.77815 7.44875 1 5.2553 1C3.06184 1 1.28369 2.77815 1.28369 4.97161C1.28369 7.16506 3.06184 8.94321 5.2553 8.94321Z" stroke="#F0514D" stroke-width="2" stroke-linecap="round" stroke-linejoin="round"/>
</svg>
