<svg width="236" height="219" viewBox="0 0 236 219" fill="none" xmlns="http://www.w3.org/2000/svg">
<path d="M128.062 66.438C128.143 69.0793 128.182 72.1998 128.56 75.2886C128.402 77.6102 129.012 79.9169 130.167 81.979C130.576 82.9928 131.068 83.9501 131.666 84.8253C133.395 89.4654 138.994 91.4969 143.835 92.6314C153.205 94.8282 162.522 94.9807 172.036 95.5015C184.122 96.1628 204.985 92.0721 204.113 76.437C204.527 73.1512 204.687 69.7961 204.566 66.4757C204.976 56.9033 203.988 47.332 203.673 37.8706C203.654 37.2924 204.087 36.7856 203.673 36.6351C202.371 29.3922 196.626 21.7999 188.891 21.6158C183.399 20.2525 177.068 20.3426 171.562 20.1129C165.036 19.8407 158.484 20.0367 152.008 20.904C143.441 22.0504 131.326 25.2223 130.125 35.0481C128.888 39.4209 128.845 44.4194 128.531 48.8368C128.115 54.6837 127.881 60.5782 128.062 66.438Z" fill="#F0514D"/>
<path d="M149.701 72.3591H157.432V47.8863H149.701V72.3591ZM153.569 35.7222C151.091 35.7222 149.089 37.7002 149.089 40.1356C149.089 42.9442 151.755 45.1381 154.741 44.3965C156.251 44.0213 157.49 42.8135 157.886 41.3315C158.676 38.3813 156.433 35.7222 153.569 35.7222ZM177.112 47.2824C173.353 47.2824 170.831 49.3089 169.8 51.2345H169.695V47.8863H162.28V72.3591H170.006V60.2544C170.006 57.0626 170.62 53.9679 174.64 53.9679C178.608 53.9679 178.658 57.62 178.658 60.4583V72.3591H186.384V58.9367C186.384 52.3492 184.939 47.2824 177.112 47.2824Z" fill="white"/>
<path d="M183.273 149.1C183.192 146.459 183.153 143.338 182.775 140.249C182.933 137.928 182.323 135.621 181.168 133.559C180.759 132.545 180.267 131.588 179.669 130.713C177.94 126.073 172.341 124.041 167.5 122.907C158.13 120.71 148.813 120.557 139.299 120.037C127.213 119.375 106.35 123.466 107.221 139.101C106.808 142.387 106.648 145.742 106.769 149.062C106.359 158.635 107.347 168.206 107.662 177.668C107.681 178.246 107.248 178.753 107.662 178.903C108.964 186.146 114.709 193.738 122.444 193.922C127.936 195.286 134.267 195.195 139.773 195.425C146.299 195.697 152.851 195.501 159.327 194.634C167.894 193.488 180.009 190.316 181.21 180.49C182.447 176.117 182.49 171.119 182.804 166.701C183.22 160.854 183.454 154.96 183.273 149.1Z" fill="#F0514D"/>
<path d="M161.583 152.019C160.426 152.059 159.325 152.525 158.489 153.308C154.808 150.841 150.484 149.488 146.039 149.393L148.137 139.467L155.057 140.899C155.25 142.647 156.842 143.912 158.617 143.722C160.394 143.532 161.68 141.966 161.487 140.219C161.293 138.47 159.703 137.205 157.926 137.395C156.905 137.498 155.989 138.083 155.483 138.953L147.558 137.395C147.02 137.276 146.481 137.609 146.361 138.147C146.361 138.154 146.361 138.154 146.361 138.162L143.974 149.204C139.473 149.275 135.093 150.635 131.364 153.118C129.468 151.363 126.477 151.449 124.693 153.324C122.909 155.19 122.997 158.133 124.902 159.889C125.273 160.229 125.698 160.522 126.173 160.727C126.141 161.194 126.141 161.661 126.173 162.127C126.173 169.253 134.611 175.051 145.019 175.051C155.427 175.051 163.866 169.261 163.866 162.127C163.898 161.661 163.898 161.194 163.866 160.727C165.489 159.929 166.511 158.283 166.477 156.496C166.381 153.933 164.196 151.932 161.583 152.019ZM134.144 159.683C134.144 157.928 135.599 156.495 137.384 156.495C139.167 156.495 140.623 157.927 140.623 159.683C140.623 161.439 139.168 162.871 137.384 162.871C135.592 162.855 134.144 161.439 134.144 159.683ZM152.928 168.557V168.431C150.629 170.131 147.816 171.001 144.939 170.883C142.062 171.002 139.249 170.131 136.95 168.431C136.645 168.066 136.701 167.521 137.071 167.221C137.392 166.959 137.851 166.959 138.181 167.221C140.125 168.621 142.496 169.333 144.908 169.222C147.319 169.348 149.698 168.668 151.667 167.284C152.02 166.944 152.6 166.952 152.945 167.3C153.289 167.648 153.281 168.218 152.928 168.557ZM152.486 163.1H152.325L152.349 162.982C150.564 162.982 149.111 161.55 149.111 159.794C149.111 158.039 150.565 156.607 152.349 156.607C154.134 156.607 155.588 158.039 155.588 159.794C155.66 161.55 154.269 163.029 152.486 163.1Z" fill="white"/>
<path d="M13.0619 83.1304C13.1434 80.489 13.1816 77.3685 13.5599 74.2797C13.4019 71.9582 14.0116 69.6515 15.1675 67.5893C15.5759 66.5756 16.0678 65.6182 16.6664 64.7431C18.3947 60.1029 23.9941 58.0715 28.835 56.9369C38.2049 54.7401 47.5224 54.5876 57.0362 54.0669C69.1223 53.4056 89.9847 57.4963 89.1135 73.1313C89.527 76.4172 89.6869 79.7722 89.5662 83.0927C89.9756 92.665 88.9879 102.236 88.673 111.698C88.6539 112.276 89.0873 112.783 88.6729 112.933C87.3711 120.176 81.6258 127.768 73.8907 127.953C68.399 129.316 62.0682 129.226 56.5624 129.455C50.0364 129.728 43.4843 129.532 37.0077 128.664C28.4406 127.518 16.3264 124.346 15.1252 114.52C13.8878 110.147 13.8446 105.149 13.5307 100.732C13.1152 94.8846 12.8808 88.9902 13.0619 83.1304Z" fill="#F0514D"/>
<path d="M59.0885 72H43.5086C36.6004 72 31 77.5113 31 84.3106V99.6408C31 106.438 36.5994 111.948 43.5086 111.948H59.0885C65.9967 111.948 71.5951 106.438 71.5951 99.6408V84.3097C71.5951 77.5103 65.9967 72 59.0885 72ZM67.6989 98.1697C67.6989 103.664 63.1729 108.115 57.5926 108.115H45.0025C39.4202 108.115 34.8952 103.664 34.8952 98.1697V85.7788C34.8952 80.2883 39.4202 75.8323 45.0025 75.8323H57.5926C63.1719 75.8323 67.6989 80.2873 67.6989 85.7788V98.1697Z" fill="white"/>
<path d="M51.8422 81.522C45.935 81.522 41.1475 86.2314 41.1475 92.0437C41.1475 97.853 45.935 102.566 51.8422 102.566C57.7474 102.566 62.535 97.853 62.535 92.0437C62.535 86.2314 57.7474 81.522 51.8422 81.522ZM51.8422 98.3747C48.286 98.3747 45.4079 95.5394 45.4079 92.0447C45.4079 88.546 48.287 85.7136 51.8422 85.7136C55.3944 85.7136 58.2746 88.546 58.2746 92.0447C58.2746 95.5394 55.3944 98.3747 51.8422 98.3747Z" fill="white"/>
<path d="M61.7934 78.6797C60.2925 78.6797 59.0752 79.8796 59.0752 81.3566C59.0752 82.8347 60.2914 84.0326 61.7934 84.0326C63.2933 84.0326 64.5136 82.8347 64.5136 81.3566C64.5136 79.8806 63.2933 78.6797 61.7934 78.6797Z" fill="white"/>
</svg>
